G04 #@! TF.FileFunction,Copper,L1,Top,Signal*
%FSLAX46Y46*%
G04 Gerber Fmt 4.6, Leading zero omitted, Abs format (unit mm)*
G04 Created by KiCad (PCBNEW 4.0.7) date 07/19/18 08:55:47*
%MOMM*%
%LPD*%
G01*
G04 APERTURE LIST*
%ADD10C,0.100000*%
%ADD11C,0.010000*%
%ADD12C,1.700000*%
%ADD13O,1.700000X1.700000*%
G04 APERTURE END LIST*
D10*
D11*
G36*
X180037707Y-82016627D02*
X180182405Y-82020140D01*
X180292817Y-82024243D01*
X180376991Y-82029850D01*
X180442973Y-82037878D01*
X180498811Y-82049243D01*
X180552550Y-82064860D01*
X180597550Y-82080355D01*
X180752525Y-82150075D01*
X180887901Y-82243921D01*
X181013265Y-82369190D01*
X181071293Y-82440785D01*
X181139692Y-82528362D01*
X181220731Y-82629642D01*
X181299568Y-82726128D01*
X181318615Y-82749033D01*
X181410304Y-82861050D01*
X181482193Y-82955828D01*
X181542684Y-83046251D01*
X181600178Y-83145202D01*
X181663079Y-83265564D01*
X181688267Y-83315816D01*
X181819708Y-83615515D01*
X181928253Y-83941440D01*
X182014732Y-84296741D01*
X182079974Y-84684569D01*
X182105937Y-84901617D01*
X182122319Y-85094877D01*
X182135354Y-85325239D01*
X182145106Y-85587608D01*
X182151641Y-85876892D01*
X182155024Y-86187995D01*
X182155322Y-86515825D01*
X182152599Y-86855286D01*
X182146920Y-87201286D01*
X182138352Y-87548731D01*
X182126960Y-87892526D01*
X182112809Y-88227577D01*
X182095964Y-88548791D01*
X182076492Y-88851074D01*
X182054458Y-89129332D01*
X182051116Y-89166700D01*
X181944441Y-90130410D01*
X181800631Y-91084411D01*
X181620337Y-92025783D01*
X181404211Y-92951605D01*
X181152907Y-93858956D01*
X180867075Y-94744917D01*
X180704109Y-95198628D01*
X180600803Y-95472474D01*
X180506085Y-95715916D01*
X180420771Y-95926986D01*
X180345674Y-96103720D01*
X180281610Y-96244152D01*
X180229392Y-96346316D01*
X180226064Y-96352225D01*
X180018034Y-96756119D01*
X179850878Y-97163345D01*
X179849317Y-97167700D01*
X179813657Y-97262813D01*
X179771305Y-97366949D01*
X179720972Y-97482689D01*
X179661369Y-97612612D01*
X179591209Y-97759298D01*
X179509203Y-97925329D01*
X179414062Y-98113285D01*
X179304498Y-98325745D01*
X179179222Y-98565290D01*
X179036945Y-98834501D01*
X178876380Y-99135957D01*
X178728908Y-99411367D01*
X178564020Y-99720283D01*
X178400880Y-100028973D01*
X178240999Y-100334419D01*
X178085891Y-100633603D01*
X177937069Y-100923509D01*
X177796045Y-101201120D01*
X177664332Y-101463418D01*
X177543443Y-101707385D01*
X177434890Y-101930006D01*
X177340188Y-102128261D01*
X177260848Y-102299135D01*
X177198383Y-102439610D01*
X177154307Y-102546669D01*
X177146551Y-102567278D01*
X177059350Y-102827403D01*
X176981829Y-103102548D01*
X176919034Y-103373699D01*
X176888253Y-103540343D01*
X176869519Y-103638354D01*
X176841865Y-103761713D01*
X176808872Y-103895326D01*
X176774120Y-104024096D01*
X176770641Y-104036283D01*
X176715327Y-104244106D01*
X176659441Y-104481821D01*
X176605449Y-104737096D01*
X176555815Y-104997599D01*
X176513002Y-105250999D01*
X176479476Y-105484964D01*
X176476661Y-105507367D01*
X176453086Y-105706119D01*
X176433931Y-105889015D01*
X176418899Y-106063184D01*
X176407697Y-106235752D01*
X176400028Y-106413850D01*
X176395597Y-106604606D01*
X176394110Y-106815148D01*
X176395271Y-107052606D01*
X176398785Y-107324107D01*
X176399526Y-107370033D01*
X176403494Y-107667039D01*
X176404769Y-107928996D01*
X176403106Y-108163118D01*
X176398258Y-108376619D01*
X176389980Y-108576714D01*
X176378025Y-108770615D01*
X176362148Y-108965537D01*
X176342103Y-109168694D01*
X176336356Y-109222117D01*
X176287521Y-109613764D01*
X176223706Y-110029708D01*
X176144464Y-110472111D01*
X176049346Y-110943135D01*
X175937905Y-111444943D01*
X175809692Y-111979696D01*
X175664259Y-112549557D01*
X175583905Y-112852200D01*
X175531590Y-113045945D01*
X175488225Y-113204018D01*
X175452170Y-113331737D01*
X175421790Y-113434417D01*
X175395446Y-113517376D01*
X175371501Y-113585930D01*
X175348317Y-113645396D01*
X175324258Y-113701091D01*
X175318657Y-113713426D01*
X175289075Y-113789568D01*
X175267985Y-113874663D01*
X175252734Y-113981384D01*
X175244908Y-114065691D01*
X175236283Y-114161684D01*
X175223579Y-114288273D01*
X175208014Y-114434054D01*
X175190805Y-114587621D01*
X175173635Y-114733702D01*
X175137822Y-115062032D01*
X175112344Y-115366226D01*
X175097240Y-115643589D01*
X175092545Y-115891427D01*
X175098297Y-116107046D01*
X175114533Y-116287750D01*
X175141290Y-116430846D01*
X175149839Y-116461117D01*
X175172122Y-116520166D01*
X175211219Y-116609828D01*
X175263807Y-116723475D01*
X175326566Y-116854482D01*
X175396173Y-116996222D01*
X175469307Y-117142069D01*
X175542646Y-117285397D01*
X175612869Y-117419580D01*
X175676654Y-117537990D01*
X175730680Y-117634003D01*
X175770552Y-117699367D01*
X175811443Y-117759024D01*
X175863947Y-117830979D01*
X175930035Y-117917686D01*
X176011678Y-118021600D01*
X176110848Y-118145176D01*
X176229515Y-118290868D01*
X176369650Y-118461130D01*
X176533226Y-118658417D01*
X176722212Y-118885184D01*
X176739485Y-118905867D01*
X176997429Y-119216759D01*
X177228370Y-119499725D01*
X177434380Y-119757609D01*
X177617531Y-119993252D01*
X177779895Y-120209499D01*
X177923545Y-120409192D01*
X178050551Y-120595175D01*
X178162988Y-120770289D01*
X178262926Y-120937380D01*
X178352439Y-121099288D01*
X178388144Y-121167835D01*
X178537742Y-121506212D01*
X178647655Y-121857639D01*
X178717737Y-122220048D01*
X178747844Y-122591371D01*
X178737832Y-122969541D01*
X178687557Y-123352490D01*
X178596874Y-123738149D01*
X178573089Y-123817975D01*
X178376330Y-124389164D01*
X178138535Y-124962013D01*
X177860811Y-125534170D01*
X177544265Y-126103284D01*
X177341363Y-126434127D01*
X177177927Y-126691638D01*
X177424405Y-126855187D01*
X177866750Y-127159923D01*
X178270874Y-127462459D01*
X178640495Y-127766351D01*
X178979332Y-128075152D01*
X179291104Y-128392416D01*
X179579530Y-128721697D01*
X179848329Y-129066549D01*
X180070022Y-129383367D01*
X180291945Y-129741638D01*
X180489521Y-130111966D01*
X180657931Y-130484580D01*
X180790459Y-130843867D01*
X180847736Y-131031633D01*
X180896317Y-131217845D01*
X180936654Y-131407237D01*
X180969197Y-131604547D01*
X180994399Y-131814509D01*
X181012710Y-132041861D01*
X181024583Y-132291339D01*
X181030467Y-132567678D01*
X181030815Y-132875614D01*
X181026078Y-133219885D01*
X181024437Y-133299200D01*
X181015988Y-133609239D01*
X181004567Y-133882634D01*
X180989501Y-134125010D01*
X180970117Y-134341993D01*
X180945743Y-134539211D01*
X180915708Y-134722288D01*
X180879338Y-134896852D01*
X180835961Y-135068528D01*
X180796785Y-135204200D01*
X180680514Y-135546353D01*
X180539658Y-135883714D01*
X180371266Y-136222080D01*
X180172384Y-136567245D01*
X179940061Y-136925006D01*
X179865042Y-137033321D01*
X179657647Y-137307736D01*
X179415440Y-137591233D01*
X179143572Y-137878922D01*
X178847190Y-138165913D01*
X178531446Y-138447316D01*
X178201488Y-138718241D01*
X177862465Y-138973798D01*
X177704003Y-139085458D01*
X177335198Y-139329138D01*
X176956604Y-139558131D01*
X176562772Y-139775169D01*
X176148258Y-139982989D01*
X175707615Y-140184323D01*
X175235397Y-140381908D01*
X174742329Y-140572455D01*
X174295370Y-140728174D01*
X173813735Y-140875782D01*
X173304568Y-141013728D01*
X172775014Y-141140464D01*
X172232217Y-141254443D01*
X171683322Y-141354114D01*
X171135475Y-141437930D01*
X170595819Y-141504342D01*
X170315467Y-141531963D01*
X169979954Y-141558673D01*
X169629164Y-141580435D01*
X169271028Y-141597068D01*
X168913474Y-141608392D01*
X168564435Y-141614227D01*
X168231839Y-141614392D01*
X167923618Y-141608708D01*
X167647701Y-141596993D01*
X167595550Y-141593811D01*
X166806895Y-141531439D01*
X166052143Y-141448114D01*
X165327988Y-141343074D01*
X164631126Y-141215558D01*
X163958252Y-141064805D01*
X163306060Y-140890053D01*
X162671246Y-140690540D01*
X162050504Y-140465505D01*
X161440529Y-140214185D01*
X161259951Y-140133916D01*
X160732865Y-139877833D01*
X160214026Y-139590683D01*
X159708341Y-139276031D01*
X159220719Y-138937440D01*
X158756066Y-138578475D01*
X158319292Y-138202698D01*
X157915305Y-137813674D01*
X157606149Y-137480705D01*
X157272153Y-137070261D01*
X156976869Y-136643055D01*
X156720452Y-136199333D01*
X156503054Y-135739343D01*
X156461333Y-135638117D01*
X156408011Y-135499118D01*
X156353473Y-135345904D01*
X156300634Y-135187719D01*
X156252413Y-135033807D01*
X156211725Y-134893413D01*
X156181488Y-134775782D01*
X156166890Y-134704921D01*
X156152404Y-134618392D01*
X154808117Y-134603822D01*
X154527875Y-134601288D01*
X154224357Y-134599443D01*
X153906488Y-134598287D01*
X153583194Y-134597821D01*
X153263400Y-134598043D01*
X152956032Y-134598955D01*
X152670015Y-134600557D01*
X152414273Y-134602848D01*
X152333509Y-134603813D01*
X151203187Y-134618373D01*
X151125891Y-134853078D01*
X150949395Y-135330007D01*
X150740826Y-135788206D01*
X150502533Y-136223346D01*
X150236864Y-136631099D01*
X149977995Y-136969032D01*
X149807653Y-137165127D01*
X149609974Y-137376143D01*
X149393234Y-137594117D01*
X149165710Y-137811085D01*
X148935678Y-138019081D01*
X148711415Y-138210143D01*
X148571803Y-138322146D01*
X148077538Y-138684094D01*
X147547331Y-139027770D01*
X146983904Y-139352141D01*
X146389980Y-139656174D01*
X145768282Y-139938834D01*
X145121532Y-140199088D01*
X144452453Y-140435902D01*
X143763768Y-140648243D01*
X143058199Y-140835076D01*
X142338469Y-140995369D01*
X141607301Y-141128087D01*
X140925550Y-141225108D01*
X140279661Y-141292337D01*
X139605610Y-141338609D01*
X138912026Y-141363907D01*
X138207539Y-141368213D01*
X137500779Y-141351509D01*
X136800376Y-141313779D01*
X136114958Y-141255005D01*
X135930217Y-141235147D01*
X135172608Y-141134684D01*
X134425776Y-141005208D01*
X133692270Y-140847643D01*
X132974641Y-140662911D01*
X132275438Y-140451935D01*
X131597211Y-140215638D01*
X130942511Y-139954943D01*
X130313886Y-139670772D01*
X129713886Y-139364048D01*
X129145062Y-139035694D01*
X128609963Y-138686633D01*
X128328065Y-138484004D01*
X128060374Y-138275912D01*
X127788311Y-138048023D01*
X127519157Y-137807223D01*
X127260193Y-137560393D01*
X127018702Y-137314418D01*
X126801963Y-137076182D01*
X126661151Y-136908117D01*
X126359078Y-136499781D01*
X126092989Y-136072656D01*
X125864018Y-135629248D01*
X125673299Y-135172061D01*
X125521965Y-134703603D01*
X125411149Y-134226377D01*
X125387768Y-134092950D01*
X125377809Y-134013841D01*
X125368939Y-133908194D01*
X125361173Y-133780250D01*
X125354526Y-133634247D01*
X125349016Y-133474427D01*
X125344659Y-133305027D01*
X125341470Y-133130290D01*
X125339467Y-132954453D01*
X125338665Y-132781757D01*
X125339080Y-132616442D01*
X125340728Y-132462748D01*
X125343627Y-132324913D01*
X125347792Y-132207179D01*
X125353239Y-132113785D01*
X125359984Y-132048970D01*
X125368044Y-132016974D01*
X125377435Y-132022038D01*
X125379877Y-132029200D01*
X125385619Y-132068633D01*
X125390809Y-132141366D01*
X125394998Y-132238366D01*
X125397734Y-132350598D01*
X125398338Y-132399617D01*
X125401465Y-132618618D01*
X125407645Y-132805113D01*
X125418299Y-132968898D01*
X125434843Y-133119766D01*
X125458698Y-133267514D01*
X125491280Y-133421937D01*
X125534008Y-133592830D01*
X125588301Y-133789988D01*
X125611359Y-133870700D01*
X125742638Y-134264369D01*
X125909994Y-134662370D01*
X126109087Y-135056449D01*
X126335574Y-135438353D01*
X126585114Y-135799830D01*
X126713599Y-135965890D01*
X126967314Y-136261008D01*
X127257094Y-136561545D01*
X127577794Y-136863235D01*
X127924269Y-137161809D01*
X128291374Y-137453001D01*
X128673963Y-137732544D01*
X129066892Y-137996171D01*
X129432050Y-138220370D01*
X129978783Y-138521642D01*
X130559446Y-138804895D01*
X131168745Y-139068043D01*
X131801388Y-139309000D01*
X132452082Y-139525677D01*
X133115535Y-139715989D01*
X133421967Y-139793719D01*
X133888384Y-139898722D01*
X134388838Y-139995641D01*
X134915611Y-140083395D01*
X135460990Y-140160899D01*
X136017260Y-140227073D01*
X136576705Y-140280832D01*
X137131610Y-140321094D01*
X137214623Y-140325939D01*
X137369119Y-140332866D01*
X137558302Y-140338449D01*
X137774590Y-140342685D01*
X138010400Y-140345573D01*
X138258149Y-140347109D01*
X138510255Y-140347292D01*
X138759136Y-140346118D01*
X138997209Y-140343587D01*
X139216892Y-140339695D01*
X139410601Y-140334440D01*
X139570755Y-140327819D01*
X139592050Y-140326673D01*
X140271972Y-140277815D01*
X140940179Y-140208301D01*
X141590957Y-140118990D01*
X142218591Y-140010743D01*
X142817366Y-139884418D01*
X143253883Y-139775712D01*
X143829675Y-139615135D01*
X144368606Y-139450397D01*
X144876100Y-139279350D01*
X145357582Y-139099849D01*
X145818474Y-138909748D01*
X146264203Y-138706902D01*
X146700191Y-138489165D01*
X147131862Y-138254390D01*
X147205504Y-138212460D01*
X147752887Y-137874610D01*
X148281488Y-137499463D01*
X148789607Y-137088458D01*
X149275546Y-136643031D01*
X149737604Y-136164621D01*
X150048789Y-135807450D01*
X150145360Y-135688724D01*
X150227144Y-135580114D01*
X150301527Y-135470510D01*
X150375893Y-135348802D01*
X150457628Y-135203882D01*
X150492001Y-135140700D01*
X150587261Y-134967710D01*
X150666938Y-134830707D01*
X150732777Y-134727055D01*
X150786523Y-134654118D01*
X150829922Y-134609258D01*
X150854100Y-134593587D01*
X150874465Y-134589775D01*
X150918965Y-134586333D01*
X150989058Y-134583248D01*
X151086198Y-134580507D01*
X151211842Y-134578097D01*
X151367447Y-134576007D01*
X151554468Y-134574222D01*
X151774361Y-134572731D01*
X152028582Y-134571520D01*
X152318588Y-134570577D01*
X152645834Y-134569889D01*
X153011776Y-134569443D01*
X153417872Y-134569226D01*
X153635248Y-134569200D01*
X156362870Y-134569200D01*
X156413583Y-134629469D01*
X156444246Y-134672035D01*
X156488850Y-134741662D01*
X156541094Y-134828228D01*
X156588133Y-134909927D01*
X156688861Y-135087801D01*
X156774059Y-135235161D01*
X156847988Y-135358918D01*
X156914909Y-135465979D01*
X156979082Y-135563255D01*
X157044770Y-135657653D01*
X157076380Y-135701617D01*
X157407827Y-136129912D01*
X157763584Y-136533226D01*
X158147188Y-136914895D01*
X158562176Y-137278254D01*
X159012085Y-137626640D01*
X159414633Y-137906863D01*
X159884973Y-138205900D01*
X160353118Y-138475102D01*
X160834591Y-138723083D01*
X161166376Y-138878933D01*
X161892123Y-139185592D01*
X162636230Y-139455677D01*
X163399407Y-139689354D01*
X164182367Y-139886790D01*
X164985823Y-140048151D01*
X165810486Y-140173605D01*
X166657069Y-140263318D01*
X167256883Y-140304605D01*
X167857422Y-140330812D01*
X168426571Y-140342021D01*
X168972745Y-140337642D01*
X169504362Y-140317082D01*
X170029836Y-140279751D01*
X170557585Y-140225057D01*
X171096025Y-140152409D01*
X171653571Y-140061216D01*
X172209883Y-139956612D01*
X172954087Y-139791986D01*
X173668243Y-139599347D01*
X174354919Y-139377670D01*
X175016681Y-139125930D01*
X175656097Y-138843101D01*
X176275735Y-138528158D01*
X176878162Y-138180075D01*
X177247550Y-137944930D01*
X177640288Y-137671166D01*
X178022933Y-137375641D01*
X178390662Y-137062974D01*
X178738648Y-136737787D01*
X179062068Y-136404698D01*
X179356096Y-136068329D01*
X179615908Y-135733299D01*
X179733954Y-135564033D01*
X179881531Y-135337336D01*
X180010710Y-135123680D01*
X180125163Y-134915128D01*
X180228564Y-134703740D01*
X180324586Y-134481579D01*
X180416903Y-134240707D01*
X180509187Y-133973184D01*
X180595557Y-133702078D01*
X180653059Y-133510491D01*
X180697327Y-133346767D01*
X180729912Y-133200120D01*
X180752362Y-133059762D01*
X180766228Y-132914905D01*
X180773059Y-132754762D01*
X180774404Y-132568545D01*
X180773513Y-132463117D01*
X180764305Y-132136707D01*
X180743895Y-131842420D01*
X180710784Y-131571170D01*
X180663475Y-131313874D01*
X180600470Y-131061445D01*
X180520269Y-130804801D01*
X180482151Y-130696478D01*
X180345590Y-130348387D01*
X180193234Y-130017304D01*
X180021530Y-129697609D01*
X179826924Y-129383681D01*
X179605862Y-129069897D01*
X179354791Y-128750638D01*
X179070158Y-128420283D01*
X178980635Y-128321389D01*
X178630867Y-127963831D01*
X178246367Y-127618537D01*
X177825075Y-127283817D01*
X177364935Y-126957984D01*
X177141923Y-126812066D01*
X176888130Y-126649929D01*
X176813840Y-126732560D01*
X176767191Y-126785621D01*
X176703890Y-126859181D01*
X176634302Y-126941150D01*
X176599362Y-126982737D01*
X176538780Y-127051855D01*
X176451956Y-127146269D01*
X176343032Y-127261794D01*
X176216145Y-127394245D01*
X176075437Y-127539437D01*
X175925047Y-127693186D01*
X175769114Y-127851306D01*
X175611779Y-128009613D01*
X175457180Y-128163922D01*
X175309458Y-128310047D01*
X175172752Y-128443804D01*
X175051203Y-128561007D01*
X174948949Y-128657473D01*
X174884736Y-128716086D01*
X174355741Y-129168149D01*
X173806723Y-129599136D01*
X173246298Y-130002623D01*
X172683085Y-130372182D01*
X172569717Y-130442159D01*
X172487170Y-130489952D01*
X172371499Y-130553134D01*
X172227900Y-130629109D01*
X172061570Y-130715279D01*
X171877706Y-130809048D01*
X171681505Y-130907818D01*
X171478164Y-131008993D01*
X171272880Y-131109974D01*
X171070851Y-131208166D01*
X170877272Y-131300970D01*
X170697342Y-131385790D01*
X170536257Y-131460028D01*
X170500762Y-131476080D01*
X170126569Y-131640204D01*
X169736340Y-131803218D01*
X169337095Y-131962541D01*
X168935855Y-132115589D01*
X168539640Y-132259780D01*
X168155468Y-132392532D01*
X167790361Y-132511262D01*
X167451338Y-132613386D01*
X167278050Y-132661673D01*
X167068302Y-132718146D01*
X166892624Y-132765344D01*
X166744223Y-132805062D01*
X166616308Y-132839093D01*
X166502088Y-132869231D01*
X166394771Y-132897268D01*
X166287566Y-132924999D01*
X166173679Y-132954217D01*
X166071550Y-132980287D01*
X165834236Y-133038350D01*
X165623041Y-133084272D01*
X165424365Y-133120564D01*
X165224610Y-133149737D01*
X165034383Y-133171803D01*
X164889124Y-133187838D01*
X164764007Y-133204063D01*
X164647748Y-133222533D01*
X164529066Y-133245302D01*
X164396678Y-133274426D01*
X164239302Y-133311959D01*
X164166550Y-133329856D01*
X163948872Y-133383196D01*
X163761356Y-133427576D01*
X163595788Y-133464338D01*
X163443950Y-133494825D01*
X163297629Y-133520380D01*
X163148607Y-133542346D01*
X162988671Y-133562065D01*
X162809603Y-133580882D01*
X162603189Y-133600139D01*
X162409717Y-133617031D01*
X162248958Y-133631804D01*
X162058071Y-133650957D01*
X161848882Y-133673204D01*
X161633214Y-133697259D01*
X161422893Y-133721836D01*
X161245550Y-133743642D01*
X160998045Y-133774606D01*
X160785798Y-133800160D01*
X160602149Y-133820814D01*
X160440438Y-133837079D01*
X160294006Y-133849466D01*
X160156194Y-133858485D01*
X160020341Y-133864647D01*
X159879789Y-133868463D01*
X159727877Y-133870444D01*
X159583967Y-133871067D01*
X159402712Y-133872954D01*
X159198304Y-133877720D01*
X158987123Y-133884813D01*
X158785548Y-133893684D01*
X158610300Y-133903760D01*
X158483799Y-133910864D01*
X158320541Y-133917846D01*
X158126103Y-133924557D01*
X157906061Y-133930849D01*
X157665991Y-133936573D01*
X157411472Y-133941582D01*
X157148077Y-133945726D01*
X156938133Y-133948282D01*
X155466998Y-133947220D01*
X153972620Y-133913344D01*
X152458276Y-133846837D01*
X150927243Y-133747884D01*
X149382798Y-133616666D01*
X147828218Y-133453367D01*
X147593050Y-133425962D01*
X147292382Y-133390173D01*
X147027454Y-133357851D01*
X146791906Y-133328021D01*
X146579380Y-133299703D01*
X146383515Y-133271921D01*
X146197953Y-133243695D01*
X146016334Y-133214049D01*
X145832299Y-133182004D01*
X145639488Y-133146583D01*
X145431542Y-133106807D01*
X145202101Y-133061699D01*
X145127133Y-133046783D01*
X144900416Y-133002109D01*
X144660771Y-132955845D01*
X144416819Y-132909594D01*
X144177179Y-132864955D01*
X143950473Y-132823531D01*
X143745320Y-132786922D01*
X143570340Y-132756730D01*
X143523542Y-132748919D01*
X143285318Y-132709302D01*
X143081673Y-132674546D01*
X142905366Y-132642946D01*
X142749155Y-132612800D01*
X142605798Y-132582403D01*
X142468053Y-132550054D01*
X142328679Y-132514048D01*
X142180434Y-132472681D01*
X142016076Y-132424252D01*
X141828363Y-132367056D01*
X141610054Y-132299389D01*
X141602883Y-132297157D01*
X141453417Y-132252161D01*
X141278366Y-132201921D01*
X141093377Y-132150780D01*
X140914098Y-132103082D01*
X140787967Y-132070981D01*
X140582501Y-132019355D01*
X140393648Y-131970220D01*
X140213710Y-131921313D01*
X140034992Y-131870370D01*
X139849797Y-131815129D01*
X139650428Y-131753326D01*
X139429189Y-131682699D01*
X139178383Y-131600984D01*
X139084050Y-131569958D01*
X138211897Y-131271984D01*
X137377997Y-130965070D01*
X136578884Y-130647468D01*
X135811094Y-130317434D01*
X135071162Y-129973223D01*
X134355623Y-129613088D01*
X133661011Y-129235286D01*
X132983863Y-128838070D01*
X132320713Y-128419695D01*
X131668096Y-127978416D01*
X131022549Y-127512487D01*
X131008967Y-127502369D01*
X130848290Y-127381208D01*
X130681591Y-127253008D01*
X130514699Y-127122438D01*
X130353439Y-126994170D01*
X130203640Y-126872873D01*
X130071129Y-126763218D01*
X129961733Y-126669876D01*
X129889034Y-126604772D01*
X129820171Y-126543962D01*
X129755931Y-126492778D01*
X129707363Y-126459858D01*
X129697018Y-126454627D01*
X129660590Y-126430970D01*
X129599596Y-126382380D01*
X129519414Y-126313848D01*
X129425422Y-126230366D01*
X129322999Y-126136923D01*
X129217523Y-126038512D01*
X129114373Y-125940124D01*
X129018925Y-125846749D01*
X128936560Y-125763379D01*
X128872654Y-125695004D01*
X128849109Y-125667764D01*
X128780304Y-125582823D01*
X128721177Y-125504523D01*
X128666948Y-125425147D01*
X128612839Y-125336979D01*
X128554071Y-125232305D01*
X128485864Y-125103408D01*
X128444597Y-125023033D01*
X151413633Y-125023033D01*
X151413633Y-130018367D01*
X156408967Y-130018367D01*
X156408967Y-125023033D01*
X151413633Y-125023033D01*
X128444597Y-125023033D01*
X128419659Y-124974462D01*
X128288243Y-124706374D01*
X128180150Y-124462936D01*
X128091984Y-124235957D01*
X128020351Y-124017248D01*
X128014224Y-123996406D01*
X127991272Y-123915270D01*
X127976571Y-123851787D01*
X127969273Y-123793821D01*
X127968534Y-123729236D01*
X127970940Y-123688881D01*
X128068442Y-123688881D01*
X128074772Y-123718336D01*
X128089878Y-123729910D01*
X128115055Y-123729679D01*
X128151247Y-123723773D01*
X128220786Y-123708153D01*
X128304947Y-123683206D01*
X128350587Y-123667283D01*
X128411019Y-123641752D01*
X128465833Y-123610588D01*
X128518433Y-123569677D01*
X128572226Y-123514905D01*
X128630616Y-123442159D01*
X128697010Y-123347323D01*
X128774811Y-123226284D01*
X128867427Y-123074928D01*
X128936623Y-122959283D01*
X129123346Y-122648583D01*
X129306402Y-122350057D01*
X129483889Y-122066578D01*
X129653901Y-121801018D01*
X129814536Y-121556253D01*
X129963889Y-121335153D01*
X130100057Y-121140594D01*
X130221136Y-120975447D01*
X130325222Y-120842586D01*
X130387301Y-120769944D01*
X130474380Y-120682879D01*
X130574346Y-120602970D01*
X130692175Y-120527553D01*
X130832848Y-120453963D01*
X131001341Y-120379535D01*
X131202632Y-120301603D01*
X131379383Y-120238815D01*
X131567091Y-120172953D01*
X131719987Y-120116545D01*
X131843874Y-120067106D01*
X131944555Y-120022154D01*
X132027834Y-119979203D01*
X132099514Y-119935769D01*
X132121005Y-119921324D01*
X132173891Y-119880737D01*
X132215233Y-119836778D01*
X132245584Y-119784690D01*
X132265499Y-119719719D01*
X132275532Y-119637109D01*
X132276237Y-119532103D01*
X132268168Y-119399947D01*
X132251881Y-119235885D01*
X132227929Y-119035161D01*
X132226050Y-119020176D01*
X132196287Y-118746640D01*
X132180720Y-118509378D01*
X132179513Y-118304721D01*
X132192830Y-118129004D01*
X132220838Y-117978558D01*
X132263699Y-117849717D01*
X132280311Y-117813006D01*
X132383954Y-117645951D01*
X132518349Y-117504062D01*
X132677909Y-117390789D01*
X132857047Y-117309582D01*
X133050176Y-117263891D01*
X133184124Y-117254867D01*
X133355253Y-117265065D01*
X133549403Y-117295970D01*
X133767783Y-117348040D01*
X134011601Y-117421737D01*
X134282064Y-117517522D01*
X134580381Y-117635856D01*
X134907759Y-117777200D01*
X135265408Y-117942014D01*
X135654533Y-118130760D01*
X136076345Y-118343899D01*
X136184217Y-118399582D01*
X136465572Y-118544618D01*
X136745030Y-118687217D01*
X137019006Y-118825627D01*
X137283918Y-118958096D01*
X137536183Y-119082872D01*
X137772216Y-119198202D01*
X137988434Y-119302336D01*
X138181254Y-119393521D01*
X138347092Y-119470005D01*
X138482366Y-119530036D01*
X138576050Y-119568956D01*
X139241106Y-119823220D01*
X139903175Y-120061286D01*
X140567756Y-120284734D01*
X141240348Y-120495145D01*
X141926451Y-120694102D01*
X142631564Y-120883185D01*
X143361186Y-121063974D01*
X144120818Y-121238053D01*
X144915957Y-121407002D01*
X145095383Y-121443474D01*
X145636448Y-121549482D01*
X146162966Y-121646015D01*
X146682902Y-121734248D01*
X147204220Y-121815356D01*
X147734882Y-121890515D01*
X148282852Y-121960899D01*
X148856095Y-122027685D01*
X149462574Y-122092046D01*
X149550967Y-122100968D01*
X149987912Y-122144103D01*
X150390085Y-122182172D01*
X150764680Y-122215661D01*
X151118891Y-122245054D01*
X151459914Y-122270837D01*
X151794943Y-122293494D01*
X152131173Y-122313510D01*
X152475799Y-122331370D01*
X152836016Y-122347559D01*
X153219019Y-122362561D01*
X153632002Y-122376862D01*
X153657300Y-122377689D01*
X153837299Y-122383936D01*
X154020332Y-122390973D01*
X154197453Y-122398406D01*
X154359717Y-122405844D01*
X154498179Y-122412892D01*
X154603892Y-122419158D01*
X154609800Y-122419555D01*
X154698562Y-122424559D01*
X154823223Y-122430112D01*
X154977353Y-122436001D01*
X155154525Y-122442011D01*
X155348310Y-122447930D01*
X155552280Y-122453542D01*
X155760007Y-122458635D01*
X155837467Y-122460365D01*
X156069084Y-122465646D01*
X156319954Y-122471811D01*
X156579728Y-122478577D01*
X156838061Y-122485661D01*
X157084607Y-122492780D01*
X157309020Y-122499649D01*
X157492575Y-122505696D01*
X157767013Y-122513766D01*
X158034232Y-122518931D01*
X158290021Y-122521258D01*
X158530168Y-122520818D01*
X158750463Y-122517679D01*
X158946695Y-122511911D01*
X159114653Y-122503584D01*
X159250125Y-122492767D01*
X159348901Y-122479529D01*
X159372300Y-122474740D01*
X159480339Y-122447656D01*
X159567737Y-122421689D01*
X159628839Y-122398858D01*
X159657996Y-122381185D01*
X159656642Y-122373116D01*
X159630193Y-122362632D01*
X159571485Y-122341839D01*
X159488522Y-122313500D01*
X159389309Y-122280380D01*
X159361717Y-122271286D01*
X159153070Y-122200796D01*
X158972166Y-122135109D01*
X158805601Y-122069066D01*
X158639974Y-121997509D01*
X158580924Y-121970746D01*
X158490030Y-121930789D01*
X158404603Y-121896134D01*
X158337840Y-121872020D01*
X158316340Y-121865737D01*
X158280280Y-121861571D01*
X158206347Y-121856891D01*
X158098996Y-121851854D01*
X157962681Y-121846616D01*
X157801859Y-121841334D01*
X157620982Y-121836166D01*
X157424508Y-121831268D01*
X157216890Y-121826797D01*
X157202717Y-121826517D01*
X156946277Y-121820928D01*
X156660438Y-121813738D01*
X156356780Y-121805298D01*
X156046882Y-121795959D01*
X155742326Y-121786074D01*
X155454692Y-121775993D01*
X155195558Y-121766068D01*
X155149550Y-121764190D01*
X154908494Y-121754483D01*
X154649027Y-121744478D01*
X154380737Y-121734515D01*
X154113211Y-121724936D01*
X153856037Y-121716081D01*
X153618801Y-121708293D01*
X153411091Y-121701912D01*
X153350383Y-121700165D01*
X152913045Y-121687129D01*
X152513034Y-121673572D01*
X152145346Y-121659136D01*
X151804976Y-121643466D01*
X151486919Y-121626203D01*
X151186169Y-121606991D01*
X150897721Y-121585474D01*
X150616571Y-121561294D01*
X150337713Y-121534095D01*
X150056141Y-121503520D01*
X149766852Y-121469212D01*
X149464840Y-121430814D01*
X149339300Y-121414224D01*
X149204153Y-121397116D01*
X149038541Y-121377613D01*
X148854172Y-121357006D01*
X148662753Y-121336587D01*
X148475991Y-121317645D01*
X148376217Y-121308015D01*
X147668421Y-121234991D01*
X146999470Y-121153129D01*
X146366721Y-121062000D01*
X145767530Y-120961180D01*
X145199253Y-120850242D01*
X144659246Y-120728760D01*
X144428633Y-120671529D01*
X144266384Y-120630932D01*
X144077119Y-120584988D01*
X143875243Y-120537107D01*
X143675158Y-120490694D01*
X143491267Y-120449160D01*
X143454967Y-120441137D01*
X142644129Y-120253136D01*
X141870281Y-120054072D01*
X141134423Y-119844233D01*
X140437554Y-119623905D01*
X139780674Y-119393377D01*
X139666133Y-119350585D01*
X139532274Y-119298768D01*
X139365633Y-119232129D01*
X139172064Y-119153157D01*
X138957418Y-119064341D01*
X138727546Y-118968169D01*
X138630144Y-118927033D01*
X156451300Y-118927033D01*
X156459044Y-118944456D01*
X156465411Y-118941144D01*
X156467944Y-118916024D01*
X156465411Y-118912922D01*
X156452827Y-118915828D01*
X156451300Y-118927033D01*
X138630144Y-118927033D01*
X138488300Y-118867128D01*
X138479862Y-118863533D01*
X156472467Y-118863533D01*
X156480211Y-118880956D01*
X156486578Y-118877644D01*
X156489111Y-118852524D01*
X156486578Y-118849422D01*
X156473994Y-118852328D01*
X156472467Y-118863533D01*
X138479862Y-118863533D01*
X138355646Y-118810617D01*
X156494281Y-118810617D01*
X156503016Y-118814403D01*
X156514800Y-118800033D01*
X156532711Y-118761446D01*
X156535318Y-118747117D01*
X156526584Y-118743330D01*
X156514800Y-118757700D01*
X156496889Y-118796287D01*
X156494281Y-118810617D01*
X138355646Y-118810617D01*
X138245532Y-118763709D01*
X138108393Y-118704783D01*
X156536615Y-118704783D01*
X156545349Y-118708569D01*
X156557133Y-118694200D01*
X156575044Y-118655613D01*
X156577652Y-118641283D01*
X156568917Y-118637497D01*
X156557133Y-118651867D01*
X156539222Y-118690454D01*
X156536615Y-118704783D01*
X138108393Y-118704783D01*
X138005095Y-118660398D01*
X137869579Y-118601634D01*
X156578300Y-118601634D01*
X156581852Y-118610434D01*
X156594777Y-118593790D01*
X156620479Y-118546560D01*
X156639628Y-118508992D01*
X156663969Y-118456806D01*
X156675306Y-118424344D01*
X156674410Y-118419033D01*
X156659726Y-118435932D01*
X156635206Y-118477042D01*
X156608416Y-118527985D01*
X156586926Y-118574382D01*
X156578300Y-118601634D01*
X137869579Y-118601634D01*
X137772839Y-118559685D01*
X137554616Y-118464057D01*
X137356279Y-118376004D01*
X137183679Y-118298014D01*
X137097741Y-118258404D01*
X136557574Y-117991501D01*
X136002908Y-117686808D01*
X135762343Y-117545572D01*
X135624909Y-117464059D01*
X135467807Y-117371998D01*
X135308081Y-117279311D01*
X135162772Y-117195925D01*
X135127343Y-117175795D01*
X134825724Y-117000509D01*
X134559037Y-116835828D01*
X134322285Y-116678289D01*
X134110471Y-116524432D01*
X133918600Y-116370795D01*
X133750050Y-116221713D01*
X133693587Y-116172405D01*
X133609160Y-116102802D01*
X133502874Y-116017737D01*
X133380836Y-115922041D01*
X133249151Y-115820545D01*
X133113924Y-115718082D01*
X133107907Y-115713566D01*
X132869063Y-115531996D01*
X132661831Y-115369122D01*
X132481857Y-115221312D01*
X132324788Y-115084934D01*
X132186271Y-114956355D01*
X132108823Y-114879996D01*
X132040014Y-114807981D01*
X131966435Y-114726845D01*
X131895487Y-114645218D01*
X131834574Y-114571726D01*
X131791095Y-114514997D01*
X131776448Y-114492580D01*
X131764143Y-114481731D01*
X131740396Y-114481040D01*
X131699262Y-114492373D01*
X131634795Y-114517596D01*
X131541049Y-114558573D01*
X131484073Y-114584311D01*
X131371469Y-114634603D01*
X131259617Y-114683034D01*
X131160467Y-114724521D01*
X131085975Y-114753985D01*
X131077758Y-114757020D01*
X131010980Y-114782012D01*
X130963428Y-114801085D01*
X130945467Y-114810064D01*
X130941872Y-114831727D01*
X130932636Y-114882190D01*
X130924478Y-114925595D01*
X130916807Y-114977934D01*
X130906615Y-115065043D01*
X130894660Y-115179488D01*
X130881696Y-115313834D01*
X130868480Y-115460644D01*
X130860451Y-115555157D01*
X130839912Y-115794216D01*
X130820242Y-116000423D01*
X130800008Y-116183195D01*
X130777775Y-116351951D01*
X130752110Y-116516109D01*
X130721580Y-116685086D01*
X130684750Y-116868302D01*
X130640188Y-117075173D01*
X130605158Y-117232297D01*
X130578210Y-117354384D01*
X130554884Y-117464480D01*
X130536714Y-117554983D01*
X130525233Y-117618294D01*
X130521878Y-117645047D01*
X130511496Y-117689196D01*
X130485569Y-117749982D01*
X130470905Y-117777480D01*
X130446077Y-117831528D01*
X130414570Y-117915672D01*
X130380191Y-118018992D01*
X130346747Y-118130570D01*
X130342394Y-118146092D01*
X130221024Y-118542714D01*
X130075946Y-118948578D01*
X129912943Y-119349032D01*
X129737801Y-119729425D01*
X129645508Y-119911283D01*
X129602237Y-119991069D01*
X129540819Y-120100714D01*
X129464943Y-120233813D01*
X129378301Y-120383958D01*
X129284584Y-120544743D01*
X129187480Y-120709762D01*
X129121205Y-120821450D01*
X128964045Y-121086835D01*
X128828185Y-121319777D01*
X128712019Y-121523434D01*
X128613945Y-121700964D01*
X128532356Y-121855527D01*
X128465648Y-121990281D01*
X128412216Y-122108384D01*
X128370457Y-122212995D01*
X128338764Y-122307272D01*
X128315535Y-122394375D01*
X128310451Y-122417328D01*
X128289034Y-122507881D01*
X128264218Y-122597834D01*
X128246662Y-122652367D01*
X128216885Y-122749609D01*
X128185198Y-122877132D01*
X128153992Y-123023099D01*
X128125654Y-123175676D01*
X128102575Y-123323028D01*
X128089166Y-123432484D01*
X128076934Y-123552030D01*
X128069595Y-123635471D01*
X128068442Y-123688881D01*
X127970940Y-123688881D01*
X127973504Y-123645896D01*
X127982470Y-123541367D01*
X128015131Y-123269779D01*
X128064756Y-123008502D01*
X128133821Y-122749490D01*
X128224801Y-122484695D01*
X128340174Y-122206071D01*
X128482414Y-121905571D01*
X128491307Y-121887768D01*
X128537776Y-121796314D01*
X128587312Y-121701765D01*
X128642254Y-121599989D01*
X128704940Y-121486855D01*
X128777708Y-121358231D01*
X128862896Y-121209985D01*
X128962843Y-121037984D01*
X129079886Y-120838098D01*
X129216364Y-120606193D01*
X129220487Y-120599200D01*
X129440087Y-120213985D01*
X129637365Y-119839516D01*
X129814702Y-119469406D01*
X129974476Y-119097272D01*
X130119068Y-118716730D01*
X130250856Y-118321395D01*
X130372220Y-117904883D01*
X130485540Y-117460810D01*
X130593195Y-116982791D01*
X130624907Y-116831010D01*
X130661668Y-116650297D01*
X130690885Y-116500250D01*
X130713890Y-116370912D01*
X130732009Y-116252327D01*
X130746574Y-116134539D01*
X130758913Y-116007592D01*
X130770355Y-115861531D01*
X130782229Y-115686400D01*
X130786422Y-115621262D01*
X130796073Y-115474506D01*
X130805681Y-115336121D01*
X130814683Y-115213658D01*
X130822514Y-115114667D01*
X130828611Y-115046699D01*
X130830786Y-115027075D01*
X130835322Y-114968754D01*
X130832562Y-114932473D01*
X130828071Y-114926533D01*
X130803404Y-114933140D01*
X130746591Y-114951254D01*
X130665412Y-114978313D01*
X130567649Y-115011756D01*
X130539223Y-115021616D01*
X130329088Y-115091179D01*
X130119415Y-115152928D01*
X129906091Y-115207435D01*
X129684999Y-115255275D01*
X129452027Y-115297021D01*
X129203058Y-115333247D01*
X128933979Y-115364526D01*
X128640675Y-115391432D01*
X128319032Y-115414539D01*
X127964934Y-115434421D01*
X127574267Y-115451650D01*
X127410633Y-115457792D01*
X126858069Y-115471684D01*
X126342864Y-115472009D01*
X125862160Y-115458412D01*
X125413097Y-115430541D01*
X124992817Y-115388043D01*
X124598462Y-115330565D01*
X124227173Y-115257755D01*
X123876091Y-115169258D01*
X123542358Y-115064722D01*
X123223115Y-114943794D01*
X123212517Y-114939405D01*
X122886298Y-114788022D01*
X122597755Y-114619723D01*
X122411040Y-114481483D01*
X126942920Y-114481483D01*
X126972223Y-114498266D01*
X127038184Y-114508883D01*
X127089152Y-114513663D01*
X127169597Y-114521181D01*
X127234022Y-114528456D01*
X127270411Y-114534107D01*
X127273050Y-114534842D01*
X127310654Y-114540021D01*
X127383799Y-114543424D01*
X127485732Y-114545167D01*
X127609702Y-114545367D01*
X127748959Y-114544139D01*
X127896751Y-114541600D01*
X128046327Y-114537866D01*
X128190935Y-114533052D01*
X128323826Y-114527276D01*
X128438246Y-114520653D01*
X128527446Y-114513299D01*
X128527777Y-114513265D01*
X128936288Y-114462868D01*
X129372005Y-114394011D01*
X129824987Y-114308540D01*
X130285293Y-114208299D01*
X130649133Y-114119481D01*
X130808512Y-114078643D01*
X130973451Y-114036369D01*
X133330906Y-114036369D01*
X133338899Y-114054187D01*
X133376041Y-114085702D01*
X133434383Y-114124213D01*
X133436739Y-114125622D01*
X133491855Y-114160352D01*
X133574029Y-114214579D01*
X133675817Y-114283271D01*
X133789776Y-114361398D01*
X133908459Y-114443928D01*
X133929967Y-114459014D01*
X134077418Y-114561832D01*
X134207918Y-114650639D01*
X134327794Y-114729016D01*
X134443375Y-114800543D01*
X134560987Y-114868798D01*
X134686958Y-114937362D01*
X134827617Y-115009814D01*
X134989290Y-115089735D01*
X135178305Y-115180704D01*
X135348133Y-115261323D01*
X135585836Y-115373214D01*
X135801967Y-115473517D01*
X136001146Y-115563918D01*
X136187990Y-115646105D01*
X136367119Y-115721765D01*
X136543150Y-115792586D01*
X136720703Y-115860254D01*
X136904396Y-115926459D01*
X137098847Y-115992886D01*
X137308675Y-116061223D01*
X137538499Y-116133159D01*
X137792936Y-116210379D01*
X138076606Y-116294572D01*
X138394128Y-116387425D01*
X138570418Y-116438610D01*
X139253078Y-116626978D01*
X139963014Y-116804142D01*
X140701828Y-116970378D01*
X141471123Y-117125965D01*
X142272502Y-117271178D01*
X143107567Y-117406296D01*
X143977920Y-117531595D01*
X144885165Y-117647353D01*
X145830904Y-117753848D01*
X146640550Y-117834861D01*
X146801927Y-117849894D01*
X146961314Y-117864279D01*
X147110157Y-117877278D01*
X147239899Y-117888154D01*
X147341985Y-117896168D01*
X147391967Y-117899654D01*
X147821719Y-117926491D01*
X148219324Y-117950810D01*
X148594018Y-117973126D01*
X148955037Y-117993953D01*
X149311618Y-118013802D01*
X149672996Y-118033189D01*
X150048408Y-118052627D01*
X150447091Y-118072629D01*
X150878280Y-118093709D01*
X150905633Y-118095031D01*
X152524883Y-118173256D01*
X154669356Y-118167078D01*
X156813828Y-118160900D01*
X156745542Y-118284675D01*
X156710386Y-118350411D01*
X156696829Y-118381130D01*
X156705069Y-118376642D01*
X156735304Y-118336757D01*
X156787733Y-118261284D01*
X156820851Y-118212344D01*
X156878461Y-118134852D01*
X156956431Y-118041050D01*
X157044048Y-117943376D01*
X157121637Y-117863094D01*
X157195097Y-117788958D01*
X157256164Y-117724730D01*
X157299189Y-117676548D01*
X157318520Y-117650548D01*
X157319049Y-117648648D01*
X157298659Y-117643721D01*
X157240388Y-117640411D01*
X157148657Y-117638759D01*
X157027888Y-117638809D01*
X156882504Y-117640602D01*
X156752925Y-117643284D01*
X156349776Y-117652693D01*
X155984853Y-117660523D01*
X155654074Y-117666712D01*
X155353359Y-117671198D01*
X155078626Y-117673919D01*
X154825794Y-117674815D01*
X154590783Y-117673822D01*
X154369512Y-117670881D01*
X154157899Y-117665928D01*
X153951865Y-117658902D01*
X153747327Y-117649741D01*
X153540206Y-117638384D01*
X153326419Y-117624770D01*
X153101887Y-117608835D01*
X152862528Y-117590519D01*
X152768300Y-117583039D01*
X152306002Y-117548742D01*
X151884530Y-117523124D01*
X151503281Y-117506161D01*
X151161651Y-117497828D01*
X150859037Y-117498102D01*
X150729583Y-117501215D01*
X150494029Y-117504912D01*
X150220825Y-117502119D01*
X149914127Y-117493001D01*
X149578090Y-117477720D01*
X149216873Y-117456440D01*
X148834630Y-117429324D01*
X148767800Y-117424141D01*
X148628044Y-117413331D01*
X148454341Y-117400153D01*
X148254970Y-117385220D01*
X148038212Y-117369146D01*
X147812346Y-117352546D01*
X147585653Y-117336032D01*
X147366414Y-117320218D01*
X147339050Y-117318256D01*
X146883215Y-117284790D01*
X146462798Y-117252031D01*
X146070910Y-117219216D01*
X145700661Y-117185581D01*
X145345161Y-117150363D01*
X144997522Y-117112798D01*
X144650852Y-117072121D01*
X144298263Y-117027571D01*
X143932866Y-116978382D01*
X143547770Y-116923792D01*
X143136086Y-116863036D01*
X142872883Y-116823219D01*
X142684639Y-116795022D01*
X142497776Y-116767957D01*
X142319342Y-116742978D01*
X142156382Y-116721040D01*
X142015942Y-116703096D01*
X141905067Y-116690099D01*
X141846300Y-116684237D01*
X141817765Y-116681522D01*
X166421921Y-116681522D01*
X166421926Y-116681622D01*
X166440218Y-116695162D01*
X166489312Y-116723157D01*
X166561900Y-116761628D01*
X166650676Y-116806595D01*
X166658284Y-116810367D01*
X166795050Y-116882754D01*
X166950508Y-116972651D01*
X167110229Y-117071202D01*
X167259783Y-117169551D01*
X167365548Y-117244455D01*
X167383032Y-117254924D01*
X167405286Y-117260583D01*
X167437958Y-117260577D01*
X167486701Y-117254048D01*
X167557164Y-117240139D01*
X167654998Y-117217993D01*
X167785855Y-117186754D01*
X167852382Y-117170628D01*
X168407188Y-117030696D01*
X168930034Y-116887875D01*
X169431294Y-116739094D01*
X169921340Y-116581279D01*
X170384541Y-116420693D01*
X170646872Y-116325314D01*
X170885083Y-116235395D01*
X171107485Y-116147333D01*
X171322389Y-116057528D01*
X171538105Y-115962378D01*
X171762943Y-115858283D01*
X172005215Y-115741641D01*
X172273230Y-115608850D01*
X172368633Y-115560926D01*
X172531028Y-115477047D01*
X172685875Y-115392298D01*
X172838309Y-115303308D01*
X172993467Y-115206708D01*
X173156484Y-115099126D01*
X173332497Y-114977191D01*
X173526641Y-114837534D01*
X173744053Y-114676783D01*
X173936874Y-114531722D01*
X174071832Y-114429725D01*
X174196673Y-114335621D01*
X174307220Y-114252539D01*
X174399298Y-114183608D01*
X174468730Y-114131956D01*
X174511340Y-114100713D01*
X174522699Y-114092816D01*
X174531044Y-114087931D01*
X174537261Y-114087250D01*
X174541076Y-114095167D01*
X174542212Y-114116078D01*
X174540395Y-114154379D01*
X174535351Y-114214464D01*
X174526804Y-114300729D01*
X174514480Y-114417569D01*
X174498104Y-114569379D01*
X174485781Y-114683117D01*
X174469523Y-114840899D01*
X174452678Y-115017516D01*
X174436867Y-115195135D01*
X174423711Y-115355925D01*
X174419423Y-115413367D01*
X174411947Y-115525588D01*
X174405501Y-115612962D01*
X174396709Y-115682133D01*
X174382198Y-115739745D01*
X174358594Y-115792442D01*
X174322524Y-115846868D01*
X174270612Y-115909668D01*
X174199486Y-115987486D01*
X174105770Y-116086965D01*
X174044010Y-116152642D01*
X173869697Y-116334107D01*
X173684167Y-116517915D01*
X173483995Y-116707106D01*
X173265760Y-116904718D01*
X173026041Y-117113793D01*
X172761414Y-117337368D01*
X172468457Y-117578483D01*
X172146383Y-117838075D01*
X171811480Y-118102004D01*
X171498612Y-118340474D01*
X171200455Y-118558524D01*
X170909683Y-118761193D01*
X170618973Y-118953519D01*
X170320999Y-119140541D01*
X170008437Y-119327298D01*
X169839217Y-119425115D01*
X169678826Y-119514152D01*
X169491569Y-119613564D01*
X169286275Y-119719014D01*
X169071769Y-119826161D01*
X168856880Y-119930668D01*
X168650433Y-120028196D01*
X168461257Y-120114406D01*
X168298179Y-120184960D01*
X168267670Y-120197546D01*
X168174183Y-120238569D01*
X168110873Y-120274763D01*
X168067253Y-120313061D01*
X168041221Y-120347227D01*
X167994251Y-120408120D01*
X167921577Y-120489932D01*
X167829737Y-120586148D01*
X167725272Y-120690253D01*
X167614718Y-120795732D01*
X167504615Y-120896071D01*
X167401502Y-120984756D01*
X167400541Y-120985551D01*
X167260959Y-121098126D01*
X167135115Y-121192173D01*
X167009615Y-121276760D01*
X166871068Y-121360951D01*
X166720532Y-121445871D01*
X166609946Y-121507182D01*
X166533218Y-121551411D01*
X166491264Y-121579081D01*
X166485003Y-121590720D01*
X166515351Y-121586851D01*
X166583225Y-121567999D01*
X166689541Y-121534690D01*
X166808407Y-121496188D01*
X166951200Y-121448837D01*
X167086868Y-121401852D01*
X167219599Y-121353415D01*
X167353581Y-121301710D01*
X167493003Y-121244918D01*
X167642051Y-121181223D01*
X167804916Y-121108806D01*
X167985784Y-121025851D01*
X168188844Y-120930540D01*
X168418285Y-120821056D01*
X168678295Y-120695582D01*
X168886717Y-120594349D01*
X169219627Y-120431341D01*
X169518166Y-120282807D01*
X169786715Y-120146190D01*
X170029658Y-120018932D01*
X170251378Y-119898476D01*
X170456260Y-119782264D01*
X170648685Y-119667738D01*
X170833037Y-119552341D01*
X171013700Y-119433515D01*
X171195057Y-119308703D01*
X171381491Y-119175346D01*
X171577386Y-119030887D01*
X171617076Y-119001195D01*
X171833564Y-118841860D01*
X172025046Y-118707861D01*
X172197538Y-118595729D01*
X172357056Y-118501996D01*
X172509615Y-118423193D01*
X172661233Y-118355850D01*
X172817924Y-118296498D01*
X172870127Y-118278624D01*
X172960021Y-118249447D01*
X173033973Y-118227150D01*
X173083556Y-118214162D01*
X173100268Y-118212279D01*
X173097390Y-118234082D01*
X173085154Y-118291342D01*
X173064866Y-118378548D01*
X173037836Y-118490187D01*
X173005371Y-118620750D01*
X172973001Y-118748276D01*
X172912910Y-118985650D01*
X172864191Y-119184453D01*
X172826395Y-119346764D01*
X172799073Y-119474663D01*
X172781778Y-119570229D01*
X172774061Y-119635540D01*
X172774650Y-119668521D01*
X172781432Y-119683556D01*
X172798654Y-119684225D01*
X172831735Y-119667678D01*
X172886092Y-119631064D01*
X172967143Y-119571532D01*
X172986318Y-119557162D01*
X173064998Y-119495628D01*
X173166616Y-119412466D01*
X173282904Y-119314652D01*
X173405593Y-119209162D01*
X173526413Y-119102971D01*
X173554939Y-119077506D01*
X173713085Y-118936788D01*
X173857707Y-118810492D01*
X173994244Y-118694372D01*
X174128138Y-118584183D01*
X174264830Y-118475678D01*
X174409760Y-118364611D01*
X174568369Y-118246738D01*
X174746098Y-118117811D01*
X174948389Y-117973585D01*
X175167925Y-117818775D01*
X175233595Y-117771470D01*
X175283344Y-117733413D01*
X175309008Y-117710932D01*
X175310800Y-117708037D01*
X175300494Y-117679041D01*
X175273115Y-117623862D01*
X175233969Y-117552255D01*
X175188362Y-117473970D01*
X175147608Y-117408101D01*
X175055460Y-117247152D01*
X174966687Y-117060944D01*
X174888940Y-116866338D01*
X174852247Y-116757333D01*
X174793047Y-116566950D01*
X174793451Y-115889617D01*
X174793987Y-115684754D01*
X174795622Y-115513103D01*
X174798796Y-115365545D01*
X174803951Y-115232964D01*
X174811526Y-115106241D01*
X174821962Y-114976259D01*
X174835700Y-114833902D01*
X174851748Y-114683117D01*
X174869132Y-114514951D01*
X174885478Y-114339584D01*
X174899876Y-114168133D01*
X174911414Y-114011716D01*
X174919181Y-113881452D01*
X174921128Y-113836450D01*
X174932629Y-113641375D01*
X174953762Y-113451618D01*
X174986270Y-113257830D01*
X175031894Y-113050659D01*
X175092377Y-112820754D01*
X175142658Y-112647411D01*
X175204224Y-112431520D01*
X175270538Y-112181454D01*
X175339896Y-111904873D01*
X175410593Y-111609442D01*
X175480925Y-111302822D01*
X175549187Y-110992676D01*
X175613675Y-110686667D01*
X175672683Y-110392456D01*
X175724507Y-110117707D01*
X175767443Y-109870082D01*
X175784583Y-109761867D01*
X175835847Y-109387340D01*
X175875321Y-109016604D01*
X175902675Y-108656185D01*
X175917575Y-108312612D01*
X175919691Y-107992416D01*
X175908690Y-107702123D01*
X175896721Y-107555501D01*
X175888259Y-107469155D01*
X175880463Y-107397096D01*
X175871145Y-107334590D01*
X175858115Y-107276908D01*
X175839186Y-107219318D01*
X175812169Y-107157089D01*
X175774874Y-107085491D01*
X175725113Y-106999792D01*
X175660698Y-106895262D01*
X175579440Y-106767169D01*
X175479151Y-106610782D01*
X175409444Y-106502200D01*
X175277856Y-106295180D01*
X175168170Y-106118043D01*
X175077842Y-105966107D01*
X175004331Y-105834691D01*
X174945096Y-105719113D01*
X174897594Y-105614692D01*
X174859282Y-105516747D01*
X174834783Y-105443867D01*
X174799737Y-105321337D01*
X174777142Y-105210282D01*
X174766856Y-105101064D01*
X174768737Y-104984049D01*
X174782642Y-104849597D01*
X174808431Y-104688074D01*
X174822518Y-104611190D01*
X174923172Y-104152194D01*
X175047308Y-103723893D01*
X175196790Y-103320584D01*
X175363275Y-102956783D01*
X175441728Y-102802980D01*
X175513731Y-102668151D01*
X175584049Y-102544822D01*
X175657447Y-102425518D01*
X175738690Y-102302766D01*
X175832541Y-102169092D01*
X175943767Y-102017020D01*
X176068698Y-101850251D01*
X176445819Y-101343319D01*
X176810822Y-100838386D01*
X177160443Y-100340224D01*
X177491419Y-99853607D01*
X177800486Y-99383310D01*
X178084382Y-98934104D01*
X178263986Y-98638783D01*
X178364822Y-98472049D01*
X178471603Y-98299088D01*
X178580510Y-98125804D01*
X178687726Y-97958105D01*
X178789434Y-97801897D01*
X178881817Y-97663085D01*
X178961058Y-97547577D01*
X179023339Y-97461277D01*
X179034289Y-97446923D01*
X179095619Y-97374189D01*
X179179810Y-97283379D01*
X179277625Y-97184015D01*
X179379825Y-97085621D01*
X179426476Y-97042664D01*
X179521974Y-96953400D01*
X179612177Y-96864060D01*
X179689617Y-96782404D01*
X179746827Y-96716193D01*
X179767752Y-96687992D01*
X179845463Y-96557304D01*
X179931748Y-96386889D01*
X180025966Y-96178341D01*
X180127474Y-95933251D01*
X180235631Y-95653210D01*
X180349794Y-95339810D01*
X180469321Y-94994644D01*
X180557134Y-94731031D01*
X180850409Y-93770855D01*
X181103642Y-92800666D01*
X181316204Y-91823260D01*
X181487464Y-90841431D01*
X181574801Y-90214450D01*
X181633630Y-89696705D01*
X181683324Y-89156830D01*
X181723439Y-88604153D01*
X181753533Y-88048003D01*
X181773163Y-87497709D01*
X181781884Y-86962600D01*
X181779253Y-86452004D01*
X181770075Y-86104583D01*
X181757643Y-85797733D01*
X181743663Y-85515145D01*
X181728357Y-85259887D01*
X181711946Y-85035028D01*
X181694652Y-84843634D01*
X181676695Y-84688774D01*
X181660328Y-84584117D01*
X181573751Y-84208790D01*
X181459081Y-83855982D01*
X181317716Y-83528608D01*
X181151058Y-83229584D01*
X180960507Y-82961826D01*
X180789054Y-82769307D01*
X180704532Y-82689973D01*
X180596737Y-82597809D01*
X180476255Y-82501057D01*
X180353670Y-82407964D01*
X180239566Y-82326774D01*
X180144529Y-82265731D01*
X180136800Y-82261236D01*
X180079327Y-82232802D01*
X180004130Y-82201492D01*
X179924719Y-82172234D01*
X179854603Y-82149958D01*
X179807294Y-82139591D01*
X179802726Y-82139367D01*
X179797839Y-82158650D01*
X179800151Y-82210665D01*
X179808436Y-82286656D01*
X179821467Y-82377867D01*
X179838018Y-82475544D01*
X179856861Y-82570931D01*
X179872919Y-82640334D01*
X179895076Y-82716646D01*
X179930241Y-82823626D01*
X179975398Y-82952759D01*
X180027536Y-83095529D01*
X180083638Y-83243420D01*
X180112647Y-83317667D01*
X180202276Y-83549503D01*
X180290453Y-83786732D01*
X180374753Y-84022269D01*
X180452753Y-84249029D01*
X180522028Y-84459927D01*
X180580154Y-84647877D01*
X180624708Y-84805794D01*
X180633656Y-84840603D01*
X180663394Y-84965967D01*
X180688172Y-85087408D01*
X180708674Y-85211341D01*
X180725585Y-85344184D01*
X180739589Y-85492352D01*
X180751370Y-85662263D01*
X180761612Y-85860332D01*
X180770999Y-86092976D01*
X180772918Y-86146599D01*
X180784536Y-86864089D01*
X180770326Y-87606156D01*
X180730763Y-88364204D01*
X180666321Y-89129639D01*
X180577474Y-89893865D01*
X180558386Y-90034533D01*
X180394454Y-91063373D01*
X180188968Y-92088101D01*
X179978827Y-92966117D01*
X179948641Y-93082764D01*
X179920212Y-93191166D01*
X179892114Y-93296372D01*
X179862920Y-93403431D01*
X179831204Y-93517391D01*
X179795540Y-93643302D01*
X179754501Y-93786212D01*
X179706661Y-93951171D01*
X179650594Y-94143229D01*
X179584873Y-94367433D01*
X179534619Y-94538520D01*
X179343999Y-95135020D01*
X179117919Y-95749190D01*
X178857816Y-96377952D01*
X178565130Y-97018230D01*
X178241302Y-97666944D01*
X177887769Y-98321020D01*
X177505973Y-98977378D01*
X177304874Y-99305533D01*
X177000020Y-99783596D01*
X176703094Y-100225771D01*
X176410131Y-100636795D01*
X176117163Y-101021408D01*
X175820225Y-101384350D01*
X175515350Y-101730358D01*
X175198572Y-102064172D01*
X174865925Y-102390531D01*
X174513442Y-102714174D01*
X174284217Y-102914675D01*
X174051499Y-103115725D01*
X173849376Y-103292892D01*
X173675533Y-103448925D01*
X173527659Y-103586573D01*
X173403440Y-103708585D01*
X173300564Y-103817710D01*
X173216718Y-103916696D01*
X173149590Y-104008293D01*
X173096866Y-104095251D01*
X173056234Y-104180317D01*
X173025381Y-104266241D01*
X173001995Y-104355773D01*
X172983762Y-104451660D01*
X172981998Y-104462551D01*
X172972411Y-104650950D01*
X173004217Y-104832637D01*
X173076715Y-105005411D01*
X173189207Y-105167072D01*
X173215531Y-105196881D01*
X173284138Y-105267016D01*
X173358515Y-105332145D01*
X173444552Y-105396169D01*
X173548145Y-105462985D01*
X173675186Y-105536494D01*
X173831569Y-105620595D01*
X173943819Y-105678727D01*
X174122135Y-105772192D01*
X174266510Y-105853082D01*
X174382095Y-105925066D01*
X174474040Y-105991818D01*
X174547494Y-106057008D01*
X174607610Y-106124309D01*
X174649166Y-106181547D01*
X174749227Y-106363395D01*
X174831435Y-106581394D01*
X174895261Y-106833070D01*
X174940179Y-107115950D01*
X174965660Y-107427559D01*
X174971699Y-107693909D01*
X174970032Y-107842578D01*
X174965046Y-107990332D01*
X174956188Y-108142859D01*
X174942907Y-108305847D01*
X174924652Y-108484985D01*
X174900869Y-108685960D01*
X174871007Y-108914460D01*
X174834514Y-109176175D01*
X174814176Y-109317367D01*
X174787801Y-109500286D01*
X174766509Y-109653295D01*
X174749597Y-109784816D01*
X174736358Y-109903270D01*
X174726089Y-110017079D01*
X174718085Y-110134664D01*
X174711640Y-110264447D01*
X174706050Y-110414848D01*
X174700610Y-110594290D01*
X174697263Y-110714367D01*
X174690242Y-110966093D01*
X174683969Y-111179456D01*
X174678194Y-111358412D01*
X174672668Y-111506919D01*
X174667142Y-111628934D01*
X174661368Y-111728416D01*
X174655094Y-111809322D01*
X174648074Y-111875608D01*
X174640056Y-111931234D01*
X174630793Y-111980156D01*
X174620034Y-112026331D01*
X174612933Y-112053707D01*
X174531739Y-112298951D01*
X174417431Y-112556680D01*
X174274699Y-112820332D01*
X174108235Y-113083345D01*
X173922730Y-113339156D01*
X173722876Y-113581204D01*
X173513363Y-113802924D01*
X173298884Y-113997756D01*
X173130633Y-114127209D01*
X172978405Y-114226502D01*
X172789214Y-114336347D01*
X172566634Y-114455093D01*
X172314236Y-114581085D01*
X172035594Y-114712669D01*
X171734281Y-114848193D01*
X171413869Y-114986003D01*
X171077930Y-115124446D01*
X170730039Y-115261867D01*
X170444334Y-115370401D01*
X170182148Y-115466150D01*
X169895920Y-115566954D01*
X169592567Y-115670606D01*
X169279007Y-115774896D01*
X168962156Y-115877616D01*
X168648933Y-115976557D01*
X168346254Y-116069511D01*
X168061037Y-116154269D01*
X167800200Y-116228622D01*
X167570659Y-116290362D01*
X167532050Y-116300257D01*
X167390905Y-116336718D01*
X167251498Y-116373829D01*
X167123588Y-116408913D01*
X167016930Y-116439292D01*
X166941284Y-116462288D01*
X166939383Y-116462904D01*
X166849463Y-116493972D01*
X166751668Y-116530676D01*
X166653922Y-116569669D01*
X166564150Y-116607599D01*
X166490276Y-116641118D01*
X166440224Y-116666875D01*
X166421921Y-116681522D01*
X141817765Y-116681522D01*
X141462038Y-116647676D01*
X141115963Y-116607385D01*
X140804043Y-116562770D01*
X140522249Y-116513234D01*
X140266550Y-116458182D01*
X140190248Y-116439472D01*
X140101421Y-116416181D01*
X139978124Y-116382639D01*
X139825606Y-116340356D01*
X139649111Y-116290844D01*
X139453886Y-116235615D01*
X139245179Y-116176179D01*
X139028234Y-116114050D01*
X138808298Y-116050738D01*
X138590619Y-115987755D01*
X138380441Y-115926612D01*
X138183012Y-115868821D01*
X138003577Y-115815893D01*
X137847384Y-115769341D01*
X137719678Y-115730675D01*
X137625706Y-115701407D01*
X137602383Y-115693869D01*
X137249728Y-115570615D01*
X136924258Y-115441432D01*
X136627732Y-115307424D01*
X136361909Y-115169695D01*
X136128546Y-115029348D01*
X135929401Y-114887487D01*
X135766233Y-114745216D01*
X135640800Y-114603637D01*
X135554859Y-114463855D01*
X135525762Y-114390365D01*
X135510902Y-114327498D01*
X135499163Y-114240131D01*
X135490094Y-114123178D01*
X135483243Y-113971551D01*
X135480505Y-113881042D01*
X135469909Y-113481133D01*
X135244979Y-113494046D01*
X135063837Y-113511432D01*
X134871601Y-113544195D01*
X134661787Y-113593855D01*
X134427912Y-113661933D01*
X134183967Y-113742816D01*
X134044973Y-113790696D01*
X133899783Y-113840059D01*
X133761067Y-113886642D01*
X133641490Y-113926180D01*
X133580717Y-113945863D01*
X133487007Y-113976699D01*
X133408208Y-114004274D01*
X133353091Y-114025408D01*
X133330906Y-114036369D01*
X130973451Y-114036369D01*
X130985110Y-114033381D01*
X131163109Y-113987750D01*
X131326688Y-113945807D01*
X131421717Y-113921434D01*
X131646024Y-113862298D01*
X131857419Y-113802901D01*
X132065756Y-113740144D01*
X132280887Y-113670931D01*
X132512667Y-113592165D01*
X132770949Y-113500747D01*
X132844814Y-113474106D01*
X133010405Y-113414751D01*
X133203345Y-113346519D01*
X133410810Y-113273888D01*
X133619977Y-113201333D01*
X133818022Y-113133331D01*
X133929967Y-113095296D01*
X134158876Y-113016965D01*
X134353611Y-112947979D01*
X134520599Y-112885699D01*
X134666269Y-112827485D01*
X134797047Y-112770699D01*
X134919361Y-112712701D01*
X135039638Y-112650851D01*
X135123955Y-112605019D01*
X135393387Y-112451847D01*
X135625542Y-112310930D01*
X135823004Y-112180263D01*
X135988355Y-112057841D01*
X136124178Y-111941659D01*
X136233056Y-111829714D01*
X136317572Y-111720000D01*
X136364099Y-111642559D01*
X136424903Y-111510124D01*
X136468056Y-111378014D01*
X136489362Y-111259978D01*
X136490882Y-111227129D01*
X136478870Y-111139199D01*
X136446016Y-111033160D01*
X136397894Y-110923985D01*
X136343692Y-110831838D01*
X136289309Y-110763008D01*
X136225471Y-110705142D01*
X136144394Y-110653345D01*
X136038298Y-110602726D01*
X135899400Y-110548394D01*
X135883719Y-110542682D01*
X135739257Y-110485999D01*
X135620861Y-110427644D01*
X135518507Y-110360269D01*
X135422170Y-110276520D01*
X135321823Y-110169049D01*
X135239262Y-110070136D01*
X135105053Y-109912253D01*
X134984555Y-109790981D01*
X134872195Y-109705242D01*
X134762400Y-109653962D01*
X134649595Y-109636064D01*
X134528209Y-109650472D01*
X134392667Y-109696111D01*
X134237396Y-109771904D01*
X134100580Y-109850321D01*
X133917416Y-109966467D01*
X133707319Y-110111503D01*
X133472565Y-110283678D01*
X133215428Y-110481240D01*
X132938184Y-110702438D01*
X132643109Y-110945518D01*
X132332477Y-111208730D01*
X132300133Y-111236533D01*
X131890958Y-111583790D01*
X131505215Y-111900493D01*
X131139449Y-112188793D01*
X130790207Y-112450836D01*
X130454037Y-112688770D01*
X130127485Y-112904745D01*
X129807098Y-113100908D01*
X129489423Y-113279407D01*
X129171006Y-113442390D01*
X128848394Y-113592006D01*
X128518134Y-113730403D01*
X128176773Y-113859729D01*
X127962824Y-113934670D01*
X127743608Y-114011722D01*
X127560131Y-114081920D01*
X127406861Y-114147827D01*
X127278262Y-114212003D01*
X127168802Y-114277010D01*
X127072945Y-114345408D01*
X127069491Y-114348113D01*
X126992101Y-114411007D01*
X126949728Y-114453930D01*
X126942920Y-114481483D01*
X122411040Y-114481483D01*
X122344965Y-114432563D01*
X122126007Y-114224598D01*
X121938961Y-113993885D01*
X121781903Y-113738479D01*
X121652913Y-113456437D01*
X121599160Y-113307283D01*
X121577379Y-113237100D01*
X121560077Y-113168346D01*
X121546988Y-113095748D01*
X121537848Y-113014034D01*
X121532394Y-112917933D01*
X121530360Y-112802172D01*
X121531483Y-112661480D01*
X121535499Y-112490584D01*
X121542142Y-112284212D01*
X121544514Y-112217200D01*
X121558930Y-111905416D01*
X121579376Y-111626653D01*
X121607338Y-111371840D01*
X121644303Y-111131910D01*
X121691757Y-110897793D01*
X121751188Y-110660420D01*
X121824082Y-110410723D01*
X121858548Y-110301617D01*
X122014434Y-109866595D01*
X122206025Y-109417030D01*
X122430997Y-108956983D01*
X122687029Y-108490512D01*
X122971796Y-108021679D01*
X123282977Y-107554543D01*
X123618249Y-107093164D01*
X123898929Y-106735033D01*
X124337303Y-106213415D01*
X124809949Y-105687516D01*
X125310258Y-105164045D01*
X125831619Y-104649711D01*
X126367423Y-104151224D01*
X126911061Y-103675293D01*
X126923876Y-103664435D01*
X127260813Y-103385151D01*
X127629981Y-103090189D01*
X128026107Y-102783505D01*
X128443916Y-102469056D01*
X128878136Y-102150797D01*
X129323492Y-101832687D01*
X129774712Y-101518682D01*
X129877940Y-101448022D01*
X129963287Y-101390592D01*
X130022588Y-101354059D01*
X130064363Y-101334873D01*
X130097129Y-101329489D01*
X130129405Y-101334358D01*
X130142384Y-101337892D01*
X130202648Y-101351851D01*
X130261809Y-101356501D01*
X130326865Y-101350334D01*
X130404816Y-101331842D01*
X130502662Y-101299518D01*
X130627401Y-101251854D01*
X130725228Y-101212336D01*
X130980924Y-101106127D01*
X131232719Y-100998059D01*
X131484835Y-100886082D01*
X131741492Y-100768148D01*
X132006909Y-100642206D01*
X132285307Y-100506209D01*
X132580907Y-100358105D01*
X132897927Y-100195847D01*
X133240589Y-100017384D01*
X133613113Y-99820668D01*
X133840219Y-99699700D01*
X134016873Y-99605341D01*
X134207746Y-99503373D01*
X134402610Y-99399261D01*
X134591238Y-99298467D01*
X134763404Y-99206458D01*
X134908881Y-99128696D01*
X134914217Y-99125844D01*
X135060114Y-99048180D01*
X135209886Y-98969047D01*
X135354295Y-98893283D01*
X135484104Y-98825726D01*
X135590075Y-98771215D01*
X135627817Y-98752083D01*
X135722543Y-98705585D01*
X135840266Y-98649685D01*
X135976272Y-98586463D01*
X136125843Y-98517995D01*
X136284262Y-98446359D01*
X136446815Y-98373635D01*
X136608784Y-98301898D01*
X136765452Y-98233228D01*
X136912105Y-98169702D01*
X137044025Y-98113398D01*
X137156496Y-98066393D01*
X137244802Y-98030767D01*
X137304226Y-98008596D01*
X137330052Y-98001959D01*
X137330271Y-98002027D01*
X137344192Y-98022316D01*
X137375056Y-98077184D01*
X137421107Y-98163225D01*
X137480590Y-98277037D01*
X137551751Y-98415218D01*
X137632834Y-98574363D01*
X137722085Y-98751070D01*
X137817749Y-98941936D01*
X137895442Y-99097954D01*
X138062981Y-99433755D01*
X138215819Y-99736488D01*
X138356873Y-100011579D01*
X138489062Y-100264452D01*
X138615302Y-100500532D01*
X138738512Y-100725245D01*
X138861609Y-100944016D01*
X138987511Y-101162269D01*
X139119137Y-101385429D01*
X139184585Y-101494847D01*
X139604693Y-102172178D01*
X140040377Y-102831705D01*
X140488787Y-103469678D01*
X140947074Y-104082350D01*
X141412386Y-104665971D01*
X141881875Y-105216793D01*
X142352691Y-105731066D01*
X142594699Y-105980386D01*
X142734269Y-106119949D01*
X142892675Y-106276215D01*
X143065139Y-106444627D01*
X143246886Y-106620631D01*
X143433138Y-106799670D01*
X143619118Y-106977189D01*
X143800049Y-107148630D01*
X143971154Y-107309438D01*
X144127657Y-107455057D01*
X144264779Y-107580930D01*
X144377745Y-107682503D01*
X144399122Y-107701346D01*
X145113093Y-108300443D01*
X145851279Y-108865962D01*
X146614439Y-109398361D01*
X147403330Y-109898099D01*
X148218711Y-110365636D01*
X149061339Y-110801431D01*
X149931973Y-111205942D01*
X150751488Y-111548144D01*
X151381418Y-111790061D01*
X151984920Y-112005658D01*
X152567591Y-112196302D01*
X153135031Y-112363358D01*
X153692836Y-112508191D01*
X154246604Y-112632167D01*
X154801934Y-112736652D01*
X155364423Y-112823010D01*
X155939670Y-112892609D01*
X156461883Y-112941156D01*
X156593026Y-112949410D01*
X156758892Y-112956159D01*
X156952513Y-112961406D01*
X157166924Y-112965150D01*
X157395158Y-112967395D01*
X157630247Y-112968140D01*
X157865225Y-112967388D01*
X158093125Y-112965140D01*
X158306981Y-112961397D01*
X158499826Y-112956161D01*
X158664692Y-112949432D01*
X158794614Y-112941213D01*
X158800800Y-112940701D01*
X159587802Y-112858831D01*
X160348807Y-112747099D01*
X161088967Y-112604313D01*
X161813434Y-112429278D01*
X162527360Y-112220802D01*
X163235896Y-111977691D01*
X163658437Y-111815556D01*
X164402615Y-111500898D01*
X165119968Y-111160519D01*
X165813522Y-110792411D01*
X166486300Y-110394565D01*
X167141327Y-109964973D01*
X167781627Y-109501626D01*
X168410223Y-109002515D01*
X169030141Y-108465633D01*
X169644403Y-107888970D01*
X169797688Y-107738107D01*
X170271220Y-107251209D01*
X170725570Y-106749586D01*
X171163641Y-106229372D01*
X171588336Y-105686702D01*
X172002558Y-105117710D01*
X172409209Y-104518531D01*
X172811193Y-103885299D01*
X173211411Y-103214150D01*
X173265548Y-103120283D01*
X173706868Y-102311436D01*
X174118775Y-101472584D01*
X174501033Y-100604395D01*
X174853406Y-99707536D01*
X175175657Y-98782676D01*
X175467550Y-97830483D01*
X175728850Y-96851624D01*
X175959318Y-95846767D01*
X176112583Y-95072200D01*
X176187395Y-94651469D01*
X176254443Y-94239615D01*
X176314229Y-93831463D01*
X176367254Y-93421836D01*
X176414019Y-93005557D01*
X176455025Y-92577451D01*
X176490773Y-92132342D01*
X176521764Y-91665053D01*
X176548499Y-91170409D01*
X176571479Y-90643232D01*
X176588908Y-90150950D01*
X176590342Y-90049529D01*
X176589567Y-89911668D01*
X176586791Y-89743191D01*
X176582219Y-89549922D01*
X176576059Y-89337686D01*
X176568516Y-89112306D01*
X176559798Y-88879608D01*
X176550112Y-88645414D01*
X176539663Y-88415549D01*
X176528659Y-88195838D01*
X176517305Y-87992104D01*
X176505936Y-87812033D01*
X176466628Y-87298448D01*
X176417706Y-86769291D01*
X176360202Y-86232498D01*
X176295153Y-85696003D01*
X176223593Y-85167743D01*
X176146555Y-84655651D01*
X176065075Y-84167664D01*
X175980187Y-83711715D01*
X175954999Y-83586222D01*
X175950574Y-83548482D01*
X175959939Y-83517822D01*
X175989653Y-83483962D01*
X176046275Y-83436622D01*
X176054725Y-83429915D01*
X176136797Y-83368487D01*
X176246913Y-83291198D01*
X176376586Y-83203581D01*
X176517333Y-83111169D01*
X176660668Y-83019497D01*
X176798105Y-82934098D01*
X176921160Y-82860506D01*
X176975945Y-82829136D01*
X177217722Y-82701856D01*
X177484227Y-82576222D01*
X177762241Y-82457754D01*
X178038544Y-82351969D01*
X178299916Y-82264387D01*
X178397662Y-82235592D01*
X178773156Y-82140631D01*
X179129709Y-82073367D01*
X179478978Y-82032246D01*
X179832620Y-82015711D01*
X180037707Y-82016627D01*
X180037707Y-82016627D01*
G37*
X180037707Y-82016627D02*
X180182405Y-82020140D01*
X180292817Y-82024243D01*
X180376991Y-82029850D01*
X180442973Y-82037878D01*
X180498811Y-82049243D01*
X180552550Y-82064860D01*
X180597550Y-82080355D01*
X180752525Y-82150075D01*
X180887901Y-82243921D01*
X181013265Y-82369190D01*
X181071293Y-82440785D01*
X181139692Y-82528362D01*
X181220731Y-82629642D01*
X181299568Y-82726128D01*
X181318615Y-82749033D01*
X181410304Y-82861050D01*
X181482193Y-82955828D01*
X181542684Y-83046251D01*
X181600178Y-83145202D01*
X181663079Y-83265564D01*
X181688267Y-83315816D01*
X181819708Y-83615515D01*
X181928253Y-83941440D01*
X182014732Y-84296741D01*
X182079974Y-84684569D01*
X182105937Y-84901617D01*
X182122319Y-85094877D01*
X182135354Y-85325239D01*
X182145106Y-85587608D01*
X182151641Y-85876892D01*
X182155024Y-86187995D01*
X182155322Y-86515825D01*
X182152599Y-86855286D01*
X182146920Y-87201286D01*
X182138352Y-87548731D01*
X182126960Y-87892526D01*
X182112809Y-88227577D01*
X182095964Y-88548791D01*
X182076492Y-88851074D01*
X182054458Y-89129332D01*
X182051116Y-89166700D01*
X181944441Y-90130410D01*
X181800631Y-91084411D01*
X181620337Y-92025783D01*
X181404211Y-92951605D01*
X181152907Y-93858956D01*
X180867075Y-94744917D01*
X180704109Y-95198628D01*
X180600803Y-95472474D01*
X180506085Y-95715916D01*
X180420771Y-95926986D01*
X180345674Y-96103720D01*
X180281610Y-96244152D01*
X180229392Y-96346316D01*
X180226064Y-96352225D01*
X180018034Y-96756119D01*
X179850878Y-97163345D01*
X179849317Y-97167700D01*
X179813657Y-97262813D01*
X179771305Y-97366949D01*
X179720972Y-97482689D01*
X179661369Y-97612612D01*
X179591209Y-97759298D01*
X179509203Y-97925329D01*
X179414062Y-98113285D01*
X179304498Y-98325745D01*
X179179222Y-98565290D01*
X179036945Y-98834501D01*
X178876380Y-99135957D01*
X178728908Y-99411367D01*
X178564020Y-99720283D01*
X178400880Y-100028973D01*
X178240999Y-100334419D01*
X178085891Y-100633603D01*
X177937069Y-100923509D01*
X177796045Y-101201120D01*
X177664332Y-101463418D01*
X177543443Y-101707385D01*
X177434890Y-101930006D01*
X177340188Y-102128261D01*
X177260848Y-102299135D01*
X177198383Y-102439610D01*
X177154307Y-102546669D01*
X177146551Y-102567278D01*
X177059350Y-102827403D01*
X176981829Y-103102548D01*
X176919034Y-103373699D01*
X176888253Y-103540343D01*
X176869519Y-103638354D01*
X176841865Y-103761713D01*
X176808872Y-103895326D01*
X176774120Y-104024096D01*
X176770641Y-104036283D01*
X176715327Y-104244106D01*
X176659441Y-104481821D01*
X176605449Y-104737096D01*
X176555815Y-104997599D01*
X176513002Y-105250999D01*
X176479476Y-105484964D01*
X176476661Y-105507367D01*
X176453086Y-105706119D01*
X176433931Y-105889015D01*
X176418899Y-106063184D01*
X176407697Y-106235752D01*
X176400028Y-106413850D01*
X176395597Y-106604606D01*
X176394110Y-106815148D01*
X176395271Y-107052606D01*
X176398785Y-107324107D01*
X176399526Y-107370033D01*
X176403494Y-107667039D01*
X176404769Y-107928996D01*
X176403106Y-108163118D01*
X176398258Y-108376619D01*
X176389980Y-108576714D01*
X176378025Y-108770615D01*
X176362148Y-108965537D01*
X176342103Y-109168694D01*
X176336356Y-109222117D01*
X176287521Y-109613764D01*
X176223706Y-110029708D01*
X176144464Y-110472111D01*
X176049346Y-110943135D01*
X175937905Y-111444943D01*
X175809692Y-111979696D01*
X175664259Y-112549557D01*
X175583905Y-112852200D01*
X175531590Y-113045945D01*
X175488225Y-113204018D01*
X175452170Y-113331737D01*
X175421790Y-113434417D01*
X175395446Y-113517376D01*
X175371501Y-113585930D01*
X175348317Y-113645396D01*
X175324258Y-113701091D01*
X175318657Y-113713426D01*
X175289075Y-113789568D01*
X175267985Y-113874663D01*
X175252734Y-113981384D01*
X175244908Y-114065691D01*
X175236283Y-114161684D01*
X175223579Y-114288273D01*
X175208014Y-114434054D01*
X175190805Y-114587621D01*
X175173635Y-114733702D01*
X175137822Y-115062032D01*
X175112344Y-115366226D01*
X175097240Y-115643589D01*
X175092545Y-115891427D01*
X175098297Y-116107046D01*
X175114533Y-116287750D01*
X175141290Y-116430846D01*
X175149839Y-116461117D01*
X175172122Y-116520166D01*
X175211219Y-116609828D01*
X175263807Y-116723475D01*
X175326566Y-116854482D01*
X175396173Y-116996222D01*
X175469307Y-117142069D01*
X175542646Y-117285397D01*
X175612869Y-117419580D01*
X175676654Y-117537990D01*
X175730680Y-117634003D01*
X175770552Y-117699367D01*
X175811443Y-117759024D01*
X175863947Y-117830979D01*
X175930035Y-117917686D01*
X176011678Y-118021600D01*
X176110848Y-118145176D01*
X176229515Y-118290868D01*
X176369650Y-118461130D01*
X176533226Y-118658417D01*
X176722212Y-118885184D01*
X176739485Y-118905867D01*
X176997429Y-119216759D01*
X177228370Y-119499725D01*
X177434380Y-119757609D01*
X177617531Y-119993252D01*
X177779895Y-120209499D01*
X177923545Y-120409192D01*
X178050551Y-120595175D01*
X178162988Y-120770289D01*
X178262926Y-120937380D01*
X178352439Y-121099288D01*
X178388144Y-121167835D01*
X178537742Y-121506212D01*
X178647655Y-121857639D01*
X178717737Y-122220048D01*
X178747844Y-122591371D01*
X178737832Y-122969541D01*
X178687557Y-123352490D01*
X178596874Y-123738149D01*
X178573089Y-123817975D01*
X178376330Y-124389164D01*
X178138535Y-124962013D01*
X177860811Y-125534170D01*
X177544265Y-126103284D01*
X177341363Y-126434127D01*
X177177927Y-126691638D01*
X177424405Y-126855187D01*
X177866750Y-127159923D01*
X178270874Y-127462459D01*
X178640495Y-127766351D01*
X178979332Y-128075152D01*
X179291104Y-128392416D01*
X179579530Y-128721697D01*
X179848329Y-129066549D01*
X180070022Y-129383367D01*
X180291945Y-129741638D01*
X180489521Y-130111966D01*
X180657931Y-130484580D01*
X180790459Y-130843867D01*
X180847736Y-131031633D01*
X180896317Y-131217845D01*
X180936654Y-131407237D01*
X180969197Y-131604547D01*
X180994399Y-131814509D01*
X181012710Y-132041861D01*
X181024583Y-132291339D01*
X181030467Y-132567678D01*
X181030815Y-132875614D01*
X181026078Y-133219885D01*
X181024437Y-133299200D01*
X181015988Y-133609239D01*
X181004567Y-133882634D01*
X180989501Y-134125010D01*
X180970117Y-134341993D01*
X180945743Y-134539211D01*
X180915708Y-134722288D01*
X180879338Y-134896852D01*
X180835961Y-135068528D01*
X180796785Y-135204200D01*
X180680514Y-135546353D01*
X180539658Y-135883714D01*
X180371266Y-136222080D01*
X180172384Y-136567245D01*
X179940061Y-136925006D01*
X179865042Y-137033321D01*
X179657647Y-137307736D01*
X179415440Y-137591233D01*
X179143572Y-137878922D01*
X178847190Y-138165913D01*
X178531446Y-138447316D01*
X178201488Y-138718241D01*
X177862465Y-138973798D01*
X177704003Y-139085458D01*
X177335198Y-139329138D01*
X176956604Y-139558131D01*
X176562772Y-139775169D01*
X176148258Y-139982989D01*
X175707615Y-140184323D01*
X175235397Y-140381908D01*
X174742329Y-140572455D01*
X174295370Y-140728174D01*
X173813735Y-140875782D01*
X173304568Y-141013728D01*
X172775014Y-141140464D01*
X172232217Y-141254443D01*
X171683322Y-141354114D01*
X171135475Y-141437930D01*
X170595819Y-141504342D01*
X170315467Y-141531963D01*
X169979954Y-141558673D01*
X169629164Y-141580435D01*
X169271028Y-141597068D01*
X168913474Y-141608392D01*
X168564435Y-141614227D01*
X168231839Y-141614392D01*
X167923618Y-141608708D01*
X167647701Y-141596993D01*
X167595550Y-141593811D01*
X166806895Y-141531439D01*
X166052143Y-141448114D01*
X165327988Y-141343074D01*
X164631126Y-141215558D01*
X163958252Y-141064805D01*
X163306060Y-140890053D01*
X162671246Y-140690540D01*
X162050504Y-140465505D01*
X161440529Y-140214185D01*
X161259951Y-140133916D01*
X160732865Y-139877833D01*
X160214026Y-139590683D01*
X159708341Y-139276031D01*
X159220719Y-138937440D01*
X158756066Y-138578475D01*
X158319292Y-138202698D01*
X157915305Y-137813674D01*
X157606149Y-137480705D01*
X157272153Y-137070261D01*
X156976869Y-136643055D01*
X156720452Y-136199333D01*
X156503054Y-135739343D01*
X156461333Y-135638117D01*
X156408011Y-135499118D01*
X156353473Y-135345904D01*
X156300634Y-135187719D01*
X156252413Y-135033807D01*
X156211725Y-134893413D01*
X156181488Y-134775782D01*
X156166890Y-134704921D01*
X156152404Y-134618392D01*
X154808117Y-134603822D01*
X154527875Y-134601288D01*
X154224357Y-134599443D01*
X153906488Y-134598287D01*
X153583194Y-134597821D01*
X153263400Y-134598043D01*
X152956032Y-134598955D01*
X152670015Y-134600557D01*
X152414273Y-134602848D01*
X152333509Y-134603813D01*
X151203187Y-134618373D01*
X151125891Y-134853078D01*
X150949395Y-135330007D01*
X150740826Y-135788206D01*
X150502533Y-136223346D01*
X150236864Y-136631099D01*
X149977995Y-136969032D01*
X149807653Y-137165127D01*
X149609974Y-137376143D01*
X149393234Y-137594117D01*
X149165710Y-137811085D01*
X148935678Y-138019081D01*
X148711415Y-138210143D01*
X148571803Y-138322146D01*
X148077538Y-138684094D01*
X147547331Y-139027770D01*
X146983904Y-139352141D01*
X146389980Y-139656174D01*
X145768282Y-139938834D01*
X145121532Y-140199088D01*
X144452453Y-140435902D01*
X143763768Y-140648243D01*
X143058199Y-140835076D01*
X142338469Y-140995369D01*
X141607301Y-141128087D01*
X140925550Y-141225108D01*
X140279661Y-141292337D01*
X139605610Y-141338609D01*
X138912026Y-141363907D01*
X138207539Y-141368213D01*
X137500779Y-141351509D01*
X136800376Y-141313779D01*
X136114958Y-141255005D01*
X135930217Y-141235147D01*
X135172608Y-141134684D01*
X134425776Y-141005208D01*
X133692270Y-140847643D01*
X132974641Y-140662911D01*
X132275438Y-140451935D01*
X131597211Y-140215638D01*
X130942511Y-139954943D01*
X130313886Y-139670772D01*
X129713886Y-139364048D01*
X129145062Y-139035694D01*
X128609963Y-138686633D01*
X128328065Y-138484004D01*
X128060374Y-138275912D01*
X127788311Y-138048023D01*
X127519157Y-137807223D01*
X127260193Y-137560393D01*
X127018702Y-137314418D01*
X126801963Y-137076182D01*
X126661151Y-136908117D01*
X126359078Y-136499781D01*
X126092989Y-136072656D01*
X125864018Y-135629248D01*
X125673299Y-135172061D01*
X125521965Y-134703603D01*
X125411149Y-134226377D01*
X125387768Y-134092950D01*
X125377809Y-134013841D01*
X125368939Y-133908194D01*
X125361173Y-133780250D01*
X125354526Y-133634247D01*
X125349016Y-133474427D01*
X125344659Y-133305027D01*
X125341470Y-133130290D01*
X125339467Y-132954453D01*
X125338665Y-132781757D01*
X125339080Y-132616442D01*
X125340728Y-132462748D01*
X125343627Y-132324913D01*
X125347792Y-132207179D01*
X125353239Y-132113785D01*
X125359984Y-132048970D01*
X125368044Y-132016974D01*
X125377435Y-132022038D01*
X125379877Y-132029200D01*
X125385619Y-132068633D01*
X125390809Y-132141366D01*
X125394998Y-132238366D01*
X125397734Y-132350598D01*
X125398338Y-132399617D01*
X125401465Y-132618618D01*
X125407645Y-132805113D01*
X125418299Y-132968898D01*
X125434843Y-133119766D01*
X125458698Y-133267514D01*
X125491280Y-133421937D01*
X125534008Y-133592830D01*
X125588301Y-133789988D01*
X125611359Y-133870700D01*
X125742638Y-134264369D01*
X125909994Y-134662370D01*
X126109087Y-135056449D01*
X126335574Y-135438353D01*
X126585114Y-135799830D01*
X126713599Y-135965890D01*
X126967314Y-136261008D01*
X127257094Y-136561545D01*
X127577794Y-136863235D01*
X127924269Y-137161809D01*
X128291374Y-137453001D01*
X128673963Y-137732544D01*
X129066892Y-137996171D01*
X129432050Y-138220370D01*
X129978783Y-138521642D01*
X130559446Y-138804895D01*
X131168745Y-139068043D01*
X131801388Y-139309000D01*
X132452082Y-139525677D01*
X133115535Y-139715989D01*
X133421967Y-139793719D01*
X133888384Y-139898722D01*
X134388838Y-139995641D01*
X134915611Y-140083395D01*
X135460990Y-140160899D01*
X136017260Y-140227073D01*
X136576705Y-140280832D01*
X137131610Y-140321094D01*
X137214623Y-140325939D01*
X137369119Y-140332866D01*
X137558302Y-140338449D01*
X137774590Y-140342685D01*
X138010400Y-140345573D01*
X138258149Y-140347109D01*
X138510255Y-140347292D01*
X138759136Y-140346118D01*
X138997209Y-140343587D01*
X139216892Y-140339695D01*
X139410601Y-140334440D01*
X139570755Y-140327819D01*
X139592050Y-140326673D01*
X140271972Y-140277815D01*
X140940179Y-140208301D01*
X141590957Y-140118990D01*
X142218591Y-140010743D01*
X142817366Y-139884418D01*
X143253883Y-139775712D01*
X143829675Y-139615135D01*
X144368606Y-139450397D01*
X144876100Y-139279350D01*
X145357582Y-139099849D01*
X145818474Y-138909748D01*
X146264203Y-138706902D01*
X146700191Y-138489165D01*
X147131862Y-138254390D01*
X147205504Y-138212460D01*
X147752887Y-137874610D01*
X148281488Y-137499463D01*
X148789607Y-137088458D01*
X149275546Y-136643031D01*
X149737604Y-136164621D01*
X150048789Y-135807450D01*
X150145360Y-135688724D01*
X150227144Y-135580114D01*
X150301527Y-135470510D01*
X150375893Y-135348802D01*
X150457628Y-135203882D01*
X150492001Y-135140700D01*
X150587261Y-134967710D01*
X150666938Y-134830707D01*
X150732777Y-134727055D01*
X150786523Y-134654118D01*
X150829922Y-134609258D01*
X150854100Y-134593587D01*
X150874465Y-134589775D01*
X150918965Y-134586333D01*
X150989058Y-134583248D01*
X151086198Y-134580507D01*
X151211842Y-134578097D01*
X151367447Y-134576007D01*
X151554468Y-134574222D01*
X151774361Y-134572731D01*
X152028582Y-134571520D01*
X152318588Y-134570577D01*
X152645834Y-134569889D01*
X153011776Y-134569443D01*
X153417872Y-134569226D01*
X153635248Y-134569200D01*
X156362870Y-134569200D01*
X156413583Y-134629469D01*
X156444246Y-134672035D01*
X156488850Y-134741662D01*
X156541094Y-134828228D01*
X156588133Y-134909927D01*
X156688861Y-135087801D01*
X156774059Y-135235161D01*
X156847988Y-135358918D01*
X156914909Y-135465979D01*
X156979082Y-135563255D01*
X157044770Y-135657653D01*
X157076380Y-135701617D01*
X157407827Y-136129912D01*
X157763584Y-136533226D01*
X158147188Y-136914895D01*
X158562176Y-137278254D01*
X159012085Y-137626640D01*
X159414633Y-137906863D01*
X159884973Y-138205900D01*
X160353118Y-138475102D01*
X160834591Y-138723083D01*
X161166376Y-138878933D01*
X161892123Y-139185592D01*
X162636230Y-139455677D01*
X163399407Y-139689354D01*
X164182367Y-139886790D01*
X164985823Y-140048151D01*
X165810486Y-140173605D01*
X166657069Y-140263318D01*
X167256883Y-140304605D01*
X167857422Y-140330812D01*
X168426571Y-140342021D01*
X168972745Y-140337642D01*
X169504362Y-140317082D01*
X170029836Y-140279751D01*
X170557585Y-140225057D01*
X171096025Y-140152409D01*
X171653571Y-140061216D01*
X172209883Y-139956612D01*
X172954087Y-139791986D01*
X173668243Y-139599347D01*
X174354919Y-139377670D01*
X175016681Y-139125930D01*
X175656097Y-138843101D01*
X176275735Y-138528158D01*
X176878162Y-138180075D01*
X177247550Y-137944930D01*
X177640288Y-137671166D01*
X178022933Y-137375641D01*
X178390662Y-137062974D01*
X178738648Y-136737787D01*
X179062068Y-136404698D01*
X179356096Y-136068329D01*
X179615908Y-135733299D01*
X179733954Y-135564033D01*
X179881531Y-135337336D01*
X180010710Y-135123680D01*
X180125163Y-134915128D01*
X180228564Y-134703740D01*
X180324586Y-134481579D01*
X180416903Y-134240707D01*
X180509187Y-133973184D01*
X180595557Y-133702078D01*
X180653059Y-133510491D01*
X180697327Y-133346767D01*
X180729912Y-133200120D01*
X180752362Y-133059762D01*
X180766228Y-132914905D01*
X180773059Y-132754762D01*
X180774404Y-132568545D01*
X180773513Y-132463117D01*
X180764305Y-132136707D01*
X180743895Y-131842420D01*
X180710784Y-131571170D01*
X180663475Y-131313874D01*
X180600470Y-131061445D01*
X180520269Y-130804801D01*
X180482151Y-130696478D01*
X180345590Y-130348387D01*
X180193234Y-130017304D01*
X180021530Y-129697609D01*
X179826924Y-129383681D01*
X179605862Y-129069897D01*
X179354791Y-128750638D01*
X179070158Y-128420283D01*
X178980635Y-128321389D01*
X178630867Y-127963831D01*
X178246367Y-127618537D01*
X177825075Y-127283817D01*
X177364935Y-126957984D01*
X177141923Y-126812066D01*
X176888130Y-126649929D01*
X176813840Y-126732560D01*
X176767191Y-126785621D01*
X176703890Y-126859181D01*
X176634302Y-126941150D01*
X176599362Y-126982737D01*
X176538780Y-127051855D01*
X176451956Y-127146269D01*
X176343032Y-127261794D01*
X176216145Y-127394245D01*
X176075437Y-127539437D01*
X175925047Y-127693186D01*
X175769114Y-127851306D01*
X175611779Y-128009613D01*
X175457180Y-128163922D01*
X175309458Y-128310047D01*
X175172752Y-128443804D01*
X175051203Y-128561007D01*
X174948949Y-128657473D01*
X174884736Y-128716086D01*
X174355741Y-129168149D01*
X173806723Y-129599136D01*
X173246298Y-130002623D01*
X172683085Y-130372182D01*
X172569717Y-130442159D01*
X172487170Y-130489952D01*
X172371499Y-130553134D01*
X172227900Y-130629109D01*
X172061570Y-130715279D01*
X171877706Y-130809048D01*
X171681505Y-130907818D01*
X171478164Y-131008993D01*
X171272880Y-131109974D01*
X171070851Y-131208166D01*
X170877272Y-131300970D01*
X170697342Y-131385790D01*
X170536257Y-131460028D01*
X170500762Y-131476080D01*
X170126569Y-131640204D01*
X169736340Y-131803218D01*
X169337095Y-131962541D01*
X168935855Y-132115589D01*
X168539640Y-132259780D01*
X168155468Y-132392532D01*
X167790361Y-132511262D01*
X167451338Y-132613386D01*
X167278050Y-132661673D01*
X167068302Y-132718146D01*
X166892624Y-132765344D01*
X166744223Y-132805062D01*
X166616308Y-132839093D01*
X166502088Y-132869231D01*
X166394771Y-132897268D01*
X166287566Y-132924999D01*
X166173679Y-132954217D01*
X166071550Y-132980287D01*
X165834236Y-133038350D01*
X165623041Y-133084272D01*
X165424365Y-133120564D01*
X165224610Y-133149737D01*
X165034383Y-133171803D01*
X164889124Y-133187838D01*
X164764007Y-133204063D01*
X164647748Y-133222533D01*
X164529066Y-133245302D01*
X164396678Y-133274426D01*
X164239302Y-133311959D01*
X164166550Y-133329856D01*
X163948872Y-133383196D01*
X163761356Y-133427576D01*
X163595788Y-133464338D01*
X163443950Y-133494825D01*
X163297629Y-133520380D01*
X163148607Y-133542346D01*
X162988671Y-133562065D01*
X162809603Y-133580882D01*
X162603189Y-133600139D01*
X162409717Y-133617031D01*
X162248958Y-133631804D01*
X162058071Y-133650957D01*
X161848882Y-133673204D01*
X161633214Y-133697259D01*
X161422893Y-133721836D01*
X161245550Y-133743642D01*
X160998045Y-133774606D01*
X160785798Y-133800160D01*
X160602149Y-133820814D01*
X160440438Y-133837079D01*
X160294006Y-133849466D01*
X160156194Y-133858485D01*
X160020341Y-133864647D01*
X159879789Y-133868463D01*
X159727877Y-133870444D01*
X159583967Y-133871067D01*
X159402712Y-133872954D01*
X159198304Y-133877720D01*
X158987123Y-133884813D01*
X158785548Y-133893684D01*
X158610300Y-133903760D01*
X158483799Y-133910864D01*
X158320541Y-133917846D01*
X158126103Y-133924557D01*
X157906061Y-133930849D01*
X157665991Y-133936573D01*
X157411472Y-133941582D01*
X157148077Y-133945726D01*
X156938133Y-133948282D01*
X155466998Y-133947220D01*
X153972620Y-133913344D01*
X152458276Y-133846837D01*
X150927243Y-133747884D01*
X149382798Y-133616666D01*
X147828218Y-133453367D01*
X147593050Y-133425962D01*
X147292382Y-133390173D01*
X147027454Y-133357851D01*
X146791906Y-133328021D01*
X146579380Y-133299703D01*
X146383515Y-133271921D01*
X146197953Y-133243695D01*
X146016334Y-133214049D01*
X145832299Y-133182004D01*
X145639488Y-133146583D01*
X145431542Y-133106807D01*
X145202101Y-133061699D01*
X145127133Y-133046783D01*
X144900416Y-133002109D01*
X144660771Y-132955845D01*
X144416819Y-132909594D01*
X144177179Y-132864955D01*
X143950473Y-132823531D01*
X143745320Y-132786922D01*
X143570340Y-132756730D01*
X143523542Y-132748919D01*
X143285318Y-132709302D01*
X143081673Y-132674546D01*
X142905366Y-132642946D01*
X142749155Y-132612800D01*
X142605798Y-132582403D01*
X142468053Y-132550054D01*
X142328679Y-132514048D01*
X142180434Y-132472681D01*
X142016076Y-132424252D01*
X141828363Y-132367056D01*
X141610054Y-132299389D01*
X141602883Y-132297157D01*
X141453417Y-132252161D01*
X141278366Y-132201921D01*
X141093377Y-132150780D01*
X140914098Y-132103082D01*
X140787967Y-132070981D01*
X140582501Y-132019355D01*
X140393648Y-131970220D01*
X140213710Y-131921313D01*
X140034992Y-131870370D01*
X139849797Y-131815129D01*
X139650428Y-131753326D01*
X139429189Y-131682699D01*
X139178383Y-131600984D01*
X139084050Y-131569958D01*
X138211897Y-131271984D01*
X137377997Y-130965070D01*
X136578884Y-130647468D01*
X135811094Y-130317434D01*
X135071162Y-129973223D01*
X134355623Y-129613088D01*
X133661011Y-129235286D01*
X132983863Y-128838070D01*
X132320713Y-128419695D01*
X131668096Y-127978416D01*
X131022549Y-127512487D01*
X131008967Y-127502369D01*
X130848290Y-127381208D01*
X130681591Y-127253008D01*
X130514699Y-127122438D01*
X130353439Y-126994170D01*
X130203640Y-126872873D01*
X130071129Y-126763218D01*
X129961733Y-126669876D01*
X129889034Y-126604772D01*
X129820171Y-126543962D01*
X129755931Y-126492778D01*
X129707363Y-126459858D01*
X129697018Y-126454627D01*
X129660590Y-126430970D01*
X129599596Y-126382380D01*
X129519414Y-126313848D01*
X129425422Y-126230366D01*
X129322999Y-126136923D01*
X129217523Y-126038512D01*
X129114373Y-125940124D01*
X129018925Y-125846749D01*
X128936560Y-125763379D01*
X128872654Y-125695004D01*
X128849109Y-125667764D01*
X128780304Y-125582823D01*
X128721177Y-125504523D01*
X128666948Y-125425147D01*
X128612839Y-125336979D01*
X128554071Y-125232305D01*
X128485864Y-125103408D01*
X128444597Y-125023033D01*
X151413633Y-125023033D01*
X151413633Y-130018367D01*
X156408967Y-130018367D01*
X156408967Y-125023033D01*
X151413633Y-125023033D01*
X128444597Y-125023033D01*
X128419659Y-124974462D01*
X128288243Y-124706374D01*
X128180150Y-124462936D01*
X128091984Y-124235957D01*
X128020351Y-124017248D01*
X128014224Y-123996406D01*
X127991272Y-123915270D01*
X127976571Y-123851787D01*
X127969273Y-123793821D01*
X127968534Y-123729236D01*
X127970940Y-123688881D01*
X128068442Y-123688881D01*
X128074772Y-123718336D01*
X128089878Y-123729910D01*
X128115055Y-123729679D01*
X128151247Y-123723773D01*
X128220786Y-123708153D01*
X128304947Y-123683206D01*
X128350587Y-123667283D01*
X128411019Y-123641752D01*
X128465833Y-123610588D01*
X128518433Y-123569677D01*
X128572226Y-123514905D01*
X128630616Y-123442159D01*
X128697010Y-123347323D01*
X128774811Y-123226284D01*
X128867427Y-123074928D01*
X128936623Y-122959283D01*
X129123346Y-122648583D01*
X129306402Y-122350057D01*
X129483889Y-122066578D01*
X129653901Y-121801018D01*
X129814536Y-121556253D01*
X129963889Y-121335153D01*
X130100057Y-121140594D01*
X130221136Y-120975447D01*
X130325222Y-120842586D01*
X130387301Y-120769944D01*
X130474380Y-120682879D01*
X130574346Y-120602970D01*
X130692175Y-120527553D01*
X130832848Y-120453963D01*
X131001341Y-120379535D01*
X131202632Y-120301603D01*
X131379383Y-120238815D01*
X131567091Y-120172953D01*
X131719987Y-120116545D01*
X131843874Y-120067106D01*
X131944555Y-120022154D01*
X132027834Y-119979203D01*
X132099514Y-119935769D01*
X132121005Y-119921324D01*
X132173891Y-119880737D01*
X132215233Y-119836778D01*
X132245584Y-119784690D01*
X132265499Y-119719719D01*
X132275532Y-119637109D01*
X132276237Y-119532103D01*
X132268168Y-119399947D01*
X132251881Y-119235885D01*
X132227929Y-119035161D01*
X132226050Y-119020176D01*
X132196287Y-118746640D01*
X132180720Y-118509378D01*
X132179513Y-118304721D01*
X132192830Y-118129004D01*
X132220838Y-117978558D01*
X132263699Y-117849717D01*
X132280311Y-117813006D01*
X132383954Y-117645951D01*
X132518349Y-117504062D01*
X132677909Y-117390789D01*
X132857047Y-117309582D01*
X133050176Y-117263891D01*
X133184124Y-117254867D01*
X133355253Y-117265065D01*
X133549403Y-117295970D01*
X133767783Y-117348040D01*
X134011601Y-117421737D01*
X134282064Y-117517522D01*
X134580381Y-117635856D01*
X134907759Y-117777200D01*
X135265408Y-117942014D01*
X135654533Y-118130760D01*
X136076345Y-118343899D01*
X136184217Y-118399582D01*
X136465572Y-118544618D01*
X136745030Y-118687217D01*
X137019006Y-118825627D01*
X137283918Y-118958096D01*
X137536183Y-119082872D01*
X137772216Y-119198202D01*
X137988434Y-119302336D01*
X138181254Y-119393521D01*
X138347092Y-119470005D01*
X138482366Y-119530036D01*
X138576050Y-119568956D01*
X139241106Y-119823220D01*
X139903175Y-120061286D01*
X140567756Y-120284734D01*
X141240348Y-120495145D01*
X141926451Y-120694102D01*
X142631564Y-120883185D01*
X143361186Y-121063974D01*
X144120818Y-121238053D01*
X144915957Y-121407002D01*
X145095383Y-121443474D01*
X145636448Y-121549482D01*
X146162966Y-121646015D01*
X146682902Y-121734248D01*
X147204220Y-121815356D01*
X147734882Y-121890515D01*
X148282852Y-121960899D01*
X148856095Y-122027685D01*
X149462574Y-122092046D01*
X149550967Y-122100968D01*
X149987912Y-122144103D01*
X150390085Y-122182172D01*
X150764680Y-122215661D01*
X151118891Y-122245054D01*
X151459914Y-122270837D01*
X151794943Y-122293494D01*
X152131173Y-122313510D01*
X152475799Y-122331370D01*
X152836016Y-122347559D01*
X153219019Y-122362561D01*
X153632002Y-122376862D01*
X153657300Y-122377689D01*
X153837299Y-122383936D01*
X154020332Y-122390973D01*
X154197453Y-122398406D01*
X154359717Y-122405844D01*
X154498179Y-122412892D01*
X154603892Y-122419158D01*
X154609800Y-122419555D01*
X154698562Y-122424559D01*
X154823223Y-122430112D01*
X154977353Y-122436001D01*
X155154525Y-122442011D01*
X155348310Y-122447930D01*
X155552280Y-122453542D01*
X155760007Y-122458635D01*
X155837467Y-122460365D01*
X156069084Y-122465646D01*
X156319954Y-122471811D01*
X156579728Y-122478577D01*
X156838061Y-122485661D01*
X157084607Y-122492780D01*
X157309020Y-122499649D01*
X157492575Y-122505696D01*
X157767013Y-122513766D01*
X158034232Y-122518931D01*
X158290021Y-122521258D01*
X158530168Y-122520818D01*
X158750463Y-122517679D01*
X158946695Y-122511911D01*
X159114653Y-122503584D01*
X159250125Y-122492767D01*
X159348901Y-122479529D01*
X159372300Y-122474740D01*
X159480339Y-122447656D01*
X159567737Y-122421689D01*
X159628839Y-122398858D01*
X159657996Y-122381185D01*
X159656642Y-122373116D01*
X159630193Y-122362632D01*
X159571485Y-122341839D01*
X159488522Y-122313500D01*
X159389309Y-122280380D01*
X159361717Y-122271286D01*
X159153070Y-122200796D01*
X158972166Y-122135109D01*
X158805601Y-122069066D01*
X158639974Y-121997509D01*
X158580924Y-121970746D01*
X158490030Y-121930789D01*
X158404603Y-121896134D01*
X158337840Y-121872020D01*
X158316340Y-121865737D01*
X158280280Y-121861571D01*
X158206347Y-121856891D01*
X158098996Y-121851854D01*
X157962681Y-121846616D01*
X157801859Y-121841334D01*
X157620982Y-121836166D01*
X157424508Y-121831268D01*
X157216890Y-121826797D01*
X157202717Y-121826517D01*
X156946277Y-121820928D01*
X156660438Y-121813738D01*
X156356780Y-121805298D01*
X156046882Y-121795959D01*
X155742326Y-121786074D01*
X155454692Y-121775993D01*
X155195558Y-121766068D01*
X155149550Y-121764190D01*
X154908494Y-121754483D01*
X154649027Y-121744478D01*
X154380737Y-121734515D01*
X154113211Y-121724936D01*
X153856037Y-121716081D01*
X153618801Y-121708293D01*
X153411091Y-121701912D01*
X153350383Y-121700165D01*
X152913045Y-121687129D01*
X152513034Y-121673572D01*
X152145346Y-121659136D01*
X151804976Y-121643466D01*
X151486919Y-121626203D01*
X151186169Y-121606991D01*
X150897721Y-121585474D01*
X150616571Y-121561294D01*
X150337713Y-121534095D01*
X150056141Y-121503520D01*
X149766852Y-121469212D01*
X149464840Y-121430814D01*
X149339300Y-121414224D01*
X149204153Y-121397116D01*
X149038541Y-121377613D01*
X148854172Y-121357006D01*
X148662753Y-121336587D01*
X148475991Y-121317645D01*
X148376217Y-121308015D01*
X147668421Y-121234991D01*
X146999470Y-121153129D01*
X146366721Y-121062000D01*
X145767530Y-120961180D01*
X145199253Y-120850242D01*
X144659246Y-120728760D01*
X144428633Y-120671529D01*
X144266384Y-120630932D01*
X144077119Y-120584988D01*
X143875243Y-120537107D01*
X143675158Y-120490694D01*
X143491267Y-120449160D01*
X143454967Y-120441137D01*
X142644129Y-120253136D01*
X141870281Y-120054072D01*
X141134423Y-119844233D01*
X140437554Y-119623905D01*
X139780674Y-119393377D01*
X139666133Y-119350585D01*
X139532274Y-119298768D01*
X139365633Y-119232129D01*
X139172064Y-119153157D01*
X138957418Y-119064341D01*
X138727546Y-118968169D01*
X138630144Y-118927033D01*
X156451300Y-118927033D01*
X156459044Y-118944456D01*
X156465411Y-118941144D01*
X156467944Y-118916024D01*
X156465411Y-118912922D01*
X156452827Y-118915828D01*
X156451300Y-118927033D01*
X138630144Y-118927033D01*
X138488300Y-118867128D01*
X138479862Y-118863533D01*
X156472467Y-118863533D01*
X156480211Y-118880956D01*
X156486578Y-118877644D01*
X156489111Y-118852524D01*
X156486578Y-118849422D01*
X156473994Y-118852328D01*
X156472467Y-118863533D01*
X138479862Y-118863533D01*
X138355646Y-118810617D01*
X156494281Y-118810617D01*
X156503016Y-118814403D01*
X156514800Y-118800033D01*
X156532711Y-118761446D01*
X156535318Y-118747117D01*
X156526584Y-118743330D01*
X156514800Y-118757700D01*
X156496889Y-118796287D01*
X156494281Y-118810617D01*
X138355646Y-118810617D01*
X138245532Y-118763709D01*
X138108393Y-118704783D01*
X156536615Y-118704783D01*
X156545349Y-118708569D01*
X156557133Y-118694200D01*
X156575044Y-118655613D01*
X156577652Y-118641283D01*
X156568917Y-118637497D01*
X156557133Y-118651867D01*
X156539222Y-118690454D01*
X156536615Y-118704783D01*
X138108393Y-118704783D01*
X138005095Y-118660398D01*
X137869579Y-118601634D01*
X156578300Y-118601634D01*
X156581852Y-118610434D01*
X156594777Y-118593790D01*
X156620479Y-118546560D01*
X156639628Y-118508992D01*
X156663969Y-118456806D01*
X156675306Y-118424344D01*
X156674410Y-118419033D01*
X156659726Y-118435932D01*
X156635206Y-118477042D01*
X156608416Y-118527985D01*
X156586926Y-118574382D01*
X156578300Y-118601634D01*
X137869579Y-118601634D01*
X137772839Y-118559685D01*
X137554616Y-118464057D01*
X137356279Y-118376004D01*
X137183679Y-118298014D01*
X137097741Y-118258404D01*
X136557574Y-117991501D01*
X136002908Y-117686808D01*
X135762343Y-117545572D01*
X135624909Y-117464059D01*
X135467807Y-117371998D01*
X135308081Y-117279311D01*
X135162772Y-117195925D01*
X135127343Y-117175795D01*
X134825724Y-117000509D01*
X134559037Y-116835828D01*
X134322285Y-116678289D01*
X134110471Y-116524432D01*
X133918600Y-116370795D01*
X133750050Y-116221713D01*
X133693587Y-116172405D01*
X133609160Y-116102802D01*
X133502874Y-116017737D01*
X133380836Y-115922041D01*
X133249151Y-115820545D01*
X133113924Y-115718082D01*
X133107907Y-115713566D01*
X132869063Y-115531996D01*
X132661831Y-115369122D01*
X132481857Y-115221312D01*
X132324788Y-115084934D01*
X132186271Y-114956355D01*
X132108823Y-114879996D01*
X132040014Y-114807981D01*
X131966435Y-114726845D01*
X131895487Y-114645218D01*
X131834574Y-114571726D01*
X131791095Y-114514997D01*
X131776448Y-114492580D01*
X131764143Y-114481731D01*
X131740396Y-114481040D01*
X131699262Y-114492373D01*
X131634795Y-114517596D01*
X131541049Y-114558573D01*
X131484073Y-114584311D01*
X131371469Y-114634603D01*
X131259617Y-114683034D01*
X131160467Y-114724521D01*
X131085975Y-114753985D01*
X131077758Y-114757020D01*
X131010980Y-114782012D01*
X130963428Y-114801085D01*
X130945467Y-114810064D01*
X130941872Y-114831727D01*
X130932636Y-114882190D01*
X130924478Y-114925595D01*
X130916807Y-114977934D01*
X130906615Y-115065043D01*
X130894660Y-115179488D01*
X130881696Y-115313834D01*
X130868480Y-115460644D01*
X130860451Y-115555157D01*
X130839912Y-115794216D01*
X130820242Y-116000423D01*
X130800008Y-116183195D01*
X130777775Y-116351951D01*
X130752110Y-116516109D01*
X130721580Y-116685086D01*
X130684750Y-116868302D01*
X130640188Y-117075173D01*
X130605158Y-117232297D01*
X130578210Y-117354384D01*
X130554884Y-117464480D01*
X130536714Y-117554983D01*
X130525233Y-117618294D01*
X130521878Y-117645047D01*
X130511496Y-117689196D01*
X130485569Y-117749982D01*
X130470905Y-117777480D01*
X130446077Y-117831528D01*
X130414570Y-117915672D01*
X130380191Y-118018992D01*
X130346747Y-118130570D01*
X130342394Y-118146092D01*
X130221024Y-118542714D01*
X130075946Y-118948578D01*
X129912943Y-119349032D01*
X129737801Y-119729425D01*
X129645508Y-119911283D01*
X129602237Y-119991069D01*
X129540819Y-120100714D01*
X129464943Y-120233813D01*
X129378301Y-120383958D01*
X129284584Y-120544743D01*
X129187480Y-120709762D01*
X129121205Y-120821450D01*
X128964045Y-121086835D01*
X128828185Y-121319777D01*
X128712019Y-121523434D01*
X128613945Y-121700964D01*
X128532356Y-121855527D01*
X128465648Y-121990281D01*
X128412216Y-122108384D01*
X128370457Y-122212995D01*
X128338764Y-122307272D01*
X128315535Y-122394375D01*
X128310451Y-122417328D01*
X128289034Y-122507881D01*
X128264218Y-122597834D01*
X128246662Y-122652367D01*
X128216885Y-122749609D01*
X128185198Y-122877132D01*
X128153992Y-123023099D01*
X128125654Y-123175676D01*
X128102575Y-123323028D01*
X128089166Y-123432484D01*
X128076934Y-123552030D01*
X128069595Y-123635471D01*
X128068442Y-123688881D01*
X127970940Y-123688881D01*
X127973504Y-123645896D01*
X127982470Y-123541367D01*
X128015131Y-123269779D01*
X128064756Y-123008502D01*
X128133821Y-122749490D01*
X128224801Y-122484695D01*
X128340174Y-122206071D01*
X128482414Y-121905571D01*
X128491307Y-121887768D01*
X128537776Y-121796314D01*
X128587312Y-121701765D01*
X128642254Y-121599989D01*
X128704940Y-121486855D01*
X128777708Y-121358231D01*
X128862896Y-121209985D01*
X128962843Y-121037984D01*
X129079886Y-120838098D01*
X129216364Y-120606193D01*
X129220487Y-120599200D01*
X129440087Y-120213985D01*
X129637365Y-119839516D01*
X129814702Y-119469406D01*
X129974476Y-119097272D01*
X130119068Y-118716730D01*
X130250856Y-118321395D01*
X130372220Y-117904883D01*
X130485540Y-117460810D01*
X130593195Y-116982791D01*
X130624907Y-116831010D01*
X130661668Y-116650297D01*
X130690885Y-116500250D01*
X130713890Y-116370912D01*
X130732009Y-116252327D01*
X130746574Y-116134539D01*
X130758913Y-116007592D01*
X130770355Y-115861531D01*
X130782229Y-115686400D01*
X130786422Y-115621262D01*
X130796073Y-115474506D01*
X130805681Y-115336121D01*
X130814683Y-115213658D01*
X130822514Y-115114667D01*
X130828611Y-115046699D01*
X130830786Y-115027075D01*
X130835322Y-114968754D01*
X130832562Y-114932473D01*
X130828071Y-114926533D01*
X130803404Y-114933140D01*
X130746591Y-114951254D01*
X130665412Y-114978313D01*
X130567649Y-115011756D01*
X130539223Y-115021616D01*
X130329088Y-115091179D01*
X130119415Y-115152928D01*
X129906091Y-115207435D01*
X129684999Y-115255275D01*
X129452027Y-115297021D01*
X129203058Y-115333247D01*
X128933979Y-115364526D01*
X128640675Y-115391432D01*
X128319032Y-115414539D01*
X127964934Y-115434421D01*
X127574267Y-115451650D01*
X127410633Y-115457792D01*
X126858069Y-115471684D01*
X126342864Y-115472009D01*
X125862160Y-115458412D01*
X125413097Y-115430541D01*
X124992817Y-115388043D01*
X124598462Y-115330565D01*
X124227173Y-115257755D01*
X123876091Y-115169258D01*
X123542358Y-115064722D01*
X123223115Y-114943794D01*
X123212517Y-114939405D01*
X122886298Y-114788022D01*
X122597755Y-114619723D01*
X122411040Y-114481483D01*
X126942920Y-114481483D01*
X126972223Y-114498266D01*
X127038184Y-114508883D01*
X127089152Y-114513663D01*
X127169597Y-114521181D01*
X127234022Y-114528456D01*
X127270411Y-114534107D01*
X127273050Y-114534842D01*
X127310654Y-114540021D01*
X127383799Y-114543424D01*
X127485732Y-114545167D01*
X127609702Y-114545367D01*
X127748959Y-114544139D01*
X127896751Y-114541600D01*
X128046327Y-114537866D01*
X128190935Y-114533052D01*
X128323826Y-114527276D01*
X128438246Y-114520653D01*
X128527446Y-114513299D01*
X128527777Y-114513265D01*
X128936288Y-114462868D01*
X129372005Y-114394011D01*
X129824987Y-114308540D01*
X130285293Y-114208299D01*
X130649133Y-114119481D01*
X130808512Y-114078643D01*
X130973451Y-114036369D01*
X133330906Y-114036369D01*
X133338899Y-114054187D01*
X133376041Y-114085702D01*
X133434383Y-114124213D01*
X133436739Y-114125622D01*
X133491855Y-114160352D01*
X133574029Y-114214579D01*
X133675817Y-114283271D01*
X133789776Y-114361398D01*
X133908459Y-114443928D01*
X133929967Y-114459014D01*
X134077418Y-114561832D01*
X134207918Y-114650639D01*
X134327794Y-114729016D01*
X134443375Y-114800543D01*
X134560987Y-114868798D01*
X134686958Y-114937362D01*
X134827617Y-115009814D01*
X134989290Y-115089735D01*
X135178305Y-115180704D01*
X135348133Y-115261323D01*
X135585836Y-115373214D01*
X135801967Y-115473517D01*
X136001146Y-115563918D01*
X136187990Y-115646105D01*
X136367119Y-115721765D01*
X136543150Y-115792586D01*
X136720703Y-115860254D01*
X136904396Y-115926459D01*
X137098847Y-115992886D01*
X137308675Y-116061223D01*
X137538499Y-116133159D01*
X137792936Y-116210379D01*
X138076606Y-116294572D01*
X138394128Y-116387425D01*
X138570418Y-116438610D01*
X139253078Y-116626978D01*
X139963014Y-116804142D01*
X140701828Y-116970378D01*
X141471123Y-117125965D01*
X142272502Y-117271178D01*
X143107567Y-117406296D01*
X143977920Y-117531595D01*
X144885165Y-117647353D01*
X145830904Y-117753848D01*
X146640550Y-117834861D01*
X146801927Y-117849894D01*
X146961314Y-117864279D01*
X147110157Y-117877278D01*
X147239899Y-117888154D01*
X147341985Y-117896168D01*
X147391967Y-117899654D01*
X147821719Y-117926491D01*
X148219324Y-117950810D01*
X148594018Y-117973126D01*
X148955037Y-117993953D01*
X149311618Y-118013802D01*
X149672996Y-118033189D01*
X150048408Y-118052627D01*
X150447091Y-118072629D01*
X150878280Y-118093709D01*
X150905633Y-118095031D01*
X152524883Y-118173256D01*
X154669356Y-118167078D01*
X156813828Y-118160900D01*
X156745542Y-118284675D01*
X156710386Y-118350411D01*
X156696829Y-118381130D01*
X156705069Y-118376642D01*
X156735304Y-118336757D01*
X156787733Y-118261284D01*
X156820851Y-118212344D01*
X156878461Y-118134852D01*
X156956431Y-118041050D01*
X157044048Y-117943376D01*
X157121637Y-117863094D01*
X157195097Y-117788958D01*
X157256164Y-117724730D01*
X157299189Y-117676548D01*
X157318520Y-117650548D01*
X157319049Y-117648648D01*
X157298659Y-117643721D01*
X157240388Y-117640411D01*
X157148657Y-117638759D01*
X157027888Y-117638809D01*
X156882504Y-117640602D01*
X156752925Y-117643284D01*
X156349776Y-117652693D01*
X155984853Y-117660523D01*
X155654074Y-117666712D01*
X155353359Y-117671198D01*
X155078626Y-117673919D01*
X154825794Y-117674815D01*
X154590783Y-117673822D01*
X154369512Y-117670881D01*
X154157899Y-117665928D01*
X153951865Y-117658902D01*
X153747327Y-117649741D01*
X153540206Y-117638384D01*
X153326419Y-117624770D01*
X153101887Y-117608835D01*
X152862528Y-117590519D01*
X152768300Y-117583039D01*
X152306002Y-117548742D01*
X151884530Y-117523124D01*
X151503281Y-117506161D01*
X151161651Y-117497828D01*
X150859037Y-117498102D01*
X150729583Y-117501215D01*
X150494029Y-117504912D01*
X150220825Y-117502119D01*
X149914127Y-117493001D01*
X149578090Y-117477720D01*
X149216873Y-117456440D01*
X148834630Y-117429324D01*
X148767800Y-117424141D01*
X148628044Y-117413331D01*
X148454341Y-117400153D01*
X148254970Y-117385220D01*
X148038212Y-117369146D01*
X147812346Y-117352546D01*
X147585653Y-117336032D01*
X147366414Y-117320218D01*
X147339050Y-117318256D01*
X146883215Y-117284790D01*
X146462798Y-117252031D01*
X146070910Y-117219216D01*
X145700661Y-117185581D01*
X145345161Y-117150363D01*
X144997522Y-117112798D01*
X144650852Y-117072121D01*
X144298263Y-117027571D01*
X143932866Y-116978382D01*
X143547770Y-116923792D01*
X143136086Y-116863036D01*
X142872883Y-116823219D01*
X142684639Y-116795022D01*
X142497776Y-116767957D01*
X142319342Y-116742978D01*
X142156382Y-116721040D01*
X142015942Y-116703096D01*
X141905067Y-116690099D01*
X141846300Y-116684237D01*
X141817765Y-116681522D01*
X166421921Y-116681522D01*
X166421926Y-116681622D01*
X166440218Y-116695162D01*
X166489312Y-116723157D01*
X166561900Y-116761628D01*
X166650676Y-116806595D01*
X166658284Y-116810367D01*
X166795050Y-116882754D01*
X166950508Y-116972651D01*
X167110229Y-117071202D01*
X167259783Y-117169551D01*
X167365548Y-117244455D01*
X167383032Y-117254924D01*
X167405286Y-117260583D01*
X167437958Y-117260577D01*
X167486701Y-117254048D01*
X167557164Y-117240139D01*
X167654998Y-117217993D01*
X167785855Y-117186754D01*
X167852382Y-117170628D01*
X168407188Y-117030696D01*
X168930034Y-116887875D01*
X169431294Y-116739094D01*
X169921340Y-116581279D01*
X170384541Y-116420693D01*
X170646872Y-116325314D01*
X170885083Y-116235395D01*
X171107485Y-116147333D01*
X171322389Y-116057528D01*
X171538105Y-115962378D01*
X171762943Y-115858283D01*
X172005215Y-115741641D01*
X172273230Y-115608850D01*
X172368633Y-115560926D01*
X172531028Y-115477047D01*
X172685875Y-115392298D01*
X172838309Y-115303308D01*
X172993467Y-115206708D01*
X173156484Y-115099126D01*
X173332497Y-114977191D01*
X173526641Y-114837534D01*
X173744053Y-114676783D01*
X173936874Y-114531722D01*
X174071832Y-114429725D01*
X174196673Y-114335621D01*
X174307220Y-114252539D01*
X174399298Y-114183608D01*
X174468730Y-114131956D01*
X174511340Y-114100713D01*
X174522699Y-114092816D01*
X174531044Y-114087931D01*
X174537261Y-114087250D01*
X174541076Y-114095167D01*
X174542212Y-114116078D01*
X174540395Y-114154379D01*
X174535351Y-114214464D01*
X174526804Y-114300729D01*
X174514480Y-114417569D01*
X174498104Y-114569379D01*
X174485781Y-114683117D01*
X174469523Y-114840899D01*
X174452678Y-115017516D01*
X174436867Y-115195135D01*
X174423711Y-115355925D01*
X174419423Y-115413367D01*
X174411947Y-115525588D01*
X174405501Y-115612962D01*
X174396709Y-115682133D01*
X174382198Y-115739745D01*
X174358594Y-115792442D01*
X174322524Y-115846868D01*
X174270612Y-115909668D01*
X174199486Y-115987486D01*
X174105770Y-116086965D01*
X174044010Y-116152642D01*
X173869697Y-116334107D01*
X173684167Y-116517915D01*
X173483995Y-116707106D01*
X173265760Y-116904718D01*
X173026041Y-117113793D01*
X172761414Y-117337368D01*
X172468457Y-117578483D01*
X172146383Y-117838075D01*
X171811480Y-118102004D01*
X171498612Y-118340474D01*
X171200455Y-118558524D01*
X170909683Y-118761193D01*
X170618973Y-118953519D01*
X170320999Y-119140541D01*
X170008437Y-119327298D01*
X169839217Y-119425115D01*
X169678826Y-119514152D01*
X169491569Y-119613564D01*
X169286275Y-119719014D01*
X169071769Y-119826161D01*
X168856880Y-119930668D01*
X168650433Y-120028196D01*
X168461257Y-120114406D01*
X168298179Y-120184960D01*
X168267670Y-120197546D01*
X168174183Y-120238569D01*
X168110873Y-120274763D01*
X168067253Y-120313061D01*
X168041221Y-120347227D01*
X167994251Y-120408120D01*
X167921577Y-120489932D01*
X167829737Y-120586148D01*
X167725272Y-120690253D01*
X167614718Y-120795732D01*
X167504615Y-120896071D01*
X167401502Y-120984756D01*
X167400541Y-120985551D01*
X167260959Y-121098126D01*
X167135115Y-121192173D01*
X167009615Y-121276760D01*
X166871068Y-121360951D01*
X166720532Y-121445871D01*
X166609946Y-121507182D01*
X166533218Y-121551411D01*
X166491264Y-121579081D01*
X166485003Y-121590720D01*
X166515351Y-121586851D01*
X166583225Y-121567999D01*
X166689541Y-121534690D01*
X166808407Y-121496188D01*
X166951200Y-121448837D01*
X167086868Y-121401852D01*
X167219599Y-121353415D01*
X167353581Y-121301710D01*
X167493003Y-121244918D01*
X167642051Y-121181223D01*
X167804916Y-121108806D01*
X167985784Y-121025851D01*
X168188844Y-120930540D01*
X168418285Y-120821056D01*
X168678295Y-120695582D01*
X168886717Y-120594349D01*
X169219627Y-120431341D01*
X169518166Y-120282807D01*
X169786715Y-120146190D01*
X170029658Y-120018932D01*
X170251378Y-119898476D01*
X170456260Y-119782264D01*
X170648685Y-119667738D01*
X170833037Y-119552341D01*
X171013700Y-119433515D01*
X171195057Y-119308703D01*
X171381491Y-119175346D01*
X171577386Y-119030887D01*
X171617076Y-119001195D01*
X171833564Y-118841860D01*
X172025046Y-118707861D01*
X172197538Y-118595729D01*
X172357056Y-118501996D01*
X172509615Y-118423193D01*
X172661233Y-118355850D01*
X172817924Y-118296498D01*
X172870127Y-118278624D01*
X172960021Y-118249447D01*
X173033973Y-118227150D01*
X173083556Y-118214162D01*
X173100268Y-118212279D01*
X173097390Y-118234082D01*
X173085154Y-118291342D01*
X173064866Y-118378548D01*
X173037836Y-118490187D01*
X173005371Y-118620750D01*
X172973001Y-118748276D01*
X172912910Y-118985650D01*
X172864191Y-119184453D01*
X172826395Y-119346764D01*
X172799073Y-119474663D01*
X172781778Y-119570229D01*
X172774061Y-119635540D01*
X172774650Y-119668521D01*
X172781432Y-119683556D01*
X172798654Y-119684225D01*
X172831735Y-119667678D01*
X172886092Y-119631064D01*
X172967143Y-119571532D01*
X172986318Y-119557162D01*
X173064998Y-119495628D01*
X173166616Y-119412466D01*
X173282904Y-119314652D01*
X173405593Y-119209162D01*
X173526413Y-119102971D01*
X173554939Y-119077506D01*
X173713085Y-118936788D01*
X173857707Y-118810492D01*
X173994244Y-118694372D01*
X174128138Y-118584183D01*
X174264830Y-118475678D01*
X174409760Y-118364611D01*
X174568369Y-118246738D01*
X174746098Y-118117811D01*
X174948389Y-117973585D01*
X175167925Y-117818775D01*
X175233595Y-117771470D01*
X175283344Y-117733413D01*
X175309008Y-117710932D01*
X175310800Y-117708037D01*
X175300494Y-117679041D01*
X175273115Y-117623862D01*
X175233969Y-117552255D01*
X175188362Y-117473970D01*
X175147608Y-117408101D01*
X175055460Y-117247152D01*
X174966687Y-117060944D01*
X174888940Y-116866338D01*
X174852247Y-116757333D01*
X174793047Y-116566950D01*
X174793451Y-115889617D01*
X174793987Y-115684754D01*
X174795622Y-115513103D01*
X174798796Y-115365545D01*
X174803951Y-115232964D01*
X174811526Y-115106241D01*
X174821962Y-114976259D01*
X174835700Y-114833902D01*
X174851748Y-114683117D01*
X174869132Y-114514951D01*
X174885478Y-114339584D01*
X174899876Y-114168133D01*
X174911414Y-114011716D01*
X174919181Y-113881452D01*
X174921128Y-113836450D01*
X174932629Y-113641375D01*
X174953762Y-113451618D01*
X174986270Y-113257830D01*
X175031894Y-113050659D01*
X175092377Y-112820754D01*
X175142658Y-112647411D01*
X175204224Y-112431520D01*
X175270538Y-112181454D01*
X175339896Y-111904873D01*
X175410593Y-111609442D01*
X175480925Y-111302822D01*
X175549187Y-110992676D01*
X175613675Y-110686667D01*
X175672683Y-110392456D01*
X175724507Y-110117707D01*
X175767443Y-109870082D01*
X175784583Y-109761867D01*
X175835847Y-109387340D01*
X175875321Y-109016604D01*
X175902675Y-108656185D01*
X175917575Y-108312612D01*
X175919691Y-107992416D01*
X175908690Y-107702123D01*
X175896721Y-107555501D01*
X175888259Y-107469155D01*
X175880463Y-107397096D01*
X175871145Y-107334590D01*
X175858115Y-107276908D01*
X175839186Y-107219318D01*
X175812169Y-107157089D01*
X175774874Y-107085491D01*
X175725113Y-106999792D01*
X175660698Y-106895262D01*
X175579440Y-106767169D01*
X175479151Y-106610782D01*
X175409444Y-106502200D01*
X175277856Y-106295180D01*
X175168170Y-106118043D01*
X175077842Y-105966107D01*
X175004331Y-105834691D01*
X174945096Y-105719113D01*
X174897594Y-105614692D01*
X174859282Y-105516747D01*
X174834783Y-105443867D01*
X174799737Y-105321337D01*
X174777142Y-105210282D01*
X174766856Y-105101064D01*
X174768737Y-104984049D01*
X174782642Y-104849597D01*
X174808431Y-104688074D01*
X174822518Y-104611190D01*
X174923172Y-104152194D01*
X175047308Y-103723893D01*
X175196790Y-103320584D01*
X175363275Y-102956783D01*
X175441728Y-102802980D01*
X175513731Y-102668151D01*
X175584049Y-102544822D01*
X175657447Y-102425518D01*
X175738690Y-102302766D01*
X175832541Y-102169092D01*
X175943767Y-102017020D01*
X176068698Y-101850251D01*
X176445819Y-101343319D01*
X176810822Y-100838386D01*
X177160443Y-100340224D01*
X177491419Y-99853607D01*
X177800486Y-99383310D01*
X178084382Y-98934104D01*
X178263986Y-98638783D01*
X178364822Y-98472049D01*
X178471603Y-98299088D01*
X178580510Y-98125804D01*
X178687726Y-97958105D01*
X178789434Y-97801897D01*
X178881817Y-97663085D01*
X178961058Y-97547577D01*
X179023339Y-97461277D01*
X179034289Y-97446923D01*
X179095619Y-97374189D01*
X179179810Y-97283379D01*
X179277625Y-97184015D01*
X179379825Y-97085621D01*
X179426476Y-97042664D01*
X179521974Y-96953400D01*
X179612177Y-96864060D01*
X179689617Y-96782404D01*
X179746827Y-96716193D01*
X179767752Y-96687992D01*
X179845463Y-96557304D01*
X179931748Y-96386889D01*
X180025966Y-96178341D01*
X180127474Y-95933251D01*
X180235631Y-95653210D01*
X180349794Y-95339810D01*
X180469321Y-94994644D01*
X180557134Y-94731031D01*
X180850409Y-93770855D01*
X181103642Y-92800666D01*
X181316204Y-91823260D01*
X181487464Y-90841431D01*
X181574801Y-90214450D01*
X181633630Y-89696705D01*
X181683324Y-89156830D01*
X181723439Y-88604153D01*
X181753533Y-88048003D01*
X181773163Y-87497709D01*
X181781884Y-86962600D01*
X181779253Y-86452004D01*
X181770075Y-86104583D01*
X181757643Y-85797733D01*
X181743663Y-85515145D01*
X181728357Y-85259887D01*
X181711946Y-85035028D01*
X181694652Y-84843634D01*
X181676695Y-84688774D01*
X181660328Y-84584117D01*
X181573751Y-84208790D01*
X181459081Y-83855982D01*
X181317716Y-83528608D01*
X181151058Y-83229584D01*
X180960507Y-82961826D01*
X180789054Y-82769307D01*
X180704532Y-82689973D01*
X180596737Y-82597809D01*
X180476255Y-82501057D01*
X180353670Y-82407964D01*
X180239566Y-82326774D01*
X180144529Y-82265731D01*
X180136800Y-82261236D01*
X180079327Y-82232802D01*
X180004130Y-82201492D01*
X179924719Y-82172234D01*
X179854603Y-82149958D01*
X179807294Y-82139591D01*
X179802726Y-82139367D01*
X179797839Y-82158650D01*
X179800151Y-82210665D01*
X179808436Y-82286656D01*
X179821467Y-82377867D01*
X179838018Y-82475544D01*
X179856861Y-82570931D01*
X179872919Y-82640334D01*
X179895076Y-82716646D01*
X179930241Y-82823626D01*
X179975398Y-82952759D01*
X180027536Y-83095529D01*
X180083638Y-83243420D01*
X180112647Y-83317667D01*
X180202276Y-83549503D01*
X180290453Y-83786732D01*
X180374753Y-84022269D01*
X180452753Y-84249029D01*
X180522028Y-84459927D01*
X180580154Y-84647877D01*
X180624708Y-84805794D01*
X180633656Y-84840603D01*
X180663394Y-84965967D01*
X180688172Y-85087408D01*
X180708674Y-85211341D01*
X180725585Y-85344184D01*
X180739589Y-85492352D01*
X180751370Y-85662263D01*
X180761612Y-85860332D01*
X180770999Y-86092976D01*
X180772918Y-86146599D01*
X180784536Y-86864089D01*
X180770326Y-87606156D01*
X180730763Y-88364204D01*
X180666321Y-89129639D01*
X180577474Y-89893865D01*
X180558386Y-90034533D01*
X180394454Y-91063373D01*
X180188968Y-92088101D01*
X179978827Y-92966117D01*
X179948641Y-93082764D01*
X179920212Y-93191166D01*
X179892114Y-93296372D01*
X179862920Y-93403431D01*
X179831204Y-93517391D01*
X179795540Y-93643302D01*
X179754501Y-93786212D01*
X179706661Y-93951171D01*
X179650594Y-94143229D01*
X179584873Y-94367433D01*
X179534619Y-94538520D01*
X179343999Y-95135020D01*
X179117919Y-95749190D01*
X178857816Y-96377952D01*
X178565130Y-97018230D01*
X178241302Y-97666944D01*
X177887769Y-98321020D01*
X177505973Y-98977378D01*
X177304874Y-99305533D01*
X177000020Y-99783596D01*
X176703094Y-100225771D01*
X176410131Y-100636795D01*
X176117163Y-101021408D01*
X175820225Y-101384350D01*
X175515350Y-101730358D01*
X175198572Y-102064172D01*
X174865925Y-102390531D01*
X174513442Y-102714174D01*
X174284217Y-102914675D01*
X174051499Y-103115725D01*
X173849376Y-103292892D01*
X173675533Y-103448925D01*
X173527659Y-103586573D01*
X173403440Y-103708585D01*
X173300564Y-103817710D01*
X173216718Y-103916696D01*
X173149590Y-104008293D01*
X173096866Y-104095251D01*
X173056234Y-104180317D01*
X173025381Y-104266241D01*
X173001995Y-104355773D01*
X172983762Y-104451660D01*
X172981998Y-104462551D01*
X172972411Y-104650950D01*
X173004217Y-104832637D01*
X173076715Y-105005411D01*
X173189207Y-105167072D01*
X173215531Y-105196881D01*
X173284138Y-105267016D01*
X173358515Y-105332145D01*
X173444552Y-105396169D01*
X173548145Y-105462985D01*
X173675186Y-105536494D01*
X173831569Y-105620595D01*
X173943819Y-105678727D01*
X174122135Y-105772192D01*
X174266510Y-105853082D01*
X174382095Y-105925066D01*
X174474040Y-105991818D01*
X174547494Y-106057008D01*
X174607610Y-106124309D01*
X174649166Y-106181547D01*
X174749227Y-106363395D01*
X174831435Y-106581394D01*
X174895261Y-106833070D01*
X174940179Y-107115950D01*
X174965660Y-107427559D01*
X174971699Y-107693909D01*
X174970032Y-107842578D01*
X174965046Y-107990332D01*
X174956188Y-108142859D01*
X174942907Y-108305847D01*
X174924652Y-108484985D01*
X174900869Y-108685960D01*
X174871007Y-108914460D01*
X174834514Y-109176175D01*
X174814176Y-109317367D01*
X174787801Y-109500286D01*
X174766509Y-109653295D01*
X174749597Y-109784816D01*
X174736358Y-109903270D01*
X174726089Y-110017079D01*
X174718085Y-110134664D01*
X174711640Y-110264447D01*
X174706050Y-110414848D01*
X174700610Y-110594290D01*
X174697263Y-110714367D01*
X174690242Y-110966093D01*
X174683969Y-111179456D01*
X174678194Y-111358412D01*
X174672668Y-111506919D01*
X174667142Y-111628934D01*
X174661368Y-111728416D01*
X174655094Y-111809322D01*
X174648074Y-111875608D01*
X174640056Y-111931234D01*
X174630793Y-111980156D01*
X174620034Y-112026331D01*
X174612933Y-112053707D01*
X174531739Y-112298951D01*
X174417431Y-112556680D01*
X174274699Y-112820332D01*
X174108235Y-113083345D01*
X173922730Y-113339156D01*
X173722876Y-113581204D01*
X173513363Y-113802924D01*
X173298884Y-113997756D01*
X173130633Y-114127209D01*
X172978405Y-114226502D01*
X172789214Y-114336347D01*
X172566634Y-114455093D01*
X172314236Y-114581085D01*
X172035594Y-114712669D01*
X171734281Y-114848193D01*
X171413869Y-114986003D01*
X171077930Y-115124446D01*
X170730039Y-115261867D01*
X170444334Y-115370401D01*
X170182148Y-115466150D01*
X169895920Y-115566954D01*
X169592567Y-115670606D01*
X169279007Y-115774896D01*
X168962156Y-115877616D01*
X168648933Y-115976557D01*
X168346254Y-116069511D01*
X168061037Y-116154269D01*
X167800200Y-116228622D01*
X167570659Y-116290362D01*
X167532050Y-116300257D01*
X167390905Y-116336718D01*
X167251498Y-116373829D01*
X167123588Y-116408913D01*
X167016930Y-116439292D01*
X166941284Y-116462288D01*
X166939383Y-116462904D01*
X166849463Y-116493972D01*
X166751668Y-116530676D01*
X166653922Y-116569669D01*
X166564150Y-116607599D01*
X166490276Y-116641118D01*
X166440224Y-116666875D01*
X166421921Y-116681522D01*
X141817765Y-116681522D01*
X141462038Y-116647676D01*
X141115963Y-116607385D01*
X140804043Y-116562770D01*
X140522249Y-116513234D01*
X140266550Y-116458182D01*
X140190248Y-116439472D01*
X140101421Y-116416181D01*
X139978124Y-116382639D01*
X139825606Y-116340356D01*
X139649111Y-116290844D01*
X139453886Y-116235615D01*
X139245179Y-116176179D01*
X139028234Y-116114050D01*
X138808298Y-116050738D01*
X138590619Y-115987755D01*
X138380441Y-115926612D01*
X138183012Y-115868821D01*
X138003577Y-115815893D01*
X137847384Y-115769341D01*
X137719678Y-115730675D01*
X137625706Y-115701407D01*
X137602383Y-115693869D01*
X137249728Y-115570615D01*
X136924258Y-115441432D01*
X136627732Y-115307424D01*
X136361909Y-115169695D01*
X136128546Y-115029348D01*
X135929401Y-114887487D01*
X135766233Y-114745216D01*
X135640800Y-114603637D01*
X135554859Y-114463855D01*
X135525762Y-114390365D01*
X135510902Y-114327498D01*
X135499163Y-114240131D01*
X135490094Y-114123178D01*
X135483243Y-113971551D01*
X135480505Y-113881042D01*
X135469909Y-113481133D01*
X135244979Y-113494046D01*
X135063837Y-113511432D01*
X134871601Y-113544195D01*
X134661787Y-113593855D01*
X134427912Y-113661933D01*
X134183967Y-113742816D01*
X134044973Y-113790696D01*
X133899783Y-113840059D01*
X133761067Y-113886642D01*
X133641490Y-113926180D01*
X133580717Y-113945863D01*
X133487007Y-113976699D01*
X133408208Y-114004274D01*
X133353091Y-114025408D01*
X133330906Y-114036369D01*
X130973451Y-114036369D01*
X130985110Y-114033381D01*
X131163109Y-113987750D01*
X131326688Y-113945807D01*
X131421717Y-113921434D01*
X131646024Y-113862298D01*
X131857419Y-113802901D01*
X132065756Y-113740144D01*
X132280887Y-113670931D01*
X132512667Y-113592165D01*
X132770949Y-113500747D01*
X132844814Y-113474106D01*
X133010405Y-113414751D01*
X133203345Y-113346519D01*
X133410810Y-113273888D01*
X133619977Y-113201333D01*
X133818022Y-113133331D01*
X133929967Y-113095296D01*
X134158876Y-113016965D01*
X134353611Y-112947979D01*
X134520599Y-112885699D01*
X134666269Y-112827485D01*
X134797047Y-112770699D01*
X134919361Y-112712701D01*
X135039638Y-112650851D01*
X135123955Y-112605019D01*
X135393387Y-112451847D01*
X135625542Y-112310930D01*
X135823004Y-112180263D01*
X135988355Y-112057841D01*
X136124178Y-111941659D01*
X136233056Y-111829714D01*
X136317572Y-111720000D01*
X136364099Y-111642559D01*
X136424903Y-111510124D01*
X136468056Y-111378014D01*
X136489362Y-111259978D01*
X136490882Y-111227129D01*
X136478870Y-111139199D01*
X136446016Y-111033160D01*
X136397894Y-110923985D01*
X136343692Y-110831838D01*
X136289309Y-110763008D01*
X136225471Y-110705142D01*
X136144394Y-110653345D01*
X136038298Y-110602726D01*
X135899400Y-110548394D01*
X135883719Y-110542682D01*
X135739257Y-110485999D01*
X135620861Y-110427644D01*
X135518507Y-110360269D01*
X135422170Y-110276520D01*
X135321823Y-110169049D01*
X135239262Y-110070136D01*
X135105053Y-109912253D01*
X134984555Y-109790981D01*
X134872195Y-109705242D01*
X134762400Y-109653962D01*
X134649595Y-109636064D01*
X134528209Y-109650472D01*
X134392667Y-109696111D01*
X134237396Y-109771904D01*
X134100580Y-109850321D01*
X133917416Y-109966467D01*
X133707319Y-110111503D01*
X133472565Y-110283678D01*
X133215428Y-110481240D01*
X132938184Y-110702438D01*
X132643109Y-110945518D01*
X132332477Y-111208730D01*
X132300133Y-111236533D01*
X131890958Y-111583790D01*
X131505215Y-111900493D01*
X131139449Y-112188793D01*
X130790207Y-112450836D01*
X130454037Y-112688770D01*
X130127485Y-112904745D01*
X129807098Y-113100908D01*
X129489423Y-113279407D01*
X129171006Y-113442390D01*
X128848394Y-113592006D01*
X128518134Y-113730403D01*
X128176773Y-113859729D01*
X127962824Y-113934670D01*
X127743608Y-114011722D01*
X127560131Y-114081920D01*
X127406861Y-114147827D01*
X127278262Y-114212003D01*
X127168802Y-114277010D01*
X127072945Y-114345408D01*
X127069491Y-114348113D01*
X126992101Y-114411007D01*
X126949728Y-114453930D01*
X126942920Y-114481483D01*
X122411040Y-114481483D01*
X122344965Y-114432563D01*
X122126007Y-114224598D01*
X121938961Y-113993885D01*
X121781903Y-113738479D01*
X121652913Y-113456437D01*
X121599160Y-113307283D01*
X121577379Y-113237100D01*
X121560077Y-113168346D01*
X121546988Y-113095748D01*
X121537848Y-113014034D01*
X121532394Y-112917933D01*
X121530360Y-112802172D01*
X121531483Y-112661480D01*
X121535499Y-112490584D01*
X121542142Y-112284212D01*
X121544514Y-112217200D01*
X121558930Y-111905416D01*
X121579376Y-111626653D01*
X121607338Y-111371840D01*
X121644303Y-111131910D01*
X121691757Y-110897793D01*
X121751188Y-110660420D01*
X121824082Y-110410723D01*
X121858548Y-110301617D01*
X122014434Y-109866595D01*
X122206025Y-109417030D01*
X122430997Y-108956983D01*
X122687029Y-108490512D01*
X122971796Y-108021679D01*
X123282977Y-107554543D01*
X123618249Y-107093164D01*
X123898929Y-106735033D01*
X124337303Y-106213415D01*
X124809949Y-105687516D01*
X125310258Y-105164045D01*
X125831619Y-104649711D01*
X126367423Y-104151224D01*
X126911061Y-103675293D01*
X126923876Y-103664435D01*
X127260813Y-103385151D01*
X127629981Y-103090189D01*
X128026107Y-102783505D01*
X128443916Y-102469056D01*
X128878136Y-102150797D01*
X129323492Y-101832687D01*
X129774712Y-101518682D01*
X129877940Y-101448022D01*
X129963287Y-101390592D01*
X130022588Y-101354059D01*
X130064363Y-101334873D01*
X130097129Y-101329489D01*
X130129405Y-101334358D01*
X130142384Y-101337892D01*
X130202648Y-101351851D01*
X130261809Y-101356501D01*
X130326865Y-101350334D01*
X130404816Y-101331842D01*
X130502662Y-101299518D01*
X130627401Y-101251854D01*
X130725228Y-101212336D01*
X130980924Y-101106127D01*
X131232719Y-100998059D01*
X131484835Y-100886082D01*
X131741492Y-100768148D01*
X132006909Y-100642206D01*
X132285307Y-100506209D01*
X132580907Y-100358105D01*
X132897927Y-100195847D01*
X133240589Y-100017384D01*
X133613113Y-99820668D01*
X133840219Y-99699700D01*
X134016873Y-99605341D01*
X134207746Y-99503373D01*
X134402610Y-99399261D01*
X134591238Y-99298467D01*
X134763404Y-99206458D01*
X134908881Y-99128696D01*
X134914217Y-99125844D01*
X135060114Y-99048180D01*
X135209886Y-98969047D01*
X135354295Y-98893283D01*
X135484104Y-98825726D01*
X135590075Y-98771215D01*
X135627817Y-98752083D01*
X135722543Y-98705585D01*
X135840266Y-98649685D01*
X135976272Y-98586463D01*
X136125843Y-98517995D01*
X136284262Y-98446359D01*
X136446815Y-98373635D01*
X136608784Y-98301898D01*
X136765452Y-98233228D01*
X136912105Y-98169702D01*
X137044025Y-98113398D01*
X137156496Y-98066393D01*
X137244802Y-98030767D01*
X137304226Y-98008596D01*
X137330052Y-98001959D01*
X137330271Y-98002027D01*
X137344192Y-98022316D01*
X137375056Y-98077184D01*
X137421107Y-98163225D01*
X137480590Y-98277037D01*
X137551751Y-98415218D01*
X137632834Y-98574363D01*
X137722085Y-98751070D01*
X137817749Y-98941936D01*
X137895442Y-99097954D01*
X138062981Y-99433755D01*
X138215819Y-99736488D01*
X138356873Y-100011579D01*
X138489062Y-100264452D01*
X138615302Y-100500532D01*
X138738512Y-100725245D01*
X138861609Y-100944016D01*
X138987511Y-101162269D01*
X139119137Y-101385429D01*
X139184585Y-101494847D01*
X139604693Y-102172178D01*
X140040377Y-102831705D01*
X140488787Y-103469678D01*
X140947074Y-104082350D01*
X141412386Y-104665971D01*
X141881875Y-105216793D01*
X142352691Y-105731066D01*
X142594699Y-105980386D01*
X142734269Y-106119949D01*
X142892675Y-106276215D01*
X143065139Y-106444627D01*
X143246886Y-106620631D01*
X143433138Y-106799670D01*
X143619118Y-106977189D01*
X143800049Y-107148630D01*
X143971154Y-107309438D01*
X144127657Y-107455057D01*
X144264779Y-107580930D01*
X144377745Y-107682503D01*
X144399122Y-107701346D01*
X145113093Y-108300443D01*
X145851279Y-108865962D01*
X146614439Y-109398361D01*
X147403330Y-109898099D01*
X148218711Y-110365636D01*
X149061339Y-110801431D01*
X149931973Y-111205942D01*
X150751488Y-111548144D01*
X151381418Y-111790061D01*
X151984920Y-112005658D01*
X152567591Y-112196302D01*
X153135031Y-112363358D01*
X153692836Y-112508191D01*
X154246604Y-112632167D01*
X154801934Y-112736652D01*
X155364423Y-112823010D01*
X155939670Y-112892609D01*
X156461883Y-112941156D01*
X156593026Y-112949410D01*
X156758892Y-112956159D01*
X156952513Y-112961406D01*
X157166924Y-112965150D01*
X157395158Y-112967395D01*
X157630247Y-112968140D01*
X157865225Y-112967388D01*
X158093125Y-112965140D01*
X158306981Y-112961397D01*
X158499826Y-112956161D01*
X158664692Y-112949432D01*
X158794614Y-112941213D01*
X158800800Y-112940701D01*
X159587802Y-112858831D01*
X160348807Y-112747099D01*
X161088967Y-112604313D01*
X161813434Y-112429278D01*
X162527360Y-112220802D01*
X163235896Y-111977691D01*
X163658437Y-111815556D01*
X164402615Y-111500898D01*
X165119968Y-111160519D01*
X165813522Y-110792411D01*
X166486300Y-110394565D01*
X167141327Y-109964973D01*
X167781627Y-109501626D01*
X168410223Y-109002515D01*
X169030141Y-108465633D01*
X169644403Y-107888970D01*
X169797688Y-107738107D01*
X170271220Y-107251209D01*
X170725570Y-106749586D01*
X171163641Y-106229372D01*
X171588336Y-105686702D01*
X172002558Y-105117710D01*
X172409209Y-104518531D01*
X172811193Y-103885299D01*
X173211411Y-103214150D01*
X173265548Y-103120283D01*
X173706868Y-102311436D01*
X174118775Y-101472584D01*
X174501033Y-100604395D01*
X174853406Y-99707536D01*
X175175657Y-98782676D01*
X175467550Y-97830483D01*
X175728850Y-96851624D01*
X175959318Y-95846767D01*
X176112583Y-95072200D01*
X176187395Y-94651469D01*
X176254443Y-94239615D01*
X176314229Y-93831463D01*
X176367254Y-93421836D01*
X176414019Y-93005557D01*
X176455025Y-92577451D01*
X176490773Y-92132342D01*
X176521764Y-91665053D01*
X176548499Y-91170409D01*
X176571479Y-90643232D01*
X176588908Y-90150950D01*
X176590342Y-90049529D01*
X176589567Y-89911668D01*
X176586791Y-89743191D01*
X176582219Y-89549922D01*
X176576059Y-89337686D01*
X176568516Y-89112306D01*
X176559798Y-88879608D01*
X176550112Y-88645414D01*
X176539663Y-88415549D01*
X176528659Y-88195838D01*
X176517305Y-87992104D01*
X176505936Y-87812033D01*
X176466628Y-87298448D01*
X176417706Y-86769291D01*
X176360202Y-86232498D01*
X176295153Y-85696003D01*
X176223593Y-85167743D01*
X176146555Y-84655651D01*
X176065075Y-84167664D01*
X175980187Y-83711715D01*
X175954999Y-83586222D01*
X175950574Y-83548482D01*
X175959939Y-83517822D01*
X175989653Y-83483962D01*
X176046275Y-83436622D01*
X176054725Y-83429915D01*
X176136797Y-83368487D01*
X176246913Y-83291198D01*
X176376586Y-83203581D01*
X176517333Y-83111169D01*
X176660668Y-83019497D01*
X176798105Y-82934098D01*
X176921160Y-82860506D01*
X176975945Y-82829136D01*
X177217722Y-82701856D01*
X177484227Y-82576222D01*
X177762241Y-82457754D01*
X178038544Y-82351969D01*
X178299916Y-82264387D01*
X178397662Y-82235592D01*
X178773156Y-82140631D01*
X179129709Y-82073367D01*
X179478978Y-82032246D01*
X179832620Y-82015711D01*
X180037707Y-82016627D01*
G36*
X125674967Y-130685117D02*
X125664383Y-130695700D01*
X125653800Y-130685117D01*
X125664383Y-130674533D01*
X125674967Y-130685117D01*
X125674967Y-130685117D01*
G37*
X125674967Y-130685117D02*
X125664383Y-130695700D01*
X125653800Y-130685117D01*
X125664383Y-130674533D01*
X125674967Y-130685117D01*
G36*
X125689078Y-130618089D02*
X125691611Y-130643209D01*
X125689078Y-130646311D01*
X125676494Y-130643405D01*
X125674967Y-130632200D01*
X125682711Y-130614777D01*
X125689078Y-130618089D01*
X125689078Y-130618089D01*
G37*
X125689078Y-130618089D02*
X125691611Y-130643209D01*
X125689078Y-130646311D01*
X125676494Y-130643405D01*
X125674967Y-130632200D01*
X125682711Y-130614777D01*
X125689078Y-130618089D01*
G36*
X125717300Y-130579283D02*
X125706717Y-130589867D01*
X125696133Y-130579283D01*
X125706717Y-130568700D01*
X125717300Y-130579283D01*
X125717300Y-130579283D01*
G37*
X125717300Y-130579283D02*
X125706717Y-130589867D01*
X125696133Y-130579283D01*
X125706717Y-130568700D01*
X125717300Y-130579283D01*
G36*
X125738467Y-130515783D02*
X125727883Y-130526367D01*
X125717300Y-130515783D01*
X125727883Y-130505200D01*
X125738467Y-130515783D01*
X125738467Y-130515783D01*
G37*
X125738467Y-130515783D02*
X125727883Y-130526367D01*
X125717300Y-130515783D01*
X125727883Y-130505200D01*
X125738467Y-130515783D01*
G36*
X125759633Y-130473450D02*
X125749050Y-130484033D01*
X125738467Y-130473450D01*
X125749050Y-130462867D01*
X125759633Y-130473450D01*
X125759633Y-130473450D01*
G37*
X125759633Y-130473450D02*
X125749050Y-130484033D01*
X125738467Y-130473450D01*
X125749050Y-130462867D01*
X125759633Y-130473450D01*
G36*
X125780800Y-130409950D02*
X125770217Y-130420533D01*
X125759633Y-130409950D01*
X125770217Y-130399367D01*
X125780800Y-130409950D01*
X125780800Y-130409950D01*
G37*
X125780800Y-130409950D02*
X125770217Y-130420533D01*
X125759633Y-130409950D01*
X125770217Y-130399367D01*
X125780800Y-130409950D01*
G36*
X125801967Y-130367617D02*
X125791383Y-130378200D01*
X125780800Y-130367617D01*
X125791383Y-130357033D01*
X125801967Y-130367617D01*
X125801967Y-130367617D01*
G37*
X125801967Y-130367617D02*
X125791383Y-130378200D01*
X125780800Y-130367617D01*
X125791383Y-130357033D01*
X125801967Y-130367617D01*
G36*
X125823133Y-130325283D02*
X125812550Y-130335867D01*
X125801967Y-130325283D01*
X125812550Y-130314700D01*
X125823133Y-130325283D01*
X125823133Y-130325283D01*
G37*
X125823133Y-130325283D02*
X125812550Y-130335867D01*
X125801967Y-130325283D01*
X125812550Y-130314700D01*
X125823133Y-130325283D01*
G36*
X125865467Y-130219450D02*
X125854883Y-130230033D01*
X125844300Y-130219450D01*
X125854883Y-130208867D01*
X125865467Y-130219450D01*
X125865467Y-130219450D01*
G37*
X125865467Y-130219450D02*
X125854883Y-130230033D01*
X125844300Y-130219450D01*
X125854883Y-130208867D01*
X125865467Y-130219450D01*
G36*
X163504148Y-97399155D02*
X163718630Y-97438541D01*
X163929310Y-97516219D01*
X164060513Y-97586236D01*
X164139948Y-97642467D01*
X164238474Y-97725005D01*
X164349033Y-97826868D01*
X164464564Y-97941074D01*
X164578009Y-98060641D01*
X164682307Y-98178586D01*
X164770399Y-98287927D01*
X164771611Y-98289533D01*
X164967053Y-98572789D01*
X165153992Y-98890886D01*
X165329366Y-99236681D01*
X165490111Y-99603032D01*
X165633165Y-99982797D01*
X165755465Y-100368834D01*
X165853946Y-100754001D01*
X165879111Y-100871867D01*
X165937865Y-101191722D01*
X165985863Y-101516775D01*
X166022548Y-101839709D01*
X166047360Y-102153205D01*
X166059743Y-102449945D01*
X166059136Y-102722611D01*
X166044983Y-102963884D01*
X166041421Y-102999117D01*
X166010950Y-103223112D01*
X165968369Y-103450659D01*
X165915944Y-103673494D01*
X165855939Y-103883353D01*
X165790618Y-104071974D01*
X165722246Y-104231093D01*
X165683985Y-104303347D01*
X165611806Y-104409798D01*
X165518292Y-104521528D01*
X165413022Y-104629066D01*
X165305571Y-104722938D01*
X165205515Y-104793673D01*
X165167023Y-104814678D01*
X164982643Y-104881443D01*
X164787622Y-104911190D01*
X164593193Y-104902289D01*
X164579300Y-104900077D01*
X164428133Y-104860720D01*
X164262774Y-104793273D01*
X164094772Y-104703253D01*
X163935677Y-104596175D01*
X163923296Y-104586742D01*
X163829520Y-104507296D01*
X163719115Y-104402113D01*
X163600139Y-104279845D01*
X163480652Y-104149143D01*
X163368714Y-104018659D01*
X163272383Y-103897044D01*
X163241343Y-103854672D01*
X163052823Y-103565704D01*
X162873368Y-103242828D01*
X162706558Y-102894114D01*
X162555973Y-102527631D01*
X162425192Y-102151447D01*
X162317794Y-101773632D01*
X162317246Y-101771450D01*
X162243943Y-101459597D01*
X162186910Y-101168763D01*
X162144339Y-100885510D01*
X162114419Y-100596397D01*
X162095341Y-100287984D01*
X162087815Y-100067533D01*
X162084959Y-99716555D01*
X162095583Y-99400591D01*
X162120634Y-99114221D01*
X162161061Y-98852023D01*
X162217810Y-98608577D01*
X162291828Y-98378461D01*
X162384064Y-98156254D01*
X162443018Y-98035223D01*
X162540127Y-97861213D01*
X162635600Y-97724029D01*
X162733754Y-97618584D01*
X162838905Y-97539793D01*
X162885647Y-97513703D01*
X163082882Y-97436441D01*
X163290641Y-97398357D01*
X163504148Y-97399155D01*
X163504148Y-97399155D01*
G37*
X163504148Y-97399155D02*
X163718630Y-97438541D01*
X163929310Y-97516219D01*
X164060513Y-97586236D01*
X164139948Y-97642467D01*
X164238474Y-97725005D01*
X164349033Y-97826868D01*
X164464564Y-97941074D01*
X164578009Y-98060641D01*
X164682307Y-98178586D01*
X164770399Y-98287927D01*
X164771611Y-98289533D01*
X164967053Y-98572789D01*
X165153992Y-98890886D01*
X165329366Y-99236681D01*
X165490111Y-99603032D01*
X165633165Y-99982797D01*
X165755465Y-100368834D01*
X165853946Y-100754001D01*
X165879111Y-100871867D01*
X165937865Y-101191722D01*
X165985863Y-101516775D01*
X166022548Y-101839709D01*
X166047360Y-102153205D01*
X166059743Y-102449945D01*
X166059136Y-102722611D01*
X166044983Y-102963884D01*
X166041421Y-102999117D01*
X166010950Y-103223112D01*
X165968369Y-103450659D01*
X165915944Y-103673494D01*
X165855939Y-103883353D01*
X165790618Y-104071974D01*
X165722246Y-104231093D01*
X165683985Y-104303347D01*
X165611806Y-104409798D01*
X165518292Y-104521528D01*
X165413022Y-104629066D01*
X165305571Y-104722938D01*
X165205515Y-104793673D01*
X165167023Y-104814678D01*
X164982643Y-104881443D01*
X164787622Y-104911190D01*
X164593193Y-104902289D01*
X164579300Y-104900077D01*
X164428133Y-104860720D01*
X164262774Y-104793273D01*
X164094772Y-104703253D01*
X163935677Y-104596175D01*
X163923296Y-104586742D01*
X163829520Y-104507296D01*
X163719115Y-104402113D01*
X163600139Y-104279845D01*
X163480652Y-104149143D01*
X163368714Y-104018659D01*
X163272383Y-103897044D01*
X163241343Y-103854672D01*
X163052823Y-103565704D01*
X162873368Y-103242828D01*
X162706558Y-102894114D01*
X162555973Y-102527631D01*
X162425192Y-102151447D01*
X162317794Y-101773632D01*
X162317246Y-101771450D01*
X162243943Y-101459597D01*
X162186910Y-101168763D01*
X162144339Y-100885510D01*
X162114419Y-100596397D01*
X162095341Y-100287984D01*
X162087815Y-100067533D01*
X162084959Y-99716555D01*
X162095583Y-99400591D01*
X162120634Y-99114221D01*
X162161061Y-98852023D01*
X162217810Y-98608577D01*
X162291828Y-98378461D01*
X162384064Y-98156254D01*
X162443018Y-98035223D01*
X162540127Y-97861213D01*
X162635600Y-97724029D01*
X162733754Y-97618584D01*
X162838905Y-97539793D01*
X162885647Y-97513703D01*
X163082882Y-97436441D01*
X163290641Y-97398357D01*
X163504148Y-97399155D01*
G36*
X154299437Y-62168053D02*
X154853946Y-62181183D01*
X155400579Y-62207202D01*
X155933935Y-62246268D01*
X156448609Y-62298542D01*
X156610050Y-62318287D01*
X157195887Y-62404741D01*
X157800126Y-62516044D01*
X158413334Y-62649779D01*
X159026078Y-62803529D01*
X159628927Y-62974878D01*
X160212449Y-63161409D01*
X160767210Y-63360705D01*
X160938633Y-63427381D01*
X161134439Y-63508462D01*
X161359931Y-63607671D01*
X161608302Y-63721675D01*
X161872748Y-63847140D01*
X162146464Y-63980735D01*
X162422644Y-64119125D01*
X162694483Y-64258978D01*
X162955175Y-64396962D01*
X163197917Y-64529743D01*
X163256383Y-64562514D01*
X164031958Y-65021922D01*
X164798157Y-65519989D01*
X165550714Y-66053348D01*
X166285362Y-66618635D01*
X166997836Y-67212484D01*
X167683870Y-67831529D01*
X168339196Y-68472405D01*
X168727474Y-68878450D01*
X169328687Y-69547084D01*
X169915593Y-70245797D01*
X170483298Y-70968018D01*
X171026911Y-71707182D01*
X171541537Y-72456719D01*
X172022285Y-73210063D01*
X172299167Y-73672700D01*
X172384730Y-73820637D01*
X172471719Y-73973221D01*
X172557746Y-74126056D01*
X172640424Y-74274747D01*
X172717364Y-74414900D01*
X172786177Y-74542121D01*
X172844475Y-74652013D01*
X172889870Y-74740183D01*
X172919974Y-74802235D01*
X172932399Y-74833775D01*
X172931807Y-74836867D01*
X172918700Y-74819420D01*
X172890218Y-74772128D01*
X172850783Y-74702565D01*
X172812302Y-74632227D01*
X172357004Y-73819008D01*
X171883337Y-73035588D01*
X171387260Y-72276210D01*
X170864732Y-71535116D01*
X170311709Y-70806546D01*
X169724151Y-70084743D01*
X169174761Y-69449950D01*
X169049982Y-69313047D01*
X168899143Y-69153187D01*
X168727661Y-68975720D01*
X168540955Y-68785996D01*
X168344444Y-68589364D01*
X168143544Y-68391173D01*
X167943674Y-68196772D01*
X167750252Y-68011512D01*
X167568696Y-67840741D01*
X167404425Y-67689808D01*
X167278050Y-67577283D01*
X166521321Y-66940708D01*
X165757723Y-66345812D01*
X164987016Y-65792464D01*
X164208959Y-65280532D01*
X163423315Y-64809886D01*
X162629842Y-64380394D01*
X161828301Y-63991924D01*
X161018453Y-63644345D01*
X160200059Y-63337526D01*
X159372878Y-63071335D01*
X158747883Y-62898610D01*
X158168228Y-62759004D01*
X157594199Y-62640459D01*
X157013840Y-62540888D01*
X156415195Y-62458207D01*
X155890383Y-62400375D01*
X155713883Y-62386124D01*
X155502526Y-62374303D01*
X155263723Y-62364976D01*
X155004886Y-62358208D01*
X154733425Y-62354061D01*
X154456751Y-62352601D01*
X154182275Y-62353891D01*
X153917408Y-62357996D01*
X153669560Y-62364980D01*
X153446142Y-62374908D01*
X153382133Y-62378647D01*
X153094222Y-62397128D01*
X152846008Y-62414254D01*
X152634887Y-62430282D01*
X152458254Y-62445474D01*
X152313505Y-62460089D01*
X152198034Y-62474387D01*
X152109237Y-62488626D01*
X152044510Y-62503067D01*
X152006300Y-62515765D01*
X151950435Y-62533434D01*
X151863310Y-62554268D01*
X151755643Y-62575982D01*
X151638153Y-62596290D01*
X151604133Y-62601536D01*
X151061114Y-62694918D01*
X150500214Y-62814362D01*
X149934277Y-62956801D01*
X149376144Y-63119172D01*
X149201717Y-63174701D01*
X148889218Y-63279445D01*
X148601272Y-63383014D01*
X148325479Y-63490403D01*
X148049437Y-63606605D01*
X147760747Y-63736614D01*
X147497800Y-63860916D01*
X147351592Y-63930990D01*
X147212089Y-63997340D01*
X147085522Y-64057043D01*
X146978120Y-64107174D01*
X146896115Y-64144810D01*
X146845738Y-64167024D01*
X146844513Y-64167532D01*
X146530608Y-64306145D01*
X146192313Y-64471896D01*
X145834759Y-64661585D01*
X145463078Y-64872009D01*
X145082399Y-65099967D01*
X144697856Y-65342256D01*
X144314578Y-65595673D01*
X143937697Y-65857018D01*
X143572344Y-66123088D01*
X143223651Y-66390681D01*
X143021050Y-66553515D01*
X142743251Y-66788876D01*
X142447366Y-67054109D01*
X142138771Y-67343850D01*
X141822844Y-67652734D01*
X141504961Y-67975398D01*
X141190498Y-68306476D01*
X140884833Y-68640605D01*
X140593342Y-68972419D01*
X140574082Y-68994867D01*
X140079538Y-69597604D01*
X139599914Y-70234034D01*
X139133801Y-70906167D01*
X138679791Y-71616014D01*
X138348984Y-72169867D01*
X137915181Y-72955930D01*
X137507779Y-73773183D01*
X137127524Y-74619142D01*
X136775160Y-75491324D01*
X136451431Y-76387248D01*
X136157081Y-77304429D01*
X135892856Y-78240385D01*
X135659498Y-79192633D01*
X135457754Y-80158691D01*
X135288366Y-81136075D01*
X135152080Y-82122304D01*
X135049639Y-83114893D01*
X135042664Y-83197700D01*
X135026459Y-83396113D01*
X135012478Y-83575015D01*
X135000556Y-83739462D01*
X134990524Y-83894507D01*
X134982218Y-84045205D01*
X134975472Y-84196611D01*
X134970118Y-84353779D01*
X134965991Y-84521764D01*
X134962925Y-84705619D01*
X134960753Y-84910401D01*
X134959309Y-85141162D01*
X134958427Y-85402957D01*
X134957942Y-85700842D01*
X134957867Y-85776731D01*
X134956550Y-87244513D01*
X134893050Y-87295651D01*
X134819557Y-87345696D01*
X134713588Y-87405246D01*
X134582865Y-87470529D01*
X134435108Y-87537777D01*
X134278039Y-87603219D01*
X134205133Y-87631546D01*
X133841661Y-87776589D01*
X133448959Y-87946826D01*
X133030492Y-88140560D01*
X132589726Y-88356094D01*
X132130126Y-88591730D01*
X131655157Y-88845771D01*
X131168284Y-89116520D01*
X131135967Y-89134850D01*
X130994346Y-89215103D01*
X130850496Y-89296315D01*
X130713167Y-89373567D01*
X130591112Y-89441941D01*
X130493080Y-89496518D01*
X130458633Y-89515543D01*
X130361744Y-89569862D01*
X130269792Y-89623212D01*
X130194178Y-89668874D01*
X130151717Y-89696319D01*
X130099436Y-89736431D01*
X130023787Y-89799668D01*
X129931805Y-89879694D01*
X129830523Y-89970174D01*
X129726972Y-90064772D01*
X129628188Y-90157152D01*
X129541203Y-90240980D01*
X129489320Y-90293006D01*
X129437866Y-90347455D01*
X129403013Y-90392064D01*
X129379046Y-90438832D01*
X129360253Y-90499762D01*
X129340922Y-90586854D01*
X129334498Y-90618232D01*
X129302140Y-90757310D01*
X129263331Y-90879019D01*
X129213004Y-90994318D01*
X129146088Y-91114170D01*
X129057515Y-91249534D01*
X129013362Y-91312626D01*
X128875118Y-91521118D01*
X128767705Y-91715325D01*
X128686647Y-91904320D01*
X128628561Y-92092861D01*
X128615523Y-92148323D01*
X128603961Y-92207997D01*
X128593448Y-92276443D01*
X128583555Y-92358221D01*
X128573852Y-92457887D01*
X128563911Y-92580003D01*
X128553303Y-92729125D01*
X128541599Y-92909814D01*
X128528371Y-93126628D01*
X128523296Y-93211981D01*
X128502695Y-93565862D01*
X128485034Y-93882508D01*
X128470119Y-94166904D01*
X128457759Y-94424032D01*
X128447762Y-94658875D01*
X128439937Y-94876417D01*
X128434092Y-95081640D01*
X128430035Y-95279529D01*
X128427574Y-95475066D01*
X128426518Y-95673235D01*
X128426448Y-95728367D01*
X128425820Y-95938593D01*
X128424037Y-96109638D01*
X128420927Y-96244639D01*
X128416318Y-96346736D01*
X128410038Y-96419069D01*
X128401915Y-96464777D01*
X128391778Y-96487000D01*
X128384737Y-96490367D01*
X128379857Y-96470184D01*
X128374400Y-96413553D01*
X128368715Y-96326350D01*
X128363154Y-96214447D01*
X128358066Y-96083722D01*
X128355373Y-95998242D01*
X128351285Y-95761510D01*
X128351411Y-95487314D01*
X128355632Y-95180301D01*
X128363829Y-94845118D01*
X128375883Y-94486413D01*
X128391677Y-94108832D01*
X128411091Y-93717023D01*
X128415745Y-93631050D01*
X128425670Y-93449377D01*
X128436188Y-93255112D01*
X128446657Y-93060216D01*
X128456436Y-92876651D01*
X128464885Y-92716378D01*
X128468962Y-92638033D01*
X128477042Y-92497233D01*
X128486409Y-92359069D01*
X128496269Y-92233686D01*
X128505830Y-92131230D01*
X128513595Y-92066533D01*
X128575707Y-91786526D01*
X128678187Y-91512075D01*
X128819084Y-91247555D01*
X128981954Y-91015477D01*
X129046182Y-90931934D01*
X129104002Y-90852383D01*
X129147938Y-90787350D01*
X129166973Y-90755039D01*
X129230060Y-90594844D01*
X129274093Y-90402292D01*
X129298308Y-90183209D01*
X129301936Y-89943419D01*
X129293842Y-89791117D01*
X129235865Y-88899379D01*
X129197948Y-87971118D01*
X129180083Y-87007085D01*
X129182264Y-86008031D01*
X129204485Y-84974709D01*
X129246739Y-83907871D01*
X129309020Y-82808267D01*
X129360264Y-82075987D01*
X129372251Y-81923481D01*
X129384155Y-81785137D01*
X129395420Y-81666472D01*
X129405487Y-81573004D01*
X129413797Y-81510252D01*
X129419794Y-81483733D01*
X129420188Y-81483320D01*
X129425885Y-81476012D01*
X129431976Y-81458923D01*
X129439098Y-81428016D01*
X129447883Y-81379253D01*
X129458967Y-81308596D01*
X129472982Y-81212008D01*
X129490564Y-81085451D01*
X129512347Y-80924887D01*
X129538229Y-80731783D01*
X129611037Y-80239919D01*
X129702620Y-79713057D01*
X129812454Y-79153876D01*
X129940012Y-78565057D01*
X130079188Y-77972207D01*
X130113491Y-77830741D01*
X130144217Y-77703278D01*
X130170020Y-77595460D01*
X130189556Y-77512929D01*
X130201480Y-77461328D01*
X130204633Y-77446085D01*
X130185291Y-77441015D01*
X130133617Y-77441303D01*
X130059143Y-77446002D01*
X129971397Y-77454166D01*
X129879909Y-77464848D01*
X129794210Y-77477101D01*
X129723830Y-77489978D01*
X129696633Y-77496556D01*
X129642176Y-77512844D01*
X129592153Y-77531645D01*
X129541151Y-77556416D01*
X129483759Y-77590614D01*
X129414565Y-77637699D01*
X129328156Y-77701128D01*
X129219121Y-77784358D01*
X129093383Y-77882008D01*
X128804349Y-78114370D01*
X128550534Y-78333715D01*
X128328227Y-78543662D01*
X128133721Y-78747829D01*
X127963305Y-78949833D01*
X127864351Y-79080783D01*
X127770449Y-79223030D01*
X127668063Y-79400072D01*
X127559974Y-79605895D01*
X127448963Y-79834487D01*
X127337813Y-80079835D01*
X127229304Y-80335927D01*
X127126219Y-80596750D01*
X127031338Y-80856291D01*
X126997776Y-80954033D01*
X126956177Y-81076242D01*
X126924698Y-81163996D01*
X126900455Y-81223128D01*
X126880562Y-81259470D01*
X126862136Y-81278854D01*
X126842292Y-81287111D01*
X126832209Y-81288741D01*
X126785188Y-81288308D01*
X126702915Y-81281053D01*
X126591757Y-81267889D01*
X126458085Y-81249726D01*
X126308265Y-81227475D01*
X126148668Y-81202048D01*
X125985661Y-81174356D01*
X125825613Y-81145311D01*
X125812550Y-81142846D01*
X125548431Y-81089419D01*
X125270691Y-81026965D01*
X124987442Y-80957684D01*
X124706795Y-80883779D01*
X124436861Y-80807450D01*
X124185753Y-80730898D01*
X123961581Y-80656325D01*
X123799196Y-80596498D01*
X123597811Y-80512974D01*
X123412072Y-80424540D01*
X123225658Y-80322933D01*
X123050300Y-80217436D01*
X122743639Y-80014565D01*
X122476661Y-79811285D01*
X122246825Y-79604146D01*
X122051590Y-79389698D01*
X121888415Y-79164490D01*
X121754759Y-78925072D01*
X121648081Y-78667995D01*
X121565840Y-78389807D01*
X121512411Y-78129226D01*
X121475179Y-77909164D01*
X121533647Y-77559092D01*
X121605267Y-77177142D01*
X121688619Y-76825580D01*
X121787296Y-76493251D01*
X121904890Y-76169002D01*
X122044992Y-75841676D01*
X122171353Y-75578758D01*
X122400869Y-75150523D01*
X122656564Y-74730793D01*
X122941172Y-74315866D01*
X123257425Y-73902043D01*
X123608058Y-73485624D01*
X123995804Y-73062907D01*
X124140383Y-72913198D01*
X124397329Y-72654455D01*
X124652199Y-72406347D01*
X124908852Y-72165655D01*
X125171146Y-71929163D01*
X125442938Y-71693652D01*
X125728088Y-71455907D01*
X126030452Y-71212709D01*
X126353888Y-70960841D01*
X126702256Y-70697087D01*
X127079412Y-70418227D01*
X127484717Y-70124283D01*
X128097279Y-69696750D01*
X128748133Y-69267436D01*
X129433407Y-68838404D01*
X130149236Y-68411719D01*
X130891749Y-67989446D01*
X131657080Y-67573650D01*
X132441360Y-67166395D01*
X133240721Y-66769746D01*
X134051294Y-66385766D01*
X134869212Y-66016522D01*
X135690605Y-65664076D01*
X136334944Y-65400669D01*
X136844004Y-65200179D01*
X137340317Y-65011064D01*
X137831755Y-64830596D01*
X138326190Y-64656046D01*
X138831496Y-64484684D01*
X139355544Y-64313783D01*
X139906207Y-64140614D01*
X140438230Y-63978412D01*
X141145677Y-63770685D01*
X141821491Y-63582924D01*
X142470726Y-63413965D01*
X143098430Y-63262645D01*
X143709657Y-63127800D01*
X144309457Y-63008267D01*
X144902882Y-62902881D01*
X145494983Y-62810480D01*
X145531535Y-62805185D01*
X145684320Y-62783655D01*
X145829024Y-62764480D01*
X145971998Y-62747017D01*
X146119595Y-62730626D01*
X146278166Y-62714665D01*
X146454063Y-62698492D01*
X146653637Y-62681465D01*
X146883241Y-62662943D01*
X147127383Y-62643959D01*
X147208305Y-62639447D01*
X147326019Y-62635285D01*
X147474986Y-62631559D01*
X147649667Y-62628356D01*
X147844522Y-62625761D01*
X148054011Y-62623861D01*
X148272595Y-62622741D01*
X148494733Y-62622489D01*
X148507622Y-62622503D01*
X148740908Y-62622348D01*
X148960200Y-62621356D01*
X149161361Y-62619596D01*
X149340256Y-62617134D01*
X149492749Y-62614038D01*
X149614704Y-62610375D01*
X149701985Y-62606213D01*
X149745872Y-62602326D01*
X149822549Y-62589843D01*
X149928452Y-62570121D01*
X150051573Y-62545513D01*
X150179908Y-62518374D01*
X150228300Y-62507719D01*
X150651279Y-62423522D01*
X151109612Y-62350930D01*
X151597895Y-62290103D01*
X152110725Y-62241200D01*
X152642697Y-62204384D01*
X153188409Y-62179814D01*
X153742457Y-62167650D01*
X154299437Y-62168053D01*
X154299437Y-62168053D01*
G37*
X154299437Y-62168053D02*
X154853946Y-62181183D01*
X155400579Y-62207202D01*
X155933935Y-62246268D01*
X156448609Y-62298542D01*
X156610050Y-62318287D01*
X157195887Y-62404741D01*
X157800126Y-62516044D01*
X158413334Y-62649779D01*
X159026078Y-62803529D01*
X159628927Y-62974878D01*
X160212449Y-63161409D01*
X160767210Y-63360705D01*
X160938633Y-63427381D01*
X161134439Y-63508462D01*
X161359931Y-63607671D01*
X161608302Y-63721675D01*
X161872748Y-63847140D01*
X162146464Y-63980735D01*
X162422644Y-64119125D01*
X162694483Y-64258978D01*
X162955175Y-64396962D01*
X163197917Y-64529743D01*
X163256383Y-64562514D01*
X164031958Y-65021922D01*
X164798157Y-65519989D01*
X165550714Y-66053348D01*
X166285362Y-66618635D01*
X166997836Y-67212484D01*
X167683870Y-67831529D01*
X168339196Y-68472405D01*
X168727474Y-68878450D01*
X169328687Y-69547084D01*
X169915593Y-70245797D01*
X170483298Y-70968018D01*
X171026911Y-71707182D01*
X171541537Y-72456719D01*
X172022285Y-73210063D01*
X172299167Y-73672700D01*
X172384730Y-73820637D01*
X172471719Y-73973221D01*
X172557746Y-74126056D01*
X172640424Y-74274747D01*
X172717364Y-74414900D01*
X172786177Y-74542121D01*
X172844475Y-74652013D01*
X172889870Y-74740183D01*
X172919974Y-74802235D01*
X172932399Y-74833775D01*
X172931807Y-74836867D01*
X172918700Y-74819420D01*
X172890218Y-74772128D01*
X172850783Y-74702565D01*
X172812302Y-74632227D01*
X172357004Y-73819008D01*
X171883337Y-73035588D01*
X171387260Y-72276210D01*
X170864732Y-71535116D01*
X170311709Y-70806546D01*
X169724151Y-70084743D01*
X169174761Y-69449950D01*
X169049982Y-69313047D01*
X168899143Y-69153187D01*
X168727661Y-68975720D01*
X168540955Y-68785996D01*
X168344444Y-68589364D01*
X168143544Y-68391173D01*
X167943674Y-68196772D01*
X167750252Y-68011512D01*
X167568696Y-67840741D01*
X167404425Y-67689808D01*
X167278050Y-67577283D01*
X166521321Y-66940708D01*
X165757723Y-66345812D01*
X164987016Y-65792464D01*
X164208959Y-65280532D01*
X163423315Y-64809886D01*
X162629842Y-64380394D01*
X161828301Y-63991924D01*
X161018453Y-63644345D01*
X160200059Y-63337526D01*
X159372878Y-63071335D01*
X158747883Y-62898610D01*
X158168228Y-62759004D01*
X157594199Y-62640459D01*
X157013840Y-62540888D01*
X156415195Y-62458207D01*
X155890383Y-62400375D01*
X155713883Y-62386124D01*
X155502526Y-62374303D01*
X155263723Y-62364976D01*
X155004886Y-62358208D01*
X154733425Y-62354061D01*
X154456751Y-62352601D01*
X154182275Y-62353891D01*
X153917408Y-62357996D01*
X153669560Y-62364980D01*
X153446142Y-62374908D01*
X153382133Y-62378647D01*
X153094222Y-62397128D01*
X152846008Y-62414254D01*
X152634887Y-62430282D01*
X152458254Y-62445474D01*
X152313505Y-62460089D01*
X152198034Y-62474387D01*
X152109237Y-62488626D01*
X152044510Y-62503067D01*
X152006300Y-62515765D01*
X151950435Y-62533434D01*
X151863310Y-62554268D01*
X151755643Y-62575982D01*
X151638153Y-62596290D01*
X151604133Y-62601536D01*
X151061114Y-62694918D01*
X150500214Y-62814362D01*
X149934277Y-62956801D01*
X149376144Y-63119172D01*
X149201717Y-63174701D01*
X148889218Y-63279445D01*
X148601272Y-63383014D01*
X148325479Y-63490403D01*
X148049437Y-63606605D01*
X147760747Y-63736614D01*
X147497800Y-63860916D01*
X147351592Y-63930990D01*
X147212089Y-63997340D01*
X147085522Y-64057043D01*
X146978120Y-64107174D01*
X146896115Y-64144810D01*
X146845738Y-64167024D01*
X146844513Y-64167532D01*
X146530608Y-64306145D01*
X146192313Y-64471896D01*
X145834759Y-64661585D01*
X145463078Y-64872009D01*
X145082399Y-65099967D01*
X144697856Y-65342256D01*
X144314578Y-65595673D01*
X143937697Y-65857018D01*
X143572344Y-66123088D01*
X143223651Y-66390681D01*
X143021050Y-66553515D01*
X142743251Y-66788876D01*
X142447366Y-67054109D01*
X142138771Y-67343850D01*
X141822844Y-67652734D01*
X141504961Y-67975398D01*
X141190498Y-68306476D01*
X140884833Y-68640605D01*
X140593342Y-68972419D01*
X140574082Y-68994867D01*
X140079538Y-69597604D01*
X139599914Y-70234034D01*
X139133801Y-70906167D01*
X138679791Y-71616014D01*
X138348984Y-72169867D01*
X137915181Y-72955930D01*
X137507779Y-73773183D01*
X137127524Y-74619142D01*
X136775160Y-75491324D01*
X136451431Y-76387248D01*
X136157081Y-77304429D01*
X135892856Y-78240385D01*
X135659498Y-79192633D01*
X135457754Y-80158691D01*
X135288366Y-81136075D01*
X135152080Y-82122304D01*
X135049639Y-83114893D01*
X135042664Y-83197700D01*
X135026459Y-83396113D01*
X135012478Y-83575015D01*
X135000556Y-83739462D01*
X134990524Y-83894507D01*
X134982218Y-84045205D01*
X134975472Y-84196611D01*
X134970118Y-84353779D01*
X134965991Y-84521764D01*
X134962925Y-84705619D01*
X134960753Y-84910401D01*
X134959309Y-85141162D01*
X134958427Y-85402957D01*
X134957942Y-85700842D01*
X134957867Y-85776731D01*
X134956550Y-87244513D01*
X134893050Y-87295651D01*
X134819557Y-87345696D01*
X134713588Y-87405246D01*
X134582865Y-87470529D01*
X134435108Y-87537777D01*
X134278039Y-87603219D01*
X134205133Y-87631546D01*
X133841661Y-87776589D01*
X133448959Y-87946826D01*
X133030492Y-88140560D01*
X132589726Y-88356094D01*
X132130126Y-88591730D01*
X131655157Y-88845771D01*
X131168284Y-89116520D01*
X131135967Y-89134850D01*
X130994346Y-89215103D01*
X130850496Y-89296315D01*
X130713167Y-89373567D01*
X130591112Y-89441941D01*
X130493080Y-89496518D01*
X130458633Y-89515543D01*
X130361744Y-89569862D01*
X130269792Y-89623212D01*
X130194178Y-89668874D01*
X130151717Y-89696319D01*
X130099436Y-89736431D01*
X130023787Y-89799668D01*
X129931805Y-89879694D01*
X129830523Y-89970174D01*
X129726972Y-90064772D01*
X129628188Y-90157152D01*
X129541203Y-90240980D01*
X129489320Y-90293006D01*
X129437866Y-90347455D01*
X129403013Y-90392064D01*
X129379046Y-90438832D01*
X129360253Y-90499762D01*
X129340922Y-90586854D01*
X129334498Y-90618232D01*
X129302140Y-90757310D01*
X129263331Y-90879019D01*
X129213004Y-90994318D01*
X129146088Y-91114170D01*
X129057515Y-91249534D01*
X129013362Y-91312626D01*
X128875118Y-91521118D01*
X128767705Y-91715325D01*
X128686647Y-91904320D01*
X128628561Y-92092861D01*
X128615523Y-92148323D01*
X128603961Y-92207997D01*
X128593448Y-92276443D01*
X128583555Y-92358221D01*
X128573852Y-92457887D01*
X128563911Y-92580003D01*
X128553303Y-92729125D01*
X128541599Y-92909814D01*
X128528371Y-93126628D01*
X128523296Y-93211981D01*
X128502695Y-93565862D01*
X128485034Y-93882508D01*
X128470119Y-94166904D01*
X128457759Y-94424032D01*
X128447762Y-94658875D01*
X128439937Y-94876417D01*
X128434092Y-95081640D01*
X128430035Y-95279529D01*
X128427574Y-95475066D01*
X128426518Y-95673235D01*
X128426448Y-95728367D01*
X128425820Y-95938593D01*
X128424037Y-96109638D01*
X128420927Y-96244639D01*
X128416318Y-96346736D01*
X128410038Y-96419069D01*
X128401915Y-96464777D01*
X128391778Y-96487000D01*
X128384737Y-96490367D01*
X128379857Y-96470184D01*
X128374400Y-96413553D01*
X128368715Y-96326350D01*
X128363154Y-96214447D01*
X128358066Y-96083722D01*
X128355373Y-95998242D01*
X128351285Y-95761510D01*
X128351411Y-95487314D01*
X128355632Y-95180301D01*
X128363829Y-94845118D01*
X128375883Y-94486413D01*
X128391677Y-94108832D01*
X128411091Y-93717023D01*
X128415745Y-93631050D01*
X128425670Y-93449377D01*
X128436188Y-93255112D01*
X128446657Y-93060216D01*
X128456436Y-92876651D01*
X128464885Y-92716378D01*
X128468962Y-92638033D01*
X128477042Y-92497233D01*
X128486409Y-92359069D01*
X128496269Y-92233686D01*
X128505830Y-92131230D01*
X128513595Y-92066533D01*
X128575707Y-91786526D01*
X128678187Y-91512075D01*
X128819084Y-91247555D01*
X128981954Y-91015477D01*
X129046182Y-90931934D01*
X129104002Y-90852383D01*
X129147938Y-90787350D01*
X129166973Y-90755039D01*
X129230060Y-90594844D01*
X129274093Y-90402292D01*
X129298308Y-90183209D01*
X129301936Y-89943419D01*
X129293842Y-89791117D01*
X129235865Y-88899379D01*
X129197948Y-87971118D01*
X129180083Y-87007085D01*
X129182264Y-86008031D01*
X129204485Y-84974709D01*
X129246739Y-83907871D01*
X129309020Y-82808267D01*
X129360264Y-82075987D01*
X129372251Y-81923481D01*
X129384155Y-81785137D01*
X129395420Y-81666472D01*
X129405487Y-81573004D01*
X129413797Y-81510252D01*
X129419794Y-81483733D01*
X129420188Y-81483320D01*
X129425885Y-81476012D01*
X129431976Y-81458923D01*
X129439098Y-81428016D01*
X129447883Y-81379253D01*
X129458967Y-81308596D01*
X129472982Y-81212008D01*
X129490564Y-81085451D01*
X129512347Y-80924887D01*
X129538229Y-80731783D01*
X129611037Y-80239919D01*
X129702620Y-79713057D01*
X129812454Y-79153876D01*
X129940012Y-78565057D01*
X130079188Y-77972207D01*
X130113491Y-77830741D01*
X130144217Y-77703278D01*
X130170020Y-77595460D01*
X130189556Y-77512929D01*
X130201480Y-77461328D01*
X130204633Y-77446085D01*
X130185291Y-77441015D01*
X130133617Y-77441303D01*
X130059143Y-77446002D01*
X129971397Y-77454166D01*
X129879909Y-77464848D01*
X129794210Y-77477101D01*
X129723830Y-77489978D01*
X129696633Y-77496556D01*
X129642176Y-77512844D01*
X129592153Y-77531645D01*
X129541151Y-77556416D01*
X129483759Y-77590614D01*
X129414565Y-77637699D01*
X129328156Y-77701128D01*
X129219121Y-77784358D01*
X129093383Y-77882008D01*
X128804349Y-78114370D01*
X128550534Y-78333715D01*
X128328227Y-78543662D01*
X128133721Y-78747829D01*
X127963305Y-78949833D01*
X127864351Y-79080783D01*
X127770449Y-79223030D01*
X127668063Y-79400072D01*
X127559974Y-79605895D01*
X127448963Y-79834487D01*
X127337813Y-80079835D01*
X127229304Y-80335927D01*
X127126219Y-80596750D01*
X127031338Y-80856291D01*
X126997776Y-80954033D01*
X126956177Y-81076242D01*
X126924698Y-81163996D01*
X126900455Y-81223128D01*
X126880562Y-81259470D01*
X126862136Y-81278854D01*
X126842292Y-81287111D01*
X126832209Y-81288741D01*
X126785188Y-81288308D01*
X126702915Y-81281053D01*
X126591757Y-81267889D01*
X126458085Y-81249726D01*
X126308265Y-81227475D01*
X126148668Y-81202048D01*
X125985661Y-81174356D01*
X125825613Y-81145311D01*
X125812550Y-81142846D01*
X125548431Y-81089419D01*
X125270691Y-81026965D01*
X124987442Y-80957684D01*
X124706795Y-80883779D01*
X124436861Y-80807450D01*
X124185753Y-80730898D01*
X123961581Y-80656325D01*
X123799196Y-80596498D01*
X123597811Y-80512974D01*
X123412072Y-80424540D01*
X123225658Y-80322933D01*
X123050300Y-80217436D01*
X122743639Y-80014565D01*
X122476661Y-79811285D01*
X122246825Y-79604146D01*
X122051590Y-79389698D01*
X121888415Y-79164490D01*
X121754759Y-78925072D01*
X121648081Y-78667995D01*
X121565840Y-78389807D01*
X121512411Y-78129226D01*
X121475179Y-77909164D01*
X121533647Y-77559092D01*
X121605267Y-77177142D01*
X121688619Y-76825580D01*
X121787296Y-76493251D01*
X121904890Y-76169002D01*
X122044992Y-75841676D01*
X122171353Y-75578758D01*
X122400869Y-75150523D01*
X122656564Y-74730793D01*
X122941172Y-74315866D01*
X123257425Y-73902043D01*
X123608058Y-73485624D01*
X123995804Y-73062907D01*
X124140383Y-72913198D01*
X124397329Y-72654455D01*
X124652199Y-72406347D01*
X124908852Y-72165655D01*
X125171146Y-71929163D01*
X125442938Y-71693652D01*
X125728088Y-71455907D01*
X126030452Y-71212709D01*
X126353888Y-70960841D01*
X126702256Y-70697087D01*
X127079412Y-70418227D01*
X127484717Y-70124283D01*
X128097279Y-69696750D01*
X128748133Y-69267436D01*
X129433407Y-68838404D01*
X130149236Y-68411719D01*
X130891749Y-67989446D01*
X131657080Y-67573650D01*
X132441360Y-67166395D01*
X133240721Y-66769746D01*
X134051294Y-66385766D01*
X134869212Y-66016522D01*
X135690605Y-65664076D01*
X136334944Y-65400669D01*
X136844004Y-65200179D01*
X137340317Y-65011064D01*
X137831755Y-64830596D01*
X138326190Y-64656046D01*
X138831496Y-64484684D01*
X139355544Y-64313783D01*
X139906207Y-64140614D01*
X140438230Y-63978412D01*
X141145677Y-63770685D01*
X141821491Y-63582924D01*
X142470726Y-63413965D01*
X143098430Y-63262645D01*
X143709657Y-63127800D01*
X144309457Y-63008267D01*
X144902882Y-62902881D01*
X145494983Y-62810480D01*
X145531535Y-62805185D01*
X145684320Y-62783655D01*
X145829024Y-62764480D01*
X145971998Y-62747017D01*
X146119595Y-62730626D01*
X146278166Y-62714665D01*
X146454063Y-62698492D01*
X146653637Y-62681465D01*
X146883241Y-62662943D01*
X147127383Y-62643959D01*
X147208305Y-62639447D01*
X147326019Y-62635285D01*
X147474986Y-62631559D01*
X147649667Y-62628356D01*
X147844522Y-62625761D01*
X148054011Y-62623861D01*
X148272595Y-62622741D01*
X148494733Y-62622489D01*
X148507622Y-62622503D01*
X148740908Y-62622348D01*
X148960200Y-62621356D01*
X149161361Y-62619596D01*
X149340256Y-62617134D01*
X149492749Y-62614038D01*
X149614704Y-62610375D01*
X149701985Y-62606213D01*
X149745872Y-62602326D01*
X149822549Y-62589843D01*
X149928452Y-62570121D01*
X150051573Y-62545513D01*
X150179908Y-62518374D01*
X150228300Y-62507719D01*
X150651279Y-62423522D01*
X151109612Y-62350930D01*
X151597895Y-62290103D01*
X152110725Y-62241200D01*
X152642697Y-62204384D01*
X153188409Y-62179814D01*
X153742457Y-62167650D01*
X154299437Y-62168053D01*
G36*
X173024800Y-74995617D02*
X173014217Y-75006200D01*
X173003633Y-74995617D01*
X173014217Y-74985033D01*
X173024800Y-74995617D01*
X173024800Y-74995617D01*
G37*
X173024800Y-74995617D02*
X173014217Y-75006200D01*
X173003633Y-74995617D01*
X173014217Y-74985033D01*
X173024800Y-74995617D01*
G36*
X173003633Y-74953283D02*
X172993050Y-74963867D01*
X172982467Y-74953283D01*
X172993050Y-74942700D01*
X173003633Y-74953283D01*
X173003633Y-74953283D01*
G37*
X173003633Y-74953283D02*
X172993050Y-74963867D01*
X172982467Y-74953283D01*
X172993050Y-74942700D01*
X173003633Y-74953283D01*
G36*
X172982467Y-74910950D02*
X172971883Y-74921533D01*
X172961300Y-74910950D01*
X172971883Y-74900367D01*
X172982467Y-74910950D01*
X172982467Y-74910950D01*
G37*
X172982467Y-74910950D02*
X172971883Y-74921533D01*
X172961300Y-74910950D01*
X172971883Y-74900367D01*
X172982467Y-74910950D01*
G36*
X172961300Y-74868617D02*
X172950717Y-74879200D01*
X172940133Y-74868617D01*
X172950717Y-74858033D01*
X172961300Y-74868617D01*
X172961300Y-74868617D01*
G37*
X172961300Y-74868617D02*
X172950717Y-74879200D01*
X172940133Y-74868617D01*
X172950717Y-74858033D01*
X172961300Y-74868617D01*
D12*
X155196401Y-126238401D03*
D13*
X155196401Y-128778401D03*
X152656401Y-126238401D03*
X152656401Y-128778401D03*
M02*
