G04 #@! TF.FileFunction,Soldermask,Top*
%FSLAX46Y46*%
G04 Gerber Fmt 4.6, Leading zero omitted, Abs format (unit mm)*
G04 Created by KiCad (PCBNEW 4.0.7) date 07/19/18 08:55:47*
%MOMM*%
%LPD*%
G01*
G04 APERTURE LIST*
%ADD10C,0.100000*%
%ADD11C,0.010000*%
%ADD12C,2.100000*%
%ADD13O,2.100000X2.100000*%
G04 APERTURE END LIST*
D10*
D11*
G36*
X163300706Y-115992647D02*
X163479053Y-116000015D01*
X163542133Y-116004210D01*
X163987401Y-116048726D01*
X164427993Y-116113431D01*
X164859929Y-116197027D01*
X165279229Y-116298220D01*
X165681912Y-116415711D01*
X166063997Y-116548205D01*
X166421503Y-116694404D01*
X166750451Y-116853012D01*
X167046858Y-117022732D01*
X167306744Y-117202268D01*
X167367771Y-117250338D01*
X167422920Y-117288857D01*
X167468819Y-117310150D01*
X167487889Y-117311413D01*
X167516284Y-117321058D01*
X167565757Y-117359055D01*
X167631423Y-117420318D01*
X167708401Y-117499760D01*
X167791809Y-117592293D01*
X167876763Y-117692830D01*
X167958383Y-117796285D01*
X167976909Y-117820950D01*
X168072245Y-117960853D01*
X168164650Y-118117574D01*
X168247860Y-118278967D01*
X168315614Y-118432887D01*
X168361650Y-118567187D01*
X168361653Y-118567200D01*
X168379484Y-118660785D01*
X168392206Y-118786557D01*
X168399823Y-118934682D01*
X168402339Y-119095324D01*
X168399759Y-119258647D01*
X168392088Y-119414817D01*
X168379329Y-119553996D01*
X168361487Y-119666351D01*
X168361163Y-119667867D01*
X168296585Y-119882773D01*
X168194842Y-120098040D01*
X168055008Y-120314933D01*
X167876158Y-120534717D01*
X167657369Y-120758656D01*
X167397716Y-120988017D01*
X167394467Y-120990709D01*
X167258659Y-121099380D01*
X167125887Y-121196853D01*
X166987220Y-121288830D01*
X166833727Y-121381016D01*
X166656479Y-121479114D01*
X166505467Y-121558507D01*
X165992974Y-121800808D01*
X165455611Y-122011272D01*
X164897334Y-122189064D01*
X164322096Y-122333351D01*
X163733853Y-122443299D01*
X163136559Y-122518075D01*
X162534170Y-122556843D01*
X161930640Y-122558772D01*
X161785300Y-122553627D01*
X161460060Y-122534101D01*
X161125302Y-122503647D01*
X160787533Y-122463395D01*
X160453257Y-122414475D01*
X160128978Y-122358014D01*
X159821201Y-122295143D01*
X159536431Y-122226991D01*
X159281172Y-122154687D01*
X159069055Y-122082086D01*
X158759789Y-121960091D01*
X158486512Y-121842602D01*
X158243611Y-121726293D01*
X158025473Y-121607837D01*
X157826484Y-121483911D01*
X157641032Y-121351186D01*
X157463501Y-121206340D01*
X157288280Y-121046045D01*
X157238522Y-120997600D01*
X157045746Y-120791433D01*
X156889552Y-120587156D01*
X156765228Y-120377338D01*
X156668063Y-120154545D01*
X156627532Y-120033803D01*
X156605837Y-119959212D01*
X156590383Y-119893463D01*
X156580086Y-119826600D01*
X156573860Y-119748669D01*
X156570619Y-119649715D01*
X156569279Y-119519782D01*
X156569181Y-119498533D01*
X156567717Y-119149283D01*
X156645755Y-118923979D01*
X156755684Y-118643622D01*
X156882383Y-118394379D01*
X157032139Y-118166353D01*
X157211237Y-117949645D01*
X157363866Y-117793151D01*
X157647218Y-117543704D01*
X157967147Y-117306361D01*
X158318945Y-117083859D01*
X158697904Y-116878940D01*
X159099315Y-116694342D01*
X159518471Y-116532806D01*
X159546696Y-116523004D01*
X159845211Y-116428124D01*
X160175995Y-116337407D01*
X160529028Y-116253005D01*
X160894293Y-116177072D01*
X161261772Y-116111763D01*
X161621447Y-116059230D01*
X161806467Y-116037198D01*
X161977846Y-116021835D01*
X162179544Y-116009163D01*
X162401785Y-115999365D01*
X162634797Y-115992629D01*
X162868804Y-115989140D01*
X163094031Y-115989085D01*
X163300706Y-115992647D01*
X163300706Y-115992647D01*
G37*
X163300706Y-115992647D02*
X163479053Y-116000015D01*
X163542133Y-116004210D01*
X163987401Y-116048726D01*
X164427993Y-116113431D01*
X164859929Y-116197027D01*
X165279229Y-116298220D01*
X165681912Y-116415711D01*
X166063997Y-116548205D01*
X166421503Y-116694404D01*
X166750451Y-116853012D01*
X167046858Y-117022732D01*
X167306744Y-117202268D01*
X167367771Y-117250338D01*
X167422920Y-117288857D01*
X167468819Y-117310150D01*
X167487889Y-117311413D01*
X167516284Y-117321058D01*
X167565757Y-117359055D01*
X167631423Y-117420318D01*
X167708401Y-117499760D01*
X167791809Y-117592293D01*
X167876763Y-117692830D01*
X167958383Y-117796285D01*
X167976909Y-117820950D01*
X168072245Y-117960853D01*
X168164650Y-118117574D01*
X168247860Y-118278967D01*
X168315614Y-118432887D01*
X168361650Y-118567187D01*
X168361653Y-118567200D01*
X168379484Y-118660785D01*
X168392206Y-118786557D01*
X168399823Y-118934682D01*
X168402339Y-119095324D01*
X168399759Y-119258647D01*
X168392088Y-119414817D01*
X168379329Y-119553996D01*
X168361487Y-119666351D01*
X168361163Y-119667867D01*
X168296585Y-119882773D01*
X168194842Y-120098040D01*
X168055008Y-120314933D01*
X167876158Y-120534717D01*
X167657369Y-120758656D01*
X167397716Y-120988017D01*
X167394467Y-120990709D01*
X167258659Y-121099380D01*
X167125887Y-121196853D01*
X166987220Y-121288830D01*
X166833727Y-121381016D01*
X166656479Y-121479114D01*
X166505467Y-121558507D01*
X165992974Y-121800808D01*
X165455611Y-122011272D01*
X164897334Y-122189064D01*
X164322096Y-122333351D01*
X163733853Y-122443299D01*
X163136559Y-122518075D01*
X162534170Y-122556843D01*
X161930640Y-122558772D01*
X161785300Y-122553627D01*
X161460060Y-122534101D01*
X161125302Y-122503647D01*
X160787533Y-122463395D01*
X160453257Y-122414475D01*
X160128978Y-122358014D01*
X159821201Y-122295143D01*
X159536431Y-122226991D01*
X159281172Y-122154687D01*
X159069055Y-122082086D01*
X158759789Y-121960091D01*
X158486512Y-121842602D01*
X158243611Y-121726293D01*
X158025473Y-121607837D01*
X157826484Y-121483911D01*
X157641032Y-121351186D01*
X157463501Y-121206340D01*
X157288280Y-121046045D01*
X157238522Y-120997600D01*
X157045746Y-120791433D01*
X156889552Y-120587156D01*
X156765228Y-120377338D01*
X156668063Y-120154545D01*
X156627532Y-120033803D01*
X156605837Y-119959212D01*
X156590383Y-119893463D01*
X156580086Y-119826600D01*
X156573860Y-119748669D01*
X156570619Y-119649715D01*
X156569279Y-119519782D01*
X156569181Y-119498533D01*
X156567717Y-119149283D01*
X156645755Y-118923979D01*
X156755684Y-118643622D01*
X156882383Y-118394379D01*
X157032139Y-118166353D01*
X157211237Y-117949645D01*
X157363866Y-117793151D01*
X157647218Y-117543704D01*
X157967147Y-117306361D01*
X158318945Y-117083859D01*
X158697904Y-116878940D01*
X159099315Y-116694342D01*
X159518471Y-116532806D01*
X159546696Y-116523004D01*
X159845211Y-116428124D01*
X160175995Y-116337407D01*
X160529028Y-116253005D01*
X160894293Y-116177072D01*
X161261772Y-116111763D01*
X161621447Y-116059230D01*
X161806467Y-116037198D01*
X161977846Y-116021835D01*
X162179544Y-116009163D01*
X162401785Y-115999365D01*
X162634797Y-115992629D01*
X162868804Y-115989140D01*
X163094031Y-115989085D01*
X163300706Y-115992647D01*
G36*
X163504148Y-97399155D02*
X163718630Y-97438541D01*
X163929310Y-97516219D01*
X164060513Y-97586236D01*
X164139948Y-97642467D01*
X164238474Y-97725005D01*
X164349033Y-97826868D01*
X164464564Y-97941074D01*
X164578009Y-98060641D01*
X164682307Y-98178586D01*
X164770399Y-98287927D01*
X164771611Y-98289533D01*
X164967053Y-98572789D01*
X165153992Y-98890886D01*
X165329366Y-99236681D01*
X165490111Y-99603032D01*
X165633165Y-99982797D01*
X165755465Y-100368834D01*
X165853946Y-100754001D01*
X165879111Y-100871867D01*
X165937865Y-101191722D01*
X165985863Y-101516775D01*
X166022548Y-101839709D01*
X166047360Y-102153205D01*
X166059743Y-102449945D01*
X166059136Y-102722611D01*
X166044983Y-102963884D01*
X166041421Y-102999117D01*
X166010950Y-103223112D01*
X165968369Y-103450659D01*
X165915944Y-103673494D01*
X165855939Y-103883353D01*
X165790618Y-104071974D01*
X165722246Y-104231093D01*
X165683985Y-104303347D01*
X165611806Y-104409798D01*
X165518292Y-104521528D01*
X165413022Y-104629066D01*
X165305571Y-104722938D01*
X165205515Y-104793673D01*
X165167023Y-104814678D01*
X164982643Y-104881443D01*
X164787622Y-104911190D01*
X164593193Y-104902289D01*
X164579300Y-104900077D01*
X164428133Y-104860720D01*
X164262774Y-104793273D01*
X164094772Y-104703253D01*
X163935677Y-104596175D01*
X163923296Y-104586742D01*
X163829520Y-104507296D01*
X163719115Y-104402113D01*
X163600139Y-104279845D01*
X163480652Y-104149143D01*
X163368714Y-104018659D01*
X163272383Y-103897044D01*
X163241343Y-103854672D01*
X163052823Y-103565704D01*
X162873368Y-103242828D01*
X162706558Y-102894114D01*
X162555973Y-102527631D01*
X162425192Y-102151447D01*
X162317794Y-101773632D01*
X162317246Y-101771450D01*
X162243943Y-101459597D01*
X162186910Y-101168763D01*
X162144339Y-100885510D01*
X162114419Y-100596397D01*
X162095341Y-100287984D01*
X162087815Y-100067533D01*
X162084959Y-99716555D01*
X162095583Y-99400591D01*
X162120634Y-99114221D01*
X162161061Y-98852023D01*
X162217810Y-98608577D01*
X162291828Y-98378461D01*
X162384064Y-98156254D01*
X162443018Y-98035223D01*
X162540127Y-97861213D01*
X162635600Y-97724029D01*
X162733754Y-97618584D01*
X162838905Y-97539793D01*
X162885647Y-97513703D01*
X163082882Y-97436441D01*
X163290641Y-97398357D01*
X163504148Y-97399155D01*
X163504148Y-97399155D01*
G37*
X163504148Y-97399155D02*
X163718630Y-97438541D01*
X163929310Y-97516219D01*
X164060513Y-97586236D01*
X164139948Y-97642467D01*
X164238474Y-97725005D01*
X164349033Y-97826868D01*
X164464564Y-97941074D01*
X164578009Y-98060641D01*
X164682307Y-98178586D01*
X164770399Y-98287927D01*
X164771611Y-98289533D01*
X164967053Y-98572789D01*
X165153992Y-98890886D01*
X165329366Y-99236681D01*
X165490111Y-99603032D01*
X165633165Y-99982797D01*
X165755465Y-100368834D01*
X165853946Y-100754001D01*
X165879111Y-100871867D01*
X165937865Y-101191722D01*
X165985863Y-101516775D01*
X166022548Y-101839709D01*
X166047360Y-102153205D01*
X166059743Y-102449945D01*
X166059136Y-102722611D01*
X166044983Y-102963884D01*
X166041421Y-102999117D01*
X166010950Y-103223112D01*
X165968369Y-103450659D01*
X165915944Y-103673494D01*
X165855939Y-103883353D01*
X165790618Y-104071974D01*
X165722246Y-104231093D01*
X165683985Y-104303347D01*
X165611806Y-104409798D01*
X165518292Y-104521528D01*
X165413022Y-104629066D01*
X165305571Y-104722938D01*
X165205515Y-104793673D01*
X165167023Y-104814678D01*
X164982643Y-104881443D01*
X164787622Y-104911190D01*
X164593193Y-104902289D01*
X164579300Y-104900077D01*
X164428133Y-104860720D01*
X164262774Y-104793273D01*
X164094772Y-104703253D01*
X163935677Y-104596175D01*
X163923296Y-104586742D01*
X163829520Y-104507296D01*
X163719115Y-104402113D01*
X163600139Y-104279845D01*
X163480652Y-104149143D01*
X163368714Y-104018659D01*
X163272383Y-103897044D01*
X163241343Y-103854672D01*
X163052823Y-103565704D01*
X162873368Y-103242828D01*
X162706558Y-102894114D01*
X162555973Y-102527631D01*
X162425192Y-102151447D01*
X162317794Y-101773632D01*
X162317246Y-101771450D01*
X162243943Y-101459597D01*
X162186910Y-101168763D01*
X162144339Y-100885510D01*
X162114419Y-100596397D01*
X162095341Y-100287984D01*
X162087815Y-100067533D01*
X162084959Y-99716555D01*
X162095583Y-99400591D01*
X162120634Y-99114221D01*
X162161061Y-98852023D01*
X162217810Y-98608577D01*
X162291828Y-98378461D01*
X162384064Y-98156254D01*
X162443018Y-98035223D01*
X162540127Y-97861213D01*
X162635600Y-97724029D01*
X162733754Y-97618584D01*
X162838905Y-97539793D01*
X162885647Y-97513703D01*
X163082882Y-97436441D01*
X163290641Y-97398357D01*
X163504148Y-97399155D01*
G36*
X149368607Y-72942531D02*
X149778636Y-72983269D01*
X150191625Y-73062042D01*
X150605401Y-73178967D01*
X151017787Y-73334157D01*
X151317055Y-73471850D01*
X151766522Y-73717698D01*
X152208307Y-74005131D01*
X152642351Y-74334095D01*
X153068591Y-74704534D01*
X153486968Y-75116392D01*
X153897420Y-75569614D01*
X154299888Y-76064145D01*
X154627342Y-76505253D01*
X154985005Y-77038679D01*
X155322508Y-77606647D01*
X155638533Y-78205788D01*
X155931757Y-78832735D01*
X156200862Y-79484119D01*
X156444527Y-80156572D01*
X156661432Y-80846725D01*
X156850257Y-81551210D01*
X157009682Y-82266659D01*
X157117528Y-82859033D01*
X157156471Y-83104577D01*
X157189715Y-83332711D01*
X157218036Y-83551389D01*
X157242207Y-83768566D01*
X157263004Y-83992198D01*
X157281200Y-84230239D01*
X157297571Y-84490645D01*
X157312891Y-84781370D01*
X157320553Y-84943950D01*
X157331882Y-85454737D01*
X157320580Y-85976978D01*
X157287558Y-86504650D01*
X157233727Y-87031729D01*
X157159999Y-87552193D01*
X157067285Y-88060017D01*
X156956496Y-88549179D01*
X156828544Y-89013656D01*
X156684339Y-89447423D01*
X156609618Y-89642950D01*
X156569286Y-89741388D01*
X156515530Y-89869111D01*
X156452345Y-90016820D01*
X156383726Y-90175216D01*
X156313668Y-90334999D01*
X156270833Y-90431641D01*
X156200780Y-90588331D01*
X156143623Y-90713543D01*
X156095259Y-90814572D01*
X156051584Y-90898710D01*
X156008498Y-90973251D01*
X155961897Y-91045488D01*
X155907679Y-91122714D01*
X155841742Y-91212224D01*
X155801547Y-91265930D01*
X155661302Y-91450631D01*
X155537586Y-91607972D01*
X155423556Y-91745891D01*
X155312370Y-91872324D01*
X155197186Y-91995209D01*
X155071162Y-92122483D01*
X155019297Y-92173366D01*
X154813168Y-92365764D01*
X154617106Y-92529967D01*
X154420245Y-92674575D01*
X154235430Y-92793848D01*
X153887308Y-92988068D01*
X153544402Y-93142783D01*
X153202165Y-93259682D01*
X152856050Y-93340452D01*
X152694217Y-93365948D01*
X152554942Y-93381697D01*
X152396991Y-93394696D01*
X152232402Y-93404375D01*
X152073214Y-93410162D01*
X151931466Y-93411489D01*
X151819197Y-93407786D01*
X151815800Y-93407547D01*
X151622995Y-93388466D01*
X151409365Y-93358573D01*
X151194084Y-93320919D01*
X150996326Y-93278556D01*
X150978481Y-93274235D01*
X150562455Y-93151665D01*
X150143377Y-92987278D01*
X149721899Y-92781429D01*
X149298672Y-92534471D01*
X148874346Y-92246761D01*
X148449573Y-91918650D01*
X148376217Y-91857920D01*
X148269696Y-91764793D01*
X148142001Y-91646599D01*
X147999851Y-91510115D01*
X147849963Y-91362119D01*
X147699057Y-91209388D01*
X147553852Y-91058701D01*
X147421065Y-90916835D01*
X147307415Y-90790568D01*
X147240171Y-90711867D01*
X146908763Y-90291651D01*
X146582111Y-89839078D01*
X146266733Y-89364084D01*
X145969152Y-88876609D01*
X145695885Y-88386589D01*
X145622386Y-88245950D01*
X145339033Y-87660411D01*
X145074711Y-87044258D01*
X144832097Y-86405719D01*
X144613871Y-85753022D01*
X144422710Y-85094393D01*
X144261293Y-84438061D01*
X144132299Y-83792252D01*
X144090763Y-83541183D01*
X144033284Y-83152558D01*
X143986771Y-82794348D01*
X143950408Y-82456307D01*
X143923382Y-82128189D01*
X143904876Y-81799746D01*
X143894078Y-81460734D01*
X143890173Y-81100904D01*
X143890159Y-81017533D01*
X143894801Y-80579490D01*
X143907881Y-80175528D01*
X143930269Y-79798077D01*
X143962834Y-79439567D01*
X144006445Y-79092427D01*
X144061972Y-78749089D01*
X144130283Y-78401981D01*
X144212249Y-78043533D01*
X144248427Y-77897757D01*
X144412443Y-77316240D01*
X144602569Y-76763416D01*
X144818220Y-76240499D01*
X145058814Y-75748703D01*
X145323768Y-75289245D01*
X145612499Y-74863337D01*
X145851942Y-74557475D01*
X145933880Y-74465872D01*
X146041706Y-74355124D01*
X146167950Y-74232148D01*
X146305142Y-74103863D01*
X146445813Y-73977189D01*
X146582492Y-73859043D01*
X146707710Y-73756344D01*
X146764011Y-73712705D01*
X147092414Y-73490413D01*
X147439002Y-73305352D01*
X147801602Y-73157637D01*
X148178037Y-73047382D01*
X148566133Y-72974702D01*
X148963714Y-72939714D01*
X149368607Y-72942531D01*
X149368607Y-72942531D01*
G37*
X149368607Y-72942531D02*
X149778636Y-72983269D01*
X150191625Y-73062042D01*
X150605401Y-73178967D01*
X151017787Y-73334157D01*
X151317055Y-73471850D01*
X151766522Y-73717698D01*
X152208307Y-74005131D01*
X152642351Y-74334095D01*
X153068591Y-74704534D01*
X153486968Y-75116392D01*
X153897420Y-75569614D01*
X154299888Y-76064145D01*
X154627342Y-76505253D01*
X154985005Y-77038679D01*
X155322508Y-77606647D01*
X155638533Y-78205788D01*
X155931757Y-78832735D01*
X156200862Y-79484119D01*
X156444527Y-80156572D01*
X156661432Y-80846725D01*
X156850257Y-81551210D01*
X157009682Y-82266659D01*
X157117528Y-82859033D01*
X157156471Y-83104577D01*
X157189715Y-83332711D01*
X157218036Y-83551389D01*
X157242207Y-83768566D01*
X157263004Y-83992198D01*
X157281200Y-84230239D01*
X157297571Y-84490645D01*
X157312891Y-84781370D01*
X157320553Y-84943950D01*
X157331882Y-85454737D01*
X157320580Y-85976978D01*
X157287558Y-86504650D01*
X157233727Y-87031729D01*
X157159999Y-87552193D01*
X157067285Y-88060017D01*
X156956496Y-88549179D01*
X156828544Y-89013656D01*
X156684339Y-89447423D01*
X156609618Y-89642950D01*
X156569286Y-89741388D01*
X156515530Y-89869111D01*
X156452345Y-90016820D01*
X156383726Y-90175216D01*
X156313668Y-90334999D01*
X156270833Y-90431641D01*
X156200780Y-90588331D01*
X156143623Y-90713543D01*
X156095259Y-90814572D01*
X156051584Y-90898710D01*
X156008498Y-90973251D01*
X155961897Y-91045488D01*
X155907679Y-91122714D01*
X155841742Y-91212224D01*
X155801547Y-91265930D01*
X155661302Y-91450631D01*
X155537586Y-91607972D01*
X155423556Y-91745891D01*
X155312370Y-91872324D01*
X155197186Y-91995209D01*
X155071162Y-92122483D01*
X155019297Y-92173366D01*
X154813168Y-92365764D01*
X154617106Y-92529967D01*
X154420245Y-92674575D01*
X154235430Y-92793848D01*
X153887308Y-92988068D01*
X153544402Y-93142783D01*
X153202165Y-93259682D01*
X152856050Y-93340452D01*
X152694217Y-93365948D01*
X152554942Y-93381697D01*
X152396991Y-93394696D01*
X152232402Y-93404375D01*
X152073214Y-93410162D01*
X151931466Y-93411489D01*
X151819197Y-93407786D01*
X151815800Y-93407547D01*
X151622995Y-93388466D01*
X151409365Y-93358573D01*
X151194084Y-93320919D01*
X150996326Y-93278556D01*
X150978481Y-93274235D01*
X150562455Y-93151665D01*
X150143377Y-92987278D01*
X149721899Y-92781429D01*
X149298672Y-92534471D01*
X148874346Y-92246761D01*
X148449573Y-91918650D01*
X148376217Y-91857920D01*
X148269696Y-91764793D01*
X148142001Y-91646599D01*
X147999851Y-91510115D01*
X147849963Y-91362119D01*
X147699057Y-91209388D01*
X147553852Y-91058701D01*
X147421065Y-90916835D01*
X147307415Y-90790568D01*
X147240171Y-90711867D01*
X146908763Y-90291651D01*
X146582111Y-89839078D01*
X146266733Y-89364084D01*
X145969152Y-88876609D01*
X145695885Y-88386589D01*
X145622386Y-88245950D01*
X145339033Y-87660411D01*
X145074711Y-87044258D01*
X144832097Y-86405719D01*
X144613871Y-85753022D01*
X144422710Y-85094393D01*
X144261293Y-84438061D01*
X144132299Y-83792252D01*
X144090763Y-83541183D01*
X144033284Y-83152558D01*
X143986771Y-82794348D01*
X143950408Y-82456307D01*
X143923382Y-82128189D01*
X143904876Y-81799746D01*
X143894078Y-81460734D01*
X143890173Y-81100904D01*
X143890159Y-81017533D01*
X143894801Y-80579490D01*
X143907881Y-80175528D01*
X143930269Y-79798077D01*
X143962834Y-79439567D01*
X144006445Y-79092427D01*
X144061972Y-78749089D01*
X144130283Y-78401981D01*
X144212249Y-78043533D01*
X144248427Y-77897757D01*
X144412443Y-77316240D01*
X144602569Y-76763416D01*
X144818220Y-76240499D01*
X145058814Y-75748703D01*
X145323768Y-75289245D01*
X145612499Y-74863337D01*
X145851942Y-74557475D01*
X145933880Y-74465872D01*
X146041706Y-74355124D01*
X146167950Y-74232148D01*
X146305142Y-74103863D01*
X146445813Y-73977189D01*
X146582492Y-73859043D01*
X146707710Y-73756344D01*
X146764011Y-73712705D01*
X147092414Y-73490413D01*
X147439002Y-73305352D01*
X147801602Y-73157637D01*
X148178037Y-73047382D01*
X148566133Y-72974702D01*
X148963714Y-72939714D01*
X149368607Y-72942531D01*
G36*
X163150550Y-70656665D02*
X163456890Y-70691294D01*
X163733154Y-70745974D01*
X163987936Y-70823536D01*
X164229832Y-70926811D01*
X164467437Y-71058627D01*
X164568717Y-71123647D01*
X164827261Y-71301682D01*
X165056022Y-71472737D01*
X165263944Y-71644864D01*
X165459973Y-71826120D01*
X165653053Y-72024560D01*
X165852128Y-72248238D01*
X165961737Y-72378101D01*
X166395389Y-72931539D01*
X166799835Y-73513691D01*
X167175335Y-74125073D01*
X167522154Y-74766198D01*
X167840553Y-75437584D01*
X168130796Y-76139744D01*
X168393144Y-76873195D01*
X168609258Y-77573133D01*
X168814952Y-78336895D01*
X168987746Y-79080162D01*
X169128518Y-79807958D01*
X169238145Y-80525305D01*
X169317507Y-81237227D01*
X169364707Y-81894824D01*
X169372584Y-82084678D01*
X169377751Y-82299253D01*
X169380317Y-82531218D01*
X169380392Y-82773246D01*
X169378085Y-83018005D01*
X169373505Y-83258167D01*
X169366761Y-83486402D01*
X169357963Y-83695380D01*
X169347219Y-83877772D01*
X169334640Y-84026248D01*
X169332687Y-84044367D01*
X169274581Y-84486659D01*
X169200386Y-84919511D01*
X169111823Y-85334799D01*
X169010608Y-85724397D01*
X168907851Y-86052990D01*
X168862888Y-86177350D01*
X168806122Y-86323810D01*
X168741314Y-86483581D01*
X168672225Y-86647876D01*
X168602616Y-86807904D01*
X168536247Y-86954876D01*
X168476879Y-87080003D01*
X168428274Y-87174497D01*
X168426874Y-87177033D01*
X168355534Y-87292947D01*
X168261471Y-87426924D01*
X168153011Y-87568252D01*
X168038482Y-87706222D01*
X167926212Y-87830121D01*
X167891418Y-87865754D01*
X167652805Y-88077756D01*
X167398071Y-88253048D01*
X167129838Y-88390669D01*
X166850728Y-88489661D01*
X166563363Y-88549062D01*
X166270365Y-88567914D01*
X166018633Y-88551312D01*
X165738599Y-88497997D01*
X165446290Y-88408257D01*
X165146567Y-88284379D01*
X164844293Y-88128647D01*
X164544328Y-87943349D01*
X164251534Y-87730769D01*
X164219467Y-87705414D01*
X164123668Y-87624020D01*
X164007083Y-87517012D01*
X163876286Y-87391080D01*
X163737852Y-87252913D01*
X163598356Y-87109200D01*
X163464372Y-86966631D01*
X163342476Y-86831894D01*
X163239242Y-86711678D01*
X163221603Y-86690200D01*
X162881108Y-86250069D01*
X162559832Y-85789388D01*
X162256324Y-85305359D01*
X161969130Y-84795186D01*
X161696799Y-84256069D01*
X161437877Y-83685213D01*
X161190911Y-83079819D01*
X160954450Y-82437090D01*
X160841958Y-82107617D01*
X160726893Y-81755869D01*
X160626399Y-81433273D01*
X160538021Y-81130220D01*
X160459305Y-80837104D01*
X160387797Y-80544317D01*
X160321042Y-80242251D01*
X160256585Y-79921299D01*
X160191972Y-79571853D01*
X160187007Y-79543980D01*
X160062458Y-78750822D01*
X159973443Y-77973755D01*
X159919991Y-77213907D01*
X159902132Y-76472407D01*
X159919898Y-75750386D01*
X159973318Y-75048972D01*
X160050039Y-74448405D01*
X160123109Y-74041654D01*
X160215729Y-73643744D01*
X160326219Y-73258789D01*
X160452899Y-72890903D01*
X160594089Y-72544199D01*
X160748108Y-72222791D01*
X160913277Y-71930793D01*
X161087915Y-71672318D01*
X161270342Y-71451481D01*
X161277016Y-71444303D01*
X161401262Y-71325752D01*
X161553394Y-71203567D01*
X161724371Y-71083302D01*
X161905150Y-70970514D01*
X162086687Y-70870757D01*
X162259940Y-70789586D01*
X162415866Y-70732556D01*
X162452050Y-70722471D01*
X162602363Y-70691314D01*
X162771740Y-70668386D01*
X162942754Y-70655330D01*
X163097978Y-70653786D01*
X163150550Y-70656665D01*
X163150550Y-70656665D01*
G37*
X163150550Y-70656665D02*
X163456890Y-70691294D01*
X163733154Y-70745974D01*
X163987936Y-70823536D01*
X164229832Y-70926811D01*
X164467437Y-71058627D01*
X164568717Y-71123647D01*
X164827261Y-71301682D01*
X165056022Y-71472737D01*
X165263944Y-71644864D01*
X165459973Y-71826120D01*
X165653053Y-72024560D01*
X165852128Y-72248238D01*
X165961737Y-72378101D01*
X166395389Y-72931539D01*
X166799835Y-73513691D01*
X167175335Y-74125073D01*
X167522154Y-74766198D01*
X167840553Y-75437584D01*
X168130796Y-76139744D01*
X168393144Y-76873195D01*
X168609258Y-77573133D01*
X168814952Y-78336895D01*
X168987746Y-79080162D01*
X169128518Y-79807958D01*
X169238145Y-80525305D01*
X169317507Y-81237227D01*
X169364707Y-81894824D01*
X169372584Y-82084678D01*
X169377751Y-82299253D01*
X169380317Y-82531218D01*
X169380392Y-82773246D01*
X169378085Y-83018005D01*
X169373505Y-83258167D01*
X169366761Y-83486402D01*
X169357963Y-83695380D01*
X169347219Y-83877772D01*
X169334640Y-84026248D01*
X169332687Y-84044367D01*
X169274581Y-84486659D01*
X169200386Y-84919511D01*
X169111823Y-85334799D01*
X169010608Y-85724397D01*
X168907851Y-86052990D01*
X168862888Y-86177350D01*
X168806122Y-86323810D01*
X168741314Y-86483581D01*
X168672225Y-86647876D01*
X168602616Y-86807904D01*
X168536247Y-86954876D01*
X168476879Y-87080003D01*
X168428274Y-87174497D01*
X168426874Y-87177033D01*
X168355534Y-87292947D01*
X168261471Y-87426924D01*
X168153011Y-87568252D01*
X168038482Y-87706222D01*
X167926212Y-87830121D01*
X167891418Y-87865754D01*
X167652805Y-88077756D01*
X167398071Y-88253048D01*
X167129838Y-88390669D01*
X166850728Y-88489661D01*
X166563363Y-88549062D01*
X166270365Y-88567914D01*
X166018633Y-88551312D01*
X165738599Y-88497997D01*
X165446290Y-88408257D01*
X165146567Y-88284379D01*
X164844293Y-88128647D01*
X164544328Y-87943349D01*
X164251534Y-87730769D01*
X164219467Y-87705414D01*
X164123668Y-87624020D01*
X164007083Y-87517012D01*
X163876286Y-87391080D01*
X163737852Y-87252913D01*
X163598356Y-87109200D01*
X163464372Y-86966631D01*
X163342476Y-86831894D01*
X163239242Y-86711678D01*
X163221603Y-86690200D01*
X162881108Y-86250069D01*
X162559832Y-85789388D01*
X162256324Y-85305359D01*
X161969130Y-84795186D01*
X161696799Y-84256069D01*
X161437877Y-83685213D01*
X161190911Y-83079819D01*
X160954450Y-82437090D01*
X160841958Y-82107617D01*
X160726893Y-81755869D01*
X160626399Y-81433273D01*
X160538021Y-81130220D01*
X160459305Y-80837104D01*
X160387797Y-80544317D01*
X160321042Y-80242251D01*
X160256585Y-79921299D01*
X160191972Y-79571853D01*
X160187007Y-79543980D01*
X160062458Y-78750822D01*
X159973443Y-77973755D01*
X159919991Y-77213907D01*
X159902132Y-76472407D01*
X159919898Y-75750386D01*
X159973318Y-75048972D01*
X160050039Y-74448405D01*
X160123109Y-74041654D01*
X160215729Y-73643744D01*
X160326219Y-73258789D01*
X160452899Y-72890903D01*
X160594089Y-72544199D01*
X160748108Y-72222791D01*
X160913277Y-71930793D01*
X161087915Y-71672318D01*
X161270342Y-71451481D01*
X161277016Y-71444303D01*
X161401262Y-71325752D01*
X161553394Y-71203567D01*
X161724371Y-71083302D01*
X161905150Y-70970514D01*
X162086687Y-70870757D01*
X162259940Y-70789586D01*
X162415866Y-70732556D01*
X162452050Y-70722471D01*
X162602363Y-70691314D01*
X162771740Y-70668386D01*
X162942754Y-70655330D01*
X163097978Y-70653786D01*
X163150550Y-70656665D01*
D12*
X155196401Y-126238401D03*
D13*
X155196401Y-128778401D03*
X152656401Y-126238401D03*
X152656401Y-128778401D03*
M02*
