G04 #@! TF.FileFunction,Profile,NP*
%FSLAX46Y46*%
G04 Gerber Fmt 4.6, Leading zero omitted, Abs format (unit mm)*
G04 Created by KiCad (PCBNEW 4.0.7) date 07/19/18 08:55:47*
%MOMM*%
%LPD*%
G01*
G04 APERTURE LIST*
%ADD10C,0.100000*%
G04 APERTURE END LIST*
D10*
X150362721Y-62517037D02*
X150458011Y-62497632D01*
X150458011Y-62497632D02*
X150553211Y-62478860D01*
X150553211Y-62478860D02*
X150648151Y-62460753D01*
X150648151Y-62460753D02*
X150742651Y-62443341D01*
X150742651Y-62443341D02*
X150839161Y-62426188D01*
X150839161Y-62426188D02*
X150934731Y-62409829D01*
X150934731Y-62409829D02*
X151030431Y-62394076D01*
X151030431Y-62394076D02*
X151125981Y-62378972D01*
X151125981Y-62378972D02*
X151222231Y-62364389D01*
X151222231Y-62364389D02*
X151318781Y-62350396D01*
X151318781Y-62350396D02*
X151415261Y-62337051D01*
X151415261Y-62337051D02*
X151511301Y-62324400D01*
X151511301Y-62324400D02*
X151608421Y-62312245D01*
X151608421Y-62312245D02*
X151704241Y-62300884D01*
X151704241Y-62300884D02*
X151800141Y-62290139D01*
X151800141Y-62290139D02*
X151897151Y-62279906D01*
X151897151Y-62279906D02*
X151992971Y-62270425D01*
X151992971Y-62270425D02*
X152089931Y-62261466D01*
X152089931Y-62261466D02*
X152187031Y-62253125D01*
X152187031Y-62253125D02*
X152284541Y-62245386D01*
X152284541Y-62245386D02*
X152381311Y-62238336D01*
X152381311Y-62238336D02*
X152478331Y-62231905D01*
X152478331Y-62231905D02*
X152575961Y-62226066D01*
X152575961Y-62226066D02*
X152672261Y-62220926D01*
X152672261Y-62220926D02*
X152768501Y-62216396D01*
X152768501Y-62216396D02*
X152866031Y-62212425D01*
X152866031Y-62212425D02*
X152963161Y-62209095D01*
X152963161Y-62209095D02*
X153059181Y-62206405D01*
X153059181Y-62206405D02*
X153155841Y-62204305D01*
X153155841Y-62204305D02*
X153253441Y-62202795D01*
X153253441Y-62202795D02*
X153350091Y-62201902D01*
X153350091Y-62201902D02*
X153446941Y-62201604D01*
X153446941Y-62201604D02*
X153543771Y-62201608D01*
X153543771Y-62201608D02*
X153641251Y-62201640D01*
X153641251Y-62201640D02*
X153738981Y-62201727D01*
X153738981Y-62201727D02*
X153836571Y-62201897D01*
X153836571Y-62201897D02*
X153933641Y-62202175D01*
X153933641Y-62202175D02*
X154029841Y-62202585D01*
X154029841Y-62202585D02*
X154126631Y-62203160D01*
X154126631Y-62203160D02*
X154223411Y-62203924D01*
X154223411Y-62203924D02*
X154319611Y-62204897D01*
X154319611Y-62204897D02*
X154416211Y-62206117D01*
X154416211Y-62206117D02*
X154512431Y-62207597D01*
X154512431Y-62207597D02*
X154608871Y-62209377D01*
X154608871Y-62209377D02*
X154705801Y-62211487D01*
X154705801Y-62211487D02*
X154803171Y-62213967D01*
X154803171Y-62213967D02*
X154900661Y-62216827D01*
X154900661Y-62216827D02*
X154996741Y-62220047D01*
X154996741Y-62220047D02*
X155093431Y-62223717D01*
X155093431Y-62223717D02*
X155189901Y-62227837D01*
X155189901Y-62227837D02*
X155286191Y-62232427D01*
X155286191Y-62232427D02*
X155383451Y-62237587D01*
X155383451Y-62237587D02*
X155479431Y-62243207D01*
X155479431Y-62243207D02*
X155575881Y-62249417D01*
X155575881Y-62249417D02*
X155673081Y-62256267D01*
X155673081Y-62256267D02*
X155769151Y-62263657D01*
X155769151Y-62263657D02*
X155865221Y-62271687D01*
X155865221Y-62271687D02*
X155915271Y-62275767D01*
X155915271Y-62275767D02*
X155965301Y-62279997D01*
X155965301Y-62279997D02*
X156064651Y-62288857D01*
X156064651Y-62288857D02*
X156163241Y-62298257D01*
X156163241Y-62298257D02*
X156262241Y-62308293D01*
X156262241Y-62308293D02*
X156361541Y-62318966D01*
X156361541Y-62318966D02*
X156411301Y-62324546D01*
X156411301Y-62324546D02*
X156461041Y-62330266D01*
X156461041Y-62330266D02*
X156510851Y-62336156D01*
X156510851Y-62336156D02*
X156560631Y-62342196D01*
X156560631Y-62342196D02*
X156610431Y-62348386D01*
X156610431Y-62348386D02*
X156660211Y-62354726D01*
X156660211Y-62354726D02*
X156709961Y-62361216D01*
X156709961Y-62361216D02*
X156759681Y-62367856D01*
X156759681Y-62367856D02*
X156809321Y-62374636D01*
X156809321Y-62374636D02*
X156858941Y-62381566D01*
X156858941Y-62381566D02*
X156957891Y-62395839D01*
X156957891Y-62395839D02*
X157056451Y-62410656D01*
X157056451Y-62410656D02*
X157154521Y-62425996D01*
X157154521Y-62425996D02*
X157252021Y-62441836D01*
X157252021Y-62441836D02*
X157301391Y-62450086D01*
X157301391Y-62450086D02*
X157350721Y-62458476D01*
X157350721Y-62458476D02*
X157448591Y-62475567D01*
X157448591Y-62475567D02*
X157497961Y-62484417D01*
X157497961Y-62484417D02*
X157547311Y-62493407D01*
X157547311Y-62493407D02*
X157644941Y-62511647D01*
X157644941Y-62511647D02*
X157743081Y-62530581D01*
X157743081Y-62530581D02*
X157839911Y-62549849D01*
X157839911Y-62549849D02*
X157936931Y-62569742D01*
X157936931Y-62569742D02*
X158033951Y-62590221D01*
X158033951Y-62590221D02*
X158130771Y-62611244D01*
X158130771Y-62611244D02*
X158227201Y-62632766D01*
X158227201Y-62632766D02*
X158324431Y-62655057D01*
X158324431Y-62655057D02*
X158373301Y-62666485D01*
X158373301Y-62666485D02*
X158422151Y-62678057D01*
X158422151Y-62678057D02*
X158518771Y-62701389D01*
X158518771Y-62701389D02*
X158615361Y-62725303D01*
X158615361Y-62725303D02*
X158711641Y-62749725D01*
X158711641Y-62749725D02*
X158760061Y-62762229D01*
X158760061Y-62762229D02*
X158808461Y-62774874D01*
X158808461Y-62774874D02*
X158856951Y-62787693D01*
X158856951Y-62787693D02*
X158905401Y-62800651D01*
X158905401Y-62800651D02*
X158953761Y-62813730D01*
X158953761Y-62813730D02*
X159002091Y-62826952D01*
X159002091Y-62826952D02*
X159098141Y-62853670D01*
X159098141Y-62853670D02*
X159193211Y-62880693D01*
X159193211Y-62880693D02*
X159288741Y-62908427D01*
X159288741Y-62908427D02*
X159384131Y-62936704D01*
X159384131Y-62936704D02*
X159478831Y-62965353D01*
X159478831Y-62965353D02*
X159573801Y-62994662D01*
X159573801Y-62994662D02*
X159668271Y-63024394D01*
X159668271Y-63024394D02*
X159716211Y-63039702D01*
X159716211Y-63039702D02*
X159764121Y-63055148D01*
X159764121Y-63055148D02*
X159858921Y-63086150D01*
X159858921Y-63086150D02*
X159906481Y-63101926D01*
X159906481Y-63101926D02*
X159954011Y-63117838D01*
X159954011Y-63117838D02*
X160001571Y-63133905D01*
X160001571Y-63133905D02*
X160049091Y-63150108D01*
X160049091Y-63150108D02*
X160142661Y-63182441D01*
X160142661Y-63182441D02*
X160236691Y-63215508D01*
X160236691Y-63215508D02*
X160330371Y-63249031D01*
X160330371Y-63249031D02*
X160423731Y-63283014D01*
X160423731Y-63283014D02*
X160470831Y-63300376D01*
X160470831Y-63300376D02*
X160517901Y-63317872D01*
X160517901Y-63317872D02*
X160610681Y-63352793D01*
X160610681Y-63352793D02*
X160703781Y-63388406D01*
X160703781Y-63388406D02*
X160750641Y-63406549D01*
X160750641Y-63406549D02*
X160797461Y-63424824D01*
X160797461Y-63424824D02*
X160889911Y-63461337D01*
X160889911Y-63461337D02*
X160982211Y-63498364D01*
X160982211Y-63498364D02*
X161073851Y-63534835D01*
X161073851Y-63534835D02*
X161165171Y-63571777D01*
X161165171Y-63571777D02*
X161256091Y-63609148D01*
X161256091Y-63609148D02*
X161346521Y-63646907D01*
X161346521Y-63646907D02*
X161438141Y-63685762D01*
X161438141Y-63685762D02*
X161529021Y-63724901D01*
X161529021Y-63724901D02*
X161619081Y-63764277D01*
X161619081Y-63764277D02*
X161709861Y-63804569D01*
X161709861Y-63804569D02*
X161799591Y-63844985D01*
X161799591Y-63844985D02*
X161889731Y-63886181D01*
X161889731Y-63886181D02*
X161980081Y-63928075D01*
X161980081Y-63928075D02*
X162069011Y-63969904D01*
X162069011Y-63969904D02*
X162157861Y-64012285D01*
X162157861Y-64012285D02*
X162246451Y-64055133D01*
X162246451Y-64055133D02*
X162334611Y-64098360D01*
X162334611Y-64098360D02*
X162423421Y-64142502D01*
X162423421Y-64142502D02*
X162512581Y-64187425D01*
X162512581Y-64187425D02*
X162600651Y-64232398D01*
X162600651Y-64232398D02*
X162688601Y-64277910D01*
X162688601Y-64277910D02*
X162776171Y-64323823D01*
X162776171Y-64323823D02*
X162864121Y-64370544D01*
X162864121Y-64370544D02*
X162952081Y-64417883D01*
X162952081Y-64417883D02*
X163039691Y-64465648D01*
X163039691Y-64465648D02*
X163126621Y-64513648D01*
X163126621Y-64513648D02*
X163212541Y-64561694D01*
X163212541Y-64561694D02*
X163298751Y-64610510D01*
X163298751Y-64610510D02*
X163384721Y-64659797D01*
X163384721Y-64659797D02*
X163469941Y-64709260D01*
X163469941Y-64709260D02*
X163555271Y-64759398D01*
X163555271Y-64759398D02*
X163640011Y-64809805D01*
X163640011Y-64809805D02*
X163724691Y-64860788D01*
X163724691Y-64860788D02*
X163809541Y-64912492D01*
X163809541Y-64912492D02*
X163894511Y-64964902D01*
X163894511Y-64964902D02*
X163979311Y-65017842D01*
X163979311Y-65017842D02*
X164062611Y-65070468D01*
X164062611Y-65070468D02*
X164146161Y-65123878D01*
X164146161Y-65123878D02*
X164229241Y-65177621D01*
X164229241Y-65177621D02*
X164311871Y-65231704D01*
X164311871Y-65231704D02*
X164395041Y-65286783D01*
X164395041Y-65286783D02*
X164476821Y-65341577D01*
X164476821Y-65341577D02*
X164558691Y-65397078D01*
X164558691Y-65397078D02*
X164640891Y-65453454D01*
X164640891Y-65453454D02*
X164721821Y-65509608D01*
X164721821Y-65509608D02*
X164802441Y-65566191D01*
X164802441Y-65566191D02*
X164844091Y-65594527D01*
X164844091Y-65594527D02*
X164885671Y-65622957D01*
X164885671Y-65622957D02*
X164967431Y-65679288D01*
X164967431Y-65679288D02*
X165049141Y-65736144D01*
X165049141Y-65736144D02*
X165130751Y-65793497D01*
X165130751Y-65793497D02*
X165212211Y-65851316D01*
X165212211Y-65851316D02*
X165293491Y-65909570D01*
X165293491Y-65909570D02*
X165334051Y-65938854D01*
X165334051Y-65938854D02*
X165374541Y-65968229D01*
X165374541Y-65968229D02*
X165414971Y-65997701D01*
X165414971Y-65997701D02*
X165455321Y-66027262D01*
X165455321Y-66027262D02*
X165495591Y-66056905D01*
X165495591Y-66056905D02*
X165535791Y-66086637D01*
X165535791Y-66086637D02*
X165615921Y-66146323D01*
X165615921Y-66146323D02*
X165695671Y-66206288D01*
X165695671Y-66206288D02*
X165775001Y-66266500D01*
X165775001Y-66266500D02*
X165815041Y-66297108D01*
X165815041Y-66297108D02*
X165855021Y-66327805D01*
X165855021Y-66327805D02*
X165933391Y-66388404D01*
X165933391Y-66388404D02*
X165972901Y-66419165D01*
X165972901Y-66419165D02*
X166012341Y-66450011D01*
X166012341Y-66450011D02*
X166090701Y-66511716D01*
X166090701Y-66511716D02*
X166168431Y-66573486D01*
X166168431Y-66573486D02*
X166207521Y-66604759D01*
X166207521Y-66604759D02*
X166246541Y-66636116D01*
X166246541Y-66636116D02*
X166285771Y-66667785D01*
X166285771Y-66667785D02*
X166324931Y-66699539D01*
X166324931Y-66699539D02*
X166401551Y-66762082D01*
X166401551Y-66762082D02*
X166478361Y-66825332D01*
X166478361Y-66825332D02*
X166555271Y-66889224D01*
X166555271Y-66889224D02*
X166593771Y-66921416D01*
X166593771Y-66921416D02*
X166632201Y-66953690D01*
X166632201Y-66953690D02*
X166670671Y-66986137D01*
X166670671Y-66986137D02*
X166709061Y-67018664D01*
X166709061Y-67018664D02*
X166747451Y-67051331D01*
X166747451Y-67051331D02*
X166785781Y-67084078D01*
X166785781Y-67084078D02*
X166861421Y-67149133D01*
X166861421Y-67149133D02*
X166936811Y-67214518D01*
X166936811Y-67214518D02*
X166974771Y-67247657D01*
X166974771Y-67247657D02*
X167012671Y-67280875D01*
X167012671Y-67280875D02*
X167050411Y-67314100D01*
X167050411Y-67314100D02*
X167088091Y-67347403D01*
X167088091Y-67347403D02*
X167125571Y-67380681D01*
X167125571Y-67380681D02*
X167162991Y-67414036D01*
X167162991Y-67414036D02*
X167237321Y-67480708D01*
X167237321Y-67480708D02*
X167311011Y-67547354D01*
X167311011Y-67547354D02*
X167348251Y-67581235D01*
X167348251Y-67581235D02*
X167385411Y-67615192D01*
X167385411Y-67615192D02*
X167458981Y-67682821D01*
X167458981Y-67682821D02*
X167531661Y-67750179D01*
X167531661Y-67750179D02*
X167604691Y-67818404D01*
X167604691Y-67818404D02*
X167676671Y-67886181D01*
X167676671Y-67886181D02*
X167748761Y-67954595D01*
X167748761Y-67954595D02*
X167820801Y-68023503D01*
X167820801Y-68023503D02*
X167892641Y-68092764D01*
X167892641Y-68092764D02*
X167964141Y-68162238D01*
X167964141Y-68162238D02*
X168035171Y-68231788D01*
X168035171Y-68231788D02*
X168105601Y-68301279D01*
X168105601Y-68301279D02*
X168176271Y-68371544D01*
X168176271Y-68371544D02*
X168211651Y-68406919D01*
X168211651Y-68406919D02*
X168246961Y-68442362D01*
X168246961Y-68442362D02*
X168282231Y-68477904D01*
X168282231Y-68477904D02*
X168317441Y-68513515D01*
X168317441Y-68513515D02*
X168387511Y-68584789D01*
X168387511Y-68584789D02*
X168422681Y-68620769D01*
X168422681Y-68620769D02*
X168457791Y-68656815D01*
X168457791Y-68656815D02*
X168527201Y-68728487D01*
X168527201Y-68728487D02*
X168562161Y-68764790D01*
X168562161Y-68764790D02*
X168597061Y-68801160D01*
X168597061Y-68801160D02*
X168631701Y-68837402D01*
X168631701Y-68837402D02*
X168666281Y-68873709D01*
X168666281Y-68873709D02*
X168734621Y-68945860D01*
X168734621Y-68945860D02*
X168803111Y-69018703D01*
X168803111Y-69018703D02*
X168871341Y-69091790D01*
X168871341Y-69091790D02*
X168938901Y-69164688D01*
X168938901Y-69164688D02*
X169006481Y-69238135D01*
X169006481Y-69238135D02*
X169073541Y-69311537D01*
X169073541Y-69311537D02*
X169140501Y-69385344D01*
X169140501Y-69385344D02*
X169206691Y-69458819D01*
X169206691Y-69458819D02*
X169240301Y-69496328D01*
X169240301Y-69496328D02*
X169273851Y-69533898D01*
X169273851Y-69533898D02*
X169307371Y-69571573D01*
X169307371Y-69571573D02*
X169340831Y-69609308D01*
X169340831Y-69609308D02*
X169406581Y-69683856D01*
X169406581Y-69683856D02*
X169439561Y-69721452D01*
X169439561Y-69721452D02*
X169472481Y-69759104D01*
X169472481Y-69759104D02*
X169537991Y-69834415D01*
X169537991Y-69834415D02*
X169603121Y-69909802D01*
X169603121Y-69909802D02*
X169635921Y-69947961D01*
X169635921Y-69947961D02*
X169668651Y-69986177D01*
X169668651Y-69986177D02*
X169733071Y-70061765D01*
X169733071Y-70061765D02*
X169797551Y-70137940D01*
X169797551Y-70137940D02*
X169829951Y-70176407D01*
X169829951Y-70176407D02*
X169862281Y-70214928D01*
X169862281Y-70214928D02*
X169926011Y-70291233D01*
X169926011Y-70291233D02*
X169989491Y-70367747D01*
X169989491Y-70367747D02*
X170051851Y-70445272D01*
X170051851Y-70445272D02*
X170114051Y-70523228D01*
X170114051Y-70523228D02*
X170176061Y-70601574D01*
X170176061Y-70601574D02*
X170206991Y-70640895D01*
X170206991Y-70640895D02*
X170237841Y-70680268D01*
X170237841Y-70680268D02*
X170268641Y-70719743D01*
X170268641Y-70719743D02*
X170299361Y-70759271D01*
X170299361Y-70759271D02*
X170330021Y-70798881D01*
X170330021Y-70798881D02*
X170360591Y-70838542D01*
X170360591Y-70838542D02*
X170391091Y-70878262D01*
X170391091Y-70878262D02*
X170421501Y-70918042D01*
X170421501Y-70918042D02*
X170451821Y-70957862D01*
X170451821Y-70957862D02*
X170482061Y-70997722D01*
X170482061Y-70997722D02*
X170542241Y-71077552D01*
X170542241Y-71077552D02*
X170602021Y-71157492D01*
X170602021Y-71157492D02*
X170661371Y-71237492D01*
X170661371Y-71237492D02*
X170720261Y-71317522D01*
X170720261Y-71317522D02*
X170778681Y-71397542D01*
X170778681Y-71397542D02*
X170808091Y-71438062D01*
X170808091Y-71438062D02*
X170837411Y-71478642D01*
X170837411Y-71478642D02*
X170895581Y-71559622D01*
X170895581Y-71559622D02*
X170953181Y-71640442D01*
X170953181Y-71640442D02*
X170982101Y-71681262D01*
X170982101Y-71681262D02*
X171010941Y-71722142D01*
X171010941Y-71722142D02*
X171068061Y-71803572D01*
X171068061Y-71803572D02*
X171124511Y-71884702D01*
X171124511Y-71884702D02*
X171180991Y-71966512D01*
X171180991Y-71966512D02*
X171237431Y-72048922D01*
X171237431Y-72048922D02*
X171265641Y-72090362D01*
X171265641Y-72090362D02*
X171293771Y-72131842D01*
X171293771Y-72131842D02*
X171321901Y-72173492D01*
X171321901Y-72173492D02*
X171349951Y-72215182D01*
X171349951Y-72215182D02*
X171405271Y-72297912D01*
X171405271Y-72297912D02*
X171459731Y-72380002D01*
X171459731Y-72380002D02*
X171513921Y-72462332D01*
X171513921Y-72462332D02*
X171568381Y-72545722D01*
X171568381Y-72545722D02*
X171595731Y-72587852D01*
X171595731Y-72587852D02*
X171623011Y-72630032D01*
X171623011Y-72630032D02*
X171650121Y-72672122D01*
X171650121Y-72672122D02*
X171677151Y-72714262D01*
X171677151Y-72714262D02*
X171730771Y-72798332D01*
X171730771Y-72798332D02*
X171783821Y-72882172D01*
X171783821Y-72882172D02*
X171836261Y-72965692D01*
X171836261Y-72965692D02*
X171889031Y-73050402D01*
X171889031Y-73050402D02*
X171941061Y-73134582D01*
X171941061Y-73134582D02*
X171993231Y-73219652D01*
X171993231Y-73219652D02*
X172044541Y-73303972D01*
X172044541Y-73303972D02*
X172095821Y-73388902D01*
X172095821Y-73388902D02*
X172146961Y-73474262D01*
X172146961Y-73474262D02*
X172197851Y-73559872D01*
X172197851Y-73559872D02*
X172248401Y-73645572D01*
X172248401Y-73645572D02*
X172298511Y-73731182D01*
X172298511Y-73731182D02*
X172348091Y-73816552D01*
X172348091Y-73816552D02*
X172397731Y-73902702D01*
X172397731Y-73902702D02*
X172447281Y-73989352D01*
X172447281Y-73989352D02*
X172495961Y-74075142D01*
X172495961Y-74075142D02*
X172544901Y-74162062D01*
X172544901Y-74162062D02*
X172569421Y-74205882D01*
X172569421Y-74205882D02*
X172593881Y-74249732D01*
X172593881Y-74249732D02*
X172642151Y-74336802D01*
X172642151Y-74336802D02*
X172666421Y-74380852D01*
X172666421Y-74380852D02*
X172690631Y-74424932D01*
X172690631Y-74424932D02*
X172714631Y-74468822D01*
X172714631Y-74468822D02*
X172738561Y-74512752D01*
X172738561Y-74512752D02*
X172785781Y-74599932D01*
X172785781Y-74599932D02*
X172833001Y-74687802D01*
X172833001Y-74687802D02*
X172879941Y-74775812D01*
X172879941Y-74775812D02*
X172926321Y-74863442D01*
X172926321Y-74863442D02*
X172972621Y-74951592D01*
X172972621Y-74951592D02*
X173018461Y-75039542D01*
X173018461Y-75039542D02*
X173064131Y-75127832D01*
X173064131Y-75127832D02*
X173109751Y-75216712D01*
X173109751Y-75216712D02*
X173132561Y-75261412D01*
X173132561Y-75261412D02*
X173155301Y-75306152D01*
X173155301Y-75306152D02*
X173178001Y-75350982D01*
X173178001Y-75350982D02*
X173200631Y-75395842D01*
X173200631Y-75395842D02*
X173245041Y-75484382D01*
X173245041Y-75484382D02*
X173289461Y-75573622D01*
X173289461Y-75573622D02*
X173333511Y-75662802D01*
X173333511Y-75662802D02*
X173377211Y-75751942D01*
X173377211Y-75751942D02*
X173399181Y-75797022D01*
X173399181Y-75797022D02*
X173421081Y-75842122D01*
X173421081Y-75842122D02*
X173464111Y-75931252D01*
X173464111Y-75931252D02*
X173507091Y-76020952D01*
X173507091Y-76020952D02*
X173528651Y-76066202D01*
X173528651Y-76066202D02*
X173550141Y-76111482D01*
X173550141Y-76111482D02*
X173592431Y-76201092D01*
X173592431Y-76201092D02*
X173634471Y-76290832D01*
X173634471Y-76290832D02*
X173655231Y-76336592D01*
X173655231Y-76336592D02*
X173675911Y-76382372D01*
X173675911Y-76382372D02*
X173716521Y-76472812D01*
X173716521Y-76472812D02*
X173757041Y-76563822D01*
X173757041Y-76563822D02*
X173777281Y-76609572D01*
X173777281Y-76609572D02*
X173797461Y-76655352D01*
X173797461Y-76655352D02*
X173817641Y-76701332D01*
X173817641Y-76701332D02*
X173837741Y-76747352D01*
X173837741Y-76747352D02*
X173857841Y-76793542D01*
X173857841Y-76793542D02*
X173877861Y-76839762D01*
X173877861Y-76839762D02*
X173917121Y-76930972D01*
X173917121Y-76930972D02*
X173956201Y-77022542D01*
X173956201Y-77022542D02*
X173995081Y-77114432D01*
X173995081Y-77114432D02*
X174033731Y-77206592D01*
X174033731Y-77206592D02*
X174052971Y-77252772D01*
X174052971Y-77252772D02*
X174072141Y-77298972D01*
X174072141Y-77298972D02*
X174091251Y-77345232D01*
X174091251Y-77345232D02*
X174110281Y-77391522D01*
X174110281Y-77391522D02*
X174129251Y-77437852D01*
X174129251Y-77437852D02*
X174148131Y-77484202D01*
X174148131Y-77484202D02*
X174166941Y-77530572D01*
X174166941Y-77530572D02*
X174185681Y-77576972D01*
X174185681Y-77576972D02*
X174222901Y-77669762D01*
X174222901Y-77669762D02*
X174259781Y-77762542D01*
X174259781Y-77762542D02*
X174296301Y-77855272D01*
X174296301Y-77855272D02*
X174332441Y-77947902D01*
X174332441Y-77947902D02*
X174368201Y-78040392D01*
X174368201Y-78040392D02*
X174386161Y-78087182D01*
X174386161Y-78087182D02*
X174404051Y-78134002D01*
X174404051Y-78134002D02*
X174439461Y-78227332D01*
X174439461Y-78227332D02*
X174474411Y-78320362D01*
X174474411Y-78320362D02*
X174491921Y-78367302D01*
X174491921Y-78367302D02*
X174509361Y-78414272D01*
X174509361Y-78414272D02*
X174543811Y-78507752D01*
X174543811Y-78507752D02*
X174577751Y-78600762D01*
X174577751Y-78600762D02*
X174611601Y-78694442D01*
X174611601Y-78694442D02*
X174628501Y-78741552D01*
X174628501Y-78741552D02*
X174645311Y-78788682D01*
X174645311Y-78788682D02*
X174662121Y-78836022D01*
X174662121Y-78836022D02*
X174678851Y-78883382D01*
X174678851Y-78883382D02*
X174695551Y-78930902D01*
X174695551Y-78930902D02*
X174712171Y-78978452D01*
X174712171Y-78978452D02*
X174744861Y-79072702D01*
X174744861Y-79072702D02*
X174777291Y-79167162D01*
X174777291Y-79167162D02*
X174809421Y-79261742D01*
X174809421Y-79261742D02*
X174841221Y-79356352D01*
X174841221Y-79356352D02*
X174857141Y-79404102D01*
X174857141Y-79404102D02*
X174872991Y-79451892D01*
X174872991Y-79451892D02*
X174888711Y-79499542D01*
X174888711Y-79499542D02*
X174904351Y-79547222D01*
X174904351Y-79547222D02*
X174935271Y-79642272D01*
X174935271Y-79642272D02*
X174965741Y-79736942D01*
X174965741Y-79736942D02*
X174995731Y-79831152D01*
X174995731Y-79831152D02*
X175010791Y-79878862D01*
X175010791Y-79878862D02*
X175025771Y-79926592D01*
X175025771Y-79926592D02*
X175055251Y-80021332D01*
X175055251Y-80021332D02*
X175070021Y-80069142D01*
X175070021Y-80069142D02*
X175084671Y-80116972D01*
X175084671Y-80116972D02*
X175113471Y-80211662D01*
X175113471Y-80211662D02*
X175142111Y-80306942D01*
X175142111Y-80306942D02*
X175170521Y-80402602D01*
X175170521Y-80402602D02*
X175198651Y-80498442D01*
X175198651Y-80498442D02*
X175226441Y-80594272D01*
X175226441Y-80594272D02*
X175253831Y-80689912D01*
X175253831Y-80689912D02*
X175280781Y-80785182D01*
X175280781Y-80785182D02*
X175307621Y-80881232D01*
X175307621Y-80881232D02*
X175320961Y-80929482D01*
X175320961Y-80929482D02*
X175334241Y-80977752D01*
X175334241Y-80977752D02*
X175347431Y-81026082D01*
X175347431Y-81026082D02*
X175360571Y-81074442D01*
X175360571Y-81074442D02*
X175386531Y-81171012D01*
X175386531Y-81171012D02*
X175399491Y-81219662D01*
X175399491Y-81219662D02*
X175412341Y-81268332D01*
X175412341Y-81268332D02*
X175437611Y-81364892D01*
X175437611Y-81364892D02*
X175450271Y-81413702D01*
X175450271Y-81413702D02*
X175462821Y-81462532D01*
X175462821Y-81462532D02*
X175475241Y-81511122D01*
X175475241Y-81511122D02*
X175487571Y-81559742D01*
X175487571Y-81559742D02*
X175511781Y-81656162D01*
X175511781Y-81656162D02*
X175523851Y-81704692D01*
X175523851Y-81704692D02*
X175535821Y-81753252D01*
X175535821Y-81753252D02*
X175547741Y-81801822D01*
X175547741Y-81801822D02*
X175559541Y-81850412D01*
X175559541Y-81850412D02*
X175582801Y-81947072D01*
X175582801Y-81947072D02*
X175605841Y-82044212D01*
X175605841Y-82044212D02*
X175628471Y-82141052D01*
X175628471Y-82141052D02*
X175650831Y-82238192D01*
X175650831Y-82238192D02*
X175661931Y-82287042D01*
X175661931Y-82287042D02*
X175672981Y-82335902D01*
X175672981Y-82335902D02*
X175684001Y-82385012D01*
X175684001Y-82385012D02*
X175694901Y-82434142D01*
X175694901Y-82434142D02*
X175705771Y-82483352D01*
X175705771Y-82483352D02*
X175716521Y-82532582D01*
X175716521Y-82532582D02*
X175737501Y-82629672D01*
X175737501Y-82629672D02*
X175758291Y-82727452D01*
X175758291Y-82727452D02*
X175778711Y-82825092D01*
X175778711Y-82825092D02*
X175798771Y-82922622D01*
X175798771Y-82922622D02*
X175808781Y-82971902D01*
X175808781Y-82971902D02*
X175818681Y-83021212D01*
X175818681Y-83021212D02*
X175838031Y-83118582D01*
X175838031Y-83118582D02*
X175857151Y-83216502D01*
X175857151Y-83216502D02*
X175866651Y-83265872D01*
X175866651Y-83265872D02*
X175876051Y-83315262D01*
X175876051Y-83315262D02*
X175894441Y-83412942D01*
X175894441Y-83412942D02*
X175912511Y-83510702D01*
X175912511Y-83510702D02*
X175992471Y-83450772D01*
X175992471Y-83450772D02*
X176072911Y-83391762D01*
X176072911Y-83391762D02*
X176153751Y-83333762D01*
X176153751Y-83333762D02*
X176234891Y-83276832D01*
X176234891Y-83276832D02*
X176316251Y-83221032D01*
X176316251Y-83221032D02*
X176397751Y-83166422D01*
X176397751Y-83166422D02*
X176480841Y-83112062D01*
X176480841Y-83112062D02*
X176563831Y-83059072D01*
X176563831Y-83059072D02*
X176648121Y-83006592D01*
X176648121Y-83006592D02*
X176732081Y-82955652D01*
X176732081Y-82955652D02*
X176817051Y-82905442D01*
X176817051Y-82905442D02*
X176902851Y-82856102D01*
X176902851Y-82856102D02*
X176989291Y-82807772D01*
X176989291Y-82807772D02*
X177076211Y-82760572D01*
X177076211Y-82760572D02*
X177163421Y-82714602D01*
X177163421Y-82714602D02*
X177250751Y-82669972D01*
X177250751Y-82669972D02*
X177339241Y-82626162D01*
X177339241Y-82626162D02*
X177428611Y-82583362D01*
X177428611Y-82583362D02*
X177518581Y-82541742D01*
X177518581Y-82541742D02*
X177608881Y-82501442D01*
X177608881Y-82501442D02*
X177700301Y-82462132D01*
X177700301Y-82462132D02*
X177792461Y-82424032D01*
X177792461Y-82424032D02*
X177884981Y-82387312D01*
X177884981Y-82387312D02*
X177977501Y-82352132D01*
X177977501Y-82352132D02*
X178069661Y-82318612D01*
X178069661Y-82318612D02*
X178162851Y-82286272D01*
X178162851Y-82286272D02*
X178256491Y-82255342D01*
X178256491Y-82255342D02*
X178350021Y-82226012D01*
X178350021Y-82226012D02*
X178444381Y-82198002D01*
X178444381Y-82198002D02*
X178538811Y-82171572D01*
X178538811Y-82171572D02*
X178635181Y-82146242D01*
X178635181Y-82146242D02*
X178732271Y-82122402D01*
X178732271Y-82122402D02*
X178828911Y-82100352D01*
X178828911Y-82100352D02*
X178926081Y-82079872D01*
X178926081Y-82079872D02*
X179024121Y-82060922D01*
X179024121Y-82060922D02*
X179121071Y-82043882D01*
X179121071Y-82043882D02*
X179218191Y-82028512D01*
X179218191Y-82028512D02*
X179316821Y-82014652D01*
X179316821Y-82014652D02*
X179415251Y-82002572D01*
X179415251Y-82002572D02*
X179512741Y-81992342D01*
X179512741Y-81992342D02*
X179611051Y-81983742D01*
X179611051Y-81983742D02*
X179710481Y-81976842D01*
X179710481Y-81976842D02*
X179809091Y-81971842D01*
X179809091Y-81971842D02*
X179908021Y-81968542D01*
X179908021Y-81968542D02*
X179999981Y-81968680D01*
X179999981Y-81968680D02*
X180090391Y-81969620D01*
X180090391Y-81969620D02*
X180182111Y-81972220D01*
X180182111Y-81972220D02*
X180273231Y-81977320D01*
X180273231Y-81977320D02*
X180362801Y-81985720D01*
X180362801Y-81985720D02*
X180453601Y-81998780D01*
X180453601Y-81998780D02*
X180542281Y-82017090D01*
X180542281Y-82017090D02*
X180629401Y-82041760D01*
X180629401Y-82041760D02*
X180714131Y-82073610D01*
X180714131Y-82073610D02*
X180793561Y-82124150D01*
X180793561Y-82124150D02*
X180868201Y-82181210D01*
X180868201Y-82181210D02*
X180938671Y-82243620D01*
X180938671Y-82243620D02*
X181004811Y-82309430D01*
X181004811Y-82309430D02*
X181069081Y-82379390D01*
X181069081Y-82379390D02*
X181130381Y-82450600D01*
X181130381Y-82450600D02*
X181190281Y-82523060D01*
X181190281Y-82523060D02*
X181250411Y-82596980D01*
X181250411Y-82596980D02*
X181309941Y-82669430D01*
X181309941Y-82669430D02*
X181372931Y-82745260D01*
X181372931Y-82745260D02*
X181433881Y-82823430D01*
X181433881Y-82823430D02*
X181463801Y-82863700D01*
X181463801Y-82863700D02*
X181493171Y-82904510D01*
X181493171Y-82904510D02*
X181548931Y-82985840D01*
X181548931Y-82985840D02*
X181602881Y-83069780D01*
X181602881Y-83069780D02*
X181654301Y-83155180D01*
X181654301Y-83155180D02*
X181679121Y-83198500D01*
X181679121Y-83198500D02*
X181703421Y-83242340D01*
X181703421Y-83242340D02*
X181749861Y-83330430D01*
X181749861Y-83330430D02*
X181793761Y-83419500D01*
X181793761Y-83419500D02*
X181814961Y-83464780D01*
X181814961Y-83464780D02*
X181835671Y-83510560D01*
X181835671Y-83510560D02*
X181866731Y-83599690D01*
X181866731Y-83599690D02*
X181896251Y-83688820D01*
X181896251Y-83688820D02*
X181924791Y-83779790D01*
X181924791Y-83779790D02*
X181951571Y-83870230D01*
X181951571Y-83870230D02*
X181976981Y-83961480D01*
X181976981Y-83961480D02*
X182000901Y-84053220D01*
X182000901Y-84053220D02*
X182022951Y-84143980D01*
X182022951Y-84143980D02*
X182043611Y-84235700D01*
X182043611Y-84235700D02*
X182062971Y-84329060D01*
X182062971Y-84329060D02*
X182080371Y-84420960D01*
X182080371Y-84420960D02*
X182096171Y-84513100D01*
X182096171Y-84513100D02*
X182110521Y-84606630D01*
X182110521Y-84606630D02*
X182123241Y-84700620D01*
X182123241Y-84700620D02*
X182134321Y-84795340D01*
X182134321Y-84795340D02*
X182143521Y-84888960D01*
X182143521Y-84888960D02*
X182151021Y-84982580D01*
X182151021Y-84982580D02*
X182155021Y-85079410D01*
X182155021Y-85079410D02*
X182158721Y-85176890D01*
X182158721Y-85176890D02*
X182162121Y-85273540D01*
X182162121Y-85273540D02*
X182165221Y-85371180D01*
X182165221Y-85371180D02*
X182168021Y-85468310D01*
X182168021Y-85468310D02*
X182170521Y-85564560D01*
X182170521Y-85564560D02*
X182172821Y-85661400D01*
X182172821Y-85661400D02*
X182174921Y-85758230D01*
X182174921Y-85758230D02*
X182176721Y-85854480D01*
X182176721Y-85854480D02*
X182178321Y-85951130D01*
X182178321Y-85951130D02*
X182179721Y-86047400D01*
X182179721Y-86047400D02*
X182180921Y-86143890D01*
X182180921Y-86143890D02*
X182181921Y-86239640D01*
X182181921Y-86239640D02*
X182182817Y-86337170D01*
X182182817Y-86337170D02*
X182183565Y-86434820D01*
X182183565Y-86434820D02*
X182184167Y-86531050D01*
X182184167Y-86531050D02*
X182184653Y-86627890D01*
X182184653Y-86627890D02*
X182185030Y-86724520D01*
X182185030Y-86724520D02*
X182185313Y-86820960D01*
X182185313Y-86820960D02*
X182185518Y-86918370D01*
X182185518Y-86918370D02*
X182185653Y-87014500D01*
X182185653Y-87014500D02*
X182185736Y-87111100D01*
X182185736Y-87111100D02*
X182185778Y-87208460D01*
X182185778Y-87208460D02*
X182185794Y-87304680D01*
X182185794Y-87304680D02*
X182185796Y-87400900D01*
X182185796Y-87400900D02*
X182183296Y-87500240D01*
X182183296Y-87500240D02*
X182180396Y-87599580D01*
X182180396Y-87599580D02*
X182177096Y-87698890D01*
X182177096Y-87698890D02*
X182175296Y-87749050D01*
X182175296Y-87749050D02*
X182173396Y-87799210D01*
X182173396Y-87799210D02*
X182169396Y-87898380D01*
X182169396Y-87898380D02*
X182167196Y-87948440D01*
X182167196Y-87948440D02*
X182164896Y-87998490D01*
X182164896Y-87998490D02*
X182160096Y-88097410D01*
X182160096Y-88097410D02*
X182154896Y-88197190D01*
X182154896Y-88197190D02*
X182149396Y-88295760D01*
X182149396Y-88295760D02*
X182143396Y-88395130D01*
X182143396Y-88395130D02*
X182140196Y-88445180D01*
X182140196Y-88445180D02*
X182136996Y-88495220D01*
X182136996Y-88495220D02*
X182130296Y-88594050D01*
X182130296Y-88594050D02*
X182123196Y-88693540D01*
X182123196Y-88693540D02*
X182115796Y-88791740D01*
X182115796Y-88791740D02*
X182107896Y-88890530D01*
X182107896Y-88890530D02*
X182099596Y-88989850D01*
X182099596Y-88989850D02*
X182095296Y-89039750D01*
X182095296Y-89039750D02*
X182090896Y-89089650D01*
X182090896Y-89089650D02*
X182081896Y-89188070D01*
X182081896Y-89188070D02*
X182072496Y-89286900D01*
X182072496Y-89286900D02*
X182062596Y-89386080D01*
X182062596Y-89386080D02*
X182057496Y-89435830D01*
X182057496Y-89435830D02*
X182052296Y-89485560D01*
X182052296Y-89485560D02*
X182041756Y-89583590D01*
X182041756Y-89583590D02*
X182030806Y-89681860D01*
X182030806Y-89681860D02*
X182019436Y-89780310D01*
X182019436Y-89780310D02*
X182007656Y-89878890D01*
X182007656Y-89878890D02*
X181995466Y-89977540D01*
X181995466Y-89977540D02*
X181982866Y-90076220D01*
X181982866Y-90076220D02*
X181969866Y-90174870D01*
X181969866Y-90174870D02*
X181956476Y-90273440D01*
X181956476Y-90273440D02*
X181942696Y-90371880D01*
X181942696Y-90371880D02*
X181928546Y-90470140D01*
X181928546Y-90470140D02*
X181914016Y-90568180D01*
X181914016Y-90568180D02*
X181906516Y-90617780D01*
X181906516Y-90617780D02*
X181898916Y-90667360D01*
X181898916Y-90667360D02*
X181883666Y-90764780D01*
X181883666Y-90764780D02*
X181867856Y-90863210D01*
X181867856Y-90863210D02*
X181851706Y-90961180D01*
X181851706Y-90961180D02*
X181835226Y-91058650D01*
X181835226Y-91058650D02*
X181818206Y-91156880D01*
X181818206Y-91156880D02*
X181800886Y-91254480D01*
X181800886Y-91254480D02*
X181783266Y-91351420D01*
X181783266Y-91351420D02*
X181765146Y-91448870D01*
X181765146Y-91448870D02*
X181746526Y-91546720D01*
X181746526Y-91546720D02*
X181727426Y-91644870D01*
X181727426Y-91644870D02*
X181717726Y-91694050D01*
X181717726Y-91694050D02*
X181707926Y-91743210D01*
X181707926Y-91743210D02*
X181688146Y-91840520D01*
X181688146Y-91840520D02*
X181667936Y-91937870D01*
X181667936Y-91937870D02*
X181647316Y-92035150D01*
X181647316Y-92035150D02*
X181626306Y-92132270D01*
X181626306Y-92132270D02*
X181615566Y-92181220D01*
X181615566Y-92181220D02*
X181604696Y-92230150D01*
X181604696Y-92230150D02*
X181582736Y-92327630D01*
X181582736Y-92327630D02*
X181560456Y-92424620D01*
X181560456Y-92424620D02*
X181537876Y-92521040D01*
X181537876Y-92521040D02*
X181515026Y-92616800D01*
X181515026Y-92616800D02*
X181491486Y-92713610D01*
X181491486Y-92713610D02*
X181467736Y-92809510D01*
X181467736Y-92809510D02*
X181443366Y-92906120D01*
X181443366Y-92906120D02*
X181418856Y-93001580D01*
X181418856Y-93001580D02*
X181393806Y-93097430D01*
X181393806Y-93097430D02*
X181368266Y-93193460D01*
X181368266Y-93193460D02*
X181342286Y-93289470D01*
X181342286Y-93289470D02*
X181315926Y-93385270D01*
X181315926Y-93385270D02*
X181289226Y-93480670D01*
X181289226Y-93480670D02*
X181262246Y-93575500D01*
X181262246Y-93575500D02*
X181234656Y-93670890D01*
X181234656Y-93670890D02*
X181206536Y-93766540D01*
X181206536Y-93766540D02*
X181178336Y-93860930D01*
X181178336Y-93860930D02*
X181149396Y-93956260D01*
X181149396Y-93956260D02*
X181134656Y-94004200D01*
X181134656Y-94004200D02*
X181119826Y-94052100D01*
X181119826Y-94052100D02*
X181090096Y-94146990D01*
X181090096Y-94146990D02*
X181074916Y-94194870D01*
X181074916Y-94194870D02*
X181059636Y-94242710D01*
X181059636Y-94242710D02*
X181028906Y-94337790D01*
X181028906Y-94337790D02*
X180998036Y-94431870D01*
X180998036Y-94431870D02*
X180966556Y-94526390D01*
X180966556Y-94526390D02*
X180934656Y-94620750D01*
X180934656Y-94620750D02*
X180902526Y-94714410D01*
X180902526Y-94714410D02*
X180869836Y-94808310D01*
X180869836Y-94808310D02*
X180836856Y-94901700D01*
X180836856Y-94901700D02*
X180803376Y-94995150D01*
X180803376Y-94995150D02*
X180769736Y-95087730D01*
X180769736Y-95087730D02*
X180752446Y-95134820D01*
X180752446Y-95134820D02*
X180735046Y-95181870D01*
X180735046Y-95181870D02*
X180717516Y-95228940D01*
X180717516Y-95228940D02*
X180699876Y-95275970D01*
X180699876Y-95275970D02*
X180664786Y-95368550D01*
X180664786Y-95368550D02*
X180629046Y-95461550D01*
X180629046Y-95461550D02*
X180592956Y-95554180D01*
X180592956Y-95554180D02*
X180556506Y-95646470D01*
X180556506Y-95646470D02*
X180537936Y-95693020D01*
X180537936Y-95693020D02*
X180519256Y-95739520D01*
X180519256Y-95739520D02*
X180482076Y-95831180D01*
X180482076Y-95831180D02*
X180444276Y-95923120D01*
X180444276Y-95923120D02*
X180425066Y-95969380D01*
X180425066Y-95969380D02*
X180405746Y-96015600D01*
X180405746Y-96015600D02*
X180367236Y-96106830D01*
X180367236Y-96106830D02*
X180328296Y-96197890D01*
X180328296Y-96197890D02*
X180281526Y-96281030D01*
X180281526Y-96281030D02*
X180235146Y-96366010D01*
X180235146Y-96366010D02*
X180190056Y-96451070D01*
X180190056Y-96451070D02*
X180146206Y-96536180D01*
X180146206Y-96536180D02*
X180103036Y-96622390D01*
X180103036Y-96622390D02*
X180061336Y-96708170D01*
X180061336Y-96708170D02*
X180020246Y-96795410D01*
X180020246Y-96795410D02*
X179980886Y-96881880D01*
X179980886Y-96881880D02*
X179942766Y-96968940D01*
X179942766Y-96968940D02*
X179912796Y-97060330D01*
X179912796Y-97060330D02*
X179880086Y-97151720D01*
X179880086Y-97151720D02*
X179845076Y-97242400D01*
X179845076Y-97242400D02*
X179808256Y-97331760D01*
X179808256Y-97331760D02*
X179769616Y-97420450D01*
X179769616Y-97420450D02*
X179729776Y-97507710D01*
X179729776Y-97507710D02*
X179687876Y-97595930D01*
X179687876Y-97595930D02*
X179644816Y-97683710D01*
X179644816Y-97683710D02*
X179601516Y-97769780D01*
X179601516Y-97769780D02*
X179557286Y-97856070D01*
X179557286Y-97856070D02*
X179512716Y-97941950D01*
X179512716Y-97941950D02*
X179468016Y-98027550D01*
X179468016Y-98027550D02*
X179422866Y-98114020D01*
X179422866Y-98114020D02*
X179378526Y-98199460D01*
X179378526Y-98199460D02*
X179334396Y-98285530D01*
X179334396Y-98285530D02*
X179290576Y-98372600D01*
X179290576Y-98372600D02*
X179248136Y-98459090D01*
X179248136Y-98459090D02*
X179206766Y-98546120D01*
X179206766Y-98546120D02*
X179159866Y-98633910D01*
X179159866Y-98633910D02*
X179113326Y-98720750D01*
X179113326Y-98720750D02*
X179066426Y-98808050D01*
X179066426Y-98808050D02*
X179019266Y-98895610D01*
X179019266Y-98895610D02*
X178971976Y-98983260D01*
X178971976Y-98983260D02*
X178924656Y-99070830D01*
X178924656Y-99070830D02*
X178877416Y-99158140D01*
X178877416Y-99158140D02*
X178830366Y-99245030D01*
X178830366Y-99245030D02*
X178783616Y-99331350D01*
X178783616Y-99331350D02*
X178736626Y-99418110D01*
X178736626Y-99418110D02*
X178689556Y-99505030D01*
X178689556Y-99505030D02*
X178642576Y-99591860D01*
X178642576Y-99591860D02*
X178595836Y-99678340D01*
X178595836Y-99678340D02*
X178548946Y-99765230D01*
X178548946Y-99765230D02*
X178502116Y-99852160D01*
X178502116Y-99852160D02*
X178455556Y-99938800D01*
X178455556Y-99938800D02*
X178408526Y-100026540D01*
X178408526Y-100026540D02*
X178362226Y-100113180D01*
X178362226Y-100113180D02*
X178315996Y-100199980D01*
X178315996Y-100199980D02*
X178269346Y-100287900D01*
X178269346Y-100287900D02*
X178223436Y-100374800D01*
X178223436Y-100374800D02*
X178177136Y-100462830D01*
X178177136Y-100462830D02*
X178131606Y-100549850D01*
X178131606Y-100549850D02*
X178085996Y-100637490D01*
X178085996Y-100637490D02*
X178040886Y-100724680D01*
X178040886Y-100724680D02*
X177995816Y-100812340D01*
X177995816Y-100812340D02*
X177950646Y-100900800D01*
X177950646Y-100900800D02*
X177906306Y-100988260D01*
X177906306Y-100988260D02*
X177861526Y-101077280D01*
X177861526Y-101077280D02*
X177817806Y-101164910D01*
X177817806Y-101164910D02*
X177773836Y-101253810D01*
X177773836Y-101253810D02*
X177730246Y-101342780D01*
X177730246Y-101342780D02*
X177686866Y-101432190D01*
X177686866Y-101432190D02*
X177643606Y-101522300D01*
X177643606Y-101522300D02*
X177601316Y-101611360D01*
X177601316Y-101611360D02*
X177559506Y-101700420D01*
X177559506Y-101700420D02*
X177517626Y-101789450D01*
X177517626Y-101789450D02*
X177475536Y-101879050D01*
X177475536Y-101879050D02*
X177433556Y-101968690D01*
X177433556Y-101968690D02*
X177391986Y-102057870D01*
X177391986Y-102057870D02*
X177350456Y-102147530D01*
X177350456Y-102147530D02*
X177309346Y-102236970D01*
X177309346Y-102236970D02*
X177288576Y-102282460D01*
X177288576Y-102282460D02*
X177267896Y-102328000D01*
X177267896Y-102328000D02*
X177227216Y-102418340D01*
X177227216Y-102418340D02*
X177186776Y-102509310D01*
X177186776Y-102509310D02*
X177146766Y-102600630D01*
X177146766Y-102600630D02*
X177107866Y-102690890D01*
X177107866Y-102690890D02*
X177069296Y-102782010D01*
X177069296Y-102782010D02*
X177031436Y-102873250D01*
X177031436Y-102873250D02*
X176993826Y-102965900D01*
X176993826Y-102965900D02*
X176957186Y-103058390D01*
X176957186Y-103058390D02*
X176921806Y-103150050D01*
X176921806Y-103150050D02*
X176887086Y-103242570D01*
X176887086Y-103242570D02*
X176852986Y-103336270D01*
X176852986Y-103336270D02*
X176820226Y-103429340D01*
X176820226Y-103429340D02*
X176788446Y-103522910D01*
X176788446Y-103522910D02*
X176759006Y-103618280D01*
X176759006Y-103618280D02*
X176730756Y-103713210D01*
X176730756Y-103713210D02*
X176703216Y-103809330D01*
X176703216Y-103809330D02*
X176676916Y-103904750D01*
X176676916Y-103904750D02*
X176651416Y-104001020D01*
X176651416Y-104001020D02*
X176627176Y-104096340D01*
X176627176Y-104096340D02*
X176603806Y-104192180D01*
X176603806Y-104192180D02*
X176581346Y-104288340D01*
X176581346Y-104288340D02*
X176559846Y-104384630D01*
X176559846Y-104384630D02*
X176539336Y-104480850D01*
X176539336Y-104480850D02*
X176519576Y-104578190D01*
X176519576Y-104578190D02*
X176500636Y-104676320D01*
X176500636Y-104676320D02*
X176482816Y-104773660D01*
X176482816Y-104773660D02*
X176465906Y-104871270D01*
X176465906Y-104871270D02*
X176449946Y-104968850D01*
X176449946Y-104968850D02*
X176434806Y-105067270D01*
X176434806Y-105067270D02*
X176420556Y-105166110D01*
X176420556Y-105166110D02*
X176407246Y-105264960D01*
X176407246Y-105264960D02*
X176394916Y-105363440D01*
X176394916Y-105363440D02*
X176383586Y-105461170D01*
X176383586Y-105461170D02*
X176373076Y-105559630D01*
X176373076Y-105559630D02*
X176363476Y-105658210D01*
X176363476Y-105658210D02*
X176354776Y-105756320D01*
X176354776Y-105756320D02*
X176346976Y-105854950D01*
X176346976Y-105854950D02*
X176340076Y-105953300D01*
X176340076Y-105953300D02*
X176336876Y-106003290D01*
X176336876Y-106003290D02*
X176333876Y-106053320D01*
X176333876Y-106053320D02*
X176328676Y-106152470D01*
X176328676Y-106152470D02*
X176324276Y-106252170D01*
X176324276Y-106252170D02*
X176320776Y-106352070D01*
X176320776Y-106352070D02*
X176318176Y-106450590D01*
X176318176Y-106450590D02*
X176316476Y-106549790D01*
X176316476Y-106549790D02*
X176315583Y-106648830D01*
X176315583Y-106648830D02*
X176315536Y-106747730D01*
X176315536Y-106747730D02*
X176316339Y-106847670D01*
X176316339Y-106847670D02*
X176317939Y-106946330D01*
X176317939Y-106946330D02*
X176320439Y-107045500D01*
X176320439Y-107045500D02*
X176322039Y-107095480D01*
X176322039Y-107095480D02*
X176323739Y-107145470D01*
X176323739Y-107145470D02*
X176327839Y-107244290D01*
X176327839Y-107244290D02*
X176332739Y-107343120D01*
X176332739Y-107343120D02*
X176336139Y-107442580D01*
X176336139Y-107442580D02*
X176338539Y-107541410D01*
X176338539Y-107541410D02*
X176339939Y-107639570D01*
X176339939Y-107639570D02*
X176340418Y-107738260D01*
X176340418Y-107738260D02*
X176339959Y-107837370D01*
X176339959Y-107837370D02*
X176338559Y-107936790D01*
X176338559Y-107936790D02*
X176336259Y-108036410D01*
X176336259Y-108036410D02*
X176333059Y-108136140D01*
X176333059Y-108136140D02*
X176328959Y-108235870D01*
X176328959Y-108235870D02*
X176323959Y-108335500D01*
X176323959Y-108335500D02*
X176318159Y-108434940D01*
X176318159Y-108434940D02*
X176311559Y-108534090D01*
X176311559Y-108534090D02*
X176304159Y-108632860D01*
X176304159Y-108632860D02*
X176295959Y-108731160D01*
X176295959Y-108731160D02*
X176287059Y-108828910D01*
X176287059Y-108828910D02*
X176277259Y-108927890D01*
X176277259Y-108927890D02*
X176266819Y-109026060D01*
X176266819Y-109026060D02*
X176255549Y-109125100D01*
X176255549Y-109125100D02*
X176243689Y-109223080D01*
X176243689Y-109223080D02*
X176231069Y-109321600D01*
X176231069Y-109321600D02*
X176217949Y-109418840D01*
X176217949Y-109418840D02*
X176204149Y-109516300D01*
X176204149Y-109516300D02*
X176189709Y-109613790D01*
X176189709Y-109613790D02*
X176174679Y-109711110D01*
X176174679Y-109711110D02*
X176159109Y-109808080D01*
X176159109Y-109808080D02*
X176143049Y-109904510D01*
X176143049Y-109904510D02*
X176126319Y-110001570D01*
X176126319Y-110001570D02*
X176108989Y-110098940D01*
X176108989Y-110098940D02*
X176091119Y-110196330D01*
X176091119Y-110196330D02*
X176072779Y-110293450D01*
X176072779Y-110293450D02*
X176053819Y-110391150D01*
X176053819Y-110391150D02*
X176034549Y-110487940D01*
X176034549Y-110487940D02*
X176014629Y-110585660D01*
X176014629Y-110585660D02*
X175994369Y-110682790D01*
X175994369Y-110682790D02*
X175973879Y-110778970D01*
X175973879Y-110778970D02*
X175952869Y-110875660D01*
X175952869Y-110875660D02*
X175931469Y-110972270D01*
X175931469Y-110972270D02*
X175909839Y-111068240D01*
X175909839Y-111068240D02*
X175887769Y-111164530D01*
X175887769Y-111164530D02*
X175865459Y-111260380D01*
X175865459Y-111260380D02*
X175842789Y-111356370D01*
X175842789Y-111356370D02*
X175819999Y-111451550D01*
X175819999Y-111451550D02*
X175796509Y-111548430D01*
X175796509Y-111548430D02*
X175772969Y-111644320D01*
X175772969Y-111644320D02*
X175749259Y-111739870D01*
X175749259Y-111739870D02*
X175725169Y-111835950D01*
X175725169Y-111835950D02*
X175700919Y-111931750D01*
X175700919Y-111931750D02*
X175676529Y-112027290D01*
X175676529Y-112027290D02*
X175651709Y-112123720D01*
X175651709Y-112123720D02*
X175627059Y-112218810D01*
X175627059Y-112218810D02*
X175602149Y-112314290D01*
X175602149Y-112314290D02*
X175576919Y-112410450D01*
X175576919Y-112410450D02*
X175551879Y-112505420D01*
X175551879Y-112505420D02*
X175526749Y-112600320D01*
X175526749Y-112600320D02*
X175498339Y-112690850D01*
X175498339Y-112690850D02*
X175472489Y-112782550D01*
X175472489Y-112782550D02*
X175448549Y-112874430D01*
X175448549Y-112874430D02*
X175425249Y-112967610D01*
X175425249Y-112967610D02*
X175401979Y-113060210D01*
X175401979Y-113060210D02*
X175377389Y-113153150D01*
X175377389Y-113153150D02*
X175350579Y-113245250D01*
X175350579Y-113245250D02*
X175320299Y-113336530D01*
X175320299Y-113336530D02*
X175286049Y-113425010D01*
X175286049Y-113425010D02*
X175246389Y-113511540D01*
X175246389Y-113511540D02*
X175209489Y-113602090D01*
X175209489Y-113602090D02*
X175197569Y-113700580D01*
X175197569Y-113700580D02*
X175191569Y-113798950D01*
X175191569Y-113798950D02*
X175176239Y-113897070D01*
X175176239Y-113897070D02*
X175166639Y-113991530D01*
X175166639Y-113991530D02*
X175156489Y-114087640D01*
X175156489Y-114087640D02*
X175146199Y-114182880D01*
X175146199Y-114182880D02*
X175135699Y-114278700D01*
X175135699Y-114278700D02*
X175125169Y-114374510D01*
X175125169Y-114374510D02*
X175114759Y-114469750D01*
X175114759Y-114469750D02*
X175104459Y-114565390D01*
X175104459Y-114565390D02*
X175094459Y-114660650D01*
X175094459Y-114660650D02*
X175084759Y-114756130D01*
X175084759Y-114756130D02*
X175075559Y-114850870D01*
X175075559Y-114850870D02*
X175066859Y-114946250D01*
X175066859Y-114946250D02*
X175058859Y-115040920D01*
X175058859Y-115040920D02*
X175051559Y-115136450D01*
X175051559Y-115136450D02*
X175045059Y-115232580D01*
X175045059Y-115232580D02*
X175039559Y-115328500D01*
X175039559Y-115328500D02*
X175035059Y-115424230D01*
X175035059Y-115424230D02*
X175031759Y-115520930D01*
X175031759Y-115520930D02*
X175029759Y-115616360D01*
X175029759Y-115616360D02*
X175029047Y-115712250D01*
X175029047Y-115712250D02*
X175029795Y-115808890D01*
X175029795Y-115808890D02*
X175032095Y-115904410D01*
X175032095Y-115904410D02*
X175035995Y-115999930D01*
X175035995Y-115999930D02*
X175051095Y-116090720D01*
X175051095Y-116090720D02*
X175072685Y-116179440D01*
X175072685Y-116179440D02*
X175099705Y-116266380D01*
X175099705Y-116266380D02*
X175131075Y-116351840D01*
X175131075Y-116351840D02*
X175166155Y-116437120D01*
X175166155Y-116437120D02*
X175203515Y-116521630D01*
X175203515Y-116521630D02*
X175241205Y-116603950D01*
X175241205Y-116603950D02*
X175279525Y-116687620D01*
X175279525Y-116687620D02*
X175316375Y-116770990D01*
X175316375Y-116770990D02*
X175354125Y-116853370D01*
X175354125Y-116853370D02*
X175393895Y-116935350D01*
X175393895Y-116935350D02*
X175435485Y-117016810D01*
X175435485Y-117016810D02*
X175478405Y-117097170D01*
X175478405Y-117097170D02*
X175522525Y-117176610D01*
X175522525Y-117176610D02*
X175567715Y-117255300D01*
X175567715Y-117255300D02*
X175614405Y-117334360D01*
X175614405Y-117334360D02*
X175661985Y-117413150D01*
X175661985Y-117413150D02*
X175710435Y-117492050D01*
X175710435Y-117492050D02*
X175758655Y-117569700D01*
X175758655Y-117569700D02*
X175807035Y-117647190D01*
X175807035Y-117647190D02*
X175867795Y-117723490D01*
X175867795Y-117723490D02*
X175929145Y-117799690D01*
X175929145Y-117799690D02*
X175990925Y-117875660D01*
X175990925Y-117875660D02*
X176052965Y-117951270D01*
X176052965Y-117951270D02*
X176115095Y-118026400D01*
X176115095Y-118026400D02*
X176178015Y-118101960D01*
X176178015Y-118101960D02*
X176241485Y-118177740D01*
X176241485Y-118177740D02*
X176304455Y-118252560D01*
X176304455Y-118252560D02*
X176368335Y-118328160D01*
X176368335Y-118328160D02*
X176431315Y-118402470D01*
X176431315Y-118402470D02*
X176494695Y-118477110D01*
X176494695Y-118477110D02*
X176558175Y-118551790D01*
X176558175Y-118551790D02*
X176621455Y-118626230D01*
X176621455Y-118626230D02*
X176685515Y-118701650D01*
X176685515Y-118701650D02*
X176748705Y-118776180D01*
X176748705Y-118776180D02*
X176811895Y-118850920D01*
X176811895Y-118850920D02*
X176875735Y-118926700D01*
X176875735Y-118926700D02*
X176938625Y-119001710D01*
X176938625Y-119001710D02*
X177002075Y-119077810D01*
X177002075Y-119077810D02*
X177064495Y-119153170D01*
X177064495Y-119153170D02*
X177127015Y-119229230D01*
X177127015Y-119229230D02*
X177188815Y-119305070D01*
X177188815Y-119305070D02*
X177250505Y-119381510D01*
X177250505Y-119381510D02*
X177312265Y-119458860D01*
X177312265Y-119458860D02*
X177372785Y-119535560D01*
X177372785Y-119535560D02*
X177433785Y-119613880D01*
X177433785Y-119613880D02*
X177493195Y-119691230D01*
X177493195Y-119691230D02*
X177552775Y-119769990D01*
X177552775Y-119769990D02*
X177611655Y-119849120D01*
X177611655Y-119849120D02*
X177670025Y-119928960D01*
X177670025Y-119928960D02*
X177727985Y-120009780D01*
X177727985Y-120009780D02*
X177784375Y-120090020D01*
X177784375Y-120090020D02*
X177839815Y-120170640D01*
X177839815Y-120170640D02*
X177892355Y-120249520D01*
X177892355Y-120249520D02*
X177944485Y-120328190D01*
X177944485Y-120328190D02*
X177996325Y-120407240D01*
X177996325Y-120407240D02*
X178047155Y-120485980D01*
X178047155Y-120485980D02*
X178098105Y-120566600D01*
X178098105Y-120566600D02*
X178148075Y-120647840D01*
X178148075Y-120647840D02*
X178196085Y-120728520D01*
X178196085Y-120728520D02*
X178242965Y-120810430D01*
X178242965Y-120810430D02*
X178288095Y-120892980D01*
X178288095Y-120892980D02*
X178331875Y-120977440D01*
X178331875Y-120977440D02*
X178373315Y-121062450D01*
X178373315Y-121062450D02*
X178412695Y-121149140D01*
X178412695Y-121149140D02*
X178448865Y-121235390D01*
X178448865Y-121235390D02*
X178482655Y-121323650D01*
X178482655Y-121323650D02*
X178513225Y-121412300D01*
X178513225Y-121412300D02*
X178540785Y-121502450D01*
X178540785Y-121502450D02*
X178567095Y-121595060D01*
X178567095Y-121595060D02*
X178591035Y-121689860D01*
X178591035Y-121689860D02*
X178611955Y-121784290D01*
X178611955Y-121784290D02*
X178630205Y-121879750D01*
X178630205Y-121879750D02*
X178645675Y-121975590D01*
X178645675Y-121975590D02*
X178658305Y-122071180D01*
X178658305Y-122071180D02*
X178668305Y-122167460D01*
X178668305Y-122167460D02*
X178675605Y-122265010D01*
X178675605Y-122265010D02*
X178680105Y-122361410D01*
X178680105Y-122361410D02*
X178682005Y-122458410D01*
X178682005Y-122458410D02*
X178681254Y-122554760D01*
X178681254Y-122554760D02*
X178677854Y-122651420D01*
X178677854Y-122651420D02*
X178671854Y-122748690D01*
X178671854Y-122748690D02*
X178663354Y-122844530D01*
X178663354Y-122844530D02*
X178652194Y-122941680D01*
X178652194Y-122941680D02*
X178638534Y-123038180D01*
X178638534Y-123038180D02*
X178622424Y-123134000D01*
X178622424Y-123134000D02*
X178603874Y-123229320D01*
X178603874Y-123229320D02*
X178582824Y-123324460D01*
X178582824Y-123324460D02*
X178559214Y-123419620D01*
X178559214Y-123419620D02*
X178533544Y-123512900D01*
X178533544Y-123512900D02*
X178505604Y-123605350D01*
X178505604Y-123605350D02*
X178473484Y-123697560D01*
X178473484Y-123697560D02*
X178440744Y-123789660D01*
X178440744Y-123789660D02*
X178407444Y-123881450D01*
X178407444Y-123881450D02*
X178373654Y-123972750D01*
X178373654Y-123972750D02*
X178339434Y-124063380D01*
X178339434Y-124063380D02*
X178304844Y-124153170D01*
X178304844Y-124153170D02*
X178269004Y-124244350D01*
X178269004Y-124244350D02*
X178232974Y-124334190D01*
X178232974Y-124334190D02*
X178195914Y-124424750D01*
X178195914Y-124424750D02*
X178158844Y-124513510D01*
X178158844Y-124513510D02*
X178120984Y-124602380D01*
X178120984Y-124602380D02*
X178082474Y-124690980D01*
X178082474Y-124690980D02*
X178043454Y-124778960D01*
X178043454Y-124778960D02*
X178003294Y-124867710D01*
X178003294Y-124867710D02*
X177962214Y-124956640D01*
X177962214Y-124956640D02*
X177920464Y-125045190D01*
X177920464Y-125045190D02*
X177878294Y-125132830D01*
X177878294Y-125132830D02*
X177835264Y-125220440D01*
X177835264Y-125220440D02*
X177791714Y-125307310D01*
X177791714Y-125307310D02*
X177747374Y-125393960D01*
X177747374Y-125393960D02*
X177702684Y-125479520D01*
X177702684Y-125479520D02*
X177656994Y-125565220D01*
X177656994Y-125565220D02*
X177610944Y-125649830D01*
X177610944Y-125649830D02*
X177563764Y-125734740D01*
X177563764Y-125734740D02*
X177515554Y-125819710D01*
X177515554Y-125819710D02*
X177466714Y-125904000D01*
X177466714Y-125904000D02*
X177417224Y-125987620D01*
X177417224Y-125987620D02*
X177366484Y-126071570D01*
X177366484Y-126071570D02*
X177315654Y-126153890D01*
X177315654Y-126153890D02*
X177263824Y-126236070D01*
X177263824Y-126236070D02*
X177210814Y-126318340D01*
X177210814Y-126318340D02*
X177157654Y-126399090D01*
X177157654Y-126399090D02*
X177103714Y-126479270D01*
X177103714Y-126479270D02*
X177186484Y-126530300D01*
X177186484Y-126530300D02*
X177270074Y-126582780D01*
X177270074Y-126582780D02*
X177352264Y-126635340D01*
X177352264Y-126635340D02*
X177434344Y-126688810D01*
X177434344Y-126688810D02*
X177515804Y-126742880D01*
X177515804Y-126742880D02*
X177597544Y-126798180D01*
X177597544Y-126798180D02*
X177678864Y-126854260D01*
X177678864Y-126854260D02*
X177759134Y-126910700D01*
X177759134Y-126910700D02*
X177838864Y-126967860D01*
X177838864Y-126967860D02*
X177917294Y-127025190D01*
X177917294Y-127025190D02*
X177996494Y-127084230D01*
X177996494Y-127084230D02*
X178075114Y-127144010D01*
X178075114Y-127144010D02*
X178151954Y-127203600D01*
X178151954Y-127203600D02*
X178228664Y-127264270D01*
X178228664Y-127264270D02*
X178304604Y-127325520D01*
X178304604Y-127325520D02*
X178380844Y-127388240D01*
X178380844Y-127388240D02*
X178456074Y-127451360D01*
X178456074Y-127451360D02*
X178529774Y-127514430D01*
X178529774Y-127514430D02*
X178603324Y-127578600D01*
X178603324Y-127578600D02*
X178676944Y-127644090D01*
X178676944Y-127644090D02*
X178749234Y-127709650D01*
X178749234Y-127709650D02*
X178821064Y-127776060D01*
X178821064Y-127776060D02*
X178890794Y-127843290D01*
X178890794Y-127843290D02*
X178959994Y-127911360D01*
X178959994Y-127911360D02*
X179028484Y-127980130D01*
X179028484Y-127980130D02*
X179096114Y-128049470D01*
X179096114Y-128049470D02*
X179163684Y-128120240D01*
X179163684Y-128120240D02*
X179230924Y-128192240D01*
X179230924Y-128192240D02*
X179296724Y-128264290D01*
X179296724Y-128264290D02*
X179361794Y-128337180D01*
X179361794Y-128337180D02*
X179425914Y-128410690D01*
X179425914Y-128410690D02*
X179489624Y-128485480D01*
X179489624Y-128485480D02*
X179552604Y-128561250D01*
X179552604Y-128561250D02*
X179614574Y-128637700D01*
X179614574Y-128637700D02*
X179675274Y-128714520D01*
X179675274Y-128714520D02*
X179734484Y-128791420D01*
X179734484Y-128791420D02*
X179793064Y-128869560D01*
X179793064Y-128869560D02*
X179850614Y-128948460D01*
X179850614Y-128948460D02*
X179906784Y-129027650D01*
X179906784Y-129027650D02*
X179962114Y-129107940D01*
X179962114Y-129107940D02*
X180016134Y-129188680D01*
X180016134Y-129188680D02*
X180069874Y-129271490D01*
X180069874Y-129271490D02*
X180121924Y-129354290D01*
X180121924Y-129354290D02*
X180173014Y-129438250D01*
X180173014Y-129438250D02*
X180222924Y-129523090D01*
X180222924Y-129523090D02*
X180270864Y-129607470D01*
X180270864Y-129607470D02*
X180317834Y-129693150D01*
X180317834Y-129693150D02*
X180363404Y-129779410D01*
X180363404Y-129779410D02*
X180408154Y-129867460D01*
X180408154Y-129867460D02*
X180451264Y-129955770D01*
X180451264Y-129955770D02*
X180492434Y-130043680D01*
X180492434Y-130043680D02*
X180532394Y-130132780D01*
X180532394Y-130132780D02*
X180571214Y-130223350D01*
X180571214Y-130223350D02*
X180608124Y-130313620D01*
X180608124Y-130313620D02*
X180643544Y-130404650D01*
X180643544Y-130404650D02*
X180677684Y-130498610D01*
X180677684Y-130498610D02*
X180709684Y-130592620D01*
X180709684Y-130592620D02*
X180739874Y-130687600D01*
X180739874Y-130687600D02*
X180768004Y-130782750D01*
X180768004Y-130782750D02*
X180794264Y-130878610D01*
X180794264Y-130878610D02*
X180818404Y-130974200D01*
X180818404Y-130974200D02*
X180829974Y-131023050D01*
X180829974Y-131023050D02*
X180841024Y-131072000D01*
X180841024Y-131072000D02*
X180861474Y-131169280D01*
X180861474Y-131169280D02*
X180879934Y-131266640D01*
X180879934Y-131266640D02*
X180896554Y-131364940D01*
X180896554Y-131364940D02*
X180911184Y-131463320D01*
X180911184Y-131463320D02*
X180923844Y-131561760D01*
X180923844Y-131561760D02*
X180929444Y-131611560D01*
X180929444Y-131611560D02*
X180934644Y-131661410D01*
X180934644Y-131661410D02*
X180943344Y-131759930D01*
X180943344Y-131759930D02*
X180950144Y-131859080D01*
X180950144Y-131859080D02*
X180952844Y-131909080D01*
X180952844Y-131909080D02*
X180955044Y-131959110D01*
X180955044Y-131959110D02*
X180957944Y-132058050D01*
X180957944Y-132058050D02*
X180958911Y-132157030D01*
X180958911Y-132157030D02*
X180966611Y-132254150D01*
X180966611Y-132254150D02*
X180969111Y-132353210D01*
X180969111Y-132353210D02*
X180967811Y-132451390D01*
X180967811Y-132451390D02*
X180964111Y-132548840D01*
X180964111Y-132548840D02*
X180959111Y-132646940D01*
X180959111Y-132646940D02*
X180954111Y-132744570D01*
X180954111Y-132744570D02*
X180950311Y-132843160D01*
X180950311Y-132843160D02*
X180948911Y-132941440D01*
X180948911Y-132941440D02*
X180951311Y-133040780D01*
X180951311Y-133040780D02*
X180959011Y-133138370D01*
X180959011Y-133138370D02*
X180965411Y-133234470D01*
X180965411Y-133234470D02*
X180969711Y-133329940D01*
X180969711Y-133329940D02*
X180971911Y-133426110D01*
X180971911Y-133426110D02*
X180972026Y-133522580D01*
X180972026Y-133522580D02*
X180970026Y-133617720D01*
X180970026Y-133617720D02*
X180965926Y-133713510D01*
X180965926Y-133713510D02*
X180959726Y-133809030D01*
X180959726Y-133809030D02*
X180951326Y-133904240D01*
X180951326Y-133904240D02*
X180940796Y-133999090D01*
X180940796Y-133999090D02*
X180927916Y-134094680D01*
X180927916Y-134094680D02*
X180912746Y-134189950D01*
X180912746Y-134189950D02*
X180895636Y-134282880D01*
X180895636Y-134282880D02*
X180875886Y-134377070D01*
X180875886Y-134377070D02*
X180853876Y-134470210D01*
X180853876Y-134470210D02*
X180835386Y-134567610D01*
X180835386Y-134567610D02*
X180814956Y-134663860D01*
X180814956Y-134663860D02*
X180792706Y-134758790D01*
X180792706Y-134758790D02*
X180768086Y-134854770D01*
X180768086Y-134854770D02*
X180741866Y-134948930D01*
X180741866Y-134948930D02*
X180713476Y-135043450D01*
X180713476Y-135043450D02*
X180683406Y-135136810D01*
X180683406Y-135136810D02*
X180651826Y-135228760D01*
X180651826Y-135228760D02*
X180618526Y-135320070D01*
X180618526Y-135320070D02*
X180582956Y-135412260D01*
X180582956Y-135412260D02*
X180546066Y-135502920D01*
X180546066Y-135502920D02*
X180507346Y-135593430D01*
X180507346Y-135593430D02*
X180467076Y-135683220D01*
X180467076Y-135683220D02*
X180425546Y-135771780D01*
X180425546Y-135771780D02*
X180382396Y-135860000D01*
X180382396Y-135860000D02*
X180338006Y-135947180D01*
X180338006Y-135947180D02*
X180292166Y-136033850D01*
X180292166Y-136033850D02*
X180245376Y-136119160D01*
X180245376Y-136119160D02*
X180196436Y-136205350D01*
X180196436Y-136205350D02*
X180146726Y-136290020D01*
X180146726Y-136290020D02*
X180095986Y-136373750D01*
X180095986Y-136373750D02*
X180043796Y-136457300D01*
X180043796Y-136457300D02*
X179990636Y-136539960D01*
X179990636Y-136539960D02*
X179936546Y-136621750D01*
X179936546Y-136621750D02*
X179880906Y-136703660D01*
X179880906Y-136703660D02*
X179825066Y-136783780D01*
X179825066Y-136783780D02*
X179768056Y-136863590D01*
X179768056Y-136863590D02*
X179709746Y-136943310D01*
X179709746Y-136943310D02*
X179651316Y-137021400D01*
X179651316Y-137021400D02*
X179592136Y-137098790D01*
X179592136Y-137098790D02*
X179531086Y-137174800D01*
X179531086Y-137174800D02*
X179468846Y-137250110D01*
X179468846Y-137250110D02*
X179405566Y-137324580D01*
X179405566Y-137324580D02*
X179341406Y-137398060D01*
X179341406Y-137398060D02*
X179275586Y-137471460D01*
X179275586Y-137471460D02*
X179208336Y-137544520D01*
X179208336Y-137544520D02*
X179140776Y-137616070D01*
X179140776Y-137616070D02*
X179072196Y-137686910D01*
X179072196Y-137686910D02*
X179002826Y-137756820D01*
X179002826Y-137756820D02*
X178932086Y-137826430D01*
X178932086Y-137826430D02*
X178861086Y-137894670D01*
X178861086Y-137894670D02*
X178789286Y-137962110D01*
X178789286Y-137962110D02*
X178716246Y-138029170D01*
X178716246Y-138029170D02*
X178643096Y-138094860D01*
X178643096Y-138094860D02*
X178568746Y-138160180D01*
X178568746Y-138160180D02*
X178493686Y-138224720D01*
X178493686Y-138224720D02*
X178418386Y-138288100D01*
X178418386Y-138288100D02*
X178342116Y-138350980D01*
X178342116Y-138350980D02*
X178265516Y-138412850D01*
X178265516Y-138412850D02*
X178189216Y-138473260D01*
X178189216Y-138473260D02*
X178111806Y-138533340D01*
X178111806Y-138533340D02*
X178034256Y-138592360D01*
X178034256Y-138592360D02*
X177955786Y-138650940D01*
X177955786Y-138650940D02*
X177876116Y-138709290D01*
X177876116Y-138709290D02*
X177796906Y-138766220D01*
X177796906Y-138766220D02*
X177715846Y-138823390D01*
X177715846Y-138823390D02*
X177634546Y-138879670D01*
X177634546Y-138879670D02*
X177553006Y-138935080D01*
X177553006Y-138935080D02*
X177471056Y-138989750D01*
X177471056Y-138989750D02*
X177388386Y-139043910D01*
X177388386Y-139043910D02*
X177304786Y-139097700D01*
X177304786Y-139097700D02*
X177221896Y-139150080D01*
X177221896Y-139150080D02*
X177138786Y-139201680D01*
X177138786Y-139201680D02*
X177055746Y-139252320D01*
X177055746Y-139252320D02*
X176972056Y-139302430D01*
X176972056Y-139302430D02*
X176887906Y-139351900D01*
X176887906Y-139351900D02*
X176803476Y-139400630D01*
X176803476Y-139400630D02*
X176717736Y-139449210D01*
X176717736Y-139449210D02*
X176632146Y-139496820D01*
X176632146Y-139496820D02*
X176545736Y-139544010D01*
X176545736Y-139544010D02*
X176459896Y-139590030D01*
X176459896Y-139590030D02*
X176372656Y-139635940D01*
X176372656Y-139635940D02*
X176285416Y-139681000D01*
X176285416Y-139681000D02*
X176198456Y-139725080D01*
X176198456Y-139725080D02*
X176111066Y-139768560D01*
X176111066Y-139768560D02*
X176021786Y-139812140D01*
X176021786Y-139812140D02*
X175932966Y-139854680D01*
X175932966Y-139854680D02*
X175843266Y-139896810D01*
X175843266Y-139896810D02*
X175754836Y-139937540D01*
X175754836Y-139937540D02*
X175664976Y-139978130D01*
X175664976Y-139978130D02*
X175574456Y-140018210D01*
X175574456Y-140018210D02*
X175484026Y-140057450D01*
X175484026Y-140057450D02*
X175394396Y-140095560D01*
X175394396Y-140095560D02*
X175303896Y-140133260D01*
X175303896Y-140133260D02*
X175213656Y-140170080D01*
X175213656Y-140170080D02*
X175122736Y-140206400D01*
X175122736Y-140206400D02*
X175030816Y-140242330D01*
X175030816Y-140242330D02*
X174939776Y-140277140D01*
X174939776Y-140277140D02*
X174846966Y-140311840D01*
X174846966Y-140311840D02*
X174754216Y-140345730D01*
X174754216Y-140345730D02*
X174661506Y-140378820D01*
X174661506Y-140378820D02*
X174568636Y-140411180D01*
X174568636Y-140411180D02*
X174475236Y-140442930D01*
X174475236Y-140442930D02*
X174381046Y-140474150D01*
X174381046Y-140474150D02*
X174287916Y-140504230D01*
X174287916Y-140504230D02*
X174194776Y-140533530D01*
X174194776Y-140533530D02*
X174101016Y-140565220D01*
X174101016Y-140565220D02*
X174007316Y-140596130D01*
X174007316Y-140596130D02*
X173913776Y-140626240D01*
X173913776Y-140626240D02*
X173818646Y-140656110D01*
X173818646Y-140656110D02*
X173723926Y-140685100D01*
X173723926Y-140685100D02*
X173629696Y-140713220D01*
X173629696Y-140713220D02*
X173534336Y-140740950D01*
X173534336Y-140740950D02*
X173486226Y-140754670D01*
X173486226Y-140754670D02*
X173438056Y-140768220D01*
X173438056Y-140768220D02*
X173342686Y-140794520D01*
X173342686Y-140794520D02*
X173246716Y-140820280D01*
X173246716Y-140820280D02*
X173150346Y-140845450D01*
X173150346Y-140845450D02*
X173055256Y-140869610D01*
X173055256Y-140869610D02*
X172958626Y-140893480D01*
X172958626Y-140893480D02*
X172862166Y-140916640D01*
X172862166Y-140916640D02*
X172766066Y-140939050D01*
X172766066Y-140939050D02*
X172669186Y-140960990D01*
X172669186Y-140960990D02*
X172573096Y-140982110D01*
X172573096Y-140982110D02*
X172475516Y-141002920D01*
X172475516Y-141002920D02*
X172379226Y-141022830D01*
X172379226Y-141022830D02*
X172282106Y-141042290D01*
X172282106Y-141042290D02*
X172184566Y-141061220D01*
X172184566Y-141061220D02*
X172086986Y-141079550D01*
X172086986Y-141079550D02*
X171989756Y-141097220D01*
X171989756Y-141097220D02*
X171891346Y-141114510D01*
X171891346Y-141114510D02*
X171794176Y-141131000D01*
X171794176Y-141131000D02*
X171696856Y-141146940D01*
X171696856Y-141146940D02*
X171599966Y-141162250D01*
X171599966Y-141162250D02*
X171502516Y-141177100D01*
X171502516Y-141177100D02*
X171405296Y-141191370D01*
X171405296Y-141191370D02*
X171306376Y-141205330D01*
X171306376Y-141205330D02*
X171208256Y-141218640D01*
X171208256Y-141218640D02*
X171109536Y-141231500D01*
X171109536Y-141231500D02*
X171010556Y-141243860D01*
X171010556Y-141243860D02*
X170912866Y-141255540D01*
X170912866Y-141255540D02*
X170814426Y-141266800D01*
X170814426Y-141266800D02*
X170716076Y-141277550D01*
X170716076Y-141277550D02*
X170666276Y-141282750D01*
X170666276Y-141282750D02*
X170616436Y-141287950D01*
X170616436Y-141287950D02*
X170517246Y-141297750D01*
X170517246Y-141297750D02*
X170419236Y-141306950D01*
X170419236Y-141306950D02*
X170320626Y-141315750D01*
X170320626Y-141315750D02*
X170221126Y-141324150D01*
X170221126Y-141324150D02*
X170122666Y-141332050D01*
X170122666Y-141332050D02*
X170024096Y-141339450D01*
X170024096Y-141339450D02*
X169929636Y-141348050D01*
X169929636Y-141348050D02*
X169834316Y-141355350D01*
X169834316Y-141355350D02*
X169738396Y-141361550D01*
X169738396Y-141361550D02*
X169642676Y-141366950D01*
X169642676Y-141366950D02*
X169547146Y-141371850D01*
X169547146Y-141371850D02*
X169450656Y-141376650D01*
X169450656Y-141376650D02*
X169355436Y-141381550D01*
X169355436Y-141381550D02*
X169259746Y-141386950D01*
X169259746Y-141386950D02*
X169163306Y-141393250D01*
X169163306Y-141393250D02*
X169067986Y-141400550D01*
X169067986Y-141400550D02*
X168972666Y-141409250D01*
X168972666Y-141409250D02*
X168880676Y-141409250D01*
X168880676Y-141409250D02*
X168788656Y-141409250D01*
X168788656Y-141409250D02*
X168696526Y-141409250D01*
X168696526Y-141409250D02*
X168604926Y-141409250D01*
X168604926Y-141409250D02*
X168512886Y-141409250D01*
X168512886Y-141409250D02*
X168419576Y-141409250D01*
X168419576Y-141409250D02*
X168327186Y-141409250D01*
X168327186Y-141409250D02*
X168233596Y-141409250D01*
X168233596Y-141409250D02*
X168141376Y-141409250D01*
X168141376Y-141409250D02*
X168047866Y-141409250D01*
X168047866Y-141409250D02*
X167956276Y-141409250D01*
X167956276Y-141409250D02*
X167861806Y-141400550D01*
X167861806Y-141400550D02*
X167766486Y-141393250D01*
X167766486Y-141393250D02*
X167670556Y-141386950D01*
X167670556Y-141386950D02*
X167574836Y-141381550D01*
X167574836Y-141381550D02*
X167479306Y-141376550D01*
X167479306Y-141376550D02*
X167382816Y-141371750D01*
X167382816Y-141371750D02*
X167287596Y-141366850D01*
X167287596Y-141366850D02*
X167191906Y-141361450D01*
X167191906Y-141361450D02*
X167095466Y-141355150D01*
X167095466Y-141355150D02*
X167000146Y-141347850D01*
X167000146Y-141347850D02*
X166904826Y-141339150D01*
X166904826Y-141339150D02*
X166807286Y-141331150D01*
X166807286Y-141331150D02*
X166710226Y-141322750D01*
X166710226Y-141322750D02*
X166613736Y-141313850D01*
X166613736Y-141313850D02*
X166516096Y-141304350D01*
X166516096Y-141304350D02*
X166419296Y-141294450D01*
X166419296Y-141294450D02*
X166321706Y-141283990D01*
X166321706Y-141283990D02*
X166225196Y-141273140D01*
X166225196Y-141273140D02*
X166128236Y-141261740D01*
X166128236Y-141261740D02*
X166031026Y-141249810D01*
X166031026Y-141249810D02*
X165933776Y-141237370D01*
X165933776Y-141237370D02*
X165836676Y-141224440D01*
X165836676Y-141224440D02*
X165739926Y-141211050D01*
X165739926Y-141211050D02*
X165643706Y-141197230D01*
X165643706Y-141197230D02*
X165546876Y-141182810D01*
X165546876Y-141182810D02*
X165449746Y-141167830D01*
X165449746Y-141167830D02*
X165353846Y-141152530D01*
X165353846Y-141152530D02*
X165256966Y-141136560D01*
X165256966Y-141136560D02*
X165161796Y-141120360D01*
X165161796Y-141120360D02*
X165066296Y-141103600D01*
X165066296Y-141103600D02*
X164970856Y-141086340D01*
X164970856Y-141086340D02*
X164874866Y-141068460D01*
X164874866Y-141068460D02*
X164778836Y-141050050D01*
X164778836Y-141050050D02*
X164682356Y-141031020D01*
X164682356Y-141031020D02*
X164586036Y-141011490D01*
X164586036Y-141011490D02*
X164490436Y-140991570D01*
X164490436Y-140991570D02*
X164394586Y-140971070D01*
X164394586Y-140971070D02*
X164299276Y-140950150D01*
X164299276Y-140950150D02*
X164203916Y-140928680D01*
X164203916Y-140928680D02*
X164109456Y-140906870D01*
X164109456Y-140906870D02*
X164014536Y-140884420D01*
X164014536Y-140884420D02*
X163920506Y-140861640D01*
X163920506Y-140861640D02*
X163825806Y-140838150D01*
X163825806Y-140838150D02*
X163730706Y-140814010D01*
X163730706Y-140814010D02*
X163636026Y-140789410D01*
X163636026Y-140789410D02*
X163541736Y-140764350D01*
X163541736Y-140764350D02*
X163446716Y-140738530D01*
X163446716Y-140738530D02*
X163353166Y-140712540D01*
X163353166Y-140712540D02*
X163259386Y-140685920D01*
X163259386Y-140685920D02*
X163165106Y-140658580D01*
X163165106Y-140658580D02*
X163072166Y-140631050D01*
X163072166Y-140631050D02*
X162979476Y-140603020D01*
X162979476Y-140603020D02*
X162885916Y-140573510D01*
X162885916Y-140573510D02*
X162793536Y-140543830D01*
X162793536Y-140543830D02*
X162700856Y-140513500D01*
X162700856Y-140513500D02*
X162608076Y-140482560D01*
X162608076Y-140482560D02*
X162515406Y-140451070D01*
X162515406Y-140451070D02*
X162423026Y-140419080D01*
X162423026Y-140419080D02*
X162331136Y-140386640D01*
X162331136Y-140386640D02*
X162239906Y-140353810D01*
X162239906Y-140353810D02*
X162148246Y-140320190D01*
X162148246Y-140320190D02*
X162056466Y-140285870D01*
X162056466Y-140285870D02*
X161966016Y-140251380D01*
X161966016Y-140251380D02*
X161874806Y-140215920D01*
X161874806Y-140215920D02*
X161784316Y-140180040D01*
X161784316Y-140180040D02*
X161694796Y-140143840D01*
X161694796Y-140143840D02*
X161605506Y-140107020D01*
X161605506Y-140107020D02*
X161514966Y-140068940D01*
X161514966Y-140068940D02*
X161425546Y-140030570D01*
X161425546Y-140030570D02*
X161335906Y-139991320D01*
X161335906Y-139991320D02*
X161246596Y-139951420D01*
X161246596Y-139951420D02*
X161158156Y-139911100D01*
X161158156Y-139911100D02*
X161069686Y-139869940D01*
X161069686Y-139869940D02*
X160981916Y-139828270D01*
X160981916Y-139828270D02*
X160894306Y-139785820D01*
X160894306Y-139785820D02*
X160807736Y-139743010D01*
X160807736Y-139743010D02*
X160719946Y-139698690D01*
X160719946Y-139698690D02*
X160632446Y-139653590D01*
X160632446Y-139653590D02*
X160546606Y-139608420D01*
X160546606Y-139608420D02*
X160460636Y-139562230D01*
X160460636Y-139562230D02*
X160375266Y-139515400D01*
X160375266Y-139515400D02*
X160290486Y-139467910D01*
X160290486Y-139467910D02*
X160205296Y-139419170D01*
X160205296Y-139419170D02*
X160121666Y-139370310D01*
X160121666Y-139370310D02*
X160038076Y-139320430D01*
X160038076Y-139320430D02*
X159954296Y-139269370D01*
X159954296Y-139269370D02*
X159871966Y-139218100D01*
X159871966Y-139218100D02*
X159790106Y-139166040D01*
X159790106Y-139166040D02*
X159706436Y-139113210D01*
X159706436Y-139113210D02*
X159623426Y-139059720D01*
X159623426Y-139059720D02*
X159541236Y-139005690D01*
X159541236Y-139005690D02*
X159460016Y-138951240D01*
X159460016Y-138951240D02*
X159378876Y-138895760D01*
X159378876Y-138895760D02*
X159298076Y-138839430D01*
X159298076Y-138839430D02*
X159218836Y-138783110D01*
X159218836Y-138783110D02*
X159139426Y-138725580D01*
X159139426Y-138725580D02*
X159060216Y-138667080D01*
X159060216Y-138667080D02*
X158981536Y-138607840D01*
X158981536Y-138607840D02*
X158903706Y-138548110D01*
X158903706Y-138548110D02*
X158827016Y-138488130D01*
X158827016Y-138488130D02*
X158750336Y-138427010D01*
X158750336Y-138427010D02*
X158674156Y-138365110D01*
X158674156Y-138365110D02*
X158598936Y-138302820D01*
X158598936Y-138302820D02*
X158523936Y-138239510D01*
X158523936Y-138239510D02*
X158449776Y-138175700D01*
X158449776Y-138175700D02*
X158376026Y-138111000D01*
X158376026Y-138111000D02*
X158303426Y-138046070D01*
X158303426Y-138046070D02*
X158230096Y-137979200D01*
X158230096Y-137979200D02*
X158158096Y-137912230D01*
X158158096Y-137912230D02*
X158086956Y-137844730D01*
X158086956Y-137844730D02*
X158016046Y-137776090D01*
X158016046Y-137776090D02*
X157945996Y-137706900D01*
X157945996Y-137706900D02*
X157876796Y-137637140D01*
X157876796Y-137637140D02*
X157807646Y-137565980D01*
X157807646Y-137565980D02*
X157740166Y-137495070D01*
X157740166Y-137495070D02*
X157673136Y-137423140D01*
X157673136Y-137423140D02*
X157606396Y-137349970D01*
X157606396Y-137349970D02*
X157541256Y-137276990D01*
X157541256Y-137276990D02*
X157476956Y-137203360D01*
X157476956Y-137203360D02*
X157414946Y-137127380D01*
X157414946Y-137127380D02*
X157353846Y-137050660D01*
X157353846Y-137050660D02*
X157292926Y-136972210D01*
X157292926Y-136972210D02*
X157233286Y-136893400D01*
X157233286Y-136893400D02*
X157174246Y-136813300D01*
X157174246Y-136813300D02*
X157116796Y-136733210D01*
X157116796Y-136733210D02*
X157059596Y-136651230D01*
X157059596Y-136651230D02*
X157004316Y-136569700D01*
X157004316Y-136569700D02*
X156949746Y-136486840D01*
X156949746Y-136486840D02*
X156896166Y-136402990D01*
X156896166Y-136402990D02*
X156843826Y-136318500D01*
X156843826Y-136318500D02*
X156792946Y-136233700D01*
X156792946Y-136233700D02*
X156743726Y-136148930D01*
X156743726Y-136148930D02*
X156695436Y-136062910D01*
X156695436Y-136062910D02*
X156648416Y-135976160D01*
X156648416Y-135976160D02*
X156602966Y-135889220D01*
X156602966Y-135889220D02*
X156558656Y-135801200D01*
X156558656Y-135801200D02*
X156515866Y-135712820D01*
X156515866Y-135712820D02*
X156473816Y-135622320D01*
X156473816Y-135622320D02*
X156453276Y-135576670D01*
X156453276Y-135576670D02*
X156433106Y-135530830D01*
X156433106Y-135530830D02*
X156394236Y-135439470D01*
X156394236Y-135439470D02*
X156356826Y-135347300D01*
X156356826Y-135347300D02*
X156321466Y-135255800D01*
X156321466Y-135255800D02*
X156287426Y-135163060D01*
X156287426Y-135163060D02*
X156255046Y-135069860D01*
X156255046Y-135069860D02*
X156223916Y-134974900D01*
X156223916Y-134974900D02*
X156194626Y-134879840D01*
X156194626Y-134879840D02*
X156167376Y-134785400D01*
X156167376Y-134785400D02*
X156141676Y-134689870D01*
X156141676Y-134689870D02*
X156117516Y-134592960D01*
X156117516Y-134592960D02*
X156095386Y-134496560D01*
X156095386Y-134496560D02*
X156075026Y-134399550D01*
X156075026Y-134399550D02*
X155978916Y-134399550D01*
X155978916Y-134399550D02*
X155881026Y-134399550D01*
X155881026Y-134399550D02*
X155783016Y-134399550D01*
X155783016Y-134399550D02*
X155686426Y-134399550D01*
X155686426Y-134399550D02*
X155589226Y-134399550D01*
X155589226Y-134399550D02*
X155492236Y-134399550D01*
X155492236Y-134399550D02*
X155395436Y-134399550D01*
X155395436Y-134399550D02*
X155297656Y-134399550D01*
X155297656Y-134399550D02*
X155201166Y-134399550D01*
X155201166Y-134399550D02*
X155104206Y-134399550D01*
X155104206Y-134399550D02*
X155006486Y-134399550D01*
X155006486Y-134399550D02*
X154909896Y-134399550D01*
X154909896Y-134399550D02*
X154813306Y-134399550D01*
X154813306Y-134399550D02*
X154714476Y-134396850D01*
X154714476Y-134396850D02*
X154614806Y-134394450D01*
X154614806Y-134394450D02*
X154516206Y-134392350D01*
X154516206Y-134392350D02*
X154417096Y-134390550D01*
X154417096Y-134390550D02*
X154317686Y-134388950D01*
X154317686Y-134388950D02*
X154218176Y-134387650D01*
X154218176Y-134387650D02*
X154118756Y-134386550D01*
X154118756Y-134386550D02*
X154019626Y-134385662D01*
X154019626Y-134385662D02*
X153920976Y-134384983D01*
X153920976Y-134384983D02*
X153821606Y-134384493D01*
X153821606Y-134384493D02*
X153721846Y-134384184D01*
X153721846Y-134384184D02*
X153623256Y-134384048D01*
X153623256Y-134384048D02*
X153523556Y-134384068D01*
X153523556Y-134384068D02*
X153473376Y-134384134D01*
X153473376Y-134384134D02*
X153423186Y-134384235D01*
X153423186Y-134384235D02*
X153323676Y-134384535D01*
X153323676Y-134384535D02*
X153273406Y-134384734D01*
X153273406Y-134384734D02*
X153223136Y-134384961D01*
X153223136Y-134384961D02*
X153173136Y-134385215D01*
X153173136Y-134385215D02*
X153123136Y-134385493D01*
X153123136Y-134385493D02*
X153024026Y-134386116D01*
X153024026Y-134386116D02*
X152924316Y-134386826D01*
X152924316Y-134386826D02*
X152824616Y-134387607D01*
X152824616Y-134387607D02*
X152725516Y-134388441D01*
X152725516Y-134388441D02*
X152625996Y-134389324D01*
X152625996Y-134389324D02*
X152526866Y-134390237D01*
X152526866Y-134390237D02*
X152427516Y-134391173D01*
X152427516Y-134391173D02*
X152328926Y-134392110D01*
X152328926Y-134392110D02*
X152278716Y-134392587D01*
X152278716Y-134392587D02*
X152228506Y-134393060D01*
X152228506Y-134393060D02*
X152178236Y-134393531D01*
X152178236Y-134393531D02*
X152127966Y-134393995D01*
X152127966Y-134393995D02*
X152028886Y-134394887D01*
X152028886Y-134394887D02*
X151929176Y-134395744D01*
X151929176Y-134395744D02*
X151829686Y-134396544D01*
X151829686Y-134396544D02*
X151730386Y-134397277D01*
X151730386Y-134397277D02*
X151680236Y-134397618D01*
X151680236Y-134397618D02*
X151630086Y-134397938D01*
X151630086Y-134397938D02*
X151531106Y-134398498D01*
X151531106Y-134398498D02*
X151431646Y-134398959D01*
X151431646Y-134398959D02*
X151381526Y-134399148D01*
X151381526Y-134399148D02*
X151331406Y-134399305D01*
X151331406Y-134399305D02*
X151232326Y-134399519D01*
X151232326Y-134399519D02*
X151133246Y-134399593D01*
X151133246Y-134399593D02*
X151103856Y-134494053D01*
X151103856Y-134494053D02*
X151073276Y-134588173D01*
X151073276Y-134588173D02*
X151041606Y-134681643D01*
X151041606Y-134681643D02*
X151008596Y-134775203D01*
X151008596Y-134775203D02*
X150974366Y-134868433D01*
X150974366Y-134868433D02*
X150939066Y-134960923D01*
X150939066Y-134960923D02*
X150902846Y-135052293D01*
X150902846Y-135052293D02*
X150865166Y-135143893D01*
X150865166Y-135143893D02*
X150826246Y-135235093D01*
X150826246Y-135235093D02*
X150786326Y-135325323D01*
X150786326Y-135325323D02*
X150745006Y-135415453D01*
X150745006Y-135415453D02*
X150702616Y-135504703D01*
X150702616Y-135504703D02*
X150658896Y-135593583D01*
X150658896Y-135593583D02*
X150614296Y-135681173D01*
X150614296Y-135681173D02*
X150568716Y-135767663D01*
X150568716Y-135767663D02*
X150521676Y-135853923D01*
X150521676Y-135853923D02*
X150472976Y-135940213D01*
X150472976Y-135940213D02*
X150423616Y-136024723D01*
X150423616Y-136024723D02*
X150372136Y-136109883D01*
X150372136Y-136109883D02*
X150319506Y-136193963D01*
X150319506Y-136193963D02*
X150265716Y-136276953D01*
X150265716Y-136276953D02*
X150210636Y-136359003D01*
X150210636Y-136359003D02*
X150154026Y-136440393D01*
X150154026Y-136440393D02*
X150095706Y-136521293D01*
X150095706Y-136521293D02*
X150036806Y-136600093D01*
X150036806Y-136600093D02*
X149976656Y-136677693D01*
X149976656Y-136677693D02*
X149914706Y-136754823D01*
X149914706Y-136754823D02*
X149851786Y-136830973D01*
X149851786Y-136830973D02*
X149787086Y-136907123D01*
X149787086Y-136907123D02*
X149721756Y-136981933D01*
X149721756Y-136981933D02*
X149655956Y-137055293D01*
X149655956Y-137055293D02*
X149588946Y-137128083D01*
X149588946Y-137128083D02*
X149520946Y-137200073D01*
X149520946Y-137200073D02*
X149486246Y-137236123D01*
X149486246Y-137236123D02*
X149451326Y-137271933D01*
X149451326Y-137271933D02*
X149382056Y-137341693D01*
X149382056Y-137341693D02*
X149311686Y-137410883D01*
X149311686Y-137410883D02*
X149240516Y-137479223D01*
X149240516Y-137479223D02*
X149168856Y-137546463D01*
X149168856Y-137546463D02*
X149095566Y-137613683D01*
X149095566Y-137613683D02*
X149021126Y-137680443D01*
X149021126Y-137680443D02*
X148947336Y-137745183D01*
X148947336Y-137745183D02*
X148871956Y-137809923D01*
X148871956Y-137809923D02*
X148795636Y-137874093D01*
X148795636Y-137874093D02*
X148719016Y-137937203D01*
X148719016Y-137937203D02*
X148642716Y-137998793D01*
X148642716Y-137998793D02*
X148565336Y-138060053D01*
X148565336Y-138060053D02*
X148486916Y-138120943D01*
X148486916Y-138120943D02*
X148408586Y-138180623D01*
X148408586Y-138180623D02*
X148329076Y-138240093D01*
X148329076Y-138240093D02*
X148248616Y-138299193D01*
X148248616Y-138299193D02*
X148167916Y-138357423D01*
X148167916Y-138357423D02*
X148086976Y-138414813D01*
X148086976Y-138414813D02*
X148005796Y-138471413D01*
X148005796Y-138471413D02*
X147924216Y-138527363D01*
X147924216Y-138527363D02*
X147841916Y-138582903D01*
X147841916Y-138582903D02*
X147758686Y-138638203D01*
X147758686Y-138638203D02*
X147676156Y-138692193D01*
X147676156Y-138692193D02*
X147593396Y-138745543D01*
X147593396Y-138745543D02*
X147510196Y-138798013D01*
X147510196Y-138798013D02*
X147426976Y-138849563D01*
X147426976Y-138849563D02*
X147343816Y-138900153D01*
X147343816Y-138900153D02*
X147259196Y-138950713D01*
X147259196Y-138950713D02*
X147174856Y-139000203D01*
X147174856Y-139000203D02*
X147089356Y-139049473D01*
X147089356Y-139049473D02*
X147004366Y-139097563D01*
X147004366Y-139097563D02*
X146918496Y-139145273D01*
X146918496Y-139145273D02*
X146833356Y-139191723D01*
X146833356Y-139191723D02*
X146747626Y-139237653D01*
X146747626Y-139237653D02*
X146661476Y-139282973D01*
X146661476Y-139282973D02*
X146575086Y-139327603D01*
X146575086Y-139327603D02*
X146488626Y-139371453D01*
X146488626Y-139371453D02*
X146401026Y-139415083D01*
X146401026Y-139415083D02*
X146312566Y-139458323D01*
X146312566Y-139458323D02*
X146224676Y-139500493D01*
X146224676Y-139500493D02*
X146135276Y-139542603D01*
X146135276Y-139542603D02*
X146046916Y-139583453D01*
X146046916Y-139583453D02*
X145957646Y-139623963D01*
X145957646Y-139623963D02*
X145867836Y-139663963D01*
X145867836Y-139663963D02*
X145777856Y-139703293D01*
X145777856Y-139703293D02*
X145688046Y-139741813D01*
X145688046Y-139741813D02*
X145596996Y-139780143D01*
X145596996Y-139780143D02*
X145506956Y-139817333D01*
X145506956Y-139817333D02*
X145416636Y-139853943D01*
X145416636Y-139853943D02*
X145326576Y-139889773D01*
X145326576Y-139889773D02*
X145235856Y-139925193D01*
X145235856Y-139925193D02*
X145145216Y-139959923D01*
X145145216Y-139959923D02*
X145052846Y-139994643D01*
X145052846Y-139994643D02*
X144961086Y-140028483D01*
X144961086Y-140028483D02*
X144868636Y-140061933D01*
X144868636Y-140061933D02*
X144775796Y-140094883D01*
X144775796Y-140094883D02*
X144684036Y-140126823D01*
X144684036Y-140126823D02*
X144591436Y-140158443D01*
X144591436Y-140158443D02*
X144498786Y-140189483D01*
X144498786Y-140189483D02*
X144404786Y-140220363D01*
X144404786Y-140220363D02*
X144311086Y-140250553D01*
X144311086Y-140250553D02*
X144218366Y-140279853D01*
X144218366Y-140279853D02*
X144124946Y-140308813D01*
X144124946Y-140308813D02*
X144030556Y-140337503D01*
X144030556Y-140337503D02*
X143937026Y-140365383D01*
X143937026Y-140365383D02*
X143843256Y-140392793D01*
X143843256Y-140392793D02*
X143748206Y-140419143D01*
X143748206Y-140419143D02*
X143652216Y-140445233D01*
X143652216Y-140445233D02*
X143603826Y-140458193D01*
X143603826Y-140458193D02*
X143555396Y-140471023D01*
X143555396Y-140471023D02*
X143459066Y-140496163D01*
X143459066Y-140496163D02*
X143363276Y-140520643D01*
X143363276Y-140520643D02*
X143266876Y-140544773D01*
X143266876Y-140544773D02*
X143169976Y-140568513D01*
X143169976Y-140568513D02*
X143121346Y-140580253D01*
X143121346Y-140580253D02*
X143072686Y-140591833D01*
X143072686Y-140591833D02*
X143023906Y-140603333D01*
X143023906Y-140603333D02*
X142975096Y-140614713D01*
X142975096Y-140614713D02*
X142926226Y-140625993D01*
X142926226Y-140625993D02*
X142877316Y-140637123D01*
X142877316Y-140637123D02*
X142828396Y-140648143D01*
X142828396Y-140648143D02*
X142779446Y-140659043D01*
X142779446Y-140659043D02*
X142730526Y-140669803D01*
X142730526Y-140669803D02*
X142681576Y-140680453D01*
X142681576Y-140680453D02*
X142583816Y-140701343D01*
X142583816Y-140701343D02*
X142486246Y-140721693D01*
X142486246Y-140721693D02*
X142388966Y-140741493D01*
X142388966Y-140741493D02*
X142292066Y-140760733D01*
X142292066Y-140760733D02*
X142242926Y-140770333D01*
X142242926Y-140770333D02*
X142193766Y-140779833D01*
X142193766Y-140779833D02*
X142096106Y-140798243D01*
X142096106Y-140798243D02*
X141999176Y-140816043D01*
X141999176Y-140816043D02*
X141901326Y-140833533D01*
X141901326Y-140833533D02*
X141804446Y-140850383D01*
X141804446Y-140850383D02*
X141706976Y-140866863D01*
X141706976Y-140866863D02*
X141609126Y-140882943D01*
X141609126Y-140882943D02*
X141511096Y-140898583D01*
X141511096Y-140898583D02*
X141413086Y-140913753D01*
X141413086Y-140913753D02*
X141315286Y-140928423D01*
X141315286Y-140928423D02*
X141217876Y-140942583D01*
X141217876Y-140942583D02*
X141119696Y-140956393D01*
X141119696Y-140956393D02*
X141021056Y-140969813D01*
X141021056Y-140969813D02*
X140923506Y-140982623D01*
X140923506Y-140982623D02*
X140824806Y-140995133D01*
X140824806Y-140995133D02*
X140775096Y-141001233D01*
X140775096Y-141001233D02*
X140725366Y-141007233D01*
X140725366Y-141007233D02*
X140626726Y-141018823D01*
X140626726Y-141018823D02*
X140576876Y-141024523D01*
X140576876Y-141024523D02*
X140527016Y-141030123D01*
X140527016Y-141030123D02*
X140427776Y-141040873D01*
X140427776Y-141040873D02*
X140329376Y-141051093D01*
X140329376Y-141051093D02*
X140230336Y-141060893D01*
X140230336Y-141060893D02*
X140131256Y-141070293D01*
X140131256Y-141070293D02*
X140032726Y-141079193D01*
X140032726Y-141079193D02*
X139933746Y-141087693D01*
X139933746Y-141087693D02*
X139835116Y-141095693D01*
X139835116Y-141095693D02*
X139736226Y-141103293D01*
X139736226Y-141103293D02*
X139638066Y-141110393D01*
X139638066Y-141110393D02*
X139588066Y-141113893D01*
X139588066Y-141113893D02*
X139538056Y-141117193D01*
X139538056Y-141117193D02*
X139487976Y-141120393D01*
X139487976Y-141120393D02*
X139437886Y-141123593D01*
X139437886Y-141123593D02*
X139339146Y-141129493D01*
X139339146Y-141129493D02*
X139239756Y-141134993D01*
X139239756Y-141134993D02*
X139140566Y-141140093D01*
X139140566Y-141140093D02*
X139041556Y-141144693D01*
X139041556Y-141144693D02*
X138991546Y-141146893D01*
X138991546Y-141146893D02*
X138941526Y-141148893D01*
X138941526Y-141148893D02*
X138842806Y-141152693D01*
X138842806Y-141152693D02*
X138743586Y-141156093D01*
X138743586Y-141156093D02*
X138693586Y-141157693D01*
X138693586Y-141157693D02*
X138643586Y-141159093D01*
X138643586Y-141159093D02*
X138544746Y-141161593D01*
X138544746Y-141161593D02*
X138445906Y-141163693D01*
X138445906Y-141163693D02*
X138347046Y-141165193D01*
X138347046Y-141165193D02*
X138248426Y-141166293D01*
X138248426Y-141166293D02*
X138150106Y-141166855D01*
X138150106Y-141166855D02*
X138050776Y-141166928D01*
X138050776Y-141166928D02*
X137951876Y-141166506D01*
X137951876Y-141166506D02*
X137853456Y-141165595D01*
X137853456Y-141165595D02*
X137754286Y-141164195D01*
X137754286Y-141164195D02*
X137655726Y-141162295D01*
X137655726Y-141162295D02*
X137557816Y-141159895D01*
X137557816Y-141159895D02*
X137459396Y-141156995D01*
X137459396Y-141156995D02*
X137360576Y-141153595D01*
X137360576Y-141153595D02*
X137261456Y-141149695D01*
X137261456Y-141149695D02*
X137162156Y-141145295D01*
X137162156Y-141145295D02*
X137062766Y-141140395D01*
X137062766Y-141140395D02*
X136963406Y-141134995D01*
X136963406Y-141134995D02*
X136864166Y-141129095D01*
X136864166Y-141129095D02*
X136765146Y-141122695D01*
X136765146Y-141122695D02*
X136666436Y-141115795D01*
X136666436Y-141115795D02*
X136568136Y-141108395D01*
X136568136Y-141108395D02*
X136470336Y-141100595D01*
X136470336Y-141100595D02*
X136371256Y-141092195D01*
X136371256Y-141092195D02*
X136272946Y-141083295D01*
X136272946Y-141083295D02*
X136175486Y-141073995D01*
X136175486Y-141073995D02*
X136077226Y-141064095D01*
X136077226Y-141064095D02*
X135980066Y-141053805D01*
X135980066Y-141053805D02*
X135882436Y-141042965D01*
X135882436Y-141042965D02*
X135784556Y-141031585D01*
X135784556Y-141031585D02*
X135686626Y-141019685D01*
X135686626Y-141019685D02*
X135588846Y-141007285D01*
X135588846Y-141007285D02*
X135491406Y-140994415D01*
X135491406Y-140994415D02*
X135394496Y-140981105D01*
X135394496Y-140981105D02*
X135296956Y-140967185D01*
X135296956Y-140967185D02*
X135199096Y-140952695D01*
X135199096Y-140952695D02*
X135102466Y-140937865D01*
X135102466Y-140937865D02*
X135004826Y-140922355D01*
X135004826Y-140922355D02*
X134906606Y-140906215D01*
X134906606Y-140906215D02*
X134809316Y-140889695D01*
X134809316Y-140889695D02*
X134712156Y-140872665D01*
X134712156Y-140872665D02*
X134614526Y-140855005D01*
X134614526Y-140855005D02*
X134517866Y-140836985D01*
X134517866Y-140836985D02*
X134420726Y-140818335D01*
X134420726Y-140818335D02*
X134323706Y-140799155D01*
X134323706Y-140799155D02*
X134227366Y-140779575D01*
X134227366Y-140779575D02*
X134130746Y-140759385D01*
X134130746Y-140759385D02*
X134034616Y-140738755D01*
X134034616Y-140738755D02*
X133938396Y-140717545D01*
X133938396Y-140717545D02*
X133843046Y-140695975D01*
X133843046Y-140695975D02*
X133746056Y-140673475D01*
X133746056Y-140673475D02*
X133650116Y-140650655D01*
X133650116Y-140650655D02*
X133554586Y-140627365D01*
X133554586Y-140627365D02*
X133458596Y-140603395D01*
X133458596Y-140603395D02*
X133362966Y-140578945D01*
X133362966Y-140578945D02*
X133267676Y-140554005D01*
X133267676Y-140554005D02*
X133171576Y-140528275D01*
X133171576Y-140528275D02*
X133076906Y-140502345D01*
X133076906Y-140502345D02*
X132981936Y-140475755D01*
X132981936Y-140475755D02*
X132886396Y-140448405D01*
X132886396Y-140448405D02*
X132792136Y-140420835D01*
X132792136Y-140420835D02*
X132698056Y-140392725D01*
X132698056Y-140392725D02*
X132650016Y-140378655D01*
X132650016Y-140378655D02*
X132602026Y-140364425D01*
X132602026Y-140364425D02*
X132506776Y-140335775D01*
X132506776Y-140335775D02*
X132412336Y-140306795D01*
X132412336Y-140306795D02*
X132317596Y-140277135D01*
X132317596Y-140277135D02*
X132222656Y-140246815D01*
X132222656Y-140246815D02*
X132127636Y-140215855D01*
X132127636Y-140215855D02*
X132080106Y-140200135D01*
X132080106Y-140200135D02*
X132032636Y-140184275D01*
X132032636Y-140184275D02*
X131985166Y-140168265D01*
X131985166Y-140168265D02*
X131937756Y-140152115D01*
X131937756Y-140152115D02*
X131890396Y-140135825D01*
X131890396Y-140135825D02*
X131843096Y-140119385D01*
X131843096Y-140119385D02*
X131795896Y-140102825D01*
X131795896Y-140102825D02*
X131748756Y-140086125D01*
X131748756Y-140086125D02*
X131654826Y-140052365D01*
X131654826Y-140052365D02*
X131561406Y-140018135D01*
X131561406Y-140018135D02*
X131468576Y-139983465D01*
X131468576Y-139983465D02*
X131376426Y-139948385D01*
X131376426Y-139948385D02*
X131283276Y-139912255D01*
X131283276Y-139912255D02*
X131191056Y-139875805D01*
X131191056Y-139875805D02*
X131144586Y-139857175D01*
X131144586Y-139857175D02*
X131098176Y-139838395D01*
X131098176Y-139838395D02*
X131006486Y-139800765D01*
X131006486Y-139800765D02*
X130914466Y-139762295D01*
X130914466Y-139762295D02*
X130823846Y-139723695D01*
X130823846Y-139723695D02*
X130733206Y-139684375D01*
X130733206Y-139684375D02*
X130642746Y-139644405D01*
X130642746Y-139644405D02*
X130552646Y-139603855D01*
X130552646Y-139603855D02*
X130463076Y-139562815D01*
X130463076Y-139562815D02*
X130372946Y-139520755D01*
X130372946Y-139520755D02*
X130327716Y-139499355D01*
X130327716Y-139499355D02*
X130282566Y-139477795D01*
X130282566Y-139477795D02*
X130193396Y-139434635D01*
X130193396Y-139434635D02*
X130104446Y-139390795D01*
X130104446Y-139390795D02*
X130015986Y-139346405D01*
X130015986Y-139346405D02*
X129927246Y-139301065D01*
X129927246Y-139301065D02*
X129838596Y-139254945D01*
X129838596Y-139254945D02*
X129750406Y-139208235D01*
X129750406Y-139208235D02*
X129663016Y-139161105D01*
X129663016Y-139161105D02*
X129576746Y-139113745D01*
X129576746Y-139113745D02*
X129490286Y-139065435D01*
X129490286Y-139065435D02*
X129404186Y-139016455D01*
X129404186Y-139016455D02*
X129318946Y-138967105D01*
X129318946Y-138967105D02*
X129233706Y-138916875D01*
X129233706Y-138916875D02*
X129149156Y-138866165D01*
X129149156Y-138866165D02*
X129106346Y-138840145D01*
X129106346Y-138840145D02*
X129063636Y-138813955D01*
X129063636Y-138813955D02*
X128979306Y-138761545D01*
X128979306Y-138761545D02*
X128894976Y-138708195D01*
X128894976Y-138708195D02*
X128810926Y-138654075D01*
X128810926Y-138654075D02*
X128728486Y-138600045D01*
X128728486Y-138600045D02*
X128645916Y-138544965D01*
X128645916Y-138544965D02*
X128563926Y-138489305D01*
X128563926Y-138489305D02*
X128522606Y-138460875D01*
X128522606Y-138460875D02*
X128481386Y-138432265D01*
X128481386Y-138432265D02*
X128399746Y-138374835D01*
X128399746Y-138374835D02*
X128319586Y-138317445D01*
X128319586Y-138317445D02*
X128239456Y-138259065D01*
X128239456Y-138259065D02*
X128199236Y-138229365D01*
X128199236Y-138229365D02*
X128159126Y-138199495D01*
X128159126Y-138199495D02*
X128080166Y-138139895D01*
X128080166Y-138139895D02*
X128001636Y-138079565D01*
X128001636Y-138079565D02*
X127925796Y-138018365D01*
X127925796Y-138018365D02*
X127850046Y-137956155D01*
X127850046Y-137956155D02*
X127774666Y-137893125D01*
X127774666Y-137893125D02*
X127700806Y-137830235D01*
X127700806Y-137830235D02*
X127626866Y-137766105D01*
X127626866Y-137766105D02*
X127553206Y-137700995D01*
X127553206Y-137700995D02*
X127480166Y-137635165D01*
X127480166Y-137635165D02*
X127408056Y-137568875D01*
X127408056Y-137568875D02*
X127337166Y-137502375D01*
X127337166Y-137502375D02*
X127266456Y-137434675D01*
X127266456Y-137434675D02*
X127196406Y-137366175D01*
X127196406Y-137366175D02*
X127127456Y-137297295D01*
X127127456Y-137297295D02*
X127058946Y-137227325D01*
X127058946Y-137227325D02*
X126991456Y-137156835D01*
X126991456Y-137156835D02*
X126924616Y-137085395D01*
X126924616Y-137085395D02*
X126859116Y-137013715D01*
X126859116Y-137013715D02*
X126793286Y-136939895D01*
X126793286Y-136939895D02*
X126729676Y-136866765D01*
X126729676Y-136866765D02*
X126666436Y-136792175D01*
X126666436Y-136792175D02*
X126603786Y-136716315D01*
X126603786Y-136716315D02*
X126542316Y-136639815D01*
X126542316Y-136639815D02*
X126482026Y-136562665D01*
X126482026Y-136562665D02*
X126422246Y-136483925D01*
X126422246Y-136483925D02*
X126364396Y-136405415D01*
X126364396Y-136405415D02*
X126307446Y-136325725D01*
X126307446Y-136325725D02*
X126251296Y-136244595D01*
X126251296Y-136244595D02*
X126197056Y-136163615D01*
X126197056Y-136163615D02*
X126144106Y-136081835D01*
X126144106Y-136081835D02*
X126092326Y-135997475D01*
X126092326Y-135997475D02*
X126041976Y-135912405D01*
X126041976Y-135912405D02*
X125993176Y-135826835D01*
X125993176Y-135826835D02*
X125946016Y-135740975D01*
X125946016Y-135740975D02*
X125900566Y-135655025D01*
X125900566Y-135655025D02*
X125855796Y-135566975D01*
X125855796Y-135566975D02*
X125813016Y-135479365D01*
X125813016Y-135479365D02*
X125771296Y-135390315D01*
X125771296Y-135390315D02*
X125730866Y-135300215D01*
X125730866Y-135300215D02*
X125691926Y-135209465D01*
X125691926Y-135209465D02*
X125654646Y-135118465D01*
X125654646Y-135118465D02*
X125619166Y-135027585D01*
X125619166Y-135027585D02*
X125584976Y-134935495D01*
X125584976Y-134935495D02*
X125552336Y-134842785D01*
X125552336Y-134842785D02*
X125521456Y-134750035D01*
X125521456Y-134750035D02*
X125492056Y-134656345D01*
X125492056Y-134656345D02*
X125464406Y-134562505D01*
X125464406Y-134562505D02*
X125438366Y-134467965D01*
X125438366Y-134467965D02*
X125414216Y-134373715D01*
X125414216Y-134373715D02*
X125391376Y-134277285D01*
X125391376Y-134277285D02*
X125370766Y-134182415D01*
X125370766Y-134182415D02*
X125351766Y-134086335D01*
X125351766Y-134086335D02*
X125334506Y-133989335D01*
X125334506Y-133989335D02*
X125319186Y-133892265D01*
X125319186Y-133892265D02*
X125305816Y-133795145D01*
X125305816Y-133795145D02*
X125294296Y-133696835D01*
X125294296Y-133696835D02*
X125284896Y-133599645D01*
X125284896Y-133599645D02*
X125277496Y-133501835D01*
X125277496Y-133501835D02*
X125272096Y-133403155D01*
X125272096Y-133403155D02*
X125268896Y-133305555D01*
X125268896Y-133305555D02*
X125267796Y-133207915D01*
X125267796Y-133207915D02*
X125270096Y-133109285D01*
X125270096Y-133109285D02*
X125275396Y-133010135D01*
X125275396Y-133010135D02*
X125280896Y-132911025D01*
X125280896Y-132911025D02*
X125282696Y-132861115D01*
X125282696Y-132861115D02*
X125283383Y-132810935D01*
X125283383Y-132810935D02*
X125282490Y-132761015D01*
X125282490Y-132761015D02*
X125279690Y-132710325D01*
X125279690Y-132710325D02*
X125267840Y-132612095D01*
X125267840Y-132612095D02*
X125264940Y-132515995D01*
X125264940Y-132515995D02*
X125263540Y-132419435D01*
X125263540Y-132419435D02*
X125263756Y-132322745D01*
X125263756Y-132322745D02*
X125265556Y-132226245D01*
X125265556Y-132226245D02*
X125268956Y-132130235D01*
X125268956Y-132130235D02*
X125273856Y-132033925D01*
X125273856Y-132033925D02*
X125280356Y-131937725D01*
X125280356Y-131937725D02*
X125288456Y-131842045D01*
X125288456Y-131842045D02*
X125298256Y-131745385D01*
X125298256Y-131745385D02*
X125309726Y-131648395D01*
X125309726Y-131648395D02*
X125322586Y-131553395D01*
X125322586Y-131553395D02*
X125337216Y-131457485D01*
X125337216Y-131457485D02*
X125353526Y-131361525D01*
X125353526Y-131361525D02*
X125371396Y-131266305D01*
X125371396Y-131266305D02*
X125390926Y-131171285D01*
X125390926Y-131171285D02*
X125411906Y-131077415D01*
X125411906Y-131077415D02*
X125434646Y-130983375D01*
X125434646Y-130983375D02*
X125458816Y-130890525D01*
X125458816Y-130890525D02*
X125484816Y-130797345D01*
X125484816Y-130797345D02*
X125512626Y-130704135D01*
X125512626Y-130704135D02*
X125542006Y-130611705D01*
X125542006Y-130611705D02*
X125572966Y-130520065D01*
X125572966Y-130520065D02*
X125605896Y-130428155D01*
X125605896Y-130428155D02*
X125640026Y-130338125D01*
X125640026Y-130338125D02*
X125675956Y-130248345D01*
X125675956Y-130248345D02*
X125713816Y-130158605D01*
X125713816Y-130158605D02*
X125752876Y-130070665D01*
X125752876Y-130070665D02*
X125793556Y-129983515D01*
X125793556Y-129983515D02*
X125835796Y-129896675D01*
X125835796Y-129896675D02*
X125879166Y-129811155D01*
X125879166Y-129811155D02*
X125924026Y-129726195D01*
X125924026Y-129726195D02*
X125970186Y-129642135D01*
X125970186Y-129642135D02*
X126018446Y-129557585D01*
X126018446Y-129557585D02*
X126067556Y-129474735D01*
X126067556Y-129474735D02*
X126118236Y-129392315D01*
X126118236Y-129392315D02*
X126170176Y-129310825D01*
X126170176Y-129310825D02*
X126223036Y-129230725D01*
X126223036Y-129230725D02*
X126277346Y-129151175D01*
X126277346Y-129151175D02*
X126333476Y-129071665D01*
X126333476Y-129071665D02*
X126390856Y-128993025D01*
X126390856Y-128993025D02*
X126449616Y-128915025D01*
X126449616Y-128915025D02*
X126509046Y-128838575D01*
X126509046Y-128838575D02*
X126569726Y-128762865D01*
X126569726Y-128762865D02*
X126631866Y-128687625D01*
X126631866Y-128687625D02*
X126694196Y-128614315D01*
X126694196Y-128614315D02*
X126757496Y-128541945D01*
X126757496Y-128541945D02*
X126822656Y-128469495D01*
X126822656Y-128469495D02*
X126888536Y-128398225D01*
X126888536Y-128398225D02*
X126954606Y-128328625D01*
X126954606Y-128328625D02*
X127022046Y-128259395D01*
X127022046Y-128259395D02*
X127091056Y-128190335D01*
X127091056Y-128190335D02*
X127160286Y-128122765D01*
X127160286Y-128122765D02*
X127230516Y-128055865D01*
X127230516Y-128055865D02*
X127299646Y-127987515D01*
X127299646Y-127987515D02*
X127370176Y-127919355D01*
X127370176Y-127919355D02*
X127440896Y-127852535D01*
X127440896Y-127852535D02*
X127511656Y-127787145D01*
X127511656Y-127787145D02*
X127584166Y-127721595D01*
X127584166Y-127721595D02*
X127656306Y-127657795D01*
X127656306Y-127657795D02*
X127729686Y-127594285D01*
X127729686Y-127594285D02*
X127803996Y-127531345D01*
X127803996Y-127531345D02*
X127878916Y-127469235D01*
X127878916Y-127469235D02*
X127954136Y-127408185D01*
X127954136Y-127408185D02*
X128030856Y-127347215D01*
X128030856Y-127347215D02*
X128107136Y-127287845D01*
X128107136Y-127287845D02*
X128184066Y-127229195D01*
X128184066Y-127229195D02*
X128262486Y-127170625D01*
X128262486Y-127170625D02*
X128341726Y-127112655D01*
X128341726Y-127112655D02*
X128421136Y-127055735D01*
X128421136Y-127055735D02*
X128500076Y-127000275D01*
X128500076Y-127000275D02*
X128580026Y-126945215D01*
X128580026Y-126945215D02*
X128659986Y-126891225D01*
X128659986Y-126891225D02*
X128740786Y-126837735D01*
X128740786Y-126837735D02*
X128822716Y-126784545D01*
X128822716Y-126784545D02*
X128905546Y-126731815D01*
X128905546Y-126731815D02*
X128988566Y-126679985D01*
X128988566Y-126679985D02*
X129071776Y-126629035D01*
X129071776Y-126629035D02*
X129155186Y-126578935D01*
X129155186Y-126578935D02*
X129238986Y-126529545D01*
X129238986Y-126529545D02*
X129323496Y-126480675D01*
X129323496Y-126480675D02*
X129408966Y-126432175D01*
X129408966Y-126432175D02*
X129493716Y-126384975D01*
X129493716Y-126384975D02*
X129578716Y-126338505D01*
X129578716Y-126338505D02*
X129507976Y-126274815D01*
X129507976Y-126274815D02*
X129436066Y-126210935D01*
X129436066Y-126210935D02*
X129363926Y-126147175D01*
X129363926Y-126147175D02*
X129292466Y-126083845D01*
X129292466Y-126083845D02*
X129220736Y-126019615D01*
X129220736Y-126019615D02*
X129149946Y-125955085D01*
X129149946Y-125955085D02*
X129079696Y-125889435D01*
X129079696Y-125889435D02*
X129011426Y-125823545D01*
X129011426Y-125823545D02*
X128944006Y-125755875D01*
X128944006Y-125755875D02*
X128878366Y-125686835D01*
X128878366Y-125686835D02*
X128814796Y-125616245D01*
X128814796Y-125616245D02*
X128752896Y-125543055D01*
X128752896Y-125543055D02*
X128694426Y-125468815D01*
X128694426Y-125468815D02*
X128638616Y-125392025D01*
X128638616Y-125392025D02*
X128585686Y-125312255D01*
X128585686Y-125312255D02*
X128536986Y-125230895D01*
X128536986Y-125230895D02*
X128492206Y-125146865D01*
X128492206Y-125146865D02*
X128446236Y-125061415D01*
X128446236Y-125061415D02*
X128399986Y-124974945D01*
X128399986Y-124974945D02*
X128354146Y-124888245D01*
X128354146Y-124888245D02*
X128308806Y-124800975D01*
X128308806Y-124800975D02*
X128264716Y-124714065D01*
X128264716Y-124714065D02*
X128221616Y-124626525D01*
X128221616Y-124626525D02*
X128179576Y-124537935D01*
X128179576Y-124537935D02*
X128138936Y-124448415D01*
X128138936Y-124448415D02*
X128100236Y-124358615D01*
X128100236Y-124358615D02*
X128063636Y-124268425D01*
X128063636Y-124268425D02*
X128029306Y-124177725D01*
X128029306Y-124177725D02*
X127997036Y-124085335D01*
X127997036Y-124085335D02*
X127967796Y-123993515D01*
X127967796Y-123993515D02*
X127940946Y-123899665D01*
X127940946Y-123899665D02*
X127917176Y-123805525D01*
X127917176Y-123805525D02*
X127896356Y-123709905D01*
X127896356Y-123709905D02*
X127891656Y-123614035D01*
X127891656Y-123614035D02*
X127891261Y-123518595D01*
X127891261Y-123518595D02*
X127894961Y-123423265D01*
X127894961Y-123423265D02*
X127902761Y-123326925D01*
X127902761Y-123326925D02*
X127914311Y-123231175D01*
X127914311Y-123231175D02*
X127929451Y-123135605D01*
X127929451Y-123135605D02*
X127947921Y-123040415D01*
X127947921Y-123040415D02*
X127969291Y-122946335D01*
X127969291Y-122946335D02*
X127993251Y-122853265D01*
X127993251Y-122853265D02*
X128019501Y-122761115D01*
X128019501Y-122761115D02*
X128048111Y-122668705D01*
X128048111Y-122668705D02*
X128078061Y-122578315D01*
X128078061Y-122578315D02*
X128109891Y-122487405D01*
X128109891Y-122487405D02*
X128142741Y-122397665D01*
X128142741Y-122397665D02*
X128176741Y-122307985D01*
X128176741Y-122307985D02*
X128210491Y-122216025D01*
X128210491Y-122216025D02*
X128246421Y-122124955D01*
X128246421Y-122124955D02*
X128284821Y-122033755D01*
X128284821Y-122033755D02*
X128325261Y-121943155D01*
X128325261Y-121943155D02*
X128367261Y-121853835D01*
X128367261Y-121853835D02*
X128410321Y-121766385D01*
X128410321Y-121766385D02*
X128455081Y-121679095D01*
X128455081Y-121679095D02*
X128500851Y-121592975D01*
X128500851Y-121592975D02*
X128547961Y-121507055D01*
X128547961Y-121507055D02*
X128596461Y-121420975D01*
X128596461Y-121420975D02*
X128645211Y-121336425D01*
X128645211Y-121336425D02*
X128695491Y-121250865D01*
X128695491Y-121250865D02*
X128745491Y-121167065D01*
X128745491Y-121167065D02*
X128796571Y-121082425D01*
X128796571Y-121082425D02*
X128847881Y-120998035D01*
X128847881Y-120998035D02*
X128899481Y-120913485D01*
X128899481Y-120913485D02*
X128950761Y-120829455D01*
X128950761Y-120829455D02*
X129002061Y-120745065D01*
X129002061Y-120745065D02*
X129052931Y-120660735D01*
X129052931Y-120660735D02*
X129100931Y-120575715D01*
X129100931Y-120575715D02*
X129150631Y-120489925D01*
X129150631Y-120489925D02*
X129200541Y-120405105D01*
X129200541Y-120405105D02*
X129250871Y-120320125D01*
X129250871Y-120320125D02*
X129301181Y-120234955D01*
X129301181Y-120234955D02*
X129351021Y-120149565D01*
X129351021Y-120149565D02*
X129399571Y-120064585D01*
X129399571Y-120064585D02*
X129447251Y-119978425D01*
X129447251Y-119978425D02*
X129493131Y-119891815D01*
X129493131Y-119891815D02*
X129537481Y-119803135D01*
X129537481Y-119803135D02*
X129578651Y-119714455D01*
X129578651Y-119714455D02*
X129621331Y-119624945D01*
X129621331Y-119624945D02*
X129663241Y-119534815D01*
X129663241Y-119534815D02*
X129704301Y-119444245D01*
X129704301Y-119444245D02*
X129744451Y-119353435D01*
X129744451Y-119353435D02*
X129783621Y-119262565D01*
X129783621Y-119262565D02*
X129821761Y-119171825D01*
X129821761Y-119171825D02*
X129858821Y-119081395D01*
X129858821Y-119081395D02*
X129895741Y-118989005D01*
X129895741Y-118989005D02*
X129931411Y-118897425D01*
X129931411Y-118897425D02*
X129966661Y-118804545D01*
X129966661Y-118804545D02*
X130000541Y-118712955D01*
X130000541Y-118712955D02*
X130033801Y-118620705D01*
X130033801Y-118620705D02*
X130066311Y-118528175D01*
X130066311Y-118528175D02*
X130098291Y-118434775D01*
X130098291Y-118434775D02*
X130129561Y-118340995D01*
X130129561Y-118340995D02*
X130160271Y-118246435D01*
X130160271Y-118246435D02*
X130190231Y-118151695D01*
X130190231Y-118151695D02*
X130219281Y-118057335D01*
X130219281Y-118057335D02*
X130247731Y-117962405D01*
X130247731Y-117962405D02*
X130275361Y-117867685D01*
X130275361Y-117867685D02*
X130302351Y-117772605D01*
X130302351Y-117772605D02*
X130328451Y-117678115D01*
X130328451Y-117678115D02*
X130354061Y-117582865D01*
X130354061Y-117582865D02*
X130378821Y-117488205D01*
X130378821Y-117488205D02*
X130403151Y-117392585D01*
X130403151Y-117392585D02*
X130426981Y-117296255D01*
X130426981Y-117296255D02*
X130450111Y-117200055D01*
X130450111Y-117200055D02*
X130472571Y-117103965D01*
X130472571Y-117103965D02*
X130494631Y-117006835D01*
X130494631Y-117006835D02*
X130515801Y-116910925D01*
X130515801Y-116910925D02*
X130536481Y-116814505D01*
X130536481Y-116814505D02*
X130556731Y-116717295D01*
X130556731Y-116717295D02*
X130576171Y-116621195D01*
X130576171Y-116621195D02*
X130595051Y-116525085D01*
X130595051Y-116525085D02*
X130616881Y-116431125D01*
X130616881Y-116431125D02*
X130635641Y-116337155D01*
X130635641Y-116337155D02*
X130651811Y-116242285D01*
X130651811Y-116242285D02*
X130665551Y-116147355D01*
X130665551Y-116147355D02*
X130677241Y-116051855D01*
X130677241Y-116051855D02*
X130687041Y-115956805D01*
X130687041Y-115956805D02*
X130695341Y-115862025D01*
X130695341Y-115862025D02*
X130702441Y-115766595D01*
X130702441Y-115766595D02*
X130708641Y-115670225D01*
X130708641Y-115670225D02*
X130714141Y-115574945D01*
X130714141Y-115574945D02*
X130719341Y-115478025D01*
X130719341Y-115478025D02*
X130724441Y-115382765D01*
X130724441Y-115382765D02*
X130729741Y-115287465D01*
X130729741Y-115287465D02*
X130735641Y-115191015D01*
X130735641Y-115191015D02*
X130742341Y-115094455D01*
X130742341Y-115094455D02*
X130750141Y-114998715D01*
X130750141Y-114998715D02*
X130759341Y-114902925D01*
X130759341Y-114902925D02*
X130770251Y-114807725D01*
X130770251Y-114807725D02*
X130683811Y-114839725D01*
X130683811Y-114839725D02*
X130596991Y-114871025D01*
X130596991Y-114871025D02*
X130510491Y-114901355D01*
X130510491Y-114901355D02*
X130422981Y-114931145D01*
X130422981Y-114931145D02*
X130334831Y-114960195D01*
X130334831Y-114960195D02*
X130247091Y-114988095D01*
X130247091Y-114988095D02*
X130159931Y-115014725D01*
X130159931Y-115014725D02*
X130071251Y-115040615D01*
X130071251Y-115040615D02*
X129983151Y-115064995D01*
X129983151Y-115064995D02*
X129894051Y-115088115D01*
X129894051Y-115088115D02*
X129798661Y-115110405D01*
X129798661Y-115110405D02*
X129703171Y-115131285D01*
X129703171Y-115131285D02*
X129607761Y-115150785D01*
X129607761Y-115150785D02*
X129511261Y-115169175D01*
X129511261Y-115169175D02*
X129413991Y-115186415D01*
X129413991Y-115186415D02*
X129317521Y-115202295D01*
X129317521Y-115202295D02*
X129219581Y-115217235D01*
X129219581Y-115217235D02*
X129122951Y-115230865D01*
X129122951Y-115230865D02*
X129025511Y-115243555D01*
X129025511Y-115243555D02*
X128927671Y-115255285D01*
X128927671Y-115255285D02*
X128829821Y-115266065D01*
X128829821Y-115266065D02*
X128732361Y-115275865D01*
X128732361Y-115275865D02*
X128635651Y-115284765D01*
X128635651Y-115284765D02*
X128538231Y-115292965D01*
X128538231Y-115292965D02*
X128440701Y-115300465D01*
X128440701Y-115300465D02*
X128343651Y-115307265D01*
X128343651Y-115307265D02*
X128246091Y-115313465D01*
X128246091Y-115313465D02*
X128148821Y-115319165D01*
X128148821Y-115319165D02*
X128049901Y-115324365D01*
X128049901Y-115324365D02*
X127951851Y-115329065D01*
X127951851Y-115329065D02*
X127853271Y-115333365D01*
X127853271Y-115333365D02*
X127754491Y-115337365D01*
X127754491Y-115337365D02*
X127657081Y-115340965D01*
X127657081Y-115340965D02*
X127559001Y-115344365D01*
X127559001Y-115344365D02*
X127461081Y-115347565D01*
X127461081Y-115347565D02*
X127363311Y-115350565D01*
X127363311Y-115350565D02*
X127264521Y-115353465D01*
X127264521Y-115353465D02*
X127166991Y-115356365D01*
X127166991Y-115356365D02*
X127068961Y-115359265D01*
X127068961Y-115359265D02*
X126970151Y-115362165D01*
X126970151Y-115362165D02*
X126872471Y-115365165D01*
X126872471Y-115365165D02*
X126774791Y-115368365D01*
X126774791Y-115368365D02*
X126724791Y-115368343D01*
X126724791Y-115368343D02*
X126674751Y-115368269D01*
X126674751Y-115368269D02*
X126575791Y-115367954D01*
X126575791Y-115367954D02*
X126476401Y-115367370D01*
X126476401Y-115367370D02*
X126376791Y-115366465D01*
X126376791Y-115366465D02*
X126277191Y-115365165D01*
X126277191Y-115365165D02*
X126177801Y-115363465D01*
X126177801Y-115363465D02*
X126078841Y-115361365D01*
X126078841Y-115361365D02*
X125979131Y-115358665D01*
X125979131Y-115358665D02*
X125929071Y-115357065D01*
X125929071Y-115357065D02*
X125879001Y-115355465D01*
X125879001Y-115355465D02*
X125780061Y-115351665D01*
X125780061Y-115351665D02*
X125730041Y-115349465D01*
X125730041Y-115349465D02*
X125680031Y-115347165D01*
X125680031Y-115347165D02*
X125580531Y-115341965D01*
X125580531Y-115341965D02*
X125481861Y-115336065D01*
X125481861Y-115336065D02*
X125383221Y-115329365D01*
X125383221Y-115329365D02*
X125333081Y-115325665D01*
X125333081Y-115325665D02*
X125282971Y-115321665D01*
X125282971Y-115321665D02*
X125183741Y-115313165D01*
X125183741Y-115313165D02*
X125133871Y-115308565D01*
X125133871Y-115308565D02*
X125084051Y-115303665D01*
X125084051Y-115303665D02*
X125034271Y-115298565D01*
X125034271Y-115298565D02*
X124984531Y-115293165D01*
X124984531Y-115293165D02*
X124885791Y-115281655D01*
X124885791Y-115281655D02*
X124786841Y-115268995D01*
X124786841Y-115268995D02*
X124688491Y-115255235D01*
X124688491Y-115255235D02*
X124590161Y-115240245D01*
X124590161Y-115240245D02*
X124492841Y-115224135D01*
X124492841Y-115224135D02*
X124443381Y-115215435D01*
X124443381Y-115215435D02*
X124394001Y-115206435D01*
X124394001Y-115206435D02*
X124344631Y-115197035D01*
X124344631Y-115197035D02*
X124295341Y-115187235D01*
X124295341Y-115187235D02*
X124198431Y-115166985D01*
X124198431Y-115166985D02*
X124101251Y-115145155D01*
X124101251Y-115145155D02*
X124004641Y-115121865D01*
X124004641Y-115121865D02*
X123955911Y-115109505D01*
X123955911Y-115109505D02*
X123907281Y-115096725D01*
X123907281Y-115096725D02*
X123810901Y-115070105D01*
X123810901Y-115070105D02*
X123716201Y-115042205D01*
X123716201Y-115042205D02*
X123621471Y-115012485D01*
X123621471Y-115012485D02*
X123573901Y-114996855D01*
X123573901Y-114996855D02*
X123526461Y-114980775D01*
X123526461Y-114980775D02*
X123433031Y-114947645D01*
X123433031Y-114947645D02*
X123340091Y-114912695D01*
X123340091Y-114912695D02*
X123292831Y-114895265D01*
X123292831Y-114895265D02*
X123245921Y-114877465D01*
X123245921Y-114877465D02*
X123199121Y-114859185D01*
X123199121Y-114859185D02*
X123152671Y-114840505D01*
X123152671Y-114840505D02*
X123106171Y-114821235D01*
X123106171Y-114821235D02*
X123060021Y-114801525D01*
X123060021Y-114801525D02*
X122969861Y-114761195D01*
X122969861Y-114761195D02*
X122924521Y-114739955D01*
X122924521Y-114739955D02*
X122879551Y-114718205D01*
X122879551Y-114718205D02*
X122790881Y-114673215D01*
X122790881Y-114673215D02*
X122746661Y-114649665D01*
X122746661Y-114649665D02*
X122702811Y-114625535D01*
X122702811Y-114625535D02*
X122617371Y-114576165D01*
X122617371Y-114576165D02*
X122532981Y-114524095D01*
X122532981Y-114524095D02*
X122491021Y-114496885D01*
X122491021Y-114496885D02*
X122449421Y-114469015D01*
X122449421Y-114469015D02*
X122368311Y-114411875D01*
X122368311Y-114411875D02*
X122288661Y-114351935D01*
X122288661Y-114351935D02*
X122214201Y-114291485D01*
X122214201Y-114291485D02*
X122142261Y-114226645D01*
X122142261Y-114226645D02*
X122074541Y-114159195D01*
X122074541Y-114159195D02*
X122010311Y-114088795D01*
X122010311Y-114088795D02*
X121948341Y-114014195D01*
X121948341Y-114014195D02*
X121890241Y-113937485D01*
X121890241Y-113937485D02*
X121835151Y-113857805D01*
X121835151Y-113857805D02*
X121783281Y-113775615D01*
X121783281Y-113775615D02*
X121735381Y-113692475D01*
X121735381Y-113692475D02*
X121690411Y-113606885D01*
X121690411Y-113606885D02*
X121648761Y-113519765D01*
X121648761Y-113519765D02*
X121610911Y-113432535D01*
X121610911Y-113432535D02*
X121576101Y-113343825D01*
X121576101Y-113343825D02*
X121543981Y-113252715D01*
X121543981Y-113252715D02*
X121514961Y-113160285D01*
X121514961Y-113160285D02*
X121489301Y-113067565D01*
X121489301Y-113067565D02*
X121466761Y-112973855D01*
X121466761Y-112973855D02*
X121447501Y-112879925D01*
X121447501Y-112879925D02*
X121448266Y-112787535D01*
X121448266Y-112787535D02*
X121450366Y-112695915D01*
X121450366Y-112695915D02*
X121453566Y-112603205D01*
X121453566Y-112603205D02*
X121457566Y-112510365D01*
X121457566Y-112510365D02*
X121461966Y-112418825D01*
X121461966Y-112418825D02*
X121466666Y-112326985D01*
X121466666Y-112326985D02*
X121471366Y-112233855D01*
X121471366Y-112233855D02*
X121475566Y-112142025D01*
X121475566Y-112142025D02*
X121479166Y-112049045D01*
X121479166Y-112049045D02*
X121481666Y-111955405D01*
X121481666Y-111955405D02*
X121482575Y-111863525D01*
X121482575Y-111863525D02*
X121484375Y-111764085D01*
X121484375Y-111764085D02*
X121489375Y-111664995D01*
X121489375Y-111664995D02*
X121492975Y-111614905D01*
X121492975Y-111614905D02*
X121497275Y-111564575D01*
X121497275Y-111564575D02*
X121507545Y-111465545D01*
X121507545Y-111465545D02*
X121513445Y-111415935D01*
X121513445Y-111415935D02*
X121519945Y-111366265D01*
X121519945Y-111366265D02*
X121533995Y-111268165D01*
X121533995Y-111268165D02*
X121541695Y-111218415D01*
X121541695Y-111218415D02*
X121549795Y-111168755D01*
X121549795Y-111168755D02*
X121566645Y-111070875D01*
X121566645Y-111070875D02*
X121584515Y-110973255D01*
X121584515Y-110973255D02*
X121593915Y-110923675D01*
X121593915Y-110923675D02*
X121603415Y-110874425D01*
X121603415Y-110874425D02*
X121622675Y-110777035D01*
X121622675Y-110777035D02*
X121645625Y-110681735D01*
X121645625Y-110681735D02*
X121669925Y-110586725D01*
X121669925Y-110586725D02*
X121695505Y-110492195D01*
X121695505Y-110492195D02*
X121722285Y-110398325D01*
X121722285Y-110398325D02*
X121750585Y-110303955D01*
X121750585Y-110303955D02*
X121780315Y-110209405D01*
X121780315Y-110209405D02*
X121810965Y-110116195D01*
X121810965Y-110116195D02*
X121843255Y-110022115D01*
X121843255Y-110022115D02*
X121876225Y-109929835D01*
X121876225Y-109929835D02*
X121910575Y-109837325D01*
X121910575Y-109837325D02*
X121946145Y-109744965D01*
X121946145Y-109744965D02*
X121982775Y-109653135D01*
X121982775Y-109653135D02*
X122020295Y-109562175D01*
X122020295Y-109562175D02*
X122058515Y-109472415D01*
X122058515Y-109472415D02*
X122097985Y-109382495D01*
X122097985Y-109382495D02*
X122138445Y-109292975D01*
X122138445Y-109292975D02*
X122179635Y-109204365D01*
X122179635Y-109204365D02*
X122221935Y-109115775D01*
X122221935Y-109115775D02*
X122264995Y-109027915D01*
X122264995Y-109027915D02*
X122309655Y-108939035D01*
X122309655Y-108939035D02*
X122354775Y-108851395D01*
X122354775Y-108851395D02*
X122400965Y-108763745D01*
X122400965Y-108763745D02*
X122448065Y-108676375D01*
X122448065Y-108676375D02*
X122495285Y-108590655D01*
X122495285Y-108590655D02*
X122543585Y-108504775D01*
X122543585Y-108504775D02*
X122592535Y-108419465D01*
X122592535Y-108419465D02*
X122642125Y-108334705D01*
X122642125Y-108334705D02*
X122692935Y-108249475D01*
X122692935Y-108249475D02*
X122743765Y-108165745D01*
X122743765Y-108165745D02*
X122795505Y-108081985D01*
X122795505Y-108081985D02*
X122848295Y-107997965D01*
X122848295Y-107997965D02*
X122901095Y-107915295D01*
X122901095Y-107915295D02*
X122954485Y-107833005D01*
X122954485Y-107833005D02*
X123010205Y-107750015D01*
X123010205Y-107750015D02*
X123038355Y-107708525D01*
X123038355Y-107708525D02*
X123066625Y-107667125D01*
X123066625Y-107667125D02*
X123095055Y-107625785D01*
X123095055Y-107625785D02*
X123123625Y-107584535D01*
X123123625Y-107584535D02*
X123152295Y-107543405D01*
X123152295Y-107543405D02*
X123181085Y-107502365D01*
X123181085Y-107502365D02*
X123238875Y-107420805D01*
X123238875Y-107420805D02*
X123296875Y-107339995D01*
X123296875Y-107339995D02*
X123354965Y-107260075D01*
X123354965Y-107260075D02*
X123384725Y-107219515D01*
X123384725Y-107219515D02*
X123414595Y-107179045D01*
X123414595Y-107179045D02*
X123473975Y-107099325D01*
X123473975Y-107099325D02*
X123504165Y-107059155D01*
X123504165Y-107059155D02*
X123534475Y-107019075D01*
X123534475Y-107019075D02*
X123594395Y-106940515D01*
X123594395Y-106940515D02*
X123655015Y-106861945D01*
X123655015Y-106861945D02*
X123716085Y-106783685D01*
X123716085Y-106783685D02*
X123777345Y-106706045D01*
X123777345Y-106706045D02*
X123808505Y-106666865D01*
X123808505Y-106666865D02*
X123839775Y-106627775D01*
X123839775Y-106627775D02*
X123871325Y-106588545D01*
X123871325Y-106588545D02*
X123902975Y-106549405D01*
X123902975Y-106549405D02*
X123965425Y-106472775D01*
X123965425Y-106472775D02*
X123997195Y-106434105D01*
X123997195Y-106434105D02*
X124029045Y-106395525D01*
X124029045Y-106395525D02*
X124061125Y-106356875D01*
X124061125Y-106356875D02*
X124093295Y-106318325D01*
X124093295Y-106318325D02*
X124157625Y-106241785D01*
X124157625Y-106241785D02*
X124221545Y-106166485D01*
X124221545Y-106166485D02*
X124286245Y-106091005D01*
X124286245Y-106091005D02*
X124318925Y-106053145D01*
X124318925Y-106053145D02*
X124351695Y-106015375D01*
X124351695Y-106015375D02*
X124416955Y-105940685D01*
X124416955Y-105940685D02*
X124483095Y-105865685D01*
X124483095Y-105865685D02*
X124516475Y-105828085D01*
X124516475Y-105828085D02*
X124549935Y-105790575D01*
X124549935Y-105790575D02*
X124583385Y-105753245D01*
X124583385Y-105753245D02*
X124616905Y-105716005D01*
X124616905Y-105716005D02*
X124684005Y-105641945D01*
X124684005Y-105641945D02*
X124751245Y-105568375D01*
X124751245Y-105568375D02*
X124818775Y-105495115D01*
X124818775Y-105495115D02*
X124852795Y-105458445D01*
X124852795Y-105458445D02*
X124886865Y-105421875D01*
X124886865Y-105421875D02*
X124921255Y-105385105D01*
X124921255Y-105385105D02*
X124955705Y-105348435D01*
X124955705Y-105348435D02*
X125023955Y-105276225D01*
X125023955Y-105276225D02*
X125092405Y-105204375D01*
X125092405Y-105204375D02*
X125127455Y-105168605D01*
X125127455Y-105168605D02*
X125162575Y-105132925D01*
X125162575Y-105132925D02*
X125231965Y-105062885D01*
X125231965Y-105062885D02*
X125267345Y-105027405D01*
X125267345Y-105027405D02*
X125302795Y-104992005D01*
X125302795Y-104992005D02*
X125372785Y-104922565D01*
X125372785Y-104922565D02*
X125408415Y-104887445D01*
X125408415Y-104887445D02*
X125444115Y-104852395D01*
X125444115Y-104852395D02*
X125515635Y-104782635D01*
X125515635Y-104782635D02*
X125587305Y-104713315D01*
X125587305Y-104713315D02*
X125659085Y-104644465D01*
X125659085Y-104644465D02*
X125730945Y-104576105D01*
X125730945Y-104576105D02*
X125767365Y-104541675D01*
X125767365Y-104541675D02*
X125803855Y-104507315D01*
X125803855Y-104507315D02*
X125876735Y-104439115D01*
X125876735Y-104439115D02*
X125949555Y-104371525D01*
X125949555Y-104371525D02*
X125986375Y-104337555D01*
X125986375Y-104337555D02*
X126023255Y-104303675D01*
X126023255Y-104303675D02*
X126096785Y-104236515D01*
X126096785Y-104236515D02*
X126170115Y-104170065D01*
X126170115Y-104170065D02*
X126244135Y-104103505D01*
X126244135Y-104103505D02*
X126281425Y-104070175D01*
X126281425Y-104070175D02*
X126318775Y-104036925D01*
X126318775Y-104036925D02*
X126356325Y-104003615D01*
X126356325Y-104003615D02*
X126393945Y-103970385D01*
X126393945Y-103970385D02*
X126468685Y-103904735D01*
X126468685Y-103904735D02*
X126542965Y-103839985D01*
X126542965Y-103839985D02*
X126617595Y-103775405D01*
X126617595Y-103775405D02*
X126692505Y-103711065D01*
X126692505Y-103711065D02*
X126767625Y-103647025D01*
X126767625Y-103647025D02*
X126843675Y-103582665D01*
X126843675Y-103582665D02*
X126882075Y-103550345D01*
X126882075Y-103550345D02*
X126920525Y-103518095D01*
X126920525Y-103518095D02*
X126997285Y-103454075D01*
X126997285Y-103454075D02*
X127073885Y-103390645D01*
X127073885Y-103390645D02*
X127150245Y-103327865D01*
X127150245Y-103327865D02*
X127188965Y-103296195D01*
X127188965Y-103296195D02*
X127227745Y-103264595D01*
X127227745Y-103264595D02*
X127304805Y-103202135D01*
X127304805Y-103202135D02*
X127343735Y-103170745D01*
X127343735Y-103170745D02*
X127382725Y-103139415D01*
X127382725Y-103139415D02*
X127459995Y-103077635D01*
X127459995Y-103077635D02*
X127537865Y-103015805D01*
X127537865Y-103015805D02*
X127616165Y-102954045D01*
X127616165Y-102954045D02*
X127694735Y-102892495D01*
X127694735Y-102892495D02*
X127773415Y-102831265D01*
X127773415Y-102831265D02*
X127852055Y-102770475D01*
X127852055Y-102770475D02*
X127930505Y-102710225D01*
X127930505Y-102710225D02*
X128009695Y-102649795D01*
X128009695Y-102649795D02*
X128089375Y-102589385D01*
X128089375Y-102589385D02*
X128168295Y-102529935D01*
X128168295Y-102529935D02*
X128248265Y-102470065D01*
X128248265Y-102470065D02*
X128288595Y-102440015D01*
X128288595Y-102440015D02*
X128328955Y-102410035D01*
X128328955Y-102410035D02*
X128408215Y-102351435D01*
X128408215Y-102351435D02*
X128487675Y-102293035D01*
X128487675Y-102293035D02*
X128528155Y-102263415D01*
X128528155Y-102263415D02*
X128568675Y-102233865D01*
X128568675Y-102233865D02*
X128649105Y-102175465D01*
X128649105Y-102175465D02*
X128730175Y-102116945D01*
X128730175Y-102116945D02*
X128811395Y-102058665D01*
X128811395Y-102058665D02*
X128892275Y-102000965D01*
X128892275Y-102000965D02*
X128973635Y-101943255D01*
X128973635Y-101943255D02*
X129054815Y-101885995D01*
X129054815Y-101885995D02*
X129136315Y-101828835D01*
X129136315Y-101828835D02*
X129217325Y-101772335D01*
X129217325Y-101772335D02*
X129258635Y-101743645D01*
X129258635Y-101743645D02*
X129299975Y-101715015D01*
X129299975Y-101715015D02*
X129381975Y-101658455D01*
X129381975Y-101658455D02*
X129463875Y-101602265D01*
X129463875Y-101602265D02*
X129546415Y-101545935D01*
X129546415Y-101545935D02*
X129628895Y-101489945D01*
X129628895Y-101489945D02*
X129711335Y-101434275D01*
X129711335Y-101434275D02*
X129753015Y-101406235D01*
X129753015Y-101406235D02*
X129794725Y-101378255D01*
X129794725Y-101378255D02*
X129877125Y-101323175D01*
X129877125Y-101323175D02*
X129960035Y-101268025D01*
X129960035Y-101268025D02*
X130001855Y-101240315D01*
X130001855Y-101240315D02*
X130043705Y-101212655D01*
X130043705Y-101212655D02*
X130126505Y-101158125D01*
X130126505Y-101158125D02*
X130209405Y-101103795D01*
X130209405Y-101103795D02*
X130112395Y-101085725D01*
X130112395Y-101085725D02*
X130017235Y-101064825D01*
X130017235Y-101064825D02*
X129921585Y-101041235D01*
X129921585Y-101041235D02*
X129826425Y-101015575D01*
X129826425Y-101015575D02*
X129731375Y-100988025D01*
X129731375Y-100988025D02*
X129637365Y-100959065D01*
X129637365Y-100959065D02*
X129543495Y-100928555D01*
X129543495Y-100928555D02*
X129464845Y-100887415D01*
X129464845Y-100887415D02*
X129388615Y-100843305D01*
X129388615Y-100843305D02*
X129314565Y-100795095D01*
X129314565Y-100795095D02*
X129243055Y-100741665D01*
X129243055Y-100741665D02*
X129176145Y-100683005D01*
X129176145Y-100683005D02*
X129115005Y-100618415D01*
X129115005Y-100618415D02*
X129062045Y-100548765D01*
X129062045Y-100548765D02*
X129017755Y-100472925D01*
X129017755Y-100472925D02*
X128974395Y-100383225D01*
X128974395Y-100383225D02*
X128953425Y-100337535D01*
X128953425Y-100337535D02*
X128933085Y-100291675D01*
X128933085Y-100291675D02*
X128894395Y-100199755D01*
X128894395Y-100199755D02*
X128858315Y-100107875D01*
X128858315Y-100107875D02*
X128824175Y-100014665D01*
X128824175Y-100014665D02*
X128792105Y-99920755D01*
X128792105Y-99920755D02*
X128776645Y-99873015D01*
X128776645Y-99873015D02*
X128761685Y-99825155D01*
X128761685Y-99825155D02*
X128733535Y-99730225D01*
X128733535Y-99730225D02*
X128719965Y-99681995D01*
X128719965Y-99681995D02*
X128706845Y-99633675D01*
X128706845Y-99633675D02*
X128682145Y-99537905D01*
X128682145Y-99537905D02*
X128658845Y-99441165D01*
X128658845Y-99441165D02*
X128637115Y-99344695D01*
X128637115Y-99344695D02*
X128616605Y-99247525D01*
X128616605Y-99247525D02*
X128606705Y-99198445D01*
X128606705Y-99198445D02*
X128597105Y-99149345D01*
X128597105Y-99149345D02*
X128578965Y-99052205D01*
X128578965Y-99052205D02*
X128570065Y-99002755D01*
X128570065Y-99002755D02*
X128561465Y-98953305D01*
X128561465Y-98953305D02*
X128545135Y-98855985D01*
X128545135Y-98855985D02*
X128529505Y-98758485D01*
X128529505Y-98758485D02*
X128514275Y-98659655D01*
X128514275Y-98659655D02*
X128506875Y-98610065D01*
X128506875Y-98610065D02*
X128499475Y-98560535D01*
X128499475Y-98560535D02*
X128485125Y-98462045D01*
X128485125Y-98462045D02*
X128470945Y-98363285D01*
X128470945Y-98363285D02*
X128456895Y-98264885D01*
X128456895Y-98264885D02*
X128450095Y-98168235D01*
X128450095Y-98168235D02*
X128442495Y-98071045D01*
X128442495Y-98071045D02*
X128434295Y-97975575D01*
X128434295Y-97975575D02*
X128425595Y-97879925D01*
X128425595Y-97879925D02*
X128416295Y-97782925D01*
X128416295Y-97782925D02*
X128406695Y-97686125D01*
X128406695Y-97686125D02*
X128396795Y-97589065D01*
X128396795Y-97589065D02*
X128386895Y-97493585D01*
X128386895Y-97493585D02*
X128377095Y-97398315D01*
X128377095Y-97398315D02*
X128367295Y-97301825D01*
X128367295Y-97301825D02*
X128357695Y-97205685D01*
X128357695Y-97205685D02*
X128348395Y-97108635D01*
X128348395Y-97108635D02*
X128339695Y-97013035D01*
X128339695Y-97013035D02*
X128331395Y-96916175D01*
X128331395Y-96916175D02*
X128323795Y-96819835D01*
X128323795Y-96819835D02*
X128316895Y-96722795D01*
X128316895Y-96722795D02*
X128310395Y-96624555D01*
X128310395Y-96624555D02*
X128304595Y-96526295D01*
X128304595Y-96526295D02*
X128299395Y-96428105D01*
X128299395Y-96428105D02*
X128294795Y-96329045D01*
X128294795Y-96329045D02*
X128290895Y-96230295D01*
X128290895Y-96230295D02*
X128287595Y-96131935D01*
X128287595Y-96131935D02*
X128284895Y-96034065D01*
X128284895Y-96034065D02*
X128282695Y-95934885D01*
X128282695Y-95934885D02*
X128281095Y-95836445D01*
X128281095Y-95836445D02*
X128279995Y-95738835D01*
X128279995Y-95738835D02*
X128279374Y-95640385D01*
X128279374Y-95640385D02*
X128279236Y-95542995D01*
X128279236Y-95542995D02*
X128279554Y-95445105D01*
X128279554Y-95445105D02*
X128280314Y-95346915D01*
X128280314Y-95346915D02*
X128281514Y-95248625D01*
X128281514Y-95248625D02*
X128283114Y-95150435D01*
X128283114Y-95150435D02*
X128285114Y-95052525D01*
X128285114Y-95052525D02*
X128287414Y-94955085D01*
X128287414Y-94955085D02*
X128290114Y-94856945D01*
X128290114Y-94856945D02*
X128293114Y-94758405D01*
X128293114Y-94758405D02*
X128296414Y-94659775D01*
X128296414Y-94659775D02*
X128300014Y-94561355D01*
X128300014Y-94561355D02*
X128303914Y-94462265D01*
X128303914Y-94462265D02*
X128308014Y-94364025D01*
X128308014Y-94364025D02*
X128312414Y-94264775D01*
X128312414Y-94264775D02*
X128317014Y-94166045D01*
X128317014Y-94166045D02*
X128321714Y-94068205D01*
X128321714Y-94068205D02*
X128326614Y-93969775D01*
X128326614Y-93969775D02*
X128331714Y-93871355D01*
X128331714Y-93871355D02*
X128336914Y-93773515D01*
X128336914Y-93773515D02*
X128342214Y-93675275D01*
X128342214Y-93675275D02*
X128347614Y-93577415D01*
X128347614Y-93577415D02*
X128353114Y-93479335D01*
X128353114Y-93479335D02*
X128358614Y-93382015D01*
X128358614Y-93382015D02*
X128364214Y-93282885D01*
X128364214Y-93282885D02*
X128369814Y-93183625D01*
X128369814Y-93183625D02*
X128375414Y-93085815D01*
X128375414Y-93085815D02*
X128381014Y-92987385D01*
X128381014Y-92987385D02*
X128386514Y-92889165D01*
X128386514Y-92889165D02*
X128391914Y-92791135D01*
X128391914Y-92791135D02*
X128397314Y-92692115D01*
X128397314Y-92692115D02*
X128402514Y-92594405D01*
X128402514Y-92594405D02*
X128407614Y-92496215D01*
X128407614Y-92496215D02*
X128412614Y-92397255D01*
X128412614Y-92397255D02*
X128417414Y-92299445D01*
X128417414Y-92299445D02*
X128422014Y-92201635D01*
X128422014Y-92201635D02*
X128434004Y-92110205D01*
X128434004Y-92110205D02*
X128449134Y-92021165D01*
X128449134Y-92021165D02*
X128467854Y-91931155D01*
X128467854Y-91931155D02*
X128489614Y-91842805D01*
X128489614Y-91842805D02*
X128514734Y-91754815D01*
X128514734Y-91754815D02*
X128542844Y-91668625D01*
X128542844Y-91668625D02*
X128574764Y-91582235D01*
X128574764Y-91582235D02*
X128610274Y-91496985D01*
X128610274Y-91496985D02*
X128648584Y-91415055D01*
X128648584Y-91415055D02*
X128691264Y-91333695D01*
X128691264Y-91333695D02*
X128737444Y-91255355D01*
X128737444Y-91255355D02*
X128785574Y-91170405D01*
X128785574Y-91170405D02*
X128841174Y-91089405D01*
X128841174Y-91089405D02*
X128900914Y-91011705D01*
X128900914Y-91011705D02*
X128961654Y-90935545D01*
X128961654Y-90935545D02*
X129020324Y-90859075D01*
X129020324Y-90859075D02*
X129074654Y-90779835D01*
X129074654Y-90779835D02*
X129122974Y-90694585D01*
X129122974Y-90694585D02*
X129155984Y-90606615D01*
X129155984Y-90606615D02*
X129182694Y-90516945D01*
X129182694Y-90516945D02*
X129203494Y-90425725D01*
X129203494Y-90425725D02*
X129218794Y-90333405D01*
X129218794Y-90333405D02*
X129229124Y-90239775D01*
X129229124Y-90239775D02*
X129234924Y-90146895D01*
X129234924Y-90146895D02*
X129236924Y-90052185D01*
X129236924Y-90052185D02*
X129235624Y-89958955D01*
X129235624Y-89958955D02*
X129231724Y-89865615D01*
X129231724Y-89865615D02*
X129225624Y-89771175D01*
X129225624Y-89771175D02*
X129218224Y-89678205D01*
X129218224Y-89678205D02*
X129209924Y-89585355D01*
X129209924Y-89585355D02*
X129201224Y-89491095D01*
X129201224Y-89491095D02*
X129193024Y-89397805D01*
X129193024Y-89397805D02*
X129186624Y-89298305D01*
X129186624Y-89298305D02*
X129183524Y-89248215D01*
X129183524Y-89248215D02*
X129180424Y-89198125D01*
X129180424Y-89198125D02*
X129174524Y-89099215D01*
X129174524Y-89099215D02*
X129168924Y-88999685D01*
X129168924Y-88999685D02*
X129166124Y-88949635D01*
X129166124Y-88949635D02*
X129163524Y-88899585D01*
X129163524Y-88899585D02*
X129158424Y-88800815D01*
X129158424Y-88800815D02*
X129153524Y-88701545D01*
X129153524Y-88701545D02*
X129148824Y-88601825D01*
X129148824Y-88601825D02*
X129146624Y-88551775D01*
X129146624Y-88551775D02*
X129144424Y-88501715D01*
X129144424Y-88501715D02*
X129142324Y-88451495D01*
X129142324Y-88451495D02*
X129140224Y-88401275D01*
X129140224Y-88401275D02*
X129136324Y-88302255D01*
X129136324Y-88302255D02*
X129132624Y-88202965D01*
X129132624Y-88202965D02*
X129129224Y-88103445D01*
X129129224Y-88103445D02*
X129126024Y-88003755D01*
X129126024Y-88003755D02*
X129123024Y-87903945D01*
X129123024Y-87903945D02*
X129120224Y-87804065D01*
X129120224Y-87804065D02*
X129117724Y-87704165D01*
X129117724Y-87704165D02*
X129115424Y-87604305D01*
X129115424Y-87604305D02*
X129113324Y-87504525D01*
X129113324Y-87504525D02*
X129111524Y-87404865D01*
X129111524Y-87404865D02*
X129109924Y-87305385D01*
X129109924Y-87305385D02*
X129108524Y-87206125D01*
X129108524Y-87206125D02*
X129107324Y-87107135D01*
X129107324Y-87107135D02*
X129106808Y-87057095D01*
X129106808Y-87057095D02*
X129106347Y-87007065D01*
X129106347Y-87007065D02*
X129105588Y-86907395D01*
X129105588Y-86907395D02*
X129105042Y-86808175D01*
X129105042Y-86808175D02*
X129104846Y-86758155D01*
X129104846Y-86758155D02*
X129104702Y-86708125D01*
X129104702Y-86708125D02*
X129104570Y-86608645D01*
X129104570Y-86608645D02*
X129104642Y-86509785D01*
X129104642Y-86509785D02*
X129104917Y-86410325D01*
X129104917Y-86410325D02*
X129105394Y-86310385D01*
X129105394Y-86310385D02*
X129105709Y-86260225D01*
X129105709Y-86260225D02*
X129106075Y-86210065D01*
X129106075Y-86210065D02*
X129106946Y-86110655D01*
X129106946Y-86110655D02*
X129108046Y-86012175D01*
X129108046Y-86012175D02*
X129109246Y-85913535D01*
X129109246Y-85913535D02*
X129110646Y-85814835D01*
X129110646Y-85814835D02*
X129112246Y-85716165D01*
X129112246Y-85716165D02*
X129114046Y-85616585D01*
X129114046Y-85616585D02*
X129115025Y-85566415D01*
X129115025Y-85566415D02*
X129116025Y-85516255D01*
X129116025Y-85516255D02*
X129118225Y-85416345D01*
X129118225Y-85416345D02*
X129120625Y-85316945D01*
X129120625Y-85316945D02*
X129123125Y-85218135D01*
X129123125Y-85218135D02*
X129124425Y-85168135D01*
X129124425Y-85168135D02*
X129125825Y-85118145D01*
X129125825Y-85118145D02*
X129128725Y-85019005D01*
X129128725Y-85019005D02*
X129130225Y-84969025D01*
X129130225Y-84969025D02*
X129131825Y-84919045D01*
X129131825Y-84919045D02*
X129135025Y-84820175D01*
X129135025Y-84820175D02*
X129138425Y-84720815D01*
X129138425Y-84720815D02*
X129142025Y-84621165D01*
X129142025Y-84621165D02*
X129145825Y-84521435D01*
X129145825Y-84521435D02*
X129149725Y-84421825D01*
X129149725Y-84421825D02*
X129153825Y-84322525D01*
X129153825Y-84322525D02*
X129158025Y-84223715D01*
X129158025Y-84223715D02*
X129162425Y-84124215D01*
X129162425Y-84124215D02*
X129167025Y-84024345D01*
X129167025Y-84024345D02*
X129171725Y-83925665D01*
X129171725Y-83925665D02*
X129176625Y-83825905D01*
X129176625Y-83825905D02*
X129179125Y-83775695D01*
X129179125Y-83775695D02*
X129181625Y-83725495D01*
X129181625Y-83725495D02*
X129186725Y-83627085D01*
X129186725Y-83627085D02*
X129191925Y-83528645D01*
X129191925Y-83528645D02*
X129194625Y-83478575D01*
X129194625Y-83478575D02*
X129197425Y-83428515D01*
X129197425Y-83428515D02*
X129203025Y-83329315D01*
X129203025Y-83329315D02*
X129208725Y-83229535D01*
X129208725Y-83229535D02*
X129214625Y-83129785D01*
X129214625Y-83129785D02*
X129220625Y-83030665D01*
X129220625Y-83030665D02*
X129226725Y-82931155D01*
X129226725Y-82931155D02*
X129232925Y-82832065D01*
X129232925Y-82832065D02*
X129239325Y-82732775D01*
X129239325Y-82732775D02*
X129245825Y-82634275D01*
X129245825Y-82634275D02*
X129249125Y-82584125D01*
X129249125Y-82584125D02*
X129252525Y-82533975D01*
X129252525Y-82533975D02*
X129259325Y-82434645D01*
X129259325Y-82434645D02*
X129266225Y-82335625D01*
X129266225Y-82335625D02*
X129273225Y-82236015D01*
X129273225Y-82236015D02*
X129280325Y-82136655D01*
X129280325Y-82136655D02*
X129287525Y-82037515D01*
X129287525Y-82037515D02*
X129291225Y-81987455D01*
X129291225Y-81987455D02*
X129294925Y-81937405D01*
X129294925Y-81937405D02*
X129302325Y-81838645D01*
X129302325Y-81838645D02*
X129309925Y-81739425D01*
X129309925Y-81739425D02*
X129313725Y-81689445D01*
X129313725Y-81689445D02*
X129317525Y-81639465D01*
X129317525Y-81639465D02*
X129325225Y-81540705D01*
X129325225Y-81540705D02*
X129333025Y-81441975D01*
X129333025Y-81441975D02*
X129235895Y-81441834D01*
X129235895Y-81441834D02*
X129138595Y-81441402D01*
X129138595Y-81441402D02*
X129041225Y-81440667D01*
X129041225Y-81440667D02*
X128943895Y-81439667D01*
X128943895Y-81439667D02*
X128846695Y-81438267D01*
X128846695Y-81438267D02*
X128749725Y-81436567D01*
X128749725Y-81436567D02*
X128651105Y-81434467D01*
X128651105Y-81434467D02*
X128552995Y-81431967D01*
X128552995Y-81431967D02*
X128455485Y-81429167D01*
X128455485Y-81429167D02*
X128356835Y-81425967D01*
X128356835Y-81425967D02*
X128259045Y-81422367D01*
X128259045Y-81422367D02*
X128160465Y-81418267D01*
X128160465Y-81418267D02*
X128062995Y-81413767D01*
X128062995Y-81413767D02*
X127965075Y-81408867D01*
X127965075Y-81408867D02*
X127866915Y-81403467D01*
X127866915Y-81403467D02*
X127768715Y-81397567D01*
X127768715Y-81397567D02*
X127670675Y-81391267D01*
X127670675Y-81391267D02*
X127572985Y-81384467D01*
X127572985Y-81384467D02*
X127475835Y-81377167D01*
X127475835Y-81377167D02*
X127378055Y-81369367D01*
X127378055Y-81369367D02*
X127279965Y-81360967D01*
X127279965Y-81360967D02*
X127183115Y-81352167D01*
X127183115Y-81352167D02*
X127085265Y-81342667D01*
X127085265Y-81342667D02*
X126986845Y-81332527D01*
X126986845Y-81332527D02*
X126890465Y-81322017D01*
X126890465Y-81322017D02*
X126794135Y-81310927D01*
X126794135Y-81310927D02*
X126696235Y-81299037D01*
X126696235Y-81299037D02*
X126599325Y-81286637D01*
X126599325Y-81286637D02*
X126501945Y-81273527D01*
X126501945Y-81273527D02*
X126404685Y-81259777D01*
X126404685Y-81259777D02*
X126308135Y-81245457D01*
X126308135Y-81245457D02*
X126211305Y-81230407D01*
X126211305Y-81230407D02*
X126114985Y-81214747D01*
X126114985Y-81214747D02*
X126018585Y-81198367D01*
X126018585Y-81198367D02*
X125923055Y-81181417D01*
X125923055Y-81181417D02*
X125825895Y-81163427D01*
X125825895Y-81163427D02*
X125728765Y-81144667D01*
X125728765Y-81144667D02*
X125633195Y-81125447D01*
X125633195Y-81125447D02*
X125537175Y-81105347D01*
X125537175Y-81105347D02*
X125441525Y-81084527D01*
X125441525Y-81084527D02*
X125346225Y-81062977D01*
X125346225Y-81062977D02*
X125250135Y-81040407D01*
X125250135Y-81040407D02*
X125155475Y-81017337D01*
X125155475Y-81017337D02*
X125060525Y-80993337D01*
X125060525Y-80993337D02*
X124965025Y-80968317D01*
X124965025Y-80968317D02*
X124870815Y-80942747D01*
X124870815Y-80942747D02*
X124776785Y-80916337D01*
X124776785Y-80916337D02*
X124682945Y-80889617D01*
X124682945Y-80889617D02*
X124588975Y-80862887D01*
X124588975Y-80862887D02*
X124494475Y-80835837D01*
X124494475Y-80835837D02*
X124400515Y-80808577D01*
X124400515Y-80808577D02*
X124305925Y-80780567D01*
X124305925Y-80780567D02*
X124213185Y-80752357D01*
X124213185Y-80752357D02*
X124119715Y-80722977D01*
X124119715Y-80722977D02*
X124027555Y-80692887D01*
X124027555Y-80692887D02*
X123934155Y-80661037D01*
X123934155Y-80661037D02*
X123842765Y-80628327D01*
X123842765Y-80628327D02*
X123751835Y-80594037D01*
X123751835Y-80594037D02*
X123660395Y-80557547D01*
X123660395Y-80557547D02*
X123569545Y-80519017D01*
X123569545Y-80519017D02*
X123480235Y-80478617D01*
X123480235Y-80478617D02*
X123391755Y-80435797D01*
X123391755Y-80435797D02*
X123304785Y-80390627D01*
X123304785Y-80390627D02*
X123219165Y-80349437D01*
X123219165Y-80349437D02*
X123133765Y-80305787D01*
X123133765Y-80305787D02*
X123049385Y-80260007D01*
X123049385Y-80260007D02*
X122966735Y-80212467D01*
X122966735Y-80212467D02*
X122885335Y-80162877D01*
X122885335Y-80162877D02*
X122806015Y-80111747D01*
X122806015Y-80111747D02*
X122726755Y-80057697D01*
X122726755Y-80057697D02*
X122648985Y-80001597D01*
X122648985Y-80001597D02*
X122573925Y-79944357D01*
X122573925Y-79944357D02*
X122500025Y-79884807D01*
X122500025Y-79884807D02*
X122427945Y-79823427D01*
X122427945Y-79823427D02*
X122356745Y-79759347D01*
X122356745Y-79759347D02*
X122287725Y-79693657D01*
X122287725Y-79693657D02*
X122221365Y-79626897D01*
X122221365Y-79626897D02*
X122156475Y-79557877D01*
X122156475Y-79557877D02*
X122092935Y-79486357D01*
X122092935Y-79486357D02*
X122031995Y-79413727D01*
X122031995Y-79413727D02*
X121972945Y-79339177D01*
X121972945Y-79339177D02*
X121912395Y-79261017D01*
X121912395Y-79261017D02*
X121856175Y-79180067D01*
X121856175Y-79180067D02*
X121803985Y-79096277D01*
X121803985Y-79096277D02*
X121755725Y-79009817D01*
X121755725Y-79009817D02*
X121711405Y-78921167D01*
X121711405Y-78921167D02*
X121670695Y-78830167D01*
X121670695Y-78830167D02*
X121634175Y-78738867D01*
X121634175Y-78738867D02*
X121601075Y-78646287D01*
X121601075Y-78646287D02*
X121570795Y-78551297D01*
X121570795Y-78551297D02*
X121543695Y-78455737D01*
X121543695Y-78455737D02*
X121519705Y-78360527D01*
X121519705Y-78360527D02*
X121498175Y-78264117D01*
X121498175Y-78264117D02*
X121478905Y-78166397D01*
X121478905Y-78166397D02*
X121462065Y-78069447D01*
X121462065Y-78069447D02*
X121447235Y-77972317D01*
X121447235Y-77972317D02*
X121448935Y-77878877D01*
X121448935Y-77878877D02*
X121453935Y-77786007D01*
X121453935Y-77786007D02*
X121462235Y-77693677D01*
X121462235Y-77693677D02*
X121473955Y-77600777D01*
X121473955Y-77600777D02*
X121488705Y-77509667D01*
X121488705Y-77509667D02*
X121506835Y-77417837D01*
X121506835Y-77417837D02*
X121527975Y-77327077D01*
X121527975Y-77327077D02*
X121552305Y-77236317D01*
X121552305Y-77236317D02*
X121571925Y-77139517D01*
X121571925Y-77139517D02*
X121593235Y-77043077D01*
X121593235Y-77043077D02*
X121604685Y-76994337D01*
X121604685Y-76994337D02*
X121616535Y-76945727D01*
X121616535Y-76945727D02*
X121641395Y-76849237D01*
X121641395Y-76849237D02*
X121667715Y-76753777D01*
X121667715Y-76753777D02*
X121695385Y-76659517D01*
X121695385Y-76659517D02*
X121725095Y-76564097D01*
X121725095Y-76564097D02*
X121755935Y-76470367D01*
X121755935Y-76470367D02*
X121788585Y-76376167D01*
X121788585Y-76376167D02*
X121822495Y-76283007D01*
X121822495Y-76283007D02*
X121857515Y-76191137D01*
X121857515Y-76191137D02*
X121893885Y-76099787D01*
X121893885Y-76099787D02*
X121932215Y-76007437D01*
X121932215Y-76007437D02*
X121971485Y-75916497D01*
X121971485Y-75916497D02*
X122012255Y-75825587D01*
X122012255Y-75825587D02*
X122054245Y-75735267D01*
X122054245Y-75735267D02*
X122097165Y-75646067D01*
X122097165Y-75646067D02*
X122141415Y-75557077D01*
X122141415Y-75557077D02*
X122186605Y-75469017D01*
X122186605Y-75469017D02*
X122232965Y-75381337D01*
X122232965Y-75381337D02*
X122280005Y-75294907D01*
X122280005Y-75294907D02*
X122328355Y-75208477D01*
X122328355Y-75208477D02*
X122377305Y-75123267D01*
X122377305Y-75123267D02*
X122427635Y-75037867D01*
X122427635Y-75037867D02*
X122479195Y-74952507D01*
X122479195Y-74952507D02*
X122531515Y-74867927D01*
X122531515Y-74867927D02*
X122584565Y-74784097D01*
X122584565Y-74784097D02*
X122611665Y-74741977D01*
X122611665Y-74741977D02*
X122638965Y-74700007D01*
X122638965Y-74700007D02*
X122693415Y-74617617D01*
X122693415Y-74617617D02*
X122748855Y-74535407D01*
X122748855Y-74535407D02*
X122805435Y-74453147D01*
X122805435Y-74453147D02*
X122862005Y-74372427D01*
X122862005Y-74372427D02*
X122919195Y-74292287D01*
X122919195Y-74292287D02*
X122977995Y-74212467D01*
X122977995Y-74212467D02*
X123037515Y-74132937D01*
X123037515Y-74132937D02*
X123097645Y-74053867D01*
X123097645Y-74053867D02*
X123158255Y-73975407D01*
X123158255Y-73975407D02*
X123219235Y-73897687D01*
X123219235Y-73897687D02*
X123281345Y-73819757D01*
X123281345Y-73819757D02*
X123312795Y-73780747D01*
X123312795Y-73780747D02*
X123344385Y-73741877D01*
X123344385Y-73741877D02*
X123407345Y-73665297D01*
X123407345Y-73665297D02*
X123470905Y-73589147D01*
X123470905Y-73589147D02*
X123534885Y-73513657D01*
X123534885Y-73513657D02*
X123599845Y-73438157D01*
X123599845Y-73438157D02*
X123665535Y-73362957D01*
X123665535Y-73362957D02*
X123731685Y-73288347D01*
X123731685Y-73288347D02*
X123798035Y-73214617D01*
X123798035Y-73214617D02*
X123831765Y-73177547D01*
X123831765Y-73177547D02*
X123865635Y-73140597D01*
X123865635Y-73140597D02*
X123932815Y-73068107D01*
X123932815Y-73068107D02*
X124000535Y-72996077D01*
X124000535Y-72996077D02*
X124069525Y-72923747D01*
X124069525Y-72923747D02*
X124138145Y-72852827D01*
X124138145Y-72852827D02*
X124208045Y-72781597D01*
X124208045Y-72781597D02*
X124278515Y-72710797D01*
X124278515Y-72710797D02*
X124314065Y-72675457D01*
X124314065Y-72675457D02*
X124349745Y-72640227D01*
X124349745Y-72640227D02*
X124420885Y-72570717D01*
X124420885Y-72570717D02*
X124492665Y-72501547D01*
X124492665Y-72501547D02*
X124528935Y-72466957D01*
X124528935Y-72466957D02*
X124565345Y-72432467D01*
X124565345Y-72432467D02*
X124637465Y-72364847D01*
X124637465Y-72364847D02*
X124709955Y-72297767D01*
X124709955Y-72297767D02*
X124746835Y-72263987D01*
X124746835Y-72263987D02*
X124783845Y-72230307D01*
X124783845Y-72230307D02*
X124857845Y-72163627D01*
X124857845Y-72163627D02*
X124931395Y-72098207D01*
X124931395Y-72098207D02*
X125005835Y-72032837D01*
X125005835Y-72032837D02*
X125081395Y-71967337D01*
X125081395Y-71967337D02*
X125156615Y-71902957D01*
X125156615Y-71902957D02*
X125232355Y-71838937D01*
X125232355Y-71838937D02*
X125305755Y-71775467D01*
X125305755Y-71775467D02*
X125379605Y-71712307D01*
X125379605Y-71712307D02*
X125453745Y-71649567D01*
X125453745Y-71649567D02*
X125528015Y-71587357D01*
X125528015Y-71587357D02*
X125603335Y-71524907D01*
X125603335Y-71524907D02*
X125679445Y-71462407D01*
X125679445Y-71462407D02*
X125755105Y-71400857D01*
X125755105Y-71400857D02*
X125831145Y-71339557D01*
X125831145Y-71339557D02*
X125907315Y-71278677D01*
X125907315Y-71278677D02*
X125984285Y-71217667D01*
X125984285Y-71217667D02*
X126061735Y-71156777D01*
X126061735Y-71156777D02*
X126139325Y-71096237D01*
X126139325Y-71096237D02*
X126216755Y-71036267D01*
X126216755Y-71036267D02*
X126293725Y-70977057D01*
X126293725Y-70977057D02*
X126371385Y-70917717D01*
X126371385Y-70917717D02*
X126449245Y-70858587D01*
X126449245Y-70858587D02*
X126526835Y-70800009D01*
X126526835Y-70800009D02*
X126604935Y-70741373D01*
X126604935Y-70741373D02*
X126682905Y-70683139D01*
X126682905Y-70683139D02*
X126762285Y-70624141D01*
X126762285Y-70624141D02*
X126841055Y-70565861D01*
X126841055Y-70565861D02*
X126920335Y-70507452D01*
X126920335Y-70507452D02*
X126999835Y-70449102D01*
X126999835Y-70449102D02*
X127078305Y-70391713D01*
X127078305Y-70391713D02*
X127157365Y-70334066D01*
X127157365Y-70334066D02*
X127236345Y-70276638D01*
X127236345Y-70276638D02*
X127315255Y-70219403D01*
X127315255Y-70219403D02*
X127395035Y-70161659D01*
X127395035Y-70161659D02*
X127473815Y-70104733D01*
X127473815Y-70104733D02*
X127553035Y-70047574D01*
X127553035Y-70047574D02*
X127632905Y-69990003D01*
X127632905Y-69990003D02*
X127711875Y-69933125D01*
X127711875Y-69933125D02*
X127790855Y-69876258D01*
X127790855Y-69876258D02*
X127871015Y-69820397D01*
X127871015Y-69820397D02*
X127952275Y-69764264D01*
X127952275Y-69764264D02*
X128033005Y-69708989D01*
X128033005Y-69708989D02*
X128114555Y-69653626D01*
X128114555Y-69653626D02*
X128195365Y-69599227D01*
X128195365Y-69599227D02*
X128276735Y-69544905D01*
X128276735Y-69544905D02*
X128358485Y-69490767D01*
X128358485Y-69490767D02*
X128440455Y-69436915D01*
X128440455Y-69436915D02*
X128522485Y-69383446D01*
X128522485Y-69383446D02*
X128604415Y-69330450D01*
X128604415Y-69330450D02*
X128687255Y-69277264D01*
X128687255Y-69277264D02*
X128770745Y-69224057D01*
X128770745Y-69224057D02*
X128853535Y-69171676D01*
X128853535Y-69171676D02*
X128936535Y-69119526D01*
X128936535Y-69119526D02*
X129019505Y-69067751D01*
X129019505Y-69067751D02*
X129103175Y-69015883D01*
X129103175Y-69015883D02*
X129187205Y-68964131D01*
X129187205Y-68964131D02*
X129271255Y-68912692D01*
X129271255Y-68912692D02*
X129354995Y-68861751D01*
X129354995Y-68861751D02*
X129438125Y-68811479D01*
X129438125Y-68811479D02*
X129521895Y-68761103D01*
X129521895Y-68761103D02*
X129605795Y-68710923D01*
X129605795Y-68710923D02*
X129689335Y-68661222D01*
X129689335Y-68661222D02*
X129773365Y-68611483D01*
X129773365Y-68611483D02*
X129857195Y-68562096D01*
X129857195Y-68562096D02*
X129942505Y-68512071D01*
X129942505Y-68512071D02*
X130027145Y-68462664D01*
X130027145Y-68462664D02*
X130112305Y-68413157D01*
X130112305Y-68413157D02*
X130197715Y-68363708D01*
X130197715Y-68363708D02*
X130282025Y-68315081D01*
X130282025Y-68315081D02*
X130367005Y-68266242D01*
X130367005Y-68266242D02*
X130451935Y-68217594D01*
X130451935Y-68217594D02*
X130537995Y-68168451D01*
X130537995Y-68168451D02*
X130623695Y-68119657D01*
X130623695Y-68119657D02*
X130708405Y-68071558D01*
X130708405Y-68071558D02*
X130793665Y-68023265D01*
X130793665Y-68023265D02*
X130879735Y-67974626D01*
X130879735Y-67974626D02*
X130964935Y-67926573D01*
X130964935Y-67926573D02*
X131050275Y-67878531D01*
X131050275Y-67878531D02*
X131137685Y-67830679D01*
X131137685Y-67830679D02*
X131225355Y-67782915D01*
X131225355Y-67782915D02*
X131312235Y-67735812D01*
X131312235Y-67735812D02*
X131356295Y-67712012D01*
X131356295Y-67712012D02*
X131400375Y-67688257D01*
X131400375Y-67688257D02*
X131487695Y-67641374D01*
X131487695Y-67641374D02*
X131531945Y-67617705D01*
X131531945Y-67617705D02*
X131576215Y-67594080D01*
X131576215Y-67594080D02*
X131663895Y-67547469D01*
X131663895Y-67547469D02*
X131708285Y-67523956D01*
X131708285Y-67523956D02*
X131752705Y-67500488D01*
X131752705Y-67500488D02*
X131840645Y-67454200D01*
X131840645Y-67454200D02*
X131885135Y-67430868D01*
X131885135Y-67430868D02*
X131929655Y-67407581D01*
X131929655Y-67407581D02*
X132017765Y-67361662D01*
X132017765Y-67361662D02*
X132062315Y-67338534D01*
X132062315Y-67338534D02*
X132106885Y-67315451D01*
X132106885Y-67315451D02*
X132195085Y-67269947D01*
X132195085Y-67269947D02*
X132239645Y-67247044D01*
X132239645Y-67247044D02*
X132284235Y-67224187D01*
X132284235Y-67224187D02*
X132372435Y-67179141D01*
X132372435Y-67179141D02*
X132461525Y-67133874D01*
X132461525Y-67133874D02*
X132549645Y-67089326D01*
X132549645Y-67089326D02*
X132638585Y-67044591D01*
X132638585Y-67044591D02*
X132683435Y-67022123D01*
X132683435Y-67022123D02*
X132728305Y-66999700D01*
X132728305Y-66999700D02*
X132817005Y-66955547D01*
X132817005Y-66955547D02*
X132906415Y-66911269D01*
X132906415Y-66911269D02*
X132951435Y-66889059D01*
X132951435Y-66889059D02*
X132996485Y-66866896D01*
X132996485Y-66866896D02*
X133085485Y-66823278D01*
X133085485Y-66823278D02*
X133175095Y-66779594D01*
X133175095Y-66779594D02*
X133220165Y-66757710D01*
X133220165Y-66757710D02*
X133265255Y-66735871D01*
X133265255Y-66735871D02*
X133354305Y-66692916D01*
X133354305Y-66692916D02*
X133443845Y-66649949D01*
X133443845Y-66649949D02*
X133533835Y-66606996D01*
X133533835Y-66606996D02*
X133579015Y-66585517D01*
X133579015Y-66585517D02*
X133624225Y-66564083D01*
X133624225Y-66564083D02*
X133669585Y-66542636D01*
X133669585Y-66542636D02*
X133714965Y-66521235D01*
X133714965Y-66521235D02*
X133760475Y-66499832D01*
X133760475Y-66499832D02*
X133806015Y-66478477D01*
X133806015Y-66478477D02*
X133895825Y-66436530D01*
X133895825Y-66436530D02*
X133985885Y-66394693D01*
X133985885Y-66394693D02*
X134076155Y-66352988D01*
X134076155Y-66352988D02*
X134166585Y-66311438D01*
X134166585Y-66311438D02*
X134257125Y-66270064D01*
X134257125Y-66270064D02*
X134347735Y-66228887D01*
X134347735Y-66228887D02*
X134438365Y-66187927D01*
X134438365Y-66187927D02*
X134528985Y-66147203D01*
X134528985Y-66147203D02*
X134619535Y-66106734D01*
X134619535Y-66106734D02*
X134665405Y-66086322D01*
X134665405Y-66086322D02*
X134711295Y-66065958D01*
X134711295Y-66065958D02*
X134801575Y-66026066D01*
X134801575Y-66026066D02*
X134892935Y-65985924D01*
X134892935Y-65985924D02*
X134984025Y-65946130D01*
X134984025Y-65946130D02*
X135074805Y-65906698D01*
X135074805Y-65906698D02*
X135166445Y-65867123D01*
X135166445Y-65867123D02*
X135212625Y-65847265D01*
X135212625Y-65847265D02*
X135258835Y-65827454D01*
X135258835Y-65827454D02*
X135350715Y-65788235D01*
X135350715Y-65788235D02*
X135442055Y-65749477D01*
X135442055Y-65749477D02*
X135533935Y-65710718D01*
X135533935Y-65710718D02*
X135580085Y-65691337D01*
X135580085Y-65691337D02*
X135626255Y-65672004D01*
X135626255Y-65672004D02*
X135672575Y-65652666D01*
X135672575Y-65652666D02*
X135718925Y-65633377D01*
X135718925Y-65633377D02*
X135765375Y-65614103D01*
X135765375Y-65614103D02*
X135811845Y-65594879D01*
X135811845Y-65594879D02*
X135903885Y-65556975D01*
X135903885Y-65556975D02*
X135996035Y-65519255D01*
X135996035Y-65519255D02*
X136042605Y-65500280D01*
X136042605Y-65500280D02*
X136089185Y-65481355D01*
X136089185Y-65481355D02*
X136135695Y-65462520D01*
X136135695Y-65462520D02*
X136182225Y-65443736D01*
X136182225Y-65443736D02*
X136228625Y-65425059D01*
X136228625Y-65425059D02*
X136275055Y-65406431D01*
X136275055Y-65406431D02*
X136367595Y-65369472D01*
X136367595Y-65369472D02*
X136459765Y-65332890D01*
X136459765Y-65332890D02*
X136506495Y-65314429D01*
X136506495Y-65314429D02*
X136553245Y-65296019D01*
X136553245Y-65296019D02*
X136646105Y-65259624D01*
X136646105Y-65259624D02*
X136738265Y-65223728D01*
X136738265Y-65223728D02*
X136831295Y-65187724D01*
X136831295Y-65187724D02*
X136923405Y-65152304D01*
X136923405Y-65152304D02*
X137016065Y-65116897D01*
X137016065Y-65116897D02*
X137109085Y-65081581D01*
X137109085Y-65081581D02*
X137202285Y-65046429D01*
X137202285Y-65046429D02*
X137295465Y-65011512D01*
X137295465Y-65011512D02*
X137388455Y-64976896D01*
X137388455Y-64976896D02*
X137481075Y-64942643D01*
X137481075Y-64942643D02*
X137574435Y-64908344D01*
X137574435Y-64908344D02*
X137668245Y-64874111D01*
X137668245Y-64874111D02*
X137761025Y-64840481D01*
X137761025Y-64840481D02*
X137854925Y-64806676D01*
X137854925Y-64806676D02*
X137902215Y-64789736D01*
X137902215Y-64789736D02*
X137949535Y-64772847D01*
X137949535Y-64772847D02*
X138043415Y-64739513D01*
X138043415Y-64739513D02*
X138090865Y-64722753D01*
X138090865Y-64722753D02*
X138138335Y-64706044D01*
X138138335Y-64706044D02*
X138185565Y-64689476D01*
X138185565Y-64689476D02*
X138232825Y-64672960D01*
X138232825Y-64672960D02*
X138326535Y-64640378D01*
X138326535Y-64640378D02*
X138420885Y-64607803D01*
X138420885Y-64607803D02*
X138515305Y-64575438D01*
X138515305Y-64575438D02*
X138609225Y-64543472D01*
X138609225Y-64543472D02*
X138703615Y-64511579D01*
X138703615Y-64511579D02*
X138797705Y-64480017D01*
X138797705Y-64480017D02*
X138892075Y-64448591D01*
X138892075Y-64448591D02*
X138985785Y-64417612D01*
X138985785Y-64417612D02*
X139033535Y-64401913D01*
X139033535Y-64401913D02*
X139081305Y-64386268D01*
X139081305Y-64386268D02*
X139129155Y-64370656D01*
X139129155Y-64370656D02*
X139177015Y-64355098D01*
X139177015Y-64355098D02*
X139271405Y-64324590D01*
X139271405Y-64324590D02*
X139366465Y-64294099D01*
X139366465Y-64294099D02*
X139461375Y-64263885D01*
X139461375Y-64263885D02*
X139556175Y-64233941D01*
X139556175Y-64233941D02*
X139604075Y-64218897D01*
X139604075Y-64218897D02*
X139651995Y-64203907D01*
X139651995Y-64203907D02*
X139746625Y-64174480D01*
X139746625Y-64174480D02*
X139841785Y-64145120D01*
X139841785Y-64145120D02*
X139889765Y-64130405D01*
X139889765Y-64130405D02*
X139937745Y-64115745D01*
X139937745Y-64115745D02*
X140032665Y-64086924D01*
X140032665Y-64086924D02*
X140127645Y-64058315D01*
X140127645Y-64058315D02*
X140175655Y-64043500D01*
X140175655Y-64043500D02*
X140223675Y-64028728D01*
X140223675Y-64028728D02*
X140318175Y-63999806D01*
X140318175Y-63999806D02*
X140366025Y-63985234D01*
X140366025Y-63985234D02*
X140413895Y-63970707D01*
X140413895Y-63970707D02*
X140509385Y-63941879D01*
X140509385Y-63941879D02*
X140604605Y-63913337D01*
X140604605Y-63913337D02*
X140652705Y-63899000D01*
X140652705Y-63899000D02*
X140700805Y-63884709D01*
X140700805Y-63884709D02*
X140796605Y-63856413D01*
X140796605Y-63856413D02*
X140891975Y-63828462D01*
X140891975Y-63828462D02*
X140940025Y-63814461D01*
X140940025Y-63814461D02*
X140988105Y-63800509D01*
X140988105Y-63800509D02*
X141083675Y-63772942D01*
X141083675Y-63772942D02*
X141178655Y-63745770D01*
X141178655Y-63745770D02*
X141274175Y-63718672D01*
X141274175Y-63718672D02*
X141370135Y-63691684D01*
X141370135Y-63691684D02*
X141466435Y-63664841D01*
X141466435Y-63664841D02*
X141514695Y-63651479D01*
X141514695Y-63651479D02*
X141562975Y-63638177D01*
X141562975Y-63638177D02*
X141611305Y-63624919D01*
X141611305Y-63624919D02*
X141659655Y-63611721D01*
X141659655Y-63611721D02*
X141708015Y-63598583D01*
X141708015Y-63598583D02*
X141756385Y-63585505D01*
X141756385Y-63585505D02*
X141804725Y-63572501D01*
X141804725Y-63572501D02*
X141853075Y-63559557D01*
X141853075Y-63559557D02*
X141949625Y-63533905D01*
X141949625Y-63533905D02*
X142045955Y-63508574D01*
X142045955Y-63508574D02*
X142141975Y-63483588D01*
X142141975Y-63483588D02*
X142237595Y-63458970D01*
X142237595Y-63458970D02*
X142286075Y-63446593D01*
X142286075Y-63446593D02*
X142334575Y-63434277D01*
X142334575Y-63434277D02*
X142430905Y-63410025D01*
X142430905Y-63410025D02*
X142479565Y-63397879D01*
X142479565Y-63397879D02*
X142528245Y-63385800D01*
X142528245Y-63385800D02*
X142624695Y-63362080D01*
X142624695Y-63362080D02*
X142721835Y-63338479D01*
X142721835Y-63338479D02*
X142817855Y-63315437D01*
X142817855Y-63315437D02*
X142914245Y-63292596D01*
X142914245Y-63292596D02*
X143010815Y-63270007D01*
X143010815Y-63270007D02*
X143107375Y-63247719D01*
X143107375Y-63247719D02*
X143203745Y-63225777D01*
X143203745Y-63225777D02*
X143301115Y-63203916D01*
X143301115Y-63203916D02*
X143350125Y-63193031D01*
X143350125Y-63193031D02*
X143399165Y-63182218D01*
X143399165Y-63182218D02*
X143496315Y-63161035D01*
X143496315Y-63161035D02*
X143593635Y-63140132D01*
X143593635Y-63140132D02*
X143690845Y-63119574D01*
X143690845Y-63119574D02*
X143739815Y-63109340D01*
X143739815Y-63109340D02*
X143788805Y-63099185D01*
X143788805Y-63099185D02*
X143837945Y-63089083D01*
X143837945Y-63089083D02*
X143887115Y-63079058D01*
X143887115Y-63079058D02*
X143936235Y-63069128D01*
X143936235Y-63069128D02*
X143985375Y-63059278D01*
X143985375Y-63059278D02*
X144083205Y-63039921D01*
X144083205Y-63039921D02*
X144180255Y-63021056D01*
X144180255Y-63021056D02*
X144277985Y-63002398D01*
X144277985Y-63002398D02*
X144375805Y-62984069D01*
X144375805Y-62984069D02*
X144473135Y-62966178D01*
X144473135Y-62966178D02*
X144570965Y-62948544D01*
X144570965Y-62948544D02*
X144668515Y-62931314D01*
X144668515Y-62931314D02*
X144718105Y-62922694D01*
X144718105Y-62922694D02*
X144767725Y-62914164D01*
X144767725Y-62914164D02*
X144866085Y-62897517D01*
X144866085Y-62897517D02*
X144915525Y-62889287D01*
X144915525Y-62889287D02*
X144964995Y-62881147D01*
X144964995Y-62881147D02*
X145014545Y-62873087D01*
X145014545Y-62873087D02*
X145064135Y-62865117D01*
X145064135Y-62865117D02*
X145161935Y-62849667D01*
X145161935Y-62849667D02*
X145260455Y-62834477D01*
X145260455Y-62834477D02*
X145358865Y-62819681D01*
X145358865Y-62819681D02*
X145457185Y-62805278D01*
X145457185Y-62805278D02*
X145506885Y-62798148D01*
X145506885Y-62798148D02*
X145556615Y-62791108D01*
X145556615Y-62791108D02*
X145654835Y-62777488D01*
X145654835Y-62777488D02*
X145753645Y-62764175D01*
X145753645Y-62764175D02*
X145803475Y-62757615D01*
X145803475Y-62757615D02*
X145853335Y-62751145D01*
X145853335Y-62751145D02*
X145951975Y-62738644D01*
X145951975Y-62738644D02*
X146050725Y-62726526D01*
X146050725Y-62726526D02*
X146145035Y-62714373D01*
X146145035Y-62714373D02*
X146238735Y-62703113D01*
X146238735Y-62703113D02*
X146332615Y-62692619D01*
X146332615Y-62692619D02*
X146427175Y-62682829D01*
X146427175Y-62682829D02*
X146521385Y-62673829D01*
X146521385Y-62673829D02*
X146615415Y-62665579D01*
X146615415Y-62665579D02*
X146710155Y-62657999D01*
X146710155Y-62657999D02*
X146805885Y-62651069D01*
X146805885Y-62651069D02*
X146900575Y-62644929D01*
X146900575Y-62644929D02*
X146995415Y-62639489D01*
X146995415Y-62639489D02*
X147090345Y-62634759D01*
X147090345Y-62634759D02*
X147185315Y-62630729D01*
X147185315Y-62630729D02*
X147281425Y-62627379D01*
X147281425Y-62627379D02*
X147377605Y-62624759D01*
X147377605Y-62624759D02*
X147471815Y-62622909D01*
X147471815Y-62622909D02*
X147567695Y-62621769D01*
X147567695Y-62621769D02*
X147662915Y-62621389D01*
X147662915Y-62621389D02*
X147762415Y-62616169D01*
X147762415Y-62616169D02*
X147861315Y-62612169D01*
X147861315Y-62612169D02*
X147960635Y-62609229D01*
X147960635Y-62609229D02*
X148059565Y-62607269D01*
X148059565Y-62607269D02*
X148158715Y-62606169D01*
X148158715Y-62606169D02*
X148257105Y-62605822D01*
X148257105Y-62605822D02*
X148307215Y-62605897D01*
X148307215Y-62605897D02*
X148357325Y-62606124D01*
X148357325Y-62606124D02*
X148407495Y-62606489D01*
X148407495Y-62606489D02*
X148457665Y-62606979D01*
X148457665Y-62606979D02*
X148556545Y-62608259D01*
X148556545Y-62608259D02*
X148656055Y-62609869D01*
X148656055Y-62609869D02*
X148755345Y-62611689D01*
X148755345Y-62611689D02*
X148854435Y-62613619D01*
X148854435Y-62613619D02*
X148904485Y-62614598D01*
X148904485Y-62614598D02*
X148954535Y-62615559D01*
X148954535Y-62615559D02*
X149053315Y-62617369D01*
X149053315Y-62617369D02*
X149152575Y-62618969D01*
X149152575Y-62618969D02*
X149202595Y-62619661D01*
X149202595Y-62619661D02*
X149252615Y-62620259D01*
X149252615Y-62620259D02*
X149351495Y-62621099D01*
X149351495Y-62621099D02*
X149450375Y-62621403D01*
X149450375Y-62621403D02*
X149543195Y-62627603D01*
X149543195Y-62627603D02*
X149635475Y-62627863D01*
X149635475Y-62627863D02*
X149728035Y-62622634D01*
X149728035Y-62622634D02*
X149819155Y-62612723D01*
X149819155Y-62612723D02*
X149910265Y-62598921D01*
X149910265Y-62598921D02*
X150001295Y-62582291D01*
X150001295Y-62582291D02*
X150090265Y-62564524D01*
X150090265Y-62564524D02*
X150180155Y-62546479D01*
X150180155Y-62546479D02*
X150271155Y-62529720D01*
X150271155Y-62529720D02*
X150361635Y-62516253D01*
X150361635Y-62516253D02*
X150361725Y-62516257D01*
X150361725Y-62516257D02*
X150362721Y-62517037D01*
M02*
