G04 #@! TF.FileFunction,Copper,L1,Top,Signal*
%FSLAX46Y46*%
G04 Gerber Fmt 4.6, Leading zero omitted, Abs format (unit mm)*
G04 Created by KiCad (PCBNEW 4.0.7) date 07/17/18 15:25:19*
%MOMM*%
%LPD*%
G01*
G04 APERTURE LIST*
%ADD10C,0.100000*%
%ADD11C,0.010000*%
%ADD12C,6.000000*%
%ADD13C,1.700000*%
%ADD14O,1.700000X1.700000*%
G04 APERTURE END LIST*
D10*
D11*
G36*
X147276992Y-65488118D02*
X148454267Y-65536304D01*
X149269450Y-65594317D01*
X150269477Y-65695406D01*
X151284391Y-65831952D01*
X152308199Y-66002589D01*
X153334912Y-66205947D01*
X154358537Y-66440656D01*
X155373084Y-66705349D01*
X156372562Y-66998656D01*
X157350979Y-67319209D01*
X158254468Y-67647325D01*
X159336573Y-68082519D01*
X160397885Y-68554519D01*
X161438175Y-69063201D01*
X162457216Y-69608442D01*
X163454779Y-70190118D01*
X164430637Y-70808105D01*
X165384562Y-71462280D01*
X165690332Y-71683027D01*
X166584726Y-72361792D01*
X167451656Y-73070076D01*
X168290268Y-73806751D01*
X169099706Y-74570690D01*
X169879117Y-75360764D01*
X170627644Y-76175845D01*
X171344434Y-77014805D01*
X172028632Y-77876515D01*
X172679382Y-78759848D01*
X173295829Y-79663675D01*
X173877120Y-80586867D01*
X174422399Y-81528298D01*
X174930811Y-82486838D01*
X175401502Y-83461360D01*
X175833617Y-84450735D01*
X176226300Y-85453834D01*
X176320241Y-85712300D01*
X176667505Y-86744280D01*
X176975372Y-87788112D01*
X177243686Y-88842107D01*
X177472290Y-89904578D01*
X177661029Y-90973838D01*
X177809745Y-92048200D01*
X177918283Y-93125976D01*
X177986487Y-94205481D01*
X178014200Y-95285027D01*
X178001265Y-96362926D01*
X177947527Y-97437491D01*
X177852830Y-98507036D01*
X177717016Y-99569873D01*
X177646040Y-100023779D01*
X177566431Y-100506097D01*
X177747774Y-100583788D01*
X177879403Y-100642754D01*
X178038030Y-100717928D01*
X178213961Y-100804400D01*
X178397503Y-100897261D01*
X178578963Y-100991601D01*
X178748647Y-101082511D01*
X178896862Y-101165082D01*
X178907560Y-101171213D01*
X179488258Y-101528907D01*
X180051537Y-101924213D01*
X180595269Y-102355267D01*
X181117323Y-102820203D01*
X181615569Y-103317159D01*
X182087879Y-103844269D01*
X182401755Y-104229975D01*
X182489884Y-104346931D01*
X182594092Y-104492087D01*
X182708891Y-104657218D01*
X182828795Y-104834095D01*
X182948316Y-105014491D01*
X183061966Y-105190179D01*
X183164259Y-105352932D01*
X183249708Y-105494522D01*
X183279121Y-105545466D01*
X183612030Y-106173469D01*
X183903856Y-106811186D01*
X184154521Y-107458316D01*
X184363948Y-108114560D01*
X184532059Y-108779616D01*
X184658779Y-109453185D01*
X184744029Y-110134965D01*
X184787734Y-110824656D01*
X184791514Y-111450395D01*
X184775238Y-111870642D01*
X184744200Y-112304104D01*
X184699574Y-112742323D01*
X184642533Y-113176840D01*
X184574249Y-113599195D01*
X184495894Y-114000930D01*
X184408642Y-114373586D01*
X184362514Y-114544715D01*
X184149623Y-115222454D01*
X183900230Y-115881916D01*
X183615508Y-116521786D01*
X183296627Y-117140748D01*
X182944758Y-117737486D01*
X182561072Y-118310686D01*
X182146740Y-118859032D01*
X181702934Y-119381207D01*
X181230824Y-119875897D01*
X180731581Y-120341785D01*
X180206378Y-120777557D01*
X179656383Y-121181896D01*
X179082769Y-121553487D01*
X178486708Y-121891015D01*
X177869368Y-122193163D01*
X177363291Y-122407605D01*
X176692672Y-122652156D01*
X176022732Y-122854825D01*
X175351454Y-123015979D01*
X174676819Y-123135983D01*
X173996812Y-123215203D01*
X173309412Y-123254005D01*
X172690366Y-123254855D01*
X171969812Y-123218175D01*
X171266021Y-123142834D01*
X170577976Y-123028588D01*
X169904656Y-122875191D01*
X169245042Y-122682400D01*
X168598115Y-122449970D01*
X167962855Y-122177657D01*
X167726783Y-122064888D01*
X167166991Y-121772513D01*
X166634830Y-121458106D01*
X166123824Y-121117206D01*
X165664338Y-120772953D01*
X168737657Y-120772953D01*
X168752521Y-120783975D01*
X168800612Y-120807608D01*
X168875666Y-120841223D01*
X168971418Y-120882188D01*
X169081600Y-120927875D01*
X169199947Y-120975651D01*
X169320194Y-121022888D01*
X169436074Y-121066956D01*
X169453270Y-121073343D01*
X169978577Y-121248993D01*
X170529579Y-121397369D01*
X171098160Y-121516672D01*
X171676206Y-121605105D01*
X172021733Y-121642375D01*
X172161630Y-121652320D01*
X172334449Y-121660255D01*
X172531014Y-121666122D01*
X172742148Y-121669864D01*
X172958678Y-121671425D01*
X173171425Y-121670747D01*
X173371216Y-121667773D01*
X173548874Y-121662447D01*
X173695224Y-121654710D01*
X173719167Y-121652929D01*
X174380039Y-121580473D01*
X175030366Y-121468528D01*
X175668159Y-121317698D01*
X176291433Y-121128589D01*
X176898198Y-120901806D01*
X177486469Y-120637953D01*
X178054257Y-120337635D01*
X178070041Y-120328592D01*
X178585249Y-120010114D01*
X179088520Y-119653955D01*
X179574902Y-119264189D01*
X180039440Y-118844889D01*
X180477181Y-118400129D01*
X180655002Y-118203133D01*
X181061133Y-117709516D01*
X181436315Y-117188831D01*
X181778989Y-116644182D01*
X182087597Y-116078677D01*
X182360581Y-115495422D01*
X182596381Y-114897523D01*
X182793439Y-114288086D01*
X182950197Y-113670218D01*
X182965880Y-113597295D01*
X182989934Y-113477598D01*
X183015132Y-113342325D01*
X183040272Y-113199045D01*
X183064150Y-113055329D01*
X183085564Y-112918745D01*
X183103308Y-112796864D01*
X183116182Y-112697255D01*
X183122980Y-112627488D01*
X183123693Y-112604550D01*
X183120251Y-112602294D01*
X183111833Y-112636575D01*
X183099479Y-112702026D01*
X183084227Y-112793282D01*
X183072460Y-112869133D01*
X182953120Y-113519048D01*
X182793130Y-114158167D01*
X182593117Y-114785082D01*
X182353712Y-115398385D01*
X182075543Y-115996666D01*
X181759238Y-116578519D01*
X181405426Y-117142535D01*
X181014737Y-117687305D01*
X180799496Y-117959716D01*
X180699674Y-118077050D01*
X180575645Y-118214961D01*
X180433723Y-118367053D01*
X180280224Y-118526927D01*
X180121463Y-118688186D01*
X179963757Y-118844432D01*
X179813420Y-118989268D01*
X179676767Y-119116296D01*
X179560115Y-119219118D01*
X179537783Y-119237839D01*
X179049342Y-119622726D01*
X178559531Y-119968217D01*
X178063393Y-120277094D01*
X177555967Y-120552142D01*
X177032297Y-120796146D01*
X176487424Y-121011888D01*
X176200214Y-121111786D01*
X175578765Y-121296990D01*
X174948671Y-121442733D01*
X174312408Y-121549101D01*
X173672453Y-121616175D01*
X173031282Y-121644040D01*
X172391371Y-121632781D01*
X171755197Y-121582480D01*
X171125235Y-121493221D01*
X170503962Y-121365088D01*
X169893854Y-121198165D01*
X169297387Y-120992536D01*
X168987451Y-120867809D01*
X168894726Y-120829389D01*
X168817138Y-120798795D01*
X168762364Y-120778942D01*
X168738080Y-120772746D01*
X168737657Y-120772953D01*
X165664338Y-120772953D01*
X165638661Y-120753716D01*
X168689866Y-120753716D01*
X168700450Y-120764300D01*
X168711033Y-120753716D01*
X168700450Y-120743133D01*
X168689866Y-120753716D01*
X165638661Y-120753716D01*
X165627494Y-120745350D01*
X165612153Y-120732550D01*
X168647533Y-120732550D01*
X168658116Y-120743133D01*
X168668700Y-120732550D01*
X168658116Y-120721966D01*
X168647533Y-120732550D01*
X165612153Y-120732550D01*
X165332616Y-120499317D01*
X168181866Y-120499317D01*
X168199399Y-120512480D01*
X168245839Y-120539268D01*
X168311950Y-120574944D01*
X168388494Y-120614772D01*
X168466235Y-120654017D01*
X168535935Y-120687943D01*
X168588357Y-120711813D01*
X168614019Y-120720884D01*
X168626131Y-120715701D01*
X168624602Y-120713814D01*
X168600298Y-120698993D01*
X168549158Y-120672019D01*
X168480177Y-120637250D01*
X168402350Y-120599043D01*
X168324672Y-120561757D01*
X168256138Y-120529749D01*
X168205741Y-120507377D01*
X168182478Y-120498998D01*
X168181866Y-120499317D01*
X165332616Y-120499317D01*
X165307726Y-120478550D01*
X168139533Y-120478550D01*
X168150116Y-120489133D01*
X168160700Y-120478550D01*
X168150116Y-120467966D01*
X168139533Y-120478550D01*
X165307726Y-120478550D01*
X165282356Y-120457383D01*
X168097200Y-120457383D01*
X168107783Y-120467966D01*
X168118366Y-120457383D01*
X168107783Y-120446800D01*
X168097200Y-120457383D01*
X165282356Y-120457383D01*
X165182007Y-120373657D01*
X167950492Y-120373657D01*
X167972079Y-120392618D01*
X168007241Y-120413526D01*
X168052449Y-120437539D01*
X168071662Y-120444906D01*
X168075979Y-120439378D01*
X168076033Y-120436760D01*
X168059297Y-120421331D01*
X168018414Y-120396967D01*
X168012533Y-120393883D01*
X167964346Y-120372709D01*
X167950492Y-120373657D01*
X165182007Y-120373657D01*
X165155510Y-120351550D01*
X167906700Y-120351550D01*
X167917283Y-120362133D01*
X167927866Y-120351550D01*
X167917283Y-120340966D01*
X167906700Y-120351550D01*
X165155510Y-120351550D01*
X165139362Y-120338077D01*
X165102281Y-120304700D01*
X167846611Y-120304700D01*
X167851762Y-120316529D01*
X167873074Y-120339252D01*
X167885327Y-120334591D01*
X167885533Y-120331632D01*
X167870499Y-120313729D01*
X167861096Y-120307195D01*
X167846611Y-120304700D01*
X165102281Y-120304700D01*
X165083783Y-120288050D01*
X167800866Y-120288050D01*
X167811450Y-120298633D01*
X167822033Y-120288050D01*
X167811450Y-120277466D01*
X167800866Y-120288050D01*
X165083783Y-120288050D01*
X165007930Y-120219775D01*
X167699587Y-120219775D01*
X167703234Y-120226345D01*
X167725537Y-120244548D01*
X167763297Y-120272306D01*
X167778232Y-120274741D01*
X167779700Y-120267628D01*
X167763075Y-120252118D01*
X167732075Y-120234710D01*
X167699587Y-120219775D01*
X165007930Y-120219775D01*
X164961185Y-120177700D01*
X167634945Y-120177700D01*
X167640095Y-120189529D01*
X167661408Y-120212252D01*
X167673660Y-120207591D01*
X167673866Y-120204632D01*
X167658832Y-120186729D01*
X167649429Y-120180195D01*
X167634945Y-120177700D01*
X164961185Y-120177700D01*
X164942687Y-120161050D01*
X167589200Y-120161050D01*
X167599783Y-120171633D01*
X167610366Y-120161050D01*
X167599783Y-120150466D01*
X167589200Y-120161050D01*
X164942687Y-120161050D01*
X164890637Y-120114200D01*
X167529111Y-120114200D01*
X167534262Y-120126029D01*
X167555574Y-120148752D01*
X167567827Y-120144091D01*
X167568033Y-120141132D01*
X167552999Y-120123229D01*
X167543596Y-120116695D01*
X167529111Y-120114200D01*
X164890637Y-120114200D01*
X164876231Y-120101234D01*
X164844411Y-120071867D01*
X167465611Y-120071867D01*
X167470762Y-120083696D01*
X167492074Y-120106419D01*
X167504327Y-120101758D01*
X167504533Y-120098799D01*
X167489499Y-120080896D01*
X167480096Y-120074362D01*
X167465611Y-120071867D01*
X164844411Y-120071867D01*
X164826369Y-120055216D01*
X167419866Y-120055216D01*
X167430450Y-120065800D01*
X167441033Y-120055216D01*
X167430450Y-120044633D01*
X167419866Y-120055216D01*
X164826369Y-120055216D01*
X164780499Y-120012883D01*
X167356366Y-120012883D01*
X167366950Y-120023466D01*
X167377533Y-120012883D01*
X167366950Y-120002300D01*
X167356366Y-120012883D01*
X164780499Y-120012883D01*
X164734629Y-119970550D01*
X167292866Y-119970550D01*
X167303450Y-119981133D01*
X167314033Y-119970550D01*
X167303450Y-119959966D01*
X167292866Y-119970550D01*
X164734629Y-119970550D01*
X164688757Y-119928216D01*
X167229366Y-119928216D01*
X167239950Y-119938800D01*
X167250533Y-119928216D01*
X167239950Y-119917633D01*
X167229366Y-119928216D01*
X164688757Y-119928216D01*
X164642886Y-119885883D01*
X167165866Y-119885883D01*
X167176450Y-119896466D01*
X167187033Y-119885883D01*
X167176450Y-119875300D01*
X167165866Y-119885883D01*
X164642886Y-119885883D01*
X164608012Y-119853699D01*
X164209481Y-120114603D01*
X163251124Y-120717915D01*
X162277469Y-121282814D01*
X161285738Y-121810746D01*
X160273154Y-122303155D01*
X159236941Y-122761485D01*
X158688616Y-122986522D01*
X157608461Y-123396128D01*
X156515283Y-123766353D01*
X155408486Y-124097323D01*
X154287473Y-124389169D01*
X153151649Y-124642019D01*
X152000417Y-124856000D01*
X150833181Y-125031242D01*
X149649344Y-125167873D01*
X148448310Y-125266021D01*
X147978283Y-125293729D01*
X147898317Y-125296794D01*
X147782696Y-125299602D01*
X147636151Y-125302140D01*
X147463416Y-125304397D01*
X147269222Y-125306361D01*
X147058302Y-125308019D01*
X146835388Y-125309360D01*
X146605213Y-125310371D01*
X146372509Y-125311042D01*
X146142008Y-125311359D01*
X145918442Y-125311311D01*
X145706545Y-125310886D01*
X145511047Y-125310073D01*
X145336682Y-125308858D01*
X145188182Y-125307231D01*
X145070280Y-125305178D01*
X144987706Y-125302690D01*
X144962033Y-125301338D01*
X144910492Y-125298096D01*
X144825385Y-125292991D01*
X144715410Y-125286535D01*
X144589268Y-125279238D01*
X144464616Y-125272120D01*
X143294113Y-125185784D01*
X142137910Y-125060223D01*
X140994110Y-124895032D01*
X139860816Y-124689808D01*
X138736132Y-124444147D01*
X137618159Y-124157646D01*
X136505001Y-123829900D01*
X135394760Y-123460507D01*
X134622116Y-123178376D01*
X133567551Y-122757356D01*
X132528912Y-122298798D01*
X131507575Y-121803697D01*
X130504913Y-121273048D01*
X129522302Y-120707846D01*
X128561115Y-120109087D01*
X127622727Y-119477764D01*
X126708512Y-118814874D01*
X125819844Y-118121411D01*
X124958098Y-117398371D01*
X124124649Y-116646748D01*
X123320870Y-115867538D01*
X122548136Y-115061735D01*
X121807821Y-114230336D01*
X121128775Y-113408883D01*
X120446144Y-112518582D01*
X120281028Y-112285796D01*
X124028200Y-112285796D01*
X124047340Y-112295090D01*
X124100708Y-112315184D01*
X124182222Y-112343942D01*
X124285803Y-112379224D01*
X124405371Y-112418894D01*
X124425075Y-112425341D01*
X125702081Y-112821799D01*
X126982135Y-113178239D01*
X128264048Y-113494449D01*
X129546634Y-113770216D01*
X130828702Y-114005329D01*
X132109066Y-114199575D01*
X133386537Y-114352742D01*
X134659928Y-114464618D01*
X135928049Y-114534991D01*
X136315450Y-114548217D01*
X136433756Y-114551047D01*
X136573836Y-114553385D01*
X136730556Y-114555238D01*
X136898780Y-114556610D01*
X137073375Y-114557505D01*
X137249204Y-114557929D01*
X137421134Y-114557885D01*
X137584030Y-114557379D01*
X137732757Y-114556416D01*
X137862181Y-114554999D01*
X137967166Y-114553134D01*
X138042578Y-114550826D01*
X138083282Y-114548079D01*
X138088993Y-114546591D01*
X138083237Y-114526631D01*
X138063325Y-114471383D01*
X138038365Y-114405062D01*
X140628026Y-114405062D01*
X140651265Y-114410305D01*
X140688821Y-114405572D01*
X140732565Y-114399499D01*
X140810172Y-114389807D01*
X140913419Y-114377479D01*
X141034088Y-114363497D01*
X141152033Y-114350174D01*
X141851653Y-114263175D01*
X142577649Y-114155863D01*
X143320332Y-114030097D01*
X144070015Y-113887733D01*
X144817009Y-113730630D01*
X145551626Y-113560644D01*
X146264178Y-113379635D01*
X146390501Y-113345713D01*
X147501555Y-113022851D01*
X148600771Y-112659421D01*
X149687661Y-112255635D01*
X150761740Y-111811709D01*
X151822520Y-111327857D01*
X152869513Y-110804292D01*
X153902234Y-110241229D01*
X154920195Y-109638881D01*
X155164366Y-109487173D01*
X155302871Y-109399446D01*
X155459625Y-109298686D01*
X155629069Y-109188592D01*
X155805643Y-109072858D01*
X155983788Y-108955182D01*
X156157944Y-108839259D01*
X156322552Y-108728786D01*
X156472051Y-108627459D01*
X156600882Y-108538974D01*
X156703486Y-108467028D01*
X156756530Y-108428631D01*
X156877611Y-108339058D01*
X156806638Y-108185804D01*
X156785939Y-108141849D01*
X156748495Y-108063140D01*
X156695929Y-107953063D01*
X156629866Y-107815005D01*
X156551927Y-107652352D01*
X156463738Y-107468491D01*
X156366922Y-107266807D01*
X156263101Y-107050689D01*
X156153900Y-106823521D01*
X156048212Y-106603800D01*
X155780881Y-106048430D01*
X155513748Y-105493926D01*
X155247452Y-104941596D01*
X154982631Y-104392750D01*
X154719921Y-103848698D01*
X154459962Y-103310749D01*
X154203390Y-102780211D01*
X153950843Y-102258396D01*
X153702960Y-101746611D01*
X153460378Y-101246167D01*
X153223734Y-100758373D01*
X152993667Y-100284539D01*
X152770814Y-99825973D01*
X152555813Y-99383986D01*
X152349302Y-98959886D01*
X152151919Y-98554983D01*
X151964301Y-98170586D01*
X151787086Y-97808006D01*
X151620912Y-97468551D01*
X151466417Y-97153531D01*
X151324238Y-96864255D01*
X151195014Y-96602032D01*
X151079381Y-96368173D01*
X150977979Y-96163986D01*
X150891443Y-95990781D01*
X150820414Y-95849867D01*
X150765527Y-95742554D01*
X150727421Y-95670151D01*
X150706734Y-95633968D01*
X150703205Y-95629847D01*
X150699323Y-95632689D01*
X150692133Y-95642068D01*
X150680680Y-95659731D01*
X150664010Y-95687424D01*
X150641166Y-95726896D01*
X150611195Y-95779893D01*
X150573140Y-95848164D01*
X150526046Y-95933455D01*
X150468959Y-96037515D01*
X150400924Y-96162090D01*
X150320984Y-96308928D01*
X150228186Y-96479777D01*
X150121573Y-96676384D01*
X150000192Y-96900497D01*
X149863085Y-97153862D01*
X149709300Y-97438228D01*
X149537879Y-97755342D01*
X149347869Y-98106951D01*
X149228632Y-98327633D01*
X149083175Y-98597017D01*
X148924617Y-98890968D01*
X148753727Y-99208049D01*
X148571275Y-99546822D01*
X148378032Y-99905850D01*
X148174766Y-100283695D01*
X147962249Y-100678920D01*
X147741249Y-101090087D01*
X147512536Y-101515758D01*
X147276881Y-101954497D01*
X147035053Y-102404865D01*
X146787823Y-102865426D01*
X146535959Y-103334741D01*
X146280232Y-103811372D01*
X146021412Y-104293884D01*
X145760268Y-104780837D01*
X145497570Y-105270795D01*
X145234089Y-105762320D01*
X144970594Y-106253975D01*
X144707855Y-106744321D01*
X144446641Y-107231922D01*
X144187723Y-107715339D01*
X143931870Y-108193136D01*
X143679853Y-108663875D01*
X143432441Y-109126118D01*
X143190403Y-109578428D01*
X142954511Y-110019367D01*
X142725533Y-110447498D01*
X142504240Y-110861383D01*
X142291401Y-111259584D01*
X142087787Y-111640665D01*
X141894166Y-112003188D01*
X141711310Y-112345715D01*
X141539987Y-112666808D01*
X141380968Y-112965031D01*
X141235022Y-113238945D01*
X141102920Y-113487113D01*
X140985431Y-113708098D01*
X140883325Y-113900462D01*
X140797372Y-114062767D01*
X140728341Y-114193576D01*
X140677003Y-114291452D01*
X140644128Y-114354956D01*
X140630484Y-114382653D01*
X140630366Y-114382951D01*
X140628026Y-114405062D01*
X138038365Y-114405062D01*
X138029175Y-114380644D01*
X137980708Y-114254208D01*
X137917841Y-114091871D01*
X137840494Y-113893428D01*
X137748587Y-113658676D01*
X137642038Y-113387408D01*
X137520767Y-113079421D01*
X137384692Y-112734511D01*
X137233734Y-112352472D01*
X137067811Y-111933099D01*
X136886843Y-111476190D01*
X136690748Y-110981537D01*
X136479446Y-110448939D01*
X136252856Y-109878188D01*
X136010897Y-109269082D01*
X135753489Y-108621415D01*
X135480550Y-107934983D01*
X135191999Y-107209581D01*
X135009916Y-106751966D01*
X134884448Y-106436756D01*
X134750586Y-106100617D01*
X134609017Y-105745266D01*
X134460425Y-105372420D01*
X134305498Y-104983797D01*
X134144922Y-104581113D01*
X133979383Y-104166086D01*
X133809568Y-103740432D01*
X133636162Y-103305869D01*
X133459853Y-102864114D01*
X133281326Y-102416885D01*
X133101268Y-101965897D01*
X132920364Y-101512869D01*
X132739302Y-101059517D01*
X132558768Y-100607558D01*
X132379447Y-100158710D01*
X132202027Y-99714690D01*
X132027193Y-99277214D01*
X131855631Y-98848000D01*
X131688029Y-98428766D01*
X131525072Y-98021227D01*
X131367447Y-97627102D01*
X131215839Y-97248107D01*
X131070936Y-96885959D01*
X130933423Y-96542376D01*
X130803987Y-96219075D01*
X130683314Y-95917772D01*
X130572091Y-95640185D01*
X130471003Y-95388031D01*
X130380737Y-95163028D01*
X130301979Y-94966891D01*
X130235416Y-94801339D01*
X130181734Y-94668088D01*
X130141619Y-94568855D01*
X130115757Y-94505359D01*
X130104835Y-94479314D01*
X130104613Y-94478875D01*
X130102152Y-94474540D01*
X130099454Y-94472071D01*
X130095821Y-94473466D01*
X130090557Y-94480721D01*
X130082962Y-94495833D01*
X130072339Y-94520800D01*
X130057990Y-94557620D01*
X130039217Y-94608288D01*
X130015322Y-94674802D01*
X129985608Y-94759159D01*
X129949377Y-94863357D01*
X129905930Y-94989392D01*
X129854570Y-95139262D01*
X129794599Y-95314964D01*
X129725319Y-95518494D01*
X129646033Y-95751851D01*
X129556041Y-96017030D01*
X129454648Y-96316030D01*
X129341154Y-96650848D01*
X129214862Y-97023480D01*
X129196113Y-97078800D01*
X129131929Y-97268047D01*
X129055012Y-97494610D01*
X128966298Y-97755738D01*
X128866724Y-98048681D01*
X128757225Y-98370688D01*
X128638737Y-98719009D01*
X128512198Y-99090894D01*
X128378544Y-99483592D01*
X128238710Y-99894353D01*
X128093633Y-100320427D01*
X127944249Y-100759063D01*
X127791495Y-101207511D01*
X127636306Y-101663021D01*
X127479620Y-102122843D01*
X127322372Y-102584225D01*
X127165499Y-103044419D01*
X127012792Y-103492300D01*
X126738877Y-104295685D01*
X126477894Y-105061333D01*
X126229881Y-105789129D01*
X125994879Y-106478958D01*
X125772925Y-107130704D01*
X125564059Y-107744252D01*
X125368321Y-108319488D01*
X125185749Y-108856295D01*
X125016382Y-109354560D01*
X124860260Y-109814165D01*
X124717421Y-110234997D01*
X124587905Y-110616940D01*
X124471751Y-110959878D01*
X124368998Y-111263697D01*
X124279685Y-111528282D01*
X124203851Y-111753516D01*
X124141535Y-111939286D01*
X124092777Y-112085475D01*
X124057614Y-112191969D01*
X124036088Y-112258652D01*
X124028236Y-112285409D01*
X124028200Y-112285796D01*
X120281028Y-112285796D01*
X119801282Y-111609436D01*
X119194409Y-110682026D01*
X118625746Y-109736931D01*
X118095513Y-108774732D01*
X117603930Y-107796009D01*
X117151217Y-106801341D01*
X116855640Y-106079563D01*
X119256443Y-106079563D01*
X119472319Y-106505723D01*
X119520013Y-106598973D01*
X119585247Y-106725143D01*
X119665685Y-106879777D01*
X119758990Y-107058419D01*
X119862826Y-107256610D01*
X119974857Y-107469895D01*
X120092747Y-107693817D01*
X120214161Y-107923919D01*
X120336762Y-108155743D01*
X120378019Y-108233633D01*
X120512051Y-108487564D01*
X120654317Y-108758918D01*
X120801217Y-109040718D01*
X120949147Y-109325986D01*
X121094508Y-109607743D01*
X121233697Y-109879011D01*
X121363112Y-110132813D01*
X121479154Y-110362170D01*
X121563929Y-110531379D01*
X122060015Y-111527375D01*
X122329732Y-111637583D01*
X122434329Y-111679497D01*
X122552560Y-111725514D01*
X122678153Y-111773341D01*
X122804836Y-111820690D01*
X122926337Y-111865269D01*
X123036384Y-111904788D01*
X123128705Y-111936956D01*
X123197027Y-111959483D01*
X123235080Y-111970077D01*
X123240717Y-111970290D01*
X123246094Y-111948452D01*
X123257214Y-111891571D01*
X123272845Y-111806358D01*
X123291753Y-111699524D01*
X123311340Y-111585810D01*
X123329949Y-111472883D01*
X123353197Y-111326153D01*
X123379849Y-111153741D01*
X123408671Y-110963766D01*
X123438426Y-110764350D01*
X123467879Y-110563613D01*
X123487330Y-110428930D01*
X123598964Y-109650310D01*
X122916538Y-108005346D01*
X122805818Y-107738446D01*
X122681382Y-107438458D01*
X122545726Y-107111398D01*
X122401344Y-106763285D01*
X122250733Y-106400135D01*
X122096388Y-106027967D01*
X121940804Y-105652798D01*
X121786478Y-105280644D01*
X121635904Y-104917525D01*
X121491579Y-104569457D01*
X121365296Y-104264883D01*
X121247238Y-103980159D01*
X121133245Y-103705277D01*
X121024424Y-103442903D01*
X120921881Y-103195705D01*
X120826723Y-102966348D01*
X120740057Y-102757499D01*
X120662989Y-102571826D01*
X120596627Y-102411995D01*
X120542077Y-102280673D01*
X120500445Y-102180526D01*
X120472839Y-102114222D01*
X120460489Y-102084716D01*
X120437392Y-102034904D01*
X120422892Y-102020228D01*
X120411251Y-102035994D01*
X120408762Y-102042383D01*
X120400851Y-102068356D01*
X120382182Y-102132220D01*
X120353564Y-102231146D01*
X120315808Y-102362301D01*
X120269725Y-102522857D01*
X120216126Y-102709982D01*
X120155819Y-102920845D01*
X120089617Y-103152617D01*
X120018329Y-103402467D01*
X119942766Y-103667564D01*
X119863739Y-103945078D01*
X119824734Y-104082140D01*
X119256443Y-106079563D01*
X116855640Y-106079563D01*
X116737595Y-105791308D01*
X116363284Y-104766490D01*
X116028505Y-103727467D01*
X115733477Y-102674819D01*
X115478421Y-101609126D01*
X115263558Y-100530968D01*
X115089107Y-99440925D01*
X114955290Y-98339576D01*
X114862325Y-97227502D01*
X114840560Y-96856550D01*
X114834388Y-96706622D01*
X114829565Y-96521817D01*
X114826043Y-96307530D01*
X114823777Y-96069160D01*
X114822718Y-95812103D01*
X114822819Y-95541756D01*
X114824035Y-95263517D01*
X114824705Y-95181006D01*
X117871581Y-95181006D01*
X117871608Y-95408170D01*
X117871975Y-95652037D01*
X117872666Y-95909404D01*
X117873663Y-96177068D01*
X117874950Y-96451825D01*
X117876508Y-96730471D01*
X117878321Y-97009804D01*
X117880371Y-97286620D01*
X117882640Y-97557715D01*
X117885113Y-97819887D01*
X117887770Y-98069931D01*
X117890595Y-98304645D01*
X117893571Y-98520824D01*
X117896680Y-98715266D01*
X117899905Y-98884766D01*
X117903228Y-99026123D01*
X117906633Y-99136132D01*
X117908665Y-99184883D01*
X117958320Y-99993965D01*
X118027879Y-100766657D01*
X118117315Y-101502772D01*
X118226600Y-102202124D01*
X118355705Y-102864526D01*
X118504602Y-103489793D01*
X118614250Y-103883883D01*
X118658020Y-104032050D01*
X118686046Y-103968550D01*
X118706964Y-103914907D01*
X118733573Y-103838338D01*
X118756989Y-103765398D01*
X118778675Y-103687405D01*
X118804754Y-103582403D01*
X118831728Y-103464973D01*
X118853079Y-103364665D01*
X118872750Y-103276114D01*
X118902082Y-103154805D01*
X118939031Y-103008662D01*
X118981553Y-102845609D01*
X119027607Y-102673572D01*
X119075149Y-102500474D01*
X119084453Y-102467150D01*
X119138436Y-102273976D01*
X119197572Y-102061713D01*
X119258436Y-101842699D01*
X119317602Y-101629275D01*
X119371645Y-101433780D01*
X119410982Y-101290966D01*
X119471776Y-101072515D01*
X119524278Y-100890921D01*
X119570135Y-100741894D01*
X119610998Y-100621141D01*
X119648514Y-100524371D01*
X119665349Y-100488144D01*
X120972085Y-100488144D01*
X120972396Y-100505460D01*
X120988522Y-100558093D01*
X121020124Y-100644867D01*
X121066864Y-100764608D01*
X121104928Y-100858885D01*
X121155368Y-100982068D01*
X121203806Y-101099515D01*
X121246579Y-101202407D01*
X121280024Y-101281926D01*
X121297571Y-101322716D01*
X121312315Y-101357386D01*
X121342009Y-101428275D01*
X121385446Y-101532470D01*
X121441420Y-101667063D01*
X121508723Y-101829142D01*
X121586148Y-102015797D01*
X121672487Y-102224117D01*
X121766534Y-102451192D01*
X121867082Y-102694112D01*
X121972923Y-102949965D01*
X122082850Y-103215842D01*
X122105255Y-103270050D01*
X122325543Y-103802824D01*
X122535460Y-104310044D01*
X122734652Y-104790862D01*
X122922764Y-105244431D01*
X123099442Y-105669904D01*
X123264332Y-106066435D01*
X123417080Y-106433176D01*
X123557331Y-106769281D01*
X123684731Y-107073903D01*
X123798927Y-107346195D01*
X123899563Y-107585310D01*
X123986285Y-107790402D01*
X124058740Y-107960623D01*
X124116574Y-108095126D01*
X124159431Y-108193065D01*
X124186958Y-108253592D01*
X124198800Y-108275862D01*
X124199041Y-108275966D01*
X124211856Y-108267011D01*
X124229788Y-108238636D01*
X124253675Y-108188579D01*
X124284352Y-108114576D01*
X124322656Y-108014363D01*
X124369422Y-107885678D01*
X124425488Y-107726256D01*
X124491689Y-107533835D01*
X124568862Y-107306151D01*
X124657842Y-107040940D01*
X124681233Y-106970898D01*
X124731737Y-106819683D01*
X124783826Y-106664002D01*
X124838032Y-106502285D01*
X124894887Y-106332962D01*
X124954925Y-106154465D01*
X125018676Y-105965224D01*
X125086675Y-105763669D01*
X125159452Y-105548231D01*
X125237541Y-105317340D01*
X125321474Y-105069427D01*
X125411784Y-104802922D01*
X125509002Y-104516256D01*
X125613661Y-104207859D01*
X125726293Y-103876162D01*
X125847432Y-103519595D01*
X125977609Y-103136589D01*
X126117356Y-102725575D01*
X126267207Y-102284982D01*
X126427693Y-101813242D01*
X126599347Y-101308784D01*
X126782701Y-100770040D01*
X126978288Y-100195440D01*
X127186640Y-99583414D01*
X127336736Y-99142550D01*
X127469628Y-98752153D01*
X127603163Y-98359712D01*
X127736294Y-97968311D01*
X127867976Y-97581033D01*
X127997161Y-97200961D01*
X128122802Y-96831178D01*
X128243853Y-96474768D01*
X128359266Y-96134814D01*
X128467995Y-95814399D01*
X128568993Y-95516606D01*
X128661213Y-95244518D01*
X128743608Y-95001220D01*
X128815132Y-94789794D01*
X128874737Y-94613323D01*
X128906994Y-94517633D01*
X129004943Y-94227055D01*
X129090622Y-93973791D01*
X129165131Y-93754991D01*
X129229567Y-93567801D01*
X129285031Y-93409371D01*
X129332621Y-93276846D01*
X129373435Y-93167377D01*
X129408574Y-93078110D01*
X129439136Y-93006193D01*
X129466219Y-92948776D01*
X129490924Y-92903004D01*
X129514349Y-92866027D01*
X129537593Y-92834992D01*
X129561754Y-92807048D01*
X129569266Y-92798926D01*
X129696477Y-92691078D01*
X129839460Y-92617882D01*
X129991890Y-92578917D01*
X130147443Y-92573763D01*
X130299792Y-92602000D01*
X130442614Y-92663206D01*
X130569583Y-92756961D01*
X130667176Y-92871929D01*
X130675988Y-92887501D01*
X130689545Y-92915314D01*
X130708189Y-92956216D01*
X130732259Y-93011055D01*
X130762096Y-93080679D01*
X130798038Y-93165937D01*
X130840427Y-93267676D01*
X130889601Y-93386745D01*
X130945902Y-93523991D01*
X131009669Y-93680264D01*
X131081242Y-93856410D01*
X131160961Y-94053279D01*
X131249166Y-94271717D01*
X131346197Y-94512574D01*
X131452394Y-94776698D01*
X131568097Y-95064936D01*
X131693645Y-95378136D01*
X131829380Y-95717148D01*
X131975641Y-96082818D01*
X132132767Y-96475995D01*
X132301100Y-96897528D01*
X132480978Y-97348263D01*
X132672742Y-97829050D01*
X132876732Y-98340737D01*
X133093288Y-98884171D01*
X133322749Y-99460200D01*
X133565457Y-100069674D01*
X133821750Y-100713439D01*
X134091968Y-101392345D01*
X134376453Y-102107238D01*
X134675543Y-102858968D01*
X134989579Y-103648383D01*
X135306360Y-104444800D01*
X135506144Y-104947087D01*
X135706830Y-105451605D01*
X135907513Y-105956083D01*
X136107289Y-106458248D01*
X136305254Y-106955829D01*
X136500503Y-107446554D01*
X136692133Y-107928151D01*
X136879240Y-108398349D01*
X137060918Y-108854874D01*
X137236265Y-109295457D01*
X137404376Y-109717825D01*
X137564346Y-110119705D01*
X137715272Y-110498827D01*
X137856249Y-110852919D01*
X137986373Y-111179708D01*
X138104741Y-111476923D01*
X138210447Y-111742292D01*
X138302588Y-111973544D01*
X138380260Y-112168405D01*
X138400443Y-112219023D01*
X139166748Y-114140663D01*
X139359140Y-114134606D01*
X139551532Y-114128550D01*
X140480618Y-112392883D01*
X140568036Y-112229597D01*
X140674358Y-112031047D01*
X140798485Y-111799280D01*
X140939322Y-111536342D01*
X141095771Y-111244280D01*
X141266736Y-110925142D01*
X141451120Y-110580973D01*
X141647826Y-110213822D01*
X141855758Y-109825734D01*
X142073819Y-109418757D01*
X142300911Y-108994937D01*
X142535939Y-108556322D01*
X142777806Y-108104958D01*
X143025415Y-107642893D01*
X143277668Y-107172173D01*
X143533470Y-106694844D01*
X143791723Y-106212955D01*
X144051331Y-105728551D01*
X144311198Y-105243680D01*
X144506805Y-104878716D01*
X144770956Y-104385859D01*
X145038072Y-103887444D01*
X145306913Y-103385790D01*
X145576236Y-102883216D01*
X145844798Y-102382041D01*
X146111357Y-101884585D01*
X146374671Y-101393165D01*
X146633496Y-100910101D01*
X146886591Y-100437713D01*
X147132714Y-99978319D01*
X147370622Y-99534238D01*
X147599072Y-99107789D01*
X147816822Y-98701291D01*
X148022630Y-98317063D01*
X148215253Y-97957424D01*
X148393449Y-97624694D01*
X148555975Y-97321191D01*
X148701590Y-97049233D01*
X148829050Y-96811141D01*
X148884052Y-96708383D01*
X149102997Y-96299797D01*
X149302509Y-95928507D01*
X149482724Y-95594269D01*
X149643775Y-95296838D01*
X149785795Y-95035972D01*
X149908919Y-94811425D01*
X150013282Y-94622954D01*
X150099017Y-94470314D01*
X150166258Y-94353262D01*
X150215139Y-94271552D01*
X150245794Y-94224942D01*
X150251896Y-94217264D01*
X150330403Y-94144000D01*
X150424008Y-94078528D01*
X150460689Y-94058514D01*
X150524548Y-94029617D01*
X150581629Y-94011873D01*
X150646113Y-94002667D01*
X150732181Y-93999389D01*
X150782866Y-93999151D01*
X150882746Y-94000597D01*
X150953840Y-94006497D01*
X151009648Y-94019374D01*
X151063675Y-94041751D01*
X151094367Y-94057358D01*
X151196251Y-94120272D01*
X151280664Y-94195748D01*
X151355146Y-94292487D01*
X151427238Y-94419189D01*
X151452560Y-94470672D01*
X151475584Y-94518534D01*
X151515715Y-94601570D01*
X151571547Y-94716883D01*
X151641675Y-94861577D01*
X151724692Y-95032754D01*
X151819192Y-95227518D01*
X151923771Y-95442972D01*
X152037022Y-95676219D01*
X152157540Y-95924362D01*
X152283919Y-96184504D01*
X152414753Y-96453748D01*
X152492218Y-96613133D01*
X152698767Y-97038149D01*
X152903225Y-97459011D01*
X153106940Y-97878503D01*
X153311261Y-98299408D01*
X153517537Y-98724510D01*
X153727117Y-99156593D01*
X153941350Y-99598440D01*
X154161585Y-100052836D01*
X154389170Y-100522563D01*
X154625455Y-101010406D01*
X154871789Y-101519148D01*
X155129519Y-102051574D01*
X155399996Y-102610465D01*
X155684569Y-103198607D01*
X155984585Y-103818783D01*
X156301394Y-104473777D01*
X156363221Y-104601612D01*
X156517740Y-104921039D01*
X156667250Y-105229977D01*
X156810711Y-105526284D01*
X156947082Y-105807818D01*
X157075325Y-106072437D01*
X157194400Y-106317999D01*
X157303266Y-106542361D01*
X157400885Y-106743382D01*
X157486216Y-106918920D01*
X157558219Y-107066831D01*
X157615855Y-107184976D01*
X157658084Y-107271210D01*
X157683867Y-107323392D01*
X157692147Y-107339469D01*
X157711604Y-107330466D01*
X157759493Y-107298227D01*
X157831382Y-107246201D01*
X157922839Y-107177839D01*
X158029431Y-107096589D01*
X158146727Y-107005901D01*
X158270295Y-106909225D01*
X158395703Y-106810008D01*
X158518518Y-106711702D01*
X158634310Y-106617755D01*
X158738646Y-106531617D01*
X158827093Y-106456737D01*
X158834092Y-106450695D01*
X158916067Y-106379784D01*
X158685925Y-106380667D01*
X158577202Y-106379845D01*
X158499385Y-106375308D01*
X158441100Y-106365421D01*
X158390969Y-106348546D01*
X158358419Y-106333575D01*
X158226211Y-106245879D01*
X158113253Y-106122033D01*
X158058950Y-106032300D01*
X159323347Y-106032300D01*
X159329324Y-106033628D01*
X159363963Y-106008703D01*
X159424624Y-105959773D01*
X159508669Y-105889089D01*
X159613459Y-105798898D01*
X159736354Y-105691451D01*
X159874716Y-105568996D01*
X160025905Y-105433782D01*
X160031157Y-105429062D01*
X160306430Y-105177630D01*
X160591201Y-104909526D01*
X160889339Y-104620989D01*
X161204713Y-104308256D01*
X161541189Y-103967567D01*
X161670856Y-103834653D01*
X162041545Y-103450152D01*
X162383812Y-103087742D01*
X162701855Y-102742530D01*
X162999873Y-102409622D01*
X163282062Y-102084127D01*
X163552620Y-101761151D01*
X163815746Y-101435802D01*
X164075636Y-101103186D01*
X164336489Y-100758411D01*
X164500462Y-100536510D01*
X164756526Y-100187083D01*
X164631002Y-100073491D01*
X164521424Y-99975928D01*
X164422507Y-99890931D01*
X164338820Y-99822203D01*
X164274928Y-99773450D01*
X164235399Y-99748378D01*
X164227084Y-99745800D01*
X164203258Y-99762744D01*
X164155371Y-99812892D01*
X164084263Y-99895212D01*
X163990778Y-100008675D01*
X163875757Y-100152249D01*
X163740042Y-100324905D01*
X163584475Y-100525612D01*
X163500556Y-100634800D01*
X163439824Y-100713731D01*
X163355268Y-100823193D01*
X163249101Y-100960337D01*
X163123537Y-101122313D01*
X162980789Y-101306272D01*
X162823070Y-101509365D01*
X162652593Y-101728743D01*
X162471572Y-101961558D01*
X162282220Y-102204960D01*
X162086749Y-102456100D01*
X161887374Y-102712129D01*
X161691813Y-102963133D01*
X161423180Y-103308009D01*
X161165566Y-103639079D01*
X160920076Y-103954912D01*
X160687813Y-104254077D01*
X160469880Y-104535146D01*
X160267381Y-104796688D01*
X160081420Y-105037273D01*
X159913100Y-105255471D01*
X159763524Y-105449853D01*
X159633796Y-105618987D01*
X159525020Y-105761445D01*
X159438298Y-105875796D01*
X159374736Y-105960610D01*
X159335435Y-106014458D01*
X159323347Y-106032300D01*
X158058950Y-106032300D01*
X158029542Y-105983707D01*
X158010804Y-105945411D01*
X157978709Y-105878232D01*
X157933032Y-105781688D01*
X157873551Y-105655298D01*
X157800041Y-105498583D01*
X157712279Y-105311061D01*
X157610040Y-105092252D01*
X157493101Y-104841675D01*
X157361239Y-104558849D01*
X157214228Y-104243294D01*
X157051846Y-103894528D01*
X156873869Y-103512073D01*
X156680073Y-103095445D01*
X156470233Y-102644166D01*
X156244127Y-102157754D01*
X156001531Y-101635729D01*
X155742219Y-101077610D01*
X155465970Y-100482916D01*
X155172559Y-99851166D01*
X154861762Y-99181881D01*
X154592886Y-98602800D01*
X154307131Y-97987305D01*
X154038676Y-97409032D01*
X153786972Y-96866815D01*
X153551469Y-96359492D01*
X153331616Y-95885898D01*
X153126864Y-95444868D01*
X152936662Y-95035239D01*
X152760460Y-94655846D01*
X152597708Y-94305524D01*
X152447857Y-93983111D01*
X152310355Y-93687440D01*
X152184654Y-93417349D01*
X152070202Y-93171673D01*
X151966450Y-92949248D01*
X151872848Y-92748910D01*
X151788845Y-92569494D01*
X151713891Y-92409835D01*
X151647438Y-92268771D01*
X151588933Y-92145137D01*
X151537828Y-92037768D01*
X151493571Y-91945501D01*
X151455614Y-91867170D01*
X151423406Y-91801612D01*
X151396397Y-91747663D01*
X151374036Y-91704159D01*
X151355774Y-91669934D01*
X151341061Y-91643826D01*
X151329346Y-91624669D01*
X151320080Y-91611300D01*
X151312712Y-91602554D01*
X151306693Y-91597267D01*
X151301471Y-91594275D01*
X151296498Y-91592414D01*
X151291223Y-91590519D01*
X151285095Y-91587427D01*
X151277566Y-91581972D01*
X151274401Y-91579193D01*
X152567447Y-91579193D01*
X152569720Y-91591182D01*
X152582419Y-91622280D01*
X152610411Y-91685513D01*
X152650901Y-91774744D01*
X152701092Y-91883834D01*
X152758190Y-92006646D01*
X152785581Y-92065154D01*
X152866243Y-92237340D01*
X152960290Y-92438582D01*
X153068017Y-92669518D01*
X153189721Y-92930786D01*
X153325698Y-93223026D01*
X153476246Y-93546875D01*
X153641659Y-93902973D01*
X153822236Y-94291959D01*
X154018271Y-94714470D01*
X154230063Y-95171147D01*
X154457906Y-95662627D01*
X154702098Y-96189550D01*
X154962935Y-96752553D01*
X155240714Y-97352276D01*
X155535731Y-97989358D01*
X155749294Y-98450620D01*
X156024041Y-99044036D01*
X156281581Y-99600215D01*
X156522474Y-100120347D01*
X156747280Y-100605619D01*
X156956556Y-101057221D01*
X157150862Y-101476342D01*
X157330758Y-101864170D01*
X157496801Y-102221894D01*
X157649552Y-102550704D01*
X157789568Y-102851786D01*
X157917410Y-103126332D01*
X158033636Y-103375529D01*
X158138805Y-103600565D01*
X158233477Y-103802631D01*
X158318210Y-103982914D01*
X158393563Y-104142604D01*
X158460095Y-104282889D01*
X158518366Y-104404959D01*
X158568934Y-104510001D01*
X158612358Y-104599204D01*
X158649198Y-104673758D01*
X158680013Y-104734852D01*
X158705361Y-104783673D01*
X158725801Y-104821411D01*
X158741893Y-104849255D01*
X158754196Y-104868393D01*
X158763268Y-104880014D01*
X158769669Y-104885307D01*
X158773958Y-104885461D01*
X158774915Y-104884684D01*
X158790374Y-104865372D01*
X158830460Y-104814283D01*
X158893867Y-104733103D01*
X158979286Y-104623512D01*
X159085409Y-104487196D01*
X159210930Y-104325836D01*
X159354539Y-104141116D01*
X159514930Y-103934719D01*
X159690796Y-103708327D01*
X159880827Y-103463624D01*
X160083716Y-103202292D01*
X160298157Y-102926015D01*
X160522840Y-102636476D01*
X160756459Y-102335358D01*
X160997705Y-102024343D01*
X161153440Y-101823536D01*
X161398461Y-101507445D01*
X161636357Y-101200280D01*
X161865839Y-100903715D01*
X162085622Y-100619422D01*
X162294418Y-100349075D01*
X162490940Y-100094347D01*
X162673902Y-99856912D01*
X162842016Y-99638442D01*
X162993995Y-99440611D01*
X163128553Y-99265092D01*
X163244403Y-99113559D01*
X163340257Y-98987684D01*
X163414829Y-98889142D01*
X163466832Y-98819604D01*
X163494978Y-98780745D01*
X163499875Y-98772740D01*
X163480450Y-98752663D01*
X163430173Y-98709581D01*
X163352096Y-98645842D01*
X163249270Y-98563792D01*
X163124746Y-98465782D01*
X162981573Y-98354158D01*
X162822804Y-98231268D01*
X162651488Y-98099460D01*
X162470677Y-97961083D01*
X162283421Y-97818485D01*
X162092771Y-97674012D01*
X161901778Y-97530014D01*
X161713492Y-97388838D01*
X161530965Y-97252832D01*
X161376783Y-97138740D01*
X159962447Y-96120811D01*
X158533587Y-95141895D01*
X157087736Y-94200422D01*
X155622428Y-93294824D01*
X154135197Y-92423535D01*
X152743692Y-91649942D01*
X152658642Y-91604832D01*
X152604599Y-91579247D01*
X152576042Y-91571322D01*
X152567447Y-91579193D01*
X151274401Y-91579193D01*
X151274183Y-91579002D01*
X151233174Y-91545034D01*
X151169873Y-91497025D01*
X151091014Y-91439625D01*
X151003335Y-91377485D01*
X150913572Y-91315254D01*
X150828462Y-91257585D01*
X150754741Y-91209127D01*
X150699145Y-91174532D01*
X150668411Y-91158450D01*
X150664633Y-91158181D01*
X150651172Y-91176867D01*
X150614349Y-91228539D01*
X150555270Y-91311639D01*
X150475040Y-91424608D01*
X150374765Y-91565884D01*
X150255549Y-91733910D01*
X150118498Y-91927124D01*
X149964718Y-92143968D01*
X149795314Y-92382883D01*
X149611390Y-92642307D01*
X149414053Y-92920682D01*
X149204407Y-93216448D01*
X148983559Y-93528046D01*
X148752613Y-93853915D01*
X148512674Y-94192497D01*
X148264849Y-94542232D01*
X148010241Y-94901559D01*
X147749957Y-95268920D01*
X147485102Y-95642755D01*
X147216782Y-96021504D01*
X146946101Y-96403607D01*
X146674164Y-96787505D01*
X146402078Y-97171639D01*
X146130948Y-97554448D01*
X145861878Y-97934374D01*
X145595974Y-98309856D01*
X145388536Y-98602800D01*
X145108319Y-98998532D01*
X144821318Y-99403845D01*
X144529581Y-99815847D01*
X144235156Y-100231643D01*
X143940091Y-100648341D01*
X143646436Y-101063048D01*
X143356239Y-101472872D01*
X143071548Y-101874919D01*
X142794411Y-102266297D01*
X142526877Y-102644112D01*
X142270996Y-103005471D01*
X142028814Y-103347483D01*
X141802381Y-103667253D01*
X141593744Y-103961889D01*
X141404954Y-104228498D01*
X141238057Y-104464187D01*
X141199326Y-104518883D01*
X141010462Y-104785279D01*
X140827373Y-105042917D01*
X140651656Y-105289584D01*
X140484904Y-105523067D01*
X140328714Y-105741152D01*
X140184679Y-105941626D01*
X140054396Y-106122276D01*
X139939459Y-106280890D01*
X139841462Y-106415253D01*
X139762002Y-106523153D01*
X139702673Y-106602377D01*
X139665070Y-106650711D01*
X139652777Y-106664756D01*
X139516492Y-106763258D01*
X139365910Y-106824423D01*
X139207079Y-106848037D01*
X139046049Y-106833886D01*
X138888870Y-106781755D01*
X138748471Y-106696741D01*
X138645014Y-106593285D01*
X138554736Y-106450573D01*
X138484456Y-106288161D01*
X138463924Y-106233499D01*
X138428136Y-106140194D01*
X138377381Y-106008981D01*
X138311947Y-105840594D01*
X138232122Y-105635766D01*
X138138193Y-105395232D01*
X138030449Y-105119727D01*
X137909178Y-104809983D01*
X137774667Y-104466735D01*
X137627206Y-104090717D01*
X137467081Y-103682664D01*
X137294581Y-103243309D01*
X137109993Y-102773386D01*
X136913607Y-102273630D01*
X136705709Y-101744774D01*
X136486588Y-101187553D01*
X136256532Y-100602701D01*
X136015829Y-99990951D01*
X135764767Y-99353039D01*
X135503634Y-98689697D01*
X135390248Y-98401716D01*
X135219049Y-97966884D01*
X135043872Y-97521873D01*
X134866040Y-97070049D01*
X134686876Y-96614779D01*
X134507705Y-96159428D01*
X134329851Y-95707362D01*
X134154636Y-95261947D01*
X133983386Y-94826549D01*
X133817424Y-94404533D01*
X133658073Y-93999266D01*
X133506657Y-93614114D01*
X133364501Y-93252441D01*
X133232927Y-92917615D01*
X133113260Y-92613001D01*
X133006824Y-92341964D01*
X132938589Y-92168133D01*
X132725843Y-91626567D01*
X132528188Y-91124524D01*
X132345624Y-90662007D01*
X132178153Y-90239018D01*
X132025775Y-89855557D01*
X131888490Y-89511628D01*
X131766301Y-89207231D01*
X131659206Y-88942370D01*
X131567209Y-88717046D01*
X131490308Y-88531261D01*
X131428505Y-88385016D01*
X131381800Y-88278314D01*
X131350195Y-88211157D01*
X131334165Y-88183996D01*
X131331498Y-88184926D01*
X131326354Y-88191681D01*
X131318236Y-88205364D01*
X131306648Y-88227076D01*
X131291091Y-88257922D01*
X131271068Y-88299001D01*
X131246083Y-88351419D01*
X131215637Y-88416275D01*
X131179234Y-88494674D01*
X131136377Y-88587717D01*
X131086568Y-88696507D01*
X131029310Y-88822146D01*
X130964105Y-88965737D01*
X130890457Y-89128381D01*
X130807868Y-89311182D01*
X130715841Y-89515241D01*
X130613879Y-89741661D01*
X130501485Y-89991545D01*
X130378160Y-90265995D01*
X130243408Y-90566113D01*
X130096733Y-90893001D01*
X129937635Y-91247762D01*
X129765619Y-91631499D01*
X129580187Y-92045314D01*
X129380842Y-92490308D01*
X129167086Y-92967586D01*
X128938422Y-93478248D01*
X128694353Y-94023397D01*
X128434382Y-94604136D01*
X128158012Y-95221567D01*
X127933071Y-95724133D01*
X127646988Y-96363253D01*
X127368796Y-96984622D01*
X127098925Y-97587282D01*
X126837804Y-98170274D01*
X126585864Y-98732640D01*
X126343534Y-99273424D01*
X126111246Y-99791666D01*
X125889428Y-100286410D01*
X125678511Y-100756697D01*
X125478924Y-101201569D01*
X125291099Y-101620069D01*
X125115465Y-102011238D01*
X124952452Y-102374119D01*
X124802490Y-102707754D01*
X124666009Y-103011186D01*
X124543440Y-103283455D01*
X124435212Y-103523604D01*
X124341756Y-103730677D01*
X124263500Y-103903713D01*
X124200877Y-104041757D01*
X124154315Y-104143849D01*
X124124245Y-104209032D01*
X124112220Y-104234219D01*
X124045235Y-104332398D01*
X123949704Y-104428541D01*
X123838287Y-104510899D01*
X123777664Y-104544679D01*
X123711861Y-104574198D01*
X123652559Y-104591887D01*
X123584657Y-104600593D01*
X123493049Y-104603163D01*
X123467283Y-104603186D01*
X123338100Y-104597073D01*
X123236688Y-104575825D01*
X123149666Y-104534235D01*
X123063652Y-104467096D01*
X123026133Y-104431529D01*
X122977178Y-104380579D01*
X122931783Y-104326073D01*
X122886742Y-104262640D01*
X122838849Y-104184908D01*
X122784899Y-104087508D01*
X122721685Y-103965068D01*
X122646002Y-103812218D01*
X122600056Y-103717699D01*
X122537298Y-103588791D01*
X122460665Y-103432637D01*
X122372183Y-103253281D01*
X122273877Y-103054768D01*
X122167775Y-102841142D01*
X122055903Y-102616448D01*
X121940286Y-102384731D01*
X121822951Y-102150035D01*
X121705924Y-101916404D01*
X121591232Y-101687885D01*
X121480900Y-101468520D01*
X121376955Y-101262355D01*
X121281422Y-101073434D01*
X121196329Y-100905802D01*
X121123701Y-100763504D01*
X121065564Y-100650583D01*
X121023945Y-100571086D01*
X121020257Y-100564170D01*
X120987926Y-100507322D01*
X120972085Y-100488144D01*
X119665349Y-100488144D01*
X119684333Y-100447293D01*
X119720103Y-100385614D01*
X119757473Y-100335044D01*
X119793195Y-100296120D01*
X119911980Y-100197089D01*
X120039202Y-100132452D01*
X120185780Y-100097493D01*
X120271116Y-100089591D01*
X120413521Y-100091066D01*
X120535992Y-100115331D01*
X120649296Y-100166647D01*
X120764198Y-100249274D01*
X120835535Y-100312958D01*
X120983175Y-100452234D01*
X120928055Y-100327598D01*
X120910989Y-100291716D01*
X120876129Y-100220765D01*
X120824824Y-100117432D01*
X120758424Y-99984404D01*
X120678280Y-99824371D01*
X120585741Y-99640018D01*
X120482157Y-99434033D01*
X120368880Y-99209105D01*
X120247258Y-98967920D01*
X120118641Y-98713167D01*
X119984381Y-98447533D01*
X119876056Y-98233423D01*
X119726670Y-97938268D01*
X119573739Y-97636091D01*
X119419487Y-97331283D01*
X119266135Y-97028237D01*
X119115906Y-96731344D01*
X118971022Y-96444996D01*
X118833704Y-96173585D01*
X118706175Y-95921502D01*
X118590656Y-95693139D01*
X118489371Y-95492888D01*
X118404541Y-95325141D01*
X118389814Y-95296014D01*
X118294726Y-95108616D01*
X118205043Y-94933152D01*
X118122620Y-94773167D01*
X118049315Y-94632205D01*
X117986984Y-94513810D01*
X117937486Y-94421525D01*
X117902676Y-94358896D01*
X117884413Y-94329467D01*
X117882403Y-94327639D01*
X117879556Y-94348184D01*
X117877172Y-94407856D01*
X117875234Y-94503452D01*
X117873722Y-94631768D01*
X117872621Y-94789602D01*
X117871914Y-94973749D01*
X117871581Y-95181006D01*
X114824705Y-95181006D01*
X114826318Y-94982781D01*
X114829621Y-94704947D01*
X114833896Y-94435411D01*
X114839098Y-94179570D01*
X114845179Y-93942821D01*
X114852092Y-93730562D01*
X114859790Y-93548188D01*
X114868227Y-93401098D01*
X114870942Y-93364050D01*
X114935577Y-92684994D01*
X118317472Y-92684994D01*
X118327801Y-92707067D01*
X118355985Y-92764148D01*
X118400658Y-92853530D01*
X118460449Y-92972505D01*
X118533991Y-93118364D01*
X118619915Y-93288401D01*
X118716853Y-93479906D01*
X118823436Y-93690173D01*
X118938297Y-93916493D01*
X119060066Y-94156158D01*
X119187375Y-94406461D01*
X119190500Y-94412601D01*
X119416200Y-94856307D01*
X119652201Y-95320662D01*
X119899311Y-95807258D01*
X120158335Y-96317688D01*
X120430080Y-96853544D01*
X120715355Y-97416419D01*
X121014964Y-98007904D01*
X121329716Y-98629592D01*
X121660416Y-99283075D01*
X122007873Y-99969946D01*
X122372892Y-100691797D01*
X122673533Y-101286509D01*
X123488450Y-102898726D01*
X123526954Y-102819804D01*
X123538193Y-102795211D01*
X123566167Y-102733268D01*
X123610302Y-102635257D01*
X123670023Y-102502460D01*
X123744754Y-102336160D01*
X123833920Y-102137639D01*
X123936946Y-101908179D01*
X124053257Y-101649062D01*
X124182278Y-101361571D01*
X124323433Y-101046987D01*
X124476148Y-100706593D01*
X124639847Y-100341672D01*
X124813955Y-99953504D01*
X124997897Y-99543373D01*
X125191098Y-99112561D01*
X125392983Y-98662349D01*
X125602976Y-98194021D01*
X125820502Y-97708858D01*
X126044986Y-97208142D01*
X126275854Y-96693156D01*
X126512529Y-96165182D01*
X126754437Y-95625502D01*
X127001003Y-95075398D01*
X127179839Y-94676383D01*
X127429019Y-94120363D01*
X127673761Y-93574163D01*
X127913498Y-93039048D01*
X128147663Y-92516287D01*
X128375691Y-92007146D01*
X128597014Y-91512892D01*
X128811067Y-91034792D01*
X129017281Y-90574112D01*
X129215092Y-90132119D01*
X129403933Y-89710081D01*
X129583236Y-89309264D01*
X129752436Y-88930935D01*
X129910966Y-88576361D01*
X130058260Y-88246808D01*
X130193750Y-87943544D01*
X130316871Y-87667836D01*
X130427056Y-87420949D01*
X130523738Y-87204152D01*
X130606351Y-87018711D01*
X130674328Y-86865892D01*
X130727103Y-86746964D01*
X130764110Y-86663191D01*
X130784781Y-86615843D01*
X130789228Y-86604999D01*
X130767876Y-86606448D01*
X130711096Y-86614442D01*
X130625115Y-86627990D01*
X130516162Y-86646102D01*
X130390466Y-86667786D01*
X130353676Y-86674264D01*
X129481683Y-86849138D01*
X128627478Y-87062306D01*
X127790025Y-87314159D01*
X126968285Y-87605088D01*
X126161219Y-87935483D01*
X125367789Y-88305734D01*
X124586956Y-88716233D01*
X123964700Y-89077481D01*
X123853891Y-89144734D01*
X123746464Y-89210322D01*
X123637868Y-89277087D01*
X123523550Y-89347870D01*
X123398957Y-89425513D01*
X123259537Y-89512858D01*
X123100738Y-89612747D01*
X122918007Y-89728022D01*
X122706792Y-89861523D01*
X122567700Y-89949528D01*
X122422969Y-90041163D01*
X122281146Y-90131038D01*
X122139425Y-90220942D01*
X121995003Y-90312664D01*
X121845073Y-90407992D01*
X121686833Y-90508715D01*
X121517477Y-90616620D01*
X121334200Y-90733495D01*
X121134198Y-90861131D01*
X120914665Y-91001313D01*
X120672799Y-91155832D01*
X120405793Y-91326476D01*
X120110843Y-91515032D01*
X119785145Y-91723289D01*
X119519700Y-91893042D01*
X119342633Y-92006223D01*
X119170145Y-92116366D01*
X119006834Y-92220543D01*
X118857297Y-92315825D01*
X118726133Y-92399284D01*
X118617940Y-92467992D01*
X118537315Y-92519020D01*
X118497389Y-92544124D01*
X118420824Y-92594541D01*
X118360811Y-92638984D01*
X118324639Y-92671748D01*
X118317472Y-92684994D01*
X114935577Y-92684994D01*
X114954136Y-92490025D01*
X116678571Y-92490025D01*
X116794267Y-92395790D01*
X116864983Y-92342000D01*
X116956888Y-92277337D01*
X117054693Y-92212410D01*
X117098289Y-92184859D01*
X117151538Y-92151410D01*
X117236370Y-92097539D01*
X117348810Y-92025795D01*
X117484882Y-91938725D01*
X117640612Y-91838877D01*
X117812022Y-91728800D01*
X117995138Y-91611041D01*
X118185983Y-91488150D01*
X118302616Y-91412966D01*
X118666126Y-91178698D01*
X118997908Y-90965213D01*
X119301678Y-90770149D01*
X119581154Y-90591142D01*
X119840050Y-90425827D01*
X120082083Y-90271842D01*
X120310969Y-90126821D01*
X120530425Y-89988402D01*
X120744167Y-89854220D01*
X120955910Y-89721912D01*
X121169372Y-89589113D01*
X121191866Y-89575150D01*
X121382844Y-89456514D01*
X121594669Y-89324730D01*
X121816837Y-89186348D01*
X122038842Y-89047914D01*
X122250181Y-88915977D01*
X122440348Y-88797087D01*
X122509903Y-88753542D01*
X122885617Y-88519763D01*
X123230921Y-88308299D01*
X123549856Y-88116861D01*
X123846462Y-87943159D01*
X124124780Y-87784903D01*
X124388848Y-87639806D01*
X124642708Y-87505578D01*
X124890400Y-87379929D01*
X125135963Y-87260570D01*
X125189748Y-87235095D01*
X125930379Y-86901356D01*
X126669240Y-86599970D01*
X127053805Y-86459842D01*
X131867268Y-86459842D01*
X131873532Y-86480726D01*
X131894865Y-86539466D01*
X131930686Y-86634589D01*
X131980409Y-86764624D01*
X132043453Y-86928098D01*
X132119235Y-87123539D01*
X132207171Y-87349475D01*
X132306678Y-87604434D01*
X132417173Y-87886943D01*
X132538074Y-88195530D01*
X132668796Y-88528724D01*
X132808758Y-88885051D01*
X132957375Y-89263041D01*
X133114066Y-89661219D01*
X133278246Y-90078116D01*
X133449332Y-90512257D01*
X133626742Y-90962171D01*
X133809893Y-91426386D01*
X133998201Y-91903430D01*
X134191084Y-92391830D01*
X134387958Y-92890115D01*
X134588240Y-93396811D01*
X134791347Y-93910448D01*
X134996696Y-94429552D01*
X135203705Y-94952652D01*
X135411789Y-95478275D01*
X135620366Y-96004949D01*
X135828853Y-96531202D01*
X136036666Y-97055562D01*
X136243223Y-97576556D01*
X136447941Y-98092713D01*
X136650236Y-98602560D01*
X136849526Y-99104625D01*
X137045227Y-99597437D01*
X137236756Y-100079521D01*
X137423530Y-100549407D01*
X137604966Y-101005623D01*
X137780482Y-101446695D01*
X137949493Y-101871153D01*
X138111417Y-102277523D01*
X138265672Y-102664334D01*
X138411672Y-103030113D01*
X138548837Y-103373389D01*
X138676582Y-103692688D01*
X138794324Y-103986539D01*
X138901481Y-104253470D01*
X138997470Y-104492008D01*
X139081706Y-104700682D01*
X139153608Y-104878019D01*
X139212592Y-105022546D01*
X139258075Y-105132792D01*
X139289474Y-105207285D01*
X139306206Y-105244552D01*
X139308831Y-105248790D01*
X139322796Y-105231862D01*
X139358921Y-105183147D01*
X139415127Y-105105566D01*
X139489334Y-105002040D01*
X139579465Y-104875490D01*
X139683440Y-104728835D01*
X139799181Y-104564998D01*
X139924608Y-104386898D01*
X140057642Y-104197457D01*
X140091292Y-104149457D01*
X140243215Y-103932959D01*
X140401629Y-103707735D01*
X140562505Y-103479480D01*
X140721813Y-103253892D01*
X140875523Y-103036668D01*
X141019608Y-102833503D01*
X141150037Y-102650093D01*
X141262781Y-102492137D01*
X141322496Y-102408842D01*
X141438297Y-102247446D01*
X141568564Y-102065448D01*
X141713888Y-101862016D01*
X141874859Y-101636317D01*
X142052066Y-101387519D01*
X142246102Y-101114791D01*
X142457555Y-100817301D01*
X142687016Y-100494215D01*
X142935076Y-100144704D01*
X143202325Y-99767933D01*
X143489353Y-99363073D01*
X143796751Y-98929289D01*
X144125109Y-98465751D01*
X144475018Y-97971626D01*
X144847067Y-97446082D01*
X145241847Y-96888288D01*
X145659949Y-96297411D01*
X146020601Y-95787633D01*
X146269772Y-95435422D01*
X146520468Y-95081088D01*
X146770874Y-94727193D01*
X147019173Y-94376303D01*
X147263550Y-94030984D01*
X147502190Y-93693798D01*
X147733278Y-93367312D01*
X147954997Y-93054090D01*
X148165532Y-92756697D01*
X148363068Y-92477697D01*
X148545789Y-92219655D01*
X148711880Y-91985136D01*
X148859525Y-91776706D01*
X148986909Y-91596927D01*
X149092215Y-91448366D01*
X149119601Y-91409746D01*
X149257490Y-91214668D01*
X149387205Y-91029896D01*
X149506779Y-90858309D01*
X149614247Y-90702789D01*
X149707645Y-90566215D01*
X149785006Y-90451469D01*
X149844366Y-90361430D01*
X149883759Y-90298978D01*
X149901220Y-90266995D01*
X149901713Y-90263445D01*
X149875046Y-90247586D01*
X149813583Y-90216354D01*
X149721215Y-90171562D01*
X149601834Y-90115021D01*
X149459332Y-90048546D01*
X149297600Y-89973948D01*
X149120530Y-89893041D01*
X148932013Y-89807636D01*
X148735942Y-89719546D01*
X148687366Y-89697837D01*
X147545608Y-89205674D01*
X146412437Y-88752691D01*
X145284094Y-88337579D01*
X144156817Y-87959027D01*
X143026846Y-87615722D01*
X141890419Y-87306355D01*
X141660033Y-87247938D01*
X140587119Y-86997186D01*
X139526455Y-86785383D01*
X138478516Y-86612580D01*
X137443773Y-86478827D01*
X136422701Y-86384174D01*
X135415774Y-86328671D01*
X134423464Y-86312368D01*
X133446246Y-86335316D01*
X133172200Y-86348959D01*
X133056351Y-86356007D01*
X132922246Y-86365153D01*
X132775796Y-86375894D01*
X132622913Y-86387728D01*
X132469508Y-86400154D01*
X132321492Y-86412668D01*
X132184778Y-86424768D01*
X132065276Y-86435952D01*
X131968897Y-86445719D01*
X131901554Y-86453564D01*
X131869158Y-86458987D01*
X131867268Y-86459842D01*
X127053805Y-86459842D01*
X127410445Y-86329890D01*
X128158105Y-86090069D01*
X128916334Y-85879460D01*
X129689246Y-85697015D01*
X130480953Y-85541686D01*
X131295567Y-85412427D01*
X132137203Y-85308190D01*
X133009972Y-85227928D01*
X133098116Y-85221255D01*
X133217212Y-85214409D01*
X133372943Y-85208566D01*
X133559623Y-85203725D01*
X133771565Y-85199886D01*
X134003085Y-85197048D01*
X134248494Y-85195211D01*
X134502108Y-85194375D01*
X134758239Y-85194539D01*
X135011203Y-85195703D01*
X135255311Y-85197866D01*
X135484879Y-85201028D01*
X135694219Y-85205190D01*
X135877647Y-85210350D01*
X136029475Y-85216507D01*
X136114366Y-85221443D01*
X137035114Y-85296083D01*
X137929694Y-85391471D01*
X138806160Y-85509022D01*
X139672569Y-85650154D01*
X140536973Y-85816284D01*
X141407428Y-86008830D01*
X142291988Y-86229208D01*
X143099366Y-86450395D01*
X144331471Y-86821244D01*
X145569979Y-87233334D01*
X146815004Y-87686715D01*
X148066657Y-88181436D01*
X149325052Y-88717547D01*
X150590300Y-89295097D01*
X151862514Y-89914136D01*
X153141806Y-90574712D01*
X154428289Y-91276876D01*
X155583251Y-91939078D01*
X156034664Y-92206800D01*
X156508891Y-92493828D01*
X156999453Y-92796004D01*
X157499873Y-93109175D01*
X158003671Y-93429186D01*
X158504368Y-93751881D01*
X158995487Y-94073106D01*
X159470549Y-94388705D01*
X159923074Y-94694523D01*
X160346585Y-94986406D01*
X160477200Y-95077786D01*
X160829744Y-95325969D01*
X161152615Y-95554525D01*
X161451255Y-95767471D01*
X161731107Y-95968822D01*
X161997614Y-96162596D01*
X162256218Y-96352806D01*
X162512363Y-96543470D01*
X162771490Y-96738603D01*
X163039044Y-96942222D01*
X163320466Y-97158342D01*
X163621200Y-97390979D01*
X163789783Y-97521960D01*
X164015791Y-97698593D01*
X164246013Y-97880043D01*
X164477508Y-98063899D01*
X164707340Y-98247753D01*
X164932569Y-98429193D01*
X165150257Y-98605811D01*
X165357466Y-98775197D01*
X165551257Y-98934940D01*
X165728692Y-99082632D01*
X165886833Y-99215863D01*
X166022741Y-99332222D01*
X166133477Y-99429300D01*
X166216104Y-99504688D01*
X166259885Y-99547649D01*
X166361742Y-99683868D01*
X166427379Y-99840256D01*
X166455075Y-100012450D01*
X166455898Y-100044766D01*
X166454831Y-100124519D01*
X166447972Y-100185793D01*
X166431379Y-100243132D01*
X166401108Y-100311081D01*
X166364092Y-100383432D01*
X166320938Y-100462499D01*
X166270360Y-100548118D01*
X166210135Y-100643478D01*
X166138038Y-100751764D01*
X166051848Y-100876166D01*
X165949341Y-101019869D01*
X165828294Y-101186063D01*
X165686484Y-101377933D01*
X165521689Y-101598667D01*
X165448641Y-101696016D01*
X164791510Y-102539188D01*
X164094939Y-103372276D01*
X163361065Y-104193171D01*
X162592021Y-104999766D01*
X161789945Y-105789953D01*
X160956972Y-106561624D01*
X160095237Y-107312671D01*
X159206875Y-108040986D01*
X158349950Y-108702615D01*
X157346015Y-109429444D01*
X156323799Y-110118419D01*
X155283692Y-110769329D01*
X154226086Y-111381960D01*
X153151373Y-111956101D01*
X152059944Y-112491540D01*
X150952190Y-112988065D01*
X149828503Y-113445463D01*
X149085758Y-113723130D01*
X147969196Y-114103624D01*
X146839328Y-114444024D01*
X145696589Y-114744281D01*
X144541411Y-115004342D01*
X143374227Y-115224157D01*
X142195472Y-115403674D01*
X141005577Y-115542843D01*
X139804976Y-115641612D01*
X138594102Y-115699931D01*
X137373389Y-115717748D01*
X136143269Y-115695012D01*
X134904176Y-115631672D01*
X133722533Y-115534177D01*
X132533027Y-115399776D01*
X131329169Y-115227679D01*
X130114558Y-115018528D01*
X128892790Y-114772968D01*
X127667462Y-114491642D01*
X127097366Y-114348794D01*
X126779904Y-114266248D01*
X126478323Y-114185871D01*
X126186311Y-114105800D01*
X125897555Y-114024174D01*
X125605743Y-113939129D01*
X125304561Y-113848803D01*
X124987699Y-113751335D01*
X124648842Y-113644862D01*
X124281678Y-113527522D01*
X123951199Y-113420635D01*
X123736262Y-113350314D01*
X123559806Y-113292387D01*
X123419652Y-113247467D01*
X123313619Y-113216170D01*
X123239528Y-113199110D01*
X123195197Y-113196901D01*
X123178447Y-113210158D01*
X123187097Y-113239496D01*
X123218968Y-113285529D01*
X123271879Y-113348873D01*
X123343650Y-113430140D01*
X123432101Y-113529947D01*
X123458111Y-113559638D01*
X123724638Y-113858187D01*
X124018563Y-114175091D01*
X124333199Y-114503598D01*
X124661857Y-114836962D01*
X124997848Y-115168432D01*
X125334483Y-115491260D01*
X125665074Y-115798696D01*
X125785354Y-115907946D01*
X126628300Y-116639887D01*
X127499528Y-117340676D01*
X128397797Y-118009502D01*
X129321870Y-118645555D01*
X130270506Y-119248026D01*
X131242466Y-119816104D01*
X132236513Y-120348979D01*
X133251406Y-120845842D01*
X133548198Y-120982513D01*
X134582416Y-121429016D01*
X135631374Y-121835998D01*
X136695185Y-122203487D01*
X137773960Y-122531507D01*
X138867810Y-122820085D01*
X139976847Y-123069248D01*
X141101183Y-123279020D01*
X142240930Y-123449429D01*
X143396198Y-123580500D01*
X144567101Y-123672259D01*
X145226616Y-123706353D01*
X145361974Y-123710690D01*
X145532480Y-123713940D01*
X145732040Y-123716147D01*
X145954562Y-123717355D01*
X146193956Y-123717606D01*
X146444127Y-123716946D01*
X146698984Y-123715418D01*
X146952434Y-123713065D01*
X147198386Y-123709931D01*
X147430746Y-123706060D01*
X147643423Y-123701495D01*
X147830325Y-123696281D01*
X147985358Y-123690460D01*
X148073533Y-123685936D01*
X148953911Y-123623544D01*
X149803112Y-123543492D01*
X150628955Y-123444597D01*
X151439257Y-123325679D01*
X152241835Y-123185557D01*
X153044507Y-123023048D01*
X153855091Y-122836972D01*
X154113704Y-122773190D01*
X155158461Y-122491141D01*
X156196141Y-122170786D01*
X157223972Y-121813388D01*
X158239186Y-121420212D01*
X159239012Y-120992522D01*
X160220680Y-120531582D01*
X161181421Y-120038656D01*
X161576511Y-119817867D01*
X167084611Y-119817867D01*
X167089762Y-119829696D01*
X167111074Y-119852419D01*
X167123327Y-119847758D01*
X167123533Y-119844799D01*
X167108499Y-119826896D01*
X167099096Y-119820362D01*
X167084611Y-119817867D01*
X161576511Y-119817867D01*
X161644183Y-119780050D01*
X167017700Y-119780050D01*
X167028283Y-119790633D01*
X167038866Y-119780050D01*
X167028283Y-119769466D01*
X167017700Y-119780050D01*
X161644183Y-119780050D01*
X161765897Y-119712033D01*
X166936445Y-119712033D01*
X166941595Y-119723862D01*
X166962908Y-119746586D01*
X166975160Y-119741924D01*
X166975366Y-119738965D01*
X166960332Y-119721062D01*
X166950929Y-119714528D01*
X166936445Y-119712033D01*
X161765897Y-119712033D01*
X162118465Y-119515008D01*
X163029042Y-118961902D01*
X163910382Y-118380603D01*
X164234283Y-118154540D01*
X165132008Y-117494866D01*
X165993651Y-116813878D01*
X166820373Y-116110386D01*
X167613335Y-115383198D01*
X168373700Y-114631125D01*
X169102630Y-113852975D01*
X169801286Y-113047559D01*
X170292955Y-112435216D01*
X183131587Y-112435216D01*
X183132932Y-112485413D01*
X183136705Y-112503762D01*
X183140433Y-112493716D01*
X183144244Y-112435646D01*
X183140722Y-112387882D01*
X183135872Y-112373194D01*
X183132539Y-112396071D01*
X183131587Y-112435216D01*
X170292955Y-112435216D01*
X170470829Y-112213686D01*
X170487090Y-112191800D01*
X183153474Y-112191800D01*
X183154558Y-112249951D01*
X183157417Y-112275843D01*
X183161462Y-112264732D01*
X183162011Y-112260591D01*
X183165514Y-112186370D01*
X183162011Y-112123008D01*
X183157861Y-112107032D01*
X183154825Y-112128642D01*
X183153492Y-112183093D01*
X183153474Y-112191800D01*
X170487090Y-112191800D01*
X171112423Y-111350165D01*
X171684911Y-110519633D01*
X172221974Y-109684097D01*
X172719983Y-108850991D01*
X173181508Y-108015041D01*
X173475637Y-107434458D01*
X182393652Y-107434458D01*
X182397925Y-107455972D01*
X182415319Y-107508843D01*
X182443074Y-107585185D01*
X182478433Y-107677113D01*
X182479495Y-107679807D01*
X182656778Y-108171982D01*
X182811747Y-108690032D01*
X182941422Y-109222176D01*
X183042825Y-109756630D01*
X183093061Y-110106883D01*
X183116449Y-110307049D01*
X183134865Y-110494038D01*
X183148887Y-110677783D01*
X183159093Y-110868219D01*
X183166060Y-111075283D01*
X183170368Y-111308908D01*
X183171883Y-111461550D01*
X183173225Y-111628207D01*
X183174501Y-111754212D01*
X183175819Y-111841243D01*
X183177285Y-111890980D01*
X183179005Y-111905102D01*
X183181086Y-111885290D01*
X183183635Y-111833223D01*
X183186756Y-111750580D01*
X183187977Y-111715550D01*
X183191018Y-111578427D01*
X183192034Y-111414293D01*
X183191083Y-111238418D01*
X183188224Y-111066072D01*
X183185045Y-110953550D01*
X183141980Y-110312452D01*
X183057361Y-109677225D01*
X182931614Y-109049931D01*
X182765169Y-108432637D01*
X182558453Y-107827407D01*
X182512485Y-107708423D01*
X182472540Y-107608836D01*
X182437866Y-107525808D01*
X182411389Y-107466082D01*
X182396032Y-107436401D01*
X182393652Y-107434458D01*
X173475637Y-107434458D01*
X173609122Y-107170974D01*
X173682303Y-107012622D01*
X182201655Y-107012622D01*
X182206775Y-107033671D01*
X182226452Y-107084563D01*
X182257267Y-107156816D01*
X182282786Y-107213713D01*
X182320455Y-107293971D01*
X182351720Y-107356450D01*
X182372574Y-107393386D01*
X182378812Y-107399910D01*
X182373747Y-107378793D01*
X182354074Y-107327864D01*
X182323218Y-107255612D01*
X182297681Y-107198818D01*
X182259945Y-107118599D01*
X182228661Y-107056127D01*
X182207837Y-107019173D01*
X182201655Y-107012622D01*
X173682303Y-107012622D01*
X173700052Y-106974216D01*
X182173033Y-106974216D01*
X182183616Y-106984800D01*
X182194200Y-106974216D01*
X182183616Y-106963633D01*
X182173033Y-106974216D01*
X173700052Y-106974216D01*
X173719616Y-106931883D01*
X182151866Y-106931883D01*
X182162450Y-106942466D01*
X182173033Y-106931883D01*
X182162450Y-106921300D01*
X182151866Y-106931883D01*
X173719616Y-106931883D01*
X173739180Y-106889550D01*
X182130700Y-106889550D01*
X182141283Y-106900133D01*
X182151866Y-106889550D01*
X182141283Y-106878966D01*
X182130700Y-106889550D01*
X173739180Y-106889550D01*
X173758745Y-106847216D01*
X182109533Y-106847216D01*
X182120116Y-106857800D01*
X182130700Y-106847216D01*
X182120116Y-106836633D01*
X182109533Y-106847216D01*
X173758745Y-106847216D01*
X173778309Y-106804883D01*
X182088366Y-106804883D01*
X182098950Y-106815466D01*
X182109533Y-106804883D01*
X182098950Y-106794300D01*
X182088366Y-106804883D01*
X173778309Y-106804883D01*
X173797873Y-106762550D01*
X182067200Y-106762550D01*
X182077783Y-106773133D01*
X182088366Y-106762550D01*
X182077783Y-106751966D01*
X182067200Y-106762550D01*
X173797873Y-106762550D01*
X173817438Y-106720216D01*
X182046033Y-106720216D01*
X182056616Y-106730800D01*
X182067200Y-106720216D01*
X182056616Y-106709633D01*
X182046033Y-106720216D01*
X173817438Y-106720216D01*
X173837003Y-106677883D01*
X182024866Y-106677883D01*
X182035450Y-106688466D01*
X182046033Y-106677883D01*
X182035450Y-106667300D01*
X182024866Y-106677883D01*
X173837003Y-106677883D01*
X173929934Y-106476800D01*
X181928756Y-106476800D01*
X181930980Y-106493489D01*
X181948748Y-106535749D01*
X181961366Y-106561466D01*
X181989413Y-106612265D01*
X182010210Y-106642479D01*
X182015143Y-106646133D01*
X182012919Y-106629444D01*
X181995151Y-106587183D01*
X181982533Y-106561466D01*
X181954486Y-106510667D01*
X181933689Y-106480453D01*
X181928756Y-106476800D01*
X173929934Y-106476800D01*
X173944608Y-106445050D01*
X181897866Y-106445050D01*
X181908450Y-106455633D01*
X181919033Y-106445050D01*
X181908450Y-106434466D01*
X181897866Y-106445050D01*
X173944608Y-106445050D01*
X173998411Y-106328633D01*
X181843460Y-106328633D01*
X181843604Y-106344189D01*
X181855533Y-106370966D01*
X181877392Y-106404231D01*
X181888772Y-106413300D01*
X181888628Y-106397743D01*
X181876700Y-106370966D01*
X181854840Y-106337702D01*
X181843460Y-106328633D01*
X173998411Y-106328633D01*
X174005397Y-106313517D01*
X174012374Y-106296883D01*
X181813200Y-106296883D01*
X181823783Y-106307466D01*
X181834366Y-106296883D01*
X181823783Y-106286300D01*
X181813200Y-106296883D01*
X174012374Y-106296883D01*
X174061206Y-106180466D01*
X181758793Y-106180466D01*
X181758937Y-106196022D01*
X181770866Y-106222800D01*
X181792725Y-106256064D01*
X181804106Y-106265133D01*
X181803962Y-106249577D01*
X181792033Y-106222800D01*
X181770174Y-106189535D01*
X181758793Y-106180466D01*
X174061206Y-106180466D01*
X174085297Y-106123033D01*
X181710778Y-106123033D01*
X181715928Y-106134862D01*
X181737241Y-106157586D01*
X181749493Y-106152924D01*
X181749700Y-106149965D01*
X181734665Y-106132062D01*
X181725262Y-106125528D01*
X181710778Y-106123033D01*
X174085297Y-106123033D01*
X174101160Y-106085216D01*
X181686200Y-106085216D01*
X181696783Y-106095800D01*
X181707366Y-106085216D01*
X181696783Y-106074633D01*
X181686200Y-106085216D01*
X174101160Y-106085216D01*
X174129690Y-106017200D01*
X181647278Y-106017200D01*
X181652428Y-106029029D01*
X181673741Y-106051752D01*
X181685993Y-106047091D01*
X181686200Y-106044132D01*
X181671165Y-106026229D01*
X181661762Y-106019695D01*
X181647278Y-106017200D01*
X174129690Y-106017200D01*
X174145553Y-105979383D01*
X181622700Y-105979383D01*
X181633283Y-105989966D01*
X181643866Y-105979383D01*
X181633283Y-105968800D01*
X181622700Y-105979383D01*
X174145553Y-105979383D01*
X174172189Y-105915883D01*
X181580366Y-105915883D01*
X181590950Y-105926466D01*
X181601533Y-105915883D01*
X181590950Y-105905300D01*
X181580366Y-105915883D01*
X174172189Y-105915883D01*
X174200720Y-105847867D01*
X181541445Y-105847867D01*
X181546595Y-105859696D01*
X181567908Y-105882419D01*
X181580160Y-105877758D01*
X181580366Y-105874799D01*
X181565332Y-105856896D01*
X181555929Y-105850362D01*
X181541445Y-105847867D01*
X174200720Y-105847867D01*
X174227357Y-105784367D01*
X181499111Y-105784367D01*
X181504262Y-105796196D01*
X181525574Y-105818919D01*
X181537827Y-105814258D01*
X181538033Y-105811299D01*
X181522999Y-105793396D01*
X181513596Y-105786862D01*
X181499111Y-105784367D01*
X174227357Y-105784367D01*
X174253994Y-105720867D01*
X181456778Y-105720867D01*
X181461928Y-105732696D01*
X181483241Y-105755419D01*
X181495493Y-105750758D01*
X181495700Y-105747799D01*
X181480665Y-105729896D01*
X181471262Y-105723362D01*
X181456778Y-105720867D01*
X174253994Y-105720867D01*
X174280631Y-105657367D01*
X181414445Y-105657367D01*
X181419595Y-105669196D01*
X181440908Y-105691919D01*
X181453160Y-105687258D01*
X181453366Y-105684299D01*
X181438332Y-105666396D01*
X181428929Y-105659862D01*
X181414445Y-105657367D01*
X174280631Y-105657367D01*
X174305373Y-105598383D01*
X181368700Y-105598383D01*
X181379283Y-105608966D01*
X181389866Y-105598383D01*
X181379283Y-105587800D01*
X181368700Y-105598383D01*
X174305373Y-105598383D01*
X174332010Y-105534883D01*
X181326366Y-105534883D01*
X181336950Y-105545466D01*
X181347533Y-105534883D01*
X181336950Y-105524300D01*
X181326366Y-105534883D01*
X174332010Y-105534883D01*
X174358647Y-105471383D01*
X181284033Y-105471383D01*
X181294616Y-105481966D01*
X181305200Y-105471383D01*
X181294616Y-105460800D01*
X181284033Y-105471383D01*
X174358647Y-105471383D01*
X174372903Y-105437398D01*
X174714214Y-104537342D01*
X174983231Y-103756883D01*
X175292282Y-102752401D01*
X175560350Y-101737862D01*
X175787358Y-100714101D01*
X175973229Y-99681955D01*
X176117888Y-98642260D01*
X176221258Y-97595850D01*
X176283264Y-96543563D01*
X176303828Y-95486234D01*
X176282876Y-94424699D01*
X176220330Y-93359794D01*
X176116115Y-92292354D01*
X176065064Y-91882383D01*
X175908965Y-90860608D01*
X175711317Y-89843542D01*
X175472782Y-88832679D01*
X175194022Y-87829510D01*
X174875700Y-86835529D01*
X174518478Y-85852228D01*
X174123018Y-84881101D01*
X173689981Y-83923640D01*
X173220031Y-82981338D01*
X172713828Y-82055688D01*
X172172036Y-81148184D01*
X171595317Y-80260317D01*
X170984331Y-79393581D01*
X170339743Y-78549468D01*
X169926250Y-78041417D01*
X169197396Y-77200222D01*
X168436738Y-76386489D01*
X167645655Y-75601404D01*
X166825528Y-74846147D01*
X165977737Y-74121904D01*
X165103664Y-73429857D01*
X164204688Y-72771190D01*
X163282189Y-72147085D01*
X162424533Y-71610843D01*
X161436107Y-71039967D01*
X160434966Y-70508915D01*
X159420336Y-70017412D01*
X158391445Y-69565184D01*
X157347517Y-69151955D01*
X156287781Y-68777453D01*
X155211462Y-68441401D01*
X154117787Y-68143526D01*
X153005983Y-67883552D01*
X151875275Y-67661205D01*
X150814616Y-67489197D01*
X149884130Y-67369166D01*
X148929696Y-67276788D01*
X147959675Y-67212366D01*
X146982429Y-67176198D01*
X146006319Y-67168585D01*
X145039707Y-67189827D01*
X144090952Y-67240225D01*
X144020116Y-67245234D01*
X142915897Y-67344406D01*
X141812527Y-67482559D01*
X140713639Y-67658931D01*
X139622867Y-67872756D01*
X138543844Y-68123274D01*
X137480204Y-68409721D01*
X136435579Y-68731333D01*
X135638116Y-69005462D01*
X134792809Y-69325676D01*
X133940170Y-69679617D01*
X133089265Y-70062986D01*
X132249159Y-70471487D01*
X131428918Y-70900822D01*
X130637607Y-71346694D01*
X130390219Y-71493218D01*
X130122349Y-71656541D01*
X129841834Y-71832524D01*
X129554277Y-72017373D01*
X129265281Y-72207293D01*
X128980448Y-72398490D01*
X128705382Y-72587170D01*
X128445685Y-72769537D01*
X128206961Y-72941797D01*
X127994812Y-73100155D01*
X127842566Y-73218603D01*
X127794016Y-73257294D01*
X127842566Y-73323391D01*
X127880034Y-73372694D01*
X127933362Y-73440800D01*
X127991606Y-73513745D01*
X127996950Y-73520361D01*
X128292204Y-73916033D01*
X128564426Y-74342705D01*
X128810431Y-74793988D01*
X129027038Y-75263490D01*
X129211063Y-75744823D01*
X129359324Y-76231595D01*
X129372633Y-76282550D01*
X129461984Y-76667278D01*
X129528109Y-77040369D01*
X129572641Y-77415008D01*
X129597218Y-77804386D01*
X129603629Y-78145216D01*
X129602247Y-78376749D01*
X129596711Y-78577853D01*
X129586020Y-78760313D01*
X129569176Y-78935915D01*
X129545177Y-79116445D01*
X129513025Y-79313690D01*
X129496798Y-79404633D01*
X129376861Y-79947961D01*
X129218363Y-80475500D01*
X129022611Y-80985699D01*
X128790913Y-81477006D01*
X128524576Y-81947867D01*
X128224906Y-82396732D01*
X127893211Y-82822047D01*
X127530798Y-83222261D01*
X127138974Y-83595821D01*
X126719046Y-83941175D01*
X126272321Y-84256772D01*
X125800106Y-84541058D01*
X125303708Y-84792481D01*
X124784436Y-85009491D01*
X124773498Y-85013592D01*
X124303399Y-85169987D01*
X123815840Y-85295101D01*
X123318393Y-85387781D01*
X122818633Y-85446879D01*
X122324133Y-85471244D01*
X121842468Y-85459726D01*
X121837450Y-85459407D01*
X121298034Y-85408453D01*
X120782534Y-85325478D01*
X120285684Y-85209136D01*
X119802221Y-85058077D01*
X119326881Y-84870954D01*
X119056037Y-84746909D01*
X118948956Y-84695822D01*
X118856043Y-84652340D01*
X118783586Y-84619339D01*
X118737871Y-84599690D01*
X118724776Y-84595517D01*
X118714199Y-84617329D01*
X118690165Y-84672312D01*
X118655181Y-84754432D01*
X118611758Y-84857656D01*
X118562406Y-84975948D01*
X118509634Y-85103275D01*
X118455951Y-85233602D01*
X118403869Y-85360894D01*
X118355895Y-85479117D01*
X118317534Y-85574716D01*
X118035365Y-86320456D01*
X117775045Y-87084476D01*
X117537968Y-87860989D01*
X117325531Y-88644207D01*
X117139129Y-89428344D01*
X116980156Y-90207613D01*
X116850008Y-90976226D01*
X116750080Y-91728396D01*
X116692931Y-92313204D01*
X116678571Y-92490025D01*
X114954136Y-92490025D01*
X114974982Y-92271028D01*
X115114543Y-91199615D01*
X115290134Y-90147625D01*
X115502262Y-89112869D01*
X115751437Y-88093160D01*
X116038167Y-87086311D01*
X116362961Y-86090136D01*
X116726328Y-85102446D01*
X116885007Y-84703301D01*
X117290669Y-83756287D01*
X117519648Y-83271711D01*
X119371533Y-83271711D01*
X119390032Y-83289260D01*
X119441222Y-83319776D01*
X119518643Y-83360124D01*
X119615832Y-83407171D01*
X119726329Y-83457782D01*
X119843674Y-83508823D01*
X119953616Y-83554062D01*
X120377291Y-83710058D01*
X120785741Y-83833229D01*
X121187543Y-83925760D01*
X121591269Y-83989837D01*
X121721033Y-84004561D01*
X121815098Y-84010947D01*
X121942006Y-84014849D01*
X122092347Y-84016403D01*
X122256712Y-84015745D01*
X122425692Y-84013011D01*
X122589876Y-84008339D01*
X122739856Y-84001863D01*
X122866223Y-83993721D01*
X122936893Y-83986952D01*
X123441930Y-83907249D01*
X123931868Y-83788623D01*
X124405103Y-83632103D01*
X124860028Y-83438719D01*
X125295037Y-83209500D01*
X125708525Y-82945478D01*
X126098885Y-82647681D01*
X126464511Y-82317139D01*
X126803798Y-81954882D01*
X127115139Y-81561940D01*
X127396929Y-81139343D01*
X127409199Y-81119133D01*
X127625525Y-80730086D01*
X127808378Y-80332328D01*
X127959751Y-79920095D01*
X128081642Y-79487626D01*
X128176044Y-79029158D01*
X128211723Y-78801383D01*
X128226483Y-78665280D01*
X128237530Y-78497568D01*
X128244784Y-78308815D01*
X128248166Y-78109591D01*
X128247594Y-77910463D01*
X128242990Y-77722001D01*
X128234272Y-77554772D01*
X128222152Y-77425550D01*
X128141001Y-76935060D01*
X128022306Y-76454185D01*
X127867591Y-75986734D01*
X127678377Y-75536515D01*
X127456184Y-75107339D01*
X127202536Y-74703014D01*
X127051206Y-74493966D01*
X126955555Y-74368546D01*
X126881964Y-74273250D01*
X126826918Y-74204467D01*
X126786902Y-74158587D01*
X126758400Y-74131998D01*
X126737896Y-74121091D01*
X126721877Y-74122253D01*
X126706826Y-74131875D01*
X126702308Y-74135592D01*
X125856549Y-74866122D01*
X125050189Y-75611195D01*
X124282639Y-76371457D01*
X123553309Y-77147554D01*
X122861612Y-77940134D01*
X122206958Y-78749844D01*
X121588758Y-79577329D01*
X121087586Y-80301022D01*
X120814145Y-80717903D01*
X120549118Y-81136948D01*
X120296471Y-81551517D01*
X120060167Y-81954972D01*
X119844171Y-82340675D01*
X119652447Y-82701986D01*
X119643576Y-82719279D01*
X119573135Y-82857558D01*
X119509470Y-82983927D01*
X119455040Y-83093393D01*
X119412304Y-83180966D01*
X119383719Y-83241651D01*
X119371745Y-83270459D01*
X119371533Y-83271711D01*
X117519648Y-83271711D01*
X117736170Y-82813499D01*
X118219012Y-81879024D01*
X118736701Y-80956948D01*
X119286740Y-80051358D01*
X119866635Y-79166341D01*
X120473889Y-78305982D01*
X121106008Y-77474368D01*
X121760496Y-76675586D01*
X121854557Y-76565691D01*
X122109893Y-76274446D01*
X122389559Y-75965281D01*
X122687645Y-75644249D01*
X122998237Y-75317406D01*
X123315424Y-74990808D01*
X123633294Y-74670509D01*
X123945936Y-74362564D01*
X124247438Y-74073028D01*
X124531889Y-73807957D01*
X124664002Y-73688165D01*
X125548722Y-72921992D01*
X126454239Y-72192684D01*
X127380488Y-71500279D01*
X128327400Y-70844813D01*
X129294911Y-70226325D01*
X130282953Y-69644850D01*
X131291460Y-69100427D01*
X132320366Y-68593093D01*
X133369604Y-68122885D01*
X134439107Y-67689840D01*
X135528809Y-67293996D01*
X136638644Y-66935391D01*
X136772761Y-66894986D01*
X137907875Y-66577552D01*
X139055645Y-66299913D01*
X140214077Y-66062276D01*
X141381179Y-65864850D01*
X142554959Y-65707840D01*
X143733422Y-65591454D01*
X144914577Y-65515900D01*
X146096432Y-65481386D01*
X147276992Y-65488118D01*
X147276992Y-65488118D01*
G37*
X147276992Y-65488118D02*
X148454267Y-65536304D01*
X149269450Y-65594317D01*
X150269477Y-65695406D01*
X151284391Y-65831952D01*
X152308199Y-66002589D01*
X153334912Y-66205947D01*
X154358537Y-66440656D01*
X155373084Y-66705349D01*
X156372562Y-66998656D01*
X157350979Y-67319209D01*
X158254468Y-67647325D01*
X159336573Y-68082519D01*
X160397885Y-68554519D01*
X161438175Y-69063201D01*
X162457216Y-69608442D01*
X163454779Y-70190118D01*
X164430637Y-70808105D01*
X165384562Y-71462280D01*
X165690332Y-71683027D01*
X166584726Y-72361792D01*
X167451656Y-73070076D01*
X168290268Y-73806751D01*
X169099706Y-74570690D01*
X169879117Y-75360764D01*
X170627644Y-76175845D01*
X171344434Y-77014805D01*
X172028632Y-77876515D01*
X172679382Y-78759848D01*
X173295829Y-79663675D01*
X173877120Y-80586867D01*
X174422399Y-81528298D01*
X174930811Y-82486838D01*
X175401502Y-83461360D01*
X175833617Y-84450735D01*
X176226300Y-85453834D01*
X176320241Y-85712300D01*
X176667505Y-86744280D01*
X176975372Y-87788112D01*
X177243686Y-88842107D01*
X177472290Y-89904578D01*
X177661029Y-90973838D01*
X177809745Y-92048200D01*
X177918283Y-93125976D01*
X177986487Y-94205481D01*
X178014200Y-95285027D01*
X178001265Y-96362926D01*
X177947527Y-97437491D01*
X177852830Y-98507036D01*
X177717016Y-99569873D01*
X177646040Y-100023779D01*
X177566431Y-100506097D01*
X177747774Y-100583788D01*
X177879403Y-100642754D01*
X178038030Y-100717928D01*
X178213961Y-100804400D01*
X178397503Y-100897261D01*
X178578963Y-100991601D01*
X178748647Y-101082511D01*
X178896862Y-101165082D01*
X178907560Y-101171213D01*
X179488258Y-101528907D01*
X180051537Y-101924213D01*
X180595269Y-102355267D01*
X181117323Y-102820203D01*
X181615569Y-103317159D01*
X182087879Y-103844269D01*
X182401755Y-104229975D01*
X182489884Y-104346931D01*
X182594092Y-104492087D01*
X182708891Y-104657218D01*
X182828795Y-104834095D01*
X182948316Y-105014491D01*
X183061966Y-105190179D01*
X183164259Y-105352932D01*
X183249708Y-105494522D01*
X183279121Y-105545466D01*
X183612030Y-106173469D01*
X183903856Y-106811186D01*
X184154521Y-107458316D01*
X184363948Y-108114560D01*
X184532059Y-108779616D01*
X184658779Y-109453185D01*
X184744029Y-110134965D01*
X184787734Y-110824656D01*
X184791514Y-111450395D01*
X184775238Y-111870642D01*
X184744200Y-112304104D01*
X184699574Y-112742323D01*
X184642533Y-113176840D01*
X184574249Y-113599195D01*
X184495894Y-114000930D01*
X184408642Y-114373586D01*
X184362514Y-114544715D01*
X184149623Y-115222454D01*
X183900230Y-115881916D01*
X183615508Y-116521786D01*
X183296627Y-117140748D01*
X182944758Y-117737486D01*
X182561072Y-118310686D01*
X182146740Y-118859032D01*
X181702934Y-119381207D01*
X181230824Y-119875897D01*
X180731581Y-120341785D01*
X180206378Y-120777557D01*
X179656383Y-121181896D01*
X179082769Y-121553487D01*
X178486708Y-121891015D01*
X177869368Y-122193163D01*
X177363291Y-122407605D01*
X176692672Y-122652156D01*
X176022732Y-122854825D01*
X175351454Y-123015979D01*
X174676819Y-123135983D01*
X173996812Y-123215203D01*
X173309412Y-123254005D01*
X172690366Y-123254855D01*
X171969812Y-123218175D01*
X171266021Y-123142834D01*
X170577976Y-123028588D01*
X169904656Y-122875191D01*
X169245042Y-122682400D01*
X168598115Y-122449970D01*
X167962855Y-122177657D01*
X167726783Y-122064888D01*
X167166991Y-121772513D01*
X166634830Y-121458106D01*
X166123824Y-121117206D01*
X165664338Y-120772953D01*
X168737657Y-120772953D01*
X168752521Y-120783975D01*
X168800612Y-120807608D01*
X168875666Y-120841223D01*
X168971418Y-120882188D01*
X169081600Y-120927875D01*
X169199947Y-120975651D01*
X169320194Y-121022888D01*
X169436074Y-121066956D01*
X169453270Y-121073343D01*
X169978577Y-121248993D01*
X170529579Y-121397369D01*
X171098160Y-121516672D01*
X171676206Y-121605105D01*
X172021733Y-121642375D01*
X172161630Y-121652320D01*
X172334449Y-121660255D01*
X172531014Y-121666122D01*
X172742148Y-121669864D01*
X172958678Y-121671425D01*
X173171425Y-121670747D01*
X173371216Y-121667773D01*
X173548874Y-121662447D01*
X173695224Y-121654710D01*
X173719167Y-121652929D01*
X174380039Y-121580473D01*
X175030366Y-121468528D01*
X175668159Y-121317698D01*
X176291433Y-121128589D01*
X176898198Y-120901806D01*
X177486469Y-120637953D01*
X178054257Y-120337635D01*
X178070041Y-120328592D01*
X178585249Y-120010114D01*
X179088520Y-119653955D01*
X179574902Y-119264189D01*
X180039440Y-118844889D01*
X180477181Y-118400129D01*
X180655002Y-118203133D01*
X181061133Y-117709516D01*
X181436315Y-117188831D01*
X181778989Y-116644182D01*
X182087597Y-116078677D01*
X182360581Y-115495422D01*
X182596381Y-114897523D01*
X182793439Y-114288086D01*
X182950197Y-113670218D01*
X182965880Y-113597295D01*
X182989934Y-113477598D01*
X183015132Y-113342325D01*
X183040272Y-113199045D01*
X183064150Y-113055329D01*
X183085564Y-112918745D01*
X183103308Y-112796864D01*
X183116182Y-112697255D01*
X183122980Y-112627488D01*
X183123693Y-112604550D01*
X183120251Y-112602294D01*
X183111833Y-112636575D01*
X183099479Y-112702026D01*
X183084227Y-112793282D01*
X183072460Y-112869133D01*
X182953120Y-113519048D01*
X182793130Y-114158167D01*
X182593117Y-114785082D01*
X182353712Y-115398385D01*
X182075543Y-115996666D01*
X181759238Y-116578519D01*
X181405426Y-117142535D01*
X181014737Y-117687305D01*
X180799496Y-117959716D01*
X180699674Y-118077050D01*
X180575645Y-118214961D01*
X180433723Y-118367053D01*
X180280224Y-118526927D01*
X180121463Y-118688186D01*
X179963757Y-118844432D01*
X179813420Y-118989268D01*
X179676767Y-119116296D01*
X179560115Y-119219118D01*
X179537783Y-119237839D01*
X179049342Y-119622726D01*
X178559531Y-119968217D01*
X178063393Y-120277094D01*
X177555967Y-120552142D01*
X177032297Y-120796146D01*
X176487424Y-121011888D01*
X176200214Y-121111786D01*
X175578765Y-121296990D01*
X174948671Y-121442733D01*
X174312408Y-121549101D01*
X173672453Y-121616175D01*
X173031282Y-121644040D01*
X172391371Y-121632781D01*
X171755197Y-121582480D01*
X171125235Y-121493221D01*
X170503962Y-121365088D01*
X169893854Y-121198165D01*
X169297387Y-120992536D01*
X168987451Y-120867809D01*
X168894726Y-120829389D01*
X168817138Y-120798795D01*
X168762364Y-120778942D01*
X168738080Y-120772746D01*
X168737657Y-120772953D01*
X165664338Y-120772953D01*
X165638661Y-120753716D01*
X168689866Y-120753716D01*
X168700450Y-120764300D01*
X168711033Y-120753716D01*
X168700450Y-120743133D01*
X168689866Y-120753716D01*
X165638661Y-120753716D01*
X165627494Y-120745350D01*
X165612153Y-120732550D01*
X168647533Y-120732550D01*
X168658116Y-120743133D01*
X168668700Y-120732550D01*
X168658116Y-120721966D01*
X168647533Y-120732550D01*
X165612153Y-120732550D01*
X165332616Y-120499317D01*
X168181866Y-120499317D01*
X168199399Y-120512480D01*
X168245839Y-120539268D01*
X168311950Y-120574944D01*
X168388494Y-120614772D01*
X168466235Y-120654017D01*
X168535935Y-120687943D01*
X168588357Y-120711813D01*
X168614019Y-120720884D01*
X168626131Y-120715701D01*
X168624602Y-120713814D01*
X168600298Y-120698993D01*
X168549158Y-120672019D01*
X168480177Y-120637250D01*
X168402350Y-120599043D01*
X168324672Y-120561757D01*
X168256138Y-120529749D01*
X168205741Y-120507377D01*
X168182478Y-120498998D01*
X168181866Y-120499317D01*
X165332616Y-120499317D01*
X165307726Y-120478550D01*
X168139533Y-120478550D01*
X168150116Y-120489133D01*
X168160700Y-120478550D01*
X168150116Y-120467966D01*
X168139533Y-120478550D01*
X165307726Y-120478550D01*
X165282356Y-120457383D01*
X168097200Y-120457383D01*
X168107783Y-120467966D01*
X168118366Y-120457383D01*
X168107783Y-120446800D01*
X168097200Y-120457383D01*
X165282356Y-120457383D01*
X165182007Y-120373657D01*
X167950492Y-120373657D01*
X167972079Y-120392618D01*
X168007241Y-120413526D01*
X168052449Y-120437539D01*
X168071662Y-120444906D01*
X168075979Y-120439378D01*
X168076033Y-120436760D01*
X168059297Y-120421331D01*
X168018414Y-120396967D01*
X168012533Y-120393883D01*
X167964346Y-120372709D01*
X167950492Y-120373657D01*
X165182007Y-120373657D01*
X165155510Y-120351550D01*
X167906700Y-120351550D01*
X167917283Y-120362133D01*
X167927866Y-120351550D01*
X167917283Y-120340966D01*
X167906700Y-120351550D01*
X165155510Y-120351550D01*
X165139362Y-120338077D01*
X165102281Y-120304700D01*
X167846611Y-120304700D01*
X167851762Y-120316529D01*
X167873074Y-120339252D01*
X167885327Y-120334591D01*
X167885533Y-120331632D01*
X167870499Y-120313729D01*
X167861096Y-120307195D01*
X167846611Y-120304700D01*
X165102281Y-120304700D01*
X165083783Y-120288050D01*
X167800866Y-120288050D01*
X167811450Y-120298633D01*
X167822033Y-120288050D01*
X167811450Y-120277466D01*
X167800866Y-120288050D01*
X165083783Y-120288050D01*
X165007930Y-120219775D01*
X167699587Y-120219775D01*
X167703234Y-120226345D01*
X167725537Y-120244548D01*
X167763297Y-120272306D01*
X167778232Y-120274741D01*
X167779700Y-120267628D01*
X167763075Y-120252118D01*
X167732075Y-120234710D01*
X167699587Y-120219775D01*
X165007930Y-120219775D01*
X164961185Y-120177700D01*
X167634945Y-120177700D01*
X167640095Y-120189529D01*
X167661408Y-120212252D01*
X167673660Y-120207591D01*
X167673866Y-120204632D01*
X167658832Y-120186729D01*
X167649429Y-120180195D01*
X167634945Y-120177700D01*
X164961185Y-120177700D01*
X164942687Y-120161050D01*
X167589200Y-120161050D01*
X167599783Y-120171633D01*
X167610366Y-120161050D01*
X167599783Y-120150466D01*
X167589200Y-120161050D01*
X164942687Y-120161050D01*
X164890637Y-120114200D01*
X167529111Y-120114200D01*
X167534262Y-120126029D01*
X167555574Y-120148752D01*
X167567827Y-120144091D01*
X167568033Y-120141132D01*
X167552999Y-120123229D01*
X167543596Y-120116695D01*
X167529111Y-120114200D01*
X164890637Y-120114200D01*
X164876231Y-120101234D01*
X164844411Y-120071867D01*
X167465611Y-120071867D01*
X167470762Y-120083696D01*
X167492074Y-120106419D01*
X167504327Y-120101758D01*
X167504533Y-120098799D01*
X167489499Y-120080896D01*
X167480096Y-120074362D01*
X167465611Y-120071867D01*
X164844411Y-120071867D01*
X164826369Y-120055216D01*
X167419866Y-120055216D01*
X167430450Y-120065800D01*
X167441033Y-120055216D01*
X167430450Y-120044633D01*
X167419866Y-120055216D01*
X164826369Y-120055216D01*
X164780499Y-120012883D01*
X167356366Y-120012883D01*
X167366950Y-120023466D01*
X167377533Y-120012883D01*
X167366950Y-120002300D01*
X167356366Y-120012883D01*
X164780499Y-120012883D01*
X164734629Y-119970550D01*
X167292866Y-119970550D01*
X167303450Y-119981133D01*
X167314033Y-119970550D01*
X167303450Y-119959966D01*
X167292866Y-119970550D01*
X164734629Y-119970550D01*
X164688757Y-119928216D01*
X167229366Y-119928216D01*
X167239950Y-119938800D01*
X167250533Y-119928216D01*
X167239950Y-119917633D01*
X167229366Y-119928216D01*
X164688757Y-119928216D01*
X164642886Y-119885883D01*
X167165866Y-119885883D01*
X167176450Y-119896466D01*
X167187033Y-119885883D01*
X167176450Y-119875300D01*
X167165866Y-119885883D01*
X164642886Y-119885883D01*
X164608012Y-119853699D01*
X164209481Y-120114603D01*
X163251124Y-120717915D01*
X162277469Y-121282814D01*
X161285738Y-121810746D01*
X160273154Y-122303155D01*
X159236941Y-122761485D01*
X158688616Y-122986522D01*
X157608461Y-123396128D01*
X156515283Y-123766353D01*
X155408486Y-124097323D01*
X154287473Y-124389169D01*
X153151649Y-124642019D01*
X152000417Y-124856000D01*
X150833181Y-125031242D01*
X149649344Y-125167873D01*
X148448310Y-125266021D01*
X147978283Y-125293729D01*
X147898317Y-125296794D01*
X147782696Y-125299602D01*
X147636151Y-125302140D01*
X147463416Y-125304397D01*
X147269222Y-125306361D01*
X147058302Y-125308019D01*
X146835388Y-125309360D01*
X146605213Y-125310371D01*
X146372509Y-125311042D01*
X146142008Y-125311359D01*
X145918442Y-125311311D01*
X145706545Y-125310886D01*
X145511047Y-125310073D01*
X145336682Y-125308858D01*
X145188182Y-125307231D01*
X145070280Y-125305178D01*
X144987706Y-125302690D01*
X144962033Y-125301338D01*
X144910492Y-125298096D01*
X144825385Y-125292991D01*
X144715410Y-125286535D01*
X144589268Y-125279238D01*
X144464616Y-125272120D01*
X143294113Y-125185784D01*
X142137910Y-125060223D01*
X140994110Y-124895032D01*
X139860816Y-124689808D01*
X138736132Y-124444147D01*
X137618159Y-124157646D01*
X136505001Y-123829900D01*
X135394760Y-123460507D01*
X134622116Y-123178376D01*
X133567551Y-122757356D01*
X132528912Y-122298798D01*
X131507575Y-121803697D01*
X130504913Y-121273048D01*
X129522302Y-120707846D01*
X128561115Y-120109087D01*
X127622727Y-119477764D01*
X126708512Y-118814874D01*
X125819844Y-118121411D01*
X124958098Y-117398371D01*
X124124649Y-116646748D01*
X123320870Y-115867538D01*
X122548136Y-115061735D01*
X121807821Y-114230336D01*
X121128775Y-113408883D01*
X120446144Y-112518582D01*
X120281028Y-112285796D01*
X124028200Y-112285796D01*
X124047340Y-112295090D01*
X124100708Y-112315184D01*
X124182222Y-112343942D01*
X124285803Y-112379224D01*
X124405371Y-112418894D01*
X124425075Y-112425341D01*
X125702081Y-112821799D01*
X126982135Y-113178239D01*
X128264048Y-113494449D01*
X129546634Y-113770216D01*
X130828702Y-114005329D01*
X132109066Y-114199575D01*
X133386537Y-114352742D01*
X134659928Y-114464618D01*
X135928049Y-114534991D01*
X136315450Y-114548217D01*
X136433756Y-114551047D01*
X136573836Y-114553385D01*
X136730556Y-114555238D01*
X136898780Y-114556610D01*
X137073375Y-114557505D01*
X137249204Y-114557929D01*
X137421134Y-114557885D01*
X137584030Y-114557379D01*
X137732757Y-114556416D01*
X137862181Y-114554999D01*
X137967166Y-114553134D01*
X138042578Y-114550826D01*
X138083282Y-114548079D01*
X138088993Y-114546591D01*
X138083237Y-114526631D01*
X138063325Y-114471383D01*
X138038365Y-114405062D01*
X140628026Y-114405062D01*
X140651265Y-114410305D01*
X140688821Y-114405572D01*
X140732565Y-114399499D01*
X140810172Y-114389807D01*
X140913419Y-114377479D01*
X141034088Y-114363497D01*
X141152033Y-114350174D01*
X141851653Y-114263175D01*
X142577649Y-114155863D01*
X143320332Y-114030097D01*
X144070015Y-113887733D01*
X144817009Y-113730630D01*
X145551626Y-113560644D01*
X146264178Y-113379635D01*
X146390501Y-113345713D01*
X147501555Y-113022851D01*
X148600771Y-112659421D01*
X149687661Y-112255635D01*
X150761740Y-111811709D01*
X151822520Y-111327857D01*
X152869513Y-110804292D01*
X153902234Y-110241229D01*
X154920195Y-109638881D01*
X155164366Y-109487173D01*
X155302871Y-109399446D01*
X155459625Y-109298686D01*
X155629069Y-109188592D01*
X155805643Y-109072858D01*
X155983788Y-108955182D01*
X156157944Y-108839259D01*
X156322552Y-108728786D01*
X156472051Y-108627459D01*
X156600882Y-108538974D01*
X156703486Y-108467028D01*
X156756530Y-108428631D01*
X156877611Y-108339058D01*
X156806638Y-108185804D01*
X156785939Y-108141849D01*
X156748495Y-108063140D01*
X156695929Y-107953063D01*
X156629866Y-107815005D01*
X156551927Y-107652352D01*
X156463738Y-107468491D01*
X156366922Y-107266807D01*
X156263101Y-107050689D01*
X156153900Y-106823521D01*
X156048212Y-106603800D01*
X155780881Y-106048430D01*
X155513748Y-105493926D01*
X155247452Y-104941596D01*
X154982631Y-104392750D01*
X154719921Y-103848698D01*
X154459962Y-103310749D01*
X154203390Y-102780211D01*
X153950843Y-102258396D01*
X153702960Y-101746611D01*
X153460378Y-101246167D01*
X153223734Y-100758373D01*
X152993667Y-100284539D01*
X152770814Y-99825973D01*
X152555813Y-99383986D01*
X152349302Y-98959886D01*
X152151919Y-98554983D01*
X151964301Y-98170586D01*
X151787086Y-97808006D01*
X151620912Y-97468551D01*
X151466417Y-97153531D01*
X151324238Y-96864255D01*
X151195014Y-96602032D01*
X151079381Y-96368173D01*
X150977979Y-96163986D01*
X150891443Y-95990781D01*
X150820414Y-95849867D01*
X150765527Y-95742554D01*
X150727421Y-95670151D01*
X150706734Y-95633968D01*
X150703205Y-95629847D01*
X150699323Y-95632689D01*
X150692133Y-95642068D01*
X150680680Y-95659731D01*
X150664010Y-95687424D01*
X150641166Y-95726896D01*
X150611195Y-95779893D01*
X150573140Y-95848164D01*
X150526046Y-95933455D01*
X150468959Y-96037515D01*
X150400924Y-96162090D01*
X150320984Y-96308928D01*
X150228186Y-96479777D01*
X150121573Y-96676384D01*
X150000192Y-96900497D01*
X149863085Y-97153862D01*
X149709300Y-97438228D01*
X149537879Y-97755342D01*
X149347869Y-98106951D01*
X149228632Y-98327633D01*
X149083175Y-98597017D01*
X148924617Y-98890968D01*
X148753727Y-99208049D01*
X148571275Y-99546822D01*
X148378032Y-99905850D01*
X148174766Y-100283695D01*
X147962249Y-100678920D01*
X147741249Y-101090087D01*
X147512536Y-101515758D01*
X147276881Y-101954497D01*
X147035053Y-102404865D01*
X146787823Y-102865426D01*
X146535959Y-103334741D01*
X146280232Y-103811372D01*
X146021412Y-104293884D01*
X145760268Y-104780837D01*
X145497570Y-105270795D01*
X145234089Y-105762320D01*
X144970594Y-106253975D01*
X144707855Y-106744321D01*
X144446641Y-107231922D01*
X144187723Y-107715339D01*
X143931870Y-108193136D01*
X143679853Y-108663875D01*
X143432441Y-109126118D01*
X143190403Y-109578428D01*
X142954511Y-110019367D01*
X142725533Y-110447498D01*
X142504240Y-110861383D01*
X142291401Y-111259584D01*
X142087787Y-111640665D01*
X141894166Y-112003188D01*
X141711310Y-112345715D01*
X141539987Y-112666808D01*
X141380968Y-112965031D01*
X141235022Y-113238945D01*
X141102920Y-113487113D01*
X140985431Y-113708098D01*
X140883325Y-113900462D01*
X140797372Y-114062767D01*
X140728341Y-114193576D01*
X140677003Y-114291452D01*
X140644128Y-114354956D01*
X140630484Y-114382653D01*
X140630366Y-114382951D01*
X140628026Y-114405062D01*
X138038365Y-114405062D01*
X138029175Y-114380644D01*
X137980708Y-114254208D01*
X137917841Y-114091871D01*
X137840494Y-113893428D01*
X137748587Y-113658676D01*
X137642038Y-113387408D01*
X137520767Y-113079421D01*
X137384692Y-112734511D01*
X137233734Y-112352472D01*
X137067811Y-111933099D01*
X136886843Y-111476190D01*
X136690748Y-110981537D01*
X136479446Y-110448939D01*
X136252856Y-109878188D01*
X136010897Y-109269082D01*
X135753489Y-108621415D01*
X135480550Y-107934983D01*
X135191999Y-107209581D01*
X135009916Y-106751966D01*
X134884448Y-106436756D01*
X134750586Y-106100617D01*
X134609017Y-105745266D01*
X134460425Y-105372420D01*
X134305498Y-104983797D01*
X134144922Y-104581113D01*
X133979383Y-104166086D01*
X133809568Y-103740432D01*
X133636162Y-103305869D01*
X133459853Y-102864114D01*
X133281326Y-102416885D01*
X133101268Y-101965897D01*
X132920364Y-101512869D01*
X132739302Y-101059517D01*
X132558768Y-100607558D01*
X132379447Y-100158710D01*
X132202027Y-99714690D01*
X132027193Y-99277214D01*
X131855631Y-98848000D01*
X131688029Y-98428766D01*
X131525072Y-98021227D01*
X131367447Y-97627102D01*
X131215839Y-97248107D01*
X131070936Y-96885959D01*
X130933423Y-96542376D01*
X130803987Y-96219075D01*
X130683314Y-95917772D01*
X130572091Y-95640185D01*
X130471003Y-95388031D01*
X130380737Y-95163028D01*
X130301979Y-94966891D01*
X130235416Y-94801339D01*
X130181734Y-94668088D01*
X130141619Y-94568855D01*
X130115757Y-94505359D01*
X130104835Y-94479314D01*
X130104613Y-94478875D01*
X130102152Y-94474540D01*
X130099454Y-94472071D01*
X130095821Y-94473466D01*
X130090557Y-94480721D01*
X130082962Y-94495833D01*
X130072339Y-94520800D01*
X130057990Y-94557620D01*
X130039217Y-94608288D01*
X130015322Y-94674802D01*
X129985608Y-94759159D01*
X129949377Y-94863357D01*
X129905930Y-94989392D01*
X129854570Y-95139262D01*
X129794599Y-95314964D01*
X129725319Y-95518494D01*
X129646033Y-95751851D01*
X129556041Y-96017030D01*
X129454648Y-96316030D01*
X129341154Y-96650848D01*
X129214862Y-97023480D01*
X129196113Y-97078800D01*
X129131929Y-97268047D01*
X129055012Y-97494610D01*
X128966298Y-97755738D01*
X128866724Y-98048681D01*
X128757225Y-98370688D01*
X128638737Y-98719009D01*
X128512198Y-99090894D01*
X128378544Y-99483592D01*
X128238710Y-99894353D01*
X128093633Y-100320427D01*
X127944249Y-100759063D01*
X127791495Y-101207511D01*
X127636306Y-101663021D01*
X127479620Y-102122843D01*
X127322372Y-102584225D01*
X127165499Y-103044419D01*
X127012792Y-103492300D01*
X126738877Y-104295685D01*
X126477894Y-105061333D01*
X126229881Y-105789129D01*
X125994879Y-106478958D01*
X125772925Y-107130704D01*
X125564059Y-107744252D01*
X125368321Y-108319488D01*
X125185749Y-108856295D01*
X125016382Y-109354560D01*
X124860260Y-109814165D01*
X124717421Y-110234997D01*
X124587905Y-110616940D01*
X124471751Y-110959878D01*
X124368998Y-111263697D01*
X124279685Y-111528282D01*
X124203851Y-111753516D01*
X124141535Y-111939286D01*
X124092777Y-112085475D01*
X124057614Y-112191969D01*
X124036088Y-112258652D01*
X124028236Y-112285409D01*
X124028200Y-112285796D01*
X120281028Y-112285796D01*
X119801282Y-111609436D01*
X119194409Y-110682026D01*
X118625746Y-109736931D01*
X118095513Y-108774732D01*
X117603930Y-107796009D01*
X117151217Y-106801341D01*
X116855640Y-106079563D01*
X119256443Y-106079563D01*
X119472319Y-106505723D01*
X119520013Y-106598973D01*
X119585247Y-106725143D01*
X119665685Y-106879777D01*
X119758990Y-107058419D01*
X119862826Y-107256610D01*
X119974857Y-107469895D01*
X120092747Y-107693817D01*
X120214161Y-107923919D01*
X120336762Y-108155743D01*
X120378019Y-108233633D01*
X120512051Y-108487564D01*
X120654317Y-108758918D01*
X120801217Y-109040718D01*
X120949147Y-109325986D01*
X121094508Y-109607743D01*
X121233697Y-109879011D01*
X121363112Y-110132813D01*
X121479154Y-110362170D01*
X121563929Y-110531379D01*
X122060015Y-111527375D01*
X122329732Y-111637583D01*
X122434329Y-111679497D01*
X122552560Y-111725514D01*
X122678153Y-111773341D01*
X122804836Y-111820690D01*
X122926337Y-111865269D01*
X123036384Y-111904788D01*
X123128705Y-111936956D01*
X123197027Y-111959483D01*
X123235080Y-111970077D01*
X123240717Y-111970290D01*
X123246094Y-111948452D01*
X123257214Y-111891571D01*
X123272845Y-111806358D01*
X123291753Y-111699524D01*
X123311340Y-111585810D01*
X123329949Y-111472883D01*
X123353197Y-111326153D01*
X123379849Y-111153741D01*
X123408671Y-110963766D01*
X123438426Y-110764350D01*
X123467879Y-110563613D01*
X123487330Y-110428930D01*
X123598964Y-109650310D01*
X122916538Y-108005346D01*
X122805818Y-107738446D01*
X122681382Y-107438458D01*
X122545726Y-107111398D01*
X122401344Y-106763285D01*
X122250733Y-106400135D01*
X122096388Y-106027967D01*
X121940804Y-105652798D01*
X121786478Y-105280644D01*
X121635904Y-104917525D01*
X121491579Y-104569457D01*
X121365296Y-104264883D01*
X121247238Y-103980159D01*
X121133245Y-103705277D01*
X121024424Y-103442903D01*
X120921881Y-103195705D01*
X120826723Y-102966348D01*
X120740057Y-102757499D01*
X120662989Y-102571826D01*
X120596627Y-102411995D01*
X120542077Y-102280673D01*
X120500445Y-102180526D01*
X120472839Y-102114222D01*
X120460489Y-102084716D01*
X120437392Y-102034904D01*
X120422892Y-102020228D01*
X120411251Y-102035994D01*
X120408762Y-102042383D01*
X120400851Y-102068356D01*
X120382182Y-102132220D01*
X120353564Y-102231146D01*
X120315808Y-102362301D01*
X120269725Y-102522857D01*
X120216126Y-102709982D01*
X120155819Y-102920845D01*
X120089617Y-103152617D01*
X120018329Y-103402467D01*
X119942766Y-103667564D01*
X119863739Y-103945078D01*
X119824734Y-104082140D01*
X119256443Y-106079563D01*
X116855640Y-106079563D01*
X116737595Y-105791308D01*
X116363284Y-104766490D01*
X116028505Y-103727467D01*
X115733477Y-102674819D01*
X115478421Y-101609126D01*
X115263558Y-100530968D01*
X115089107Y-99440925D01*
X114955290Y-98339576D01*
X114862325Y-97227502D01*
X114840560Y-96856550D01*
X114834388Y-96706622D01*
X114829565Y-96521817D01*
X114826043Y-96307530D01*
X114823777Y-96069160D01*
X114822718Y-95812103D01*
X114822819Y-95541756D01*
X114824035Y-95263517D01*
X114824705Y-95181006D01*
X117871581Y-95181006D01*
X117871608Y-95408170D01*
X117871975Y-95652037D01*
X117872666Y-95909404D01*
X117873663Y-96177068D01*
X117874950Y-96451825D01*
X117876508Y-96730471D01*
X117878321Y-97009804D01*
X117880371Y-97286620D01*
X117882640Y-97557715D01*
X117885113Y-97819887D01*
X117887770Y-98069931D01*
X117890595Y-98304645D01*
X117893571Y-98520824D01*
X117896680Y-98715266D01*
X117899905Y-98884766D01*
X117903228Y-99026123D01*
X117906633Y-99136132D01*
X117908665Y-99184883D01*
X117958320Y-99993965D01*
X118027879Y-100766657D01*
X118117315Y-101502772D01*
X118226600Y-102202124D01*
X118355705Y-102864526D01*
X118504602Y-103489793D01*
X118614250Y-103883883D01*
X118658020Y-104032050D01*
X118686046Y-103968550D01*
X118706964Y-103914907D01*
X118733573Y-103838338D01*
X118756989Y-103765398D01*
X118778675Y-103687405D01*
X118804754Y-103582403D01*
X118831728Y-103464973D01*
X118853079Y-103364665D01*
X118872750Y-103276114D01*
X118902082Y-103154805D01*
X118939031Y-103008662D01*
X118981553Y-102845609D01*
X119027607Y-102673572D01*
X119075149Y-102500474D01*
X119084453Y-102467150D01*
X119138436Y-102273976D01*
X119197572Y-102061713D01*
X119258436Y-101842699D01*
X119317602Y-101629275D01*
X119371645Y-101433780D01*
X119410982Y-101290966D01*
X119471776Y-101072515D01*
X119524278Y-100890921D01*
X119570135Y-100741894D01*
X119610998Y-100621141D01*
X119648514Y-100524371D01*
X119665349Y-100488144D01*
X120972085Y-100488144D01*
X120972396Y-100505460D01*
X120988522Y-100558093D01*
X121020124Y-100644867D01*
X121066864Y-100764608D01*
X121104928Y-100858885D01*
X121155368Y-100982068D01*
X121203806Y-101099515D01*
X121246579Y-101202407D01*
X121280024Y-101281926D01*
X121297571Y-101322716D01*
X121312315Y-101357386D01*
X121342009Y-101428275D01*
X121385446Y-101532470D01*
X121441420Y-101667063D01*
X121508723Y-101829142D01*
X121586148Y-102015797D01*
X121672487Y-102224117D01*
X121766534Y-102451192D01*
X121867082Y-102694112D01*
X121972923Y-102949965D01*
X122082850Y-103215842D01*
X122105255Y-103270050D01*
X122325543Y-103802824D01*
X122535460Y-104310044D01*
X122734652Y-104790862D01*
X122922764Y-105244431D01*
X123099442Y-105669904D01*
X123264332Y-106066435D01*
X123417080Y-106433176D01*
X123557331Y-106769281D01*
X123684731Y-107073903D01*
X123798927Y-107346195D01*
X123899563Y-107585310D01*
X123986285Y-107790402D01*
X124058740Y-107960623D01*
X124116574Y-108095126D01*
X124159431Y-108193065D01*
X124186958Y-108253592D01*
X124198800Y-108275862D01*
X124199041Y-108275966D01*
X124211856Y-108267011D01*
X124229788Y-108238636D01*
X124253675Y-108188579D01*
X124284352Y-108114576D01*
X124322656Y-108014363D01*
X124369422Y-107885678D01*
X124425488Y-107726256D01*
X124491689Y-107533835D01*
X124568862Y-107306151D01*
X124657842Y-107040940D01*
X124681233Y-106970898D01*
X124731737Y-106819683D01*
X124783826Y-106664002D01*
X124838032Y-106502285D01*
X124894887Y-106332962D01*
X124954925Y-106154465D01*
X125018676Y-105965224D01*
X125086675Y-105763669D01*
X125159452Y-105548231D01*
X125237541Y-105317340D01*
X125321474Y-105069427D01*
X125411784Y-104802922D01*
X125509002Y-104516256D01*
X125613661Y-104207859D01*
X125726293Y-103876162D01*
X125847432Y-103519595D01*
X125977609Y-103136589D01*
X126117356Y-102725575D01*
X126267207Y-102284982D01*
X126427693Y-101813242D01*
X126599347Y-101308784D01*
X126782701Y-100770040D01*
X126978288Y-100195440D01*
X127186640Y-99583414D01*
X127336736Y-99142550D01*
X127469628Y-98752153D01*
X127603163Y-98359712D01*
X127736294Y-97968311D01*
X127867976Y-97581033D01*
X127997161Y-97200961D01*
X128122802Y-96831178D01*
X128243853Y-96474768D01*
X128359266Y-96134814D01*
X128467995Y-95814399D01*
X128568993Y-95516606D01*
X128661213Y-95244518D01*
X128743608Y-95001220D01*
X128815132Y-94789794D01*
X128874737Y-94613323D01*
X128906994Y-94517633D01*
X129004943Y-94227055D01*
X129090622Y-93973791D01*
X129165131Y-93754991D01*
X129229567Y-93567801D01*
X129285031Y-93409371D01*
X129332621Y-93276846D01*
X129373435Y-93167377D01*
X129408574Y-93078110D01*
X129439136Y-93006193D01*
X129466219Y-92948776D01*
X129490924Y-92903004D01*
X129514349Y-92866027D01*
X129537593Y-92834992D01*
X129561754Y-92807048D01*
X129569266Y-92798926D01*
X129696477Y-92691078D01*
X129839460Y-92617882D01*
X129991890Y-92578917D01*
X130147443Y-92573763D01*
X130299792Y-92602000D01*
X130442614Y-92663206D01*
X130569583Y-92756961D01*
X130667176Y-92871929D01*
X130675988Y-92887501D01*
X130689545Y-92915314D01*
X130708189Y-92956216D01*
X130732259Y-93011055D01*
X130762096Y-93080679D01*
X130798038Y-93165937D01*
X130840427Y-93267676D01*
X130889601Y-93386745D01*
X130945902Y-93523991D01*
X131009669Y-93680264D01*
X131081242Y-93856410D01*
X131160961Y-94053279D01*
X131249166Y-94271717D01*
X131346197Y-94512574D01*
X131452394Y-94776698D01*
X131568097Y-95064936D01*
X131693645Y-95378136D01*
X131829380Y-95717148D01*
X131975641Y-96082818D01*
X132132767Y-96475995D01*
X132301100Y-96897528D01*
X132480978Y-97348263D01*
X132672742Y-97829050D01*
X132876732Y-98340737D01*
X133093288Y-98884171D01*
X133322749Y-99460200D01*
X133565457Y-100069674D01*
X133821750Y-100713439D01*
X134091968Y-101392345D01*
X134376453Y-102107238D01*
X134675543Y-102858968D01*
X134989579Y-103648383D01*
X135306360Y-104444800D01*
X135506144Y-104947087D01*
X135706830Y-105451605D01*
X135907513Y-105956083D01*
X136107289Y-106458248D01*
X136305254Y-106955829D01*
X136500503Y-107446554D01*
X136692133Y-107928151D01*
X136879240Y-108398349D01*
X137060918Y-108854874D01*
X137236265Y-109295457D01*
X137404376Y-109717825D01*
X137564346Y-110119705D01*
X137715272Y-110498827D01*
X137856249Y-110852919D01*
X137986373Y-111179708D01*
X138104741Y-111476923D01*
X138210447Y-111742292D01*
X138302588Y-111973544D01*
X138380260Y-112168405D01*
X138400443Y-112219023D01*
X139166748Y-114140663D01*
X139359140Y-114134606D01*
X139551532Y-114128550D01*
X140480618Y-112392883D01*
X140568036Y-112229597D01*
X140674358Y-112031047D01*
X140798485Y-111799280D01*
X140939322Y-111536342D01*
X141095771Y-111244280D01*
X141266736Y-110925142D01*
X141451120Y-110580973D01*
X141647826Y-110213822D01*
X141855758Y-109825734D01*
X142073819Y-109418757D01*
X142300911Y-108994937D01*
X142535939Y-108556322D01*
X142777806Y-108104958D01*
X143025415Y-107642893D01*
X143277668Y-107172173D01*
X143533470Y-106694844D01*
X143791723Y-106212955D01*
X144051331Y-105728551D01*
X144311198Y-105243680D01*
X144506805Y-104878716D01*
X144770956Y-104385859D01*
X145038072Y-103887444D01*
X145306913Y-103385790D01*
X145576236Y-102883216D01*
X145844798Y-102382041D01*
X146111357Y-101884585D01*
X146374671Y-101393165D01*
X146633496Y-100910101D01*
X146886591Y-100437713D01*
X147132714Y-99978319D01*
X147370622Y-99534238D01*
X147599072Y-99107789D01*
X147816822Y-98701291D01*
X148022630Y-98317063D01*
X148215253Y-97957424D01*
X148393449Y-97624694D01*
X148555975Y-97321191D01*
X148701590Y-97049233D01*
X148829050Y-96811141D01*
X148884052Y-96708383D01*
X149102997Y-96299797D01*
X149302509Y-95928507D01*
X149482724Y-95594269D01*
X149643775Y-95296838D01*
X149785795Y-95035972D01*
X149908919Y-94811425D01*
X150013282Y-94622954D01*
X150099017Y-94470314D01*
X150166258Y-94353262D01*
X150215139Y-94271552D01*
X150245794Y-94224942D01*
X150251896Y-94217264D01*
X150330403Y-94144000D01*
X150424008Y-94078528D01*
X150460689Y-94058514D01*
X150524548Y-94029617D01*
X150581629Y-94011873D01*
X150646113Y-94002667D01*
X150732181Y-93999389D01*
X150782866Y-93999151D01*
X150882746Y-94000597D01*
X150953840Y-94006497D01*
X151009648Y-94019374D01*
X151063675Y-94041751D01*
X151094367Y-94057358D01*
X151196251Y-94120272D01*
X151280664Y-94195748D01*
X151355146Y-94292487D01*
X151427238Y-94419189D01*
X151452560Y-94470672D01*
X151475584Y-94518534D01*
X151515715Y-94601570D01*
X151571547Y-94716883D01*
X151641675Y-94861577D01*
X151724692Y-95032754D01*
X151819192Y-95227518D01*
X151923771Y-95442972D01*
X152037022Y-95676219D01*
X152157540Y-95924362D01*
X152283919Y-96184504D01*
X152414753Y-96453748D01*
X152492218Y-96613133D01*
X152698767Y-97038149D01*
X152903225Y-97459011D01*
X153106940Y-97878503D01*
X153311261Y-98299408D01*
X153517537Y-98724510D01*
X153727117Y-99156593D01*
X153941350Y-99598440D01*
X154161585Y-100052836D01*
X154389170Y-100522563D01*
X154625455Y-101010406D01*
X154871789Y-101519148D01*
X155129519Y-102051574D01*
X155399996Y-102610465D01*
X155684569Y-103198607D01*
X155984585Y-103818783D01*
X156301394Y-104473777D01*
X156363221Y-104601612D01*
X156517740Y-104921039D01*
X156667250Y-105229977D01*
X156810711Y-105526284D01*
X156947082Y-105807818D01*
X157075325Y-106072437D01*
X157194400Y-106317999D01*
X157303266Y-106542361D01*
X157400885Y-106743382D01*
X157486216Y-106918920D01*
X157558219Y-107066831D01*
X157615855Y-107184976D01*
X157658084Y-107271210D01*
X157683867Y-107323392D01*
X157692147Y-107339469D01*
X157711604Y-107330466D01*
X157759493Y-107298227D01*
X157831382Y-107246201D01*
X157922839Y-107177839D01*
X158029431Y-107096589D01*
X158146727Y-107005901D01*
X158270295Y-106909225D01*
X158395703Y-106810008D01*
X158518518Y-106711702D01*
X158634310Y-106617755D01*
X158738646Y-106531617D01*
X158827093Y-106456737D01*
X158834092Y-106450695D01*
X158916067Y-106379784D01*
X158685925Y-106380667D01*
X158577202Y-106379845D01*
X158499385Y-106375308D01*
X158441100Y-106365421D01*
X158390969Y-106348546D01*
X158358419Y-106333575D01*
X158226211Y-106245879D01*
X158113253Y-106122033D01*
X158058950Y-106032300D01*
X159323347Y-106032300D01*
X159329324Y-106033628D01*
X159363963Y-106008703D01*
X159424624Y-105959773D01*
X159508669Y-105889089D01*
X159613459Y-105798898D01*
X159736354Y-105691451D01*
X159874716Y-105568996D01*
X160025905Y-105433782D01*
X160031157Y-105429062D01*
X160306430Y-105177630D01*
X160591201Y-104909526D01*
X160889339Y-104620989D01*
X161204713Y-104308256D01*
X161541189Y-103967567D01*
X161670856Y-103834653D01*
X162041545Y-103450152D01*
X162383812Y-103087742D01*
X162701855Y-102742530D01*
X162999873Y-102409622D01*
X163282062Y-102084127D01*
X163552620Y-101761151D01*
X163815746Y-101435802D01*
X164075636Y-101103186D01*
X164336489Y-100758411D01*
X164500462Y-100536510D01*
X164756526Y-100187083D01*
X164631002Y-100073491D01*
X164521424Y-99975928D01*
X164422507Y-99890931D01*
X164338820Y-99822203D01*
X164274928Y-99773450D01*
X164235399Y-99748378D01*
X164227084Y-99745800D01*
X164203258Y-99762744D01*
X164155371Y-99812892D01*
X164084263Y-99895212D01*
X163990778Y-100008675D01*
X163875757Y-100152249D01*
X163740042Y-100324905D01*
X163584475Y-100525612D01*
X163500556Y-100634800D01*
X163439824Y-100713731D01*
X163355268Y-100823193D01*
X163249101Y-100960337D01*
X163123537Y-101122313D01*
X162980789Y-101306272D01*
X162823070Y-101509365D01*
X162652593Y-101728743D01*
X162471572Y-101961558D01*
X162282220Y-102204960D01*
X162086749Y-102456100D01*
X161887374Y-102712129D01*
X161691813Y-102963133D01*
X161423180Y-103308009D01*
X161165566Y-103639079D01*
X160920076Y-103954912D01*
X160687813Y-104254077D01*
X160469880Y-104535146D01*
X160267381Y-104796688D01*
X160081420Y-105037273D01*
X159913100Y-105255471D01*
X159763524Y-105449853D01*
X159633796Y-105618987D01*
X159525020Y-105761445D01*
X159438298Y-105875796D01*
X159374736Y-105960610D01*
X159335435Y-106014458D01*
X159323347Y-106032300D01*
X158058950Y-106032300D01*
X158029542Y-105983707D01*
X158010804Y-105945411D01*
X157978709Y-105878232D01*
X157933032Y-105781688D01*
X157873551Y-105655298D01*
X157800041Y-105498583D01*
X157712279Y-105311061D01*
X157610040Y-105092252D01*
X157493101Y-104841675D01*
X157361239Y-104558849D01*
X157214228Y-104243294D01*
X157051846Y-103894528D01*
X156873869Y-103512073D01*
X156680073Y-103095445D01*
X156470233Y-102644166D01*
X156244127Y-102157754D01*
X156001531Y-101635729D01*
X155742219Y-101077610D01*
X155465970Y-100482916D01*
X155172559Y-99851166D01*
X154861762Y-99181881D01*
X154592886Y-98602800D01*
X154307131Y-97987305D01*
X154038676Y-97409032D01*
X153786972Y-96866815D01*
X153551469Y-96359492D01*
X153331616Y-95885898D01*
X153126864Y-95444868D01*
X152936662Y-95035239D01*
X152760460Y-94655846D01*
X152597708Y-94305524D01*
X152447857Y-93983111D01*
X152310355Y-93687440D01*
X152184654Y-93417349D01*
X152070202Y-93171673D01*
X151966450Y-92949248D01*
X151872848Y-92748910D01*
X151788845Y-92569494D01*
X151713891Y-92409835D01*
X151647438Y-92268771D01*
X151588933Y-92145137D01*
X151537828Y-92037768D01*
X151493571Y-91945501D01*
X151455614Y-91867170D01*
X151423406Y-91801612D01*
X151396397Y-91747663D01*
X151374036Y-91704159D01*
X151355774Y-91669934D01*
X151341061Y-91643826D01*
X151329346Y-91624669D01*
X151320080Y-91611300D01*
X151312712Y-91602554D01*
X151306693Y-91597267D01*
X151301471Y-91594275D01*
X151296498Y-91592414D01*
X151291223Y-91590519D01*
X151285095Y-91587427D01*
X151277566Y-91581972D01*
X151274401Y-91579193D01*
X152567447Y-91579193D01*
X152569720Y-91591182D01*
X152582419Y-91622280D01*
X152610411Y-91685513D01*
X152650901Y-91774744D01*
X152701092Y-91883834D01*
X152758190Y-92006646D01*
X152785581Y-92065154D01*
X152866243Y-92237340D01*
X152960290Y-92438582D01*
X153068017Y-92669518D01*
X153189721Y-92930786D01*
X153325698Y-93223026D01*
X153476246Y-93546875D01*
X153641659Y-93902973D01*
X153822236Y-94291959D01*
X154018271Y-94714470D01*
X154230063Y-95171147D01*
X154457906Y-95662627D01*
X154702098Y-96189550D01*
X154962935Y-96752553D01*
X155240714Y-97352276D01*
X155535731Y-97989358D01*
X155749294Y-98450620D01*
X156024041Y-99044036D01*
X156281581Y-99600215D01*
X156522474Y-100120347D01*
X156747280Y-100605619D01*
X156956556Y-101057221D01*
X157150862Y-101476342D01*
X157330758Y-101864170D01*
X157496801Y-102221894D01*
X157649552Y-102550704D01*
X157789568Y-102851786D01*
X157917410Y-103126332D01*
X158033636Y-103375529D01*
X158138805Y-103600565D01*
X158233477Y-103802631D01*
X158318210Y-103982914D01*
X158393563Y-104142604D01*
X158460095Y-104282889D01*
X158518366Y-104404959D01*
X158568934Y-104510001D01*
X158612358Y-104599204D01*
X158649198Y-104673758D01*
X158680013Y-104734852D01*
X158705361Y-104783673D01*
X158725801Y-104821411D01*
X158741893Y-104849255D01*
X158754196Y-104868393D01*
X158763268Y-104880014D01*
X158769669Y-104885307D01*
X158773958Y-104885461D01*
X158774915Y-104884684D01*
X158790374Y-104865372D01*
X158830460Y-104814283D01*
X158893867Y-104733103D01*
X158979286Y-104623512D01*
X159085409Y-104487196D01*
X159210930Y-104325836D01*
X159354539Y-104141116D01*
X159514930Y-103934719D01*
X159690796Y-103708327D01*
X159880827Y-103463624D01*
X160083716Y-103202292D01*
X160298157Y-102926015D01*
X160522840Y-102636476D01*
X160756459Y-102335358D01*
X160997705Y-102024343D01*
X161153440Y-101823536D01*
X161398461Y-101507445D01*
X161636357Y-101200280D01*
X161865839Y-100903715D01*
X162085622Y-100619422D01*
X162294418Y-100349075D01*
X162490940Y-100094347D01*
X162673902Y-99856912D01*
X162842016Y-99638442D01*
X162993995Y-99440611D01*
X163128553Y-99265092D01*
X163244403Y-99113559D01*
X163340257Y-98987684D01*
X163414829Y-98889142D01*
X163466832Y-98819604D01*
X163494978Y-98780745D01*
X163499875Y-98772740D01*
X163480450Y-98752663D01*
X163430173Y-98709581D01*
X163352096Y-98645842D01*
X163249270Y-98563792D01*
X163124746Y-98465782D01*
X162981573Y-98354158D01*
X162822804Y-98231268D01*
X162651488Y-98099460D01*
X162470677Y-97961083D01*
X162283421Y-97818485D01*
X162092771Y-97674012D01*
X161901778Y-97530014D01*
X161713492Y-97388838D01*
X161530965Y-97252832D01*
X161376783Y-97138740D01*
X159962447Y-96120811D01*
X158533587Y-95141895D01*
X157087736Y-94200422D01*
X155622428Y-93294824D01*
X154135197Y-92423535D01*
X152743692Y-91649942D01*
X152658642Y-91604832D01*
X152604599Y-91579247D01*
X152576042Y-91571322D01*
X152567447Y-91579193D01*
X151274401Y-91579193D01*
X151274183Y-91579002D01*
X151233174Y-91545034D01*
X151169873Y-91497025D01*
X151091014Y-91439625D01*
X151003335Y-91377485D01*
X150913572Y-91315254D01*
X150828462Y-91257585D01*
X150754741Y-91209127D01*
X150699145Y-91174532D01*
X150668411Y-91158450D01*
X150664633Y-91158181D01*
X150651172Y-91176867D01*
X150614349Y-91228539D01*
X150555270Y-91311639D01*
X150475040Y-91424608D01*
X150374765Y-91565884D01*
X150255549Y-91733910D01*
X150118498Y-91927124D01*
X149964718Y-92143968D01*
X149795314Y-92382883D01*
X149611390Y-92642307D01*
X149414053Y-92920682D01*
X149204407Y-93216448D01*
X148983559Y-93528046D01*
X148752613Y-93853915D01*
X148512674Y-94192497D01*
X148264849Y-94542232D01*
X148010241Y-94901559D01*
X147749957Y-95268920D01*
X147485102Y-95642755D01*
X147216782Y-96021504D01*
X146946101Y-96403607D01*
X146674164Y-96787505D01*
X146402078Y-97171639D01*
X146130948Y-97554448D01*
X145861878Y-97934374D01*
X145595974Y-98309856D01*
X145388536Y-98602800D01*
X145108319Y-98998532D01*
X144821318Y-99403845D01*
X144529581Y-99815847D01*
X144235156Y-100231643D01*
X143940091Y-100648341D01*
X143646436Y-101063048D01*
X143356239Y-101472872D01*
X143071548Y-101874919D01*
X142794411Y-102266297D01*
X142526877Y-102644112D01*
X142270996Y-103005471D01*
X142028814Y-103347483D01*
X141802381Y-103667253D01*
X141593744Y-103961889D01*
X141404954Y-104228498D01*
X141238057Y-104464187D01*
X141199326Y-104518883D01*
X141010462Y-104785279D01*
X140827373Y-105042917D01*
X140651656Y-105289584D01*
X140484904Y-105523067D01*
X140328714Y-105741152D01*
X140184679Y-105941626D01*
X140054396Y-106122276D01*
X139939459Y-106280890D01*
X139841462Y-106415253D01*
X139762002Y-106523153D01*
X139702673Y-106602377D01*
X139665070Y-106650711D01*
X139652777Y-106664756D01*
X139516492Y-106763258D01*
X139365910Y-106824423D01*
X139207079Y-106848037D01*
X139046049Y-106833886D01*
X138888870Y-106781755D01*
X138748471Y-106696741D01*
X138645014Y-106593285D01*
X138554736Y-106450573D01*
X138484456Y-106288161D01*
X138463924Y-106233499D01*
X138428136Y-106140194D01*
X138377381Y-106008981D01*
X138311947Y-105840594D01*
X138232122Y-105635766D01*
X138138193Y-105395232D01*
X138030449Y-105119727D01*
X137909178Y-104809983D01*
X137774667Y-104466735D01*
X137627206Y-104090717D01*
X137467081Y-103682664D01*
X137294581Y-103243309D01*
X137109993Y-102773386D01*
X136913607Y-102273630D01*
X136705709Y-101744774D01*
X136486588Y-101187553D01*
X136256532Y-100602701D01*
X136015829Y-99990951D01*
X135764767Y-99353039D01*
X135503634Y-98689697D01*
X135390248Y-98401716D01*
X135219049Y-97966884D01*
X135043872Y-97521873D01*
X134866040Y-97070049D01*
X134686876Y-96614779D01*
X134507705Y-96159428D01*
X134329851Y-95707362D01*
X134154636Y-95261947D01*
X133983386Y-94826549D01*
X133817424Y-94404533D01*
X133658073Y-93999266D01*
X133506657Y-93614114D01*
X133364501Y-93252441D01*
X133232927Y-92917615D01*
X133113260Y-92613001D01*
X133006824Y-92341964D01*
X132938589Y-92168133D01*
X132725843Y-91626567D01*
X132528188Y-91124524D01*
X132345624Y-90662007D01*
X132178153Y-90239018D01*
X132025775Y-89855557D01*
X131888490Y-89511628D01*
X131766301Y-89207231D01*
X131659206Y-88942370D01*
X131567209Y-88717046D01*
X131490308Y-88531261D01*
X131428505Y-88385016D01*
X131381800Y-88278314D01*
X131350195Y-88211157D01*
X131334165Y-88183996D01*
X131331498Y-88184926D01*
X131326354Y-88191681D01*
X131318236Y-88205364D01*
X131306648Y-88227076D01*
X131291091Y-88257922D01*
X131271068Y-88299001D01*
X131246083Y-88351419D01*
X131215637Y-88416275D01*
X131179234Y-88494674D01*
X131136377Y-88587717D01*
X131086568Y-88696507D01*
X131029310Y-88822146D01*
X130964105Y-88965737D01*
X130890457Y-89128381D01*
X130807868Y-89311182D01*
X130715841Y-89515241D01*
X130613879Y-89741661D01*
X130501485Y-89991545D01*
X130378160Y-90265995D01*
X130243408Y-90566113D01*
X130096733Y-90893001D01*
X129937635Y-91247762D01*
X129765619Y-91631499D01*
X129580187Y-92045314D01*
X129380842Y-92490308D01*
X129167086Y-92967586D01*
X128938422Y-93478248D01*
X128694353Y-94023397D01*
X128434382Y-94604136D01*
X128158012Y-95221567D01*
X127933071Y-95724133D01*
X127646988Y-96363253D01*
X127368796Y-96984622D01*
X127098925Y-97587282D01*
X126837804Y-98170274D01*
X126585864Y-98732640D01*
X126343534Y-99273424D01*
X126111246Y-99791666D01*
X125889428Y-100286410D01*
X125678511Y-100756697D01*
X125478924Y-101201569D01*
X125291099Y-101620069D01*
X125115465Y-102011238D01*
X124952452Y-102374119D01*
X124802490Y-102707754D01*
X124666009Y-103011186D01*
X124543440Y-103283455D01*
X124435212Y-103523604D01*
X124341756Y-103730677D01*
X124263500Y-103903713D01*
X124200877Y-104041757D01*
X124154315Y-104143849D01*
X124124245Y-104209032D01*
X124112220Y-104234219D01*
X124045235Y-104332398D01*
X123949704Y-104428541D01*
X123838287Y-104510899D01*
X123777664Y-104544679D01*
X123711861Y-104574198D01*
X123652559Y-104591887D01*
X123584657Y-104600593D01*
X123493049Y-104603163D01*
X123467283Y-104603186D01*
X123338100Y-104597073D01*
X123236688Y-104575825D01*
X123149666Y-104534235D01*
X123063652Y-104467096D01*
X123026133Y-104431529D01*
X122977178Y-104380579D01*
X122931783Y-104326073D01*
X122886742Y-104262640D01*
X122838849Y-104184908D01*
X122784899Y-104087508D01*
X122721685Y-103965068D01*
X122646002Y-103812218D01*
X122600056Y-103717699D01*
X122537298Y-103588791D01*
X122460665Y-103432637D01*
X122372183Y-103253281D01*
X122273877Y-103054768D01*
X122167775Y-102841142D01*
X122055903Y-102616448D01*
X121940286Y-102384731D01*
X121822951Y-102150035D01*
X121705924Y-101916404D01*
X121591232Y-101687885D01*
X121480900Y-101468520D01*
X121376955Y-101262355D01*
X121281422Y-101073434D01*
X121196329Y-100905802D01*
X121123701Y-100763504D01*
X121065564Y-100650583D01*
X121023945Y-100571086D01*
X121020257Y-100564170D01*
X120987926Y-100507322D01*
X120972085Y-100488144D01*
X119665349Y-100488144D01*
X119684333Y-100447293D01*
X119720103Y-100385614D01*
X119757473Y-100335044D01*
X119793195Y-100296120D01*
X119911980Y-100197089D01*
X120039202Y-100132452D01*
X120185780Y-100097493D01*
X120271116Y-100089591D01*
X120413521Y-100091066D01*
X120535992Y-100115331D01*
X120649296Y-100166647D01*
X120764198Y-100249274D01*
X120835535Y-100312958D01*
X120983175Y-100452234D01*
X120928055Y-100327598D01*
X120910989Y-100291716D01*
X120876129Y-100220765D01*
X120824824Y-100117432D01*
X120758424Y-99984404D01*
X120678280Y-99824371D01*
X120585741Y-99640018D01*
X120482157Y-99434033D01*
X120368880Y-99209105D01*
X120247258Y-98967920D01*
X120118641Y-98713167D01*
X119984381Y-98447533D01*
X119876056Y-98233423D01*
X119726670Y-97938268D01*
X119573739Y-97636091D01*
X119419487Y-97331283D01*
X119266135Y-97028237D01*
X119115906Y-96731344D01*
X118971022Y-96444996D01*
X118833704Y-96173585D01*
X118706175Y-95921502D01*
X118590656Y-95693139D01*
X118489371Y-95492888D01*
X118404541Y-95325141D01*
X118389814Y-95296014D01*
X118294726Y-95108616D01*
X118205043Y-94933152D01*
X118122620Y-94773167D01*
X118049315Y-94632205D01*
X117986984Y-94513810D01*
X117937486Y-94421525D01*
X117902676Y-94358896D01*
X117884413Y-94329467D01*
X117882403Y-94327639D01*
X117879556Y-94348184D01*
X117877172Y-94407856D01*
X117875234Y-94503452D01*
X117873722Y-94631768D01*
X117872621Y-94789602D01*
X117871914Y-94973749D01*
X117871581Y-95181006D01*
X114824705Y-95181006D01*
X114826318Y-94982781D01*
X114829621Y-94704947D01*
X114833896Y-94435411D01*
X114839098Y-94179570D01*
X114845179Y-93942821D01*
X114852092Y-93730562D01*
X114859790Y-93548188D01*
X114868227Y-93401098D01*
X114870942Y-93364050D01*
X114935577Y-92684994D01*
X118317472Y-92684994D01*
X118327801Y-92707067D01*
X118355985Y-92764148D01*
X118400658Y-92853530D01*
X118460449Y-92972505D01*
X118533991Y-93118364D01*
X118619915Y-93288401D01*
X118716853Y-93479906D01*
X118823436Y-93690173D01*
X118938297Y-93916493D01*
X119060066Y-94156158D01*
X119187375Y-94406461D01*
X119190500Y-94412601D01*
X119416200Y-94856307D01*
X119652201Y-95320662D01*
X119899311Y-95807258D01*
X120158335Y-96317688D01*
X120430080Y-96853544D01*
X120715355Y-97416419D01*
X121014964Y-98007904D01*
X121329716Y-98629592D01*
X121660416Y-99283075D01*
X122007873Y-99969946D01*
X122372892Y-100691797D01*
X122673533Y-101286509D01*
X123488450Y-102898726D01*
X123526954Y-102819804D01*
X123538193Y-102795211D01*
X123566167Y-102733268D01*
X123610302Y-102635257D01*
X123670023Y-102502460D01*
X123744754Y-102336160D01*
X123833920Y-102137639D01*
X123936946Y-101908179D01*
X124053257Y-101649062D01*
X124182278Y-101361571D01*
X124323433Y-101046987D01*
X124476148Y-100706593D01*
X124639847Y-100341672D01*
X124813955Y-99953504D01*
X124997897Y-99543373D01*
X125191098Y-99112561D01*
X125392983Y-98662349D01*
X125602976Y-98194021D01*
X125820502Y-97708858D01*
X126044986Y-97208142D01*
X126275854Y-96693156D01*
X126512529Y-96165182D01*
X126754437Y-95625502D01*
X127001003Y-95075398D01*
X127179839Y-94676383D01*
X127429019Y-94120363D01*
X127673761Y-93574163D01*
X127913498Y-93039048D01*
X128147663Y-92516287D01*
X128375691Y-92007146D01*
X128597014Y-91512892D01*
X128811067Y-91034792D01*
X129017281Y-90574112D01*
X129215092Y-90132119D01*
X129403933Y-89710081D01*
X129583236Y-89309264D01*
X129752436Y-88930935D01*
X129910966Y-88576361D01*
X130058260Y-88246808D01*
X130193750Y-87943544D01*
X130316871Y-87667836D01*
X130427056Y-87420949D01*
X130523738Y-87204152D01*
X130606351Y-87018711D01*
X130674328Y-86865892D01*
X130727103Y-86746964D01*
X130764110Y-86663191D01*
X130784781Y-86615843D01*
X130789228Y-86604999D01*
X130767876Y-86606448D01*
X130711096Y-86614442D01*
X130625115Y-86627990D01*
X130516162Y-86646102D01*
X130390466Y-86667786D01*
X130353676Y-86674264D01*
X129481683Y-86849138D01*
X128627478Y-87062306D01*
X127790025Y-87314159D01*
X126968285Y-87605088D01*
X126161219Y-87935483D01*
X125367789Y-88305734D01*
X124586956Y-88716233D01*
X123964700Y-89077481D01*
X123853891Y-89144734D01*
X123746464Y-89210322D01*
X123637868Y-89277087D01*
X123523550Y-89347870D01*
X123398957Y-89425513D01*
X123259537Y-89512858D01*
X123100738Y-89612747D01*
X122918007Y-89728022D01*
X122706792Y-89861523D01*
X122567700Y-89949528D01*
X122422969Y-90041163D01*
X122281146Y-90131038D01*
X122139425Y-90220942D01*
X121995003Y-90312664D01*
X121845073Y-90407992D01*
X121686833Y-90508715D01*
X121517477Y-90616620D01*
X121334200Y-90733495D01*
X121134198Y-90861131D01*
X120914665Y-91001313D01*
X120672799Y-91155832D01*
X120405793Y-91326476D01*
X120110843Y-91515032D01*
X119785145Y-91723289D01*
X119519700Y-91893042D01*
X119342633Y-92006223D01*
X119170145Y-92116366D01*
X119006834Y-92220543D01*
X118857297Y-92315825D01*
X118726133Y-92399284D01*
X118617940Y-92467992D01*
X118537315Y-92519020D01*
X118497389Y-92544124D01*
X118420824Y-92594541D01*
X118360811Y-92638984D01*
X118324639Y-92671748D01*
X118317472Y-92684994D01*
X114935577Y-92684994D01*
X114954136Y-92490025D01*
X116678571Y-92490025D01*
X116794267Y-92395790D01*
X116864983Y-92342000D01*
X116956888Y-92277337D01*
X117054693Y-92212410D01*
X117098289Y-92184859D01*
X117151538Y-92151410D01*
X117236370Y-92097539D01*
X117348810Y-92025795D01*
X117484882Y-91938725D01*
X117640612Y-91838877D01*
X117812022Y-91728800D01*
X117995138Y-91611041D01*
X118185983Y-91488150D01*
X118302616Y-91412966D01*
X118666126Y-91178698D01*
X118997908Y-90965213D01*
X119301678Y-90770149D01*
X119581154Y-90591142D01*
X119840050Y-90425827D01*
X120082083Y-90271842D01*
X120310969Y-90126821D01*
X120530425Y-89988402D01*
X120744167Y-89854220D01*
X120955910Y-89721912D01*
X121169372Y-89589113D01*
X121191866Y-89575150D01*
X121382844Y-89456514D01*
X121594669Y-89324730D01*
X121816837Y-89186348D01*
X122038842Y-89047914D01*
X122250181Y-88915977D01*
X122440348Y-88797087D01*
X122509903Y-88753542D01*
X122885617Y-88519763D01*
X123230921Y-88308299D01*
X123549856Y-88116861D01*
X123846462Y-87943159D01*
X124124780Y-87784903D01*
X124388848Y-87639806D01*
X124642708Y-87505578D01*
X124890400Y-87379929D01*
X125135963Y-87260570D01*
X125189748Y-87235095D01*
X125930379Y-86901356D01*
X126669240Y-86599970D01*
X127053805Y-86459842D01*
X131867268Y-86459842D01*
X131873532Y-86480726D01*
X131894865Y-86539466D01*
X131930686Y-86634589D01*
X131980409Y-86764624D01*
X132043453Y-86928098D01*
X132119235Y-87123539D01*
X132207171Y-87349475D01*
X132306678Y-87604434D01*
X132417173Y-87886943D01*
X132538074Y-88195530D01*
X132668796Y-88528724D01*
X132808758Y-88885051D01*
X132957375Y-89263041D01*
X133114066Y-89661219D01*
X133278246Y-90078116D01*
X133449332Y-90512257D01*
X133626742Y-90962171D01*
X133809893Y-91426386D01*
X133998201Y-91903430D01*
X134191084Y-92391830D01*
X134387958Y-92890115D01*
X134588240Y-93396811D01*
X134791347Y-93910448D01*
X134996696Y-94429552D01*
X135203705Y-94952652D01*
X135411789Y-95478275D01*
X135620366Y-96004949D01*
X135828853Y-96531202D01*
X136036666Y-97055562D01*
X136243223Y-97576556D01*
X136447941Y-98092713D01*
X136650236Y-98602560D01*
X136849526Y-99104625D01*
X137045227Y-99597437D01*
X137236756Y-100079521D01*
X137423530Y-100549407D01*
X137604966Y-101005623D01*
X137780482Y-101446695D01*
X137949493Y-101871153D01*
X138111417Y-102277523D01*
X138265672Y-102664334D01*
X138411672Y-103030113D01*
X138548837Y-103373389D01*
X138676582Y-103692688D01*
X138794324Y-103986539D01*
X138901481Y-104253470D01*
X138997470Y-104492008D01*
X139081706Y-104700682D01*
X139153608Y-104878019D01*
X139212592Y-105022546D01*
X139258075Y-105132792D01*
X139289474Y-105207285D01*
X139306206Y-105244552D01*
X139308831Y-105248790D01*
X139322796Y-105231862D01*
X139358921Y-105183147D01*
X139415127Y-105105566D01*
X139489334Y-105002040D01*
X139579465Y-104875490D01*
X139683440Y-104728835D01*
X139799181Y-104564998D01*
X139924608Y-104386898D01*
X140057642Y-104197457D01*
X140091292Y-104149457D01*
X140243215Y-103932959D01*
X140401629Y-103707735D01*
X140562505Y-103479480D01*
X140721813Y-103253892D01*
X140875523Y-103036668D01*
X141019608Y-102833503D01*
X141150037Y-102650093D01*
X141262781Y-102492137D01*
X141322496Y-102408842D01*
X141438297Y-102247446D01*
X141568564Y-102065448D01*
X141713888Y-101862016D01*
X141874859Y-101636317D01*
X142052066Y-101387519D01*
X142246102Y-101114791D01*
X142457555Y-100817301D01*
X142687016Y-100494215D01*
X142935076Y-100144704D01*
X143202325Y-99767933D01*
X143489353Y-99363073D01*
X143796751Y-98929289D01*
X144125109Y-98465751D01*
X144475018Y-97971626D01*
X144847067Y-97446082D01*
X145241847Y-96888288D01*
X145659949Y-96297411D01*
X146020601Y-95787633D01*
X146269772Y-95435422D01*
X146520468Y-95081088D01*
X146770874Y-94727193D01*
X147019173Y-94376303D01*
X147263550Y-94030984D01*
X147502190Y-93693798D01*
X147733278Y-93367312D01*
X147954997Y-93054090D01*
X148165532Y-92756697D01*
X148363068Y-92477697D01*
X148545789Y-92219655D01*
X148711880Y-91985136D01*
X148859525Y-91776706D01*
X148986909Y-91596927D01*
X149092215Y-91448366D01*
X149119601Y-91409746D01*
X149257490Y-91214668D01*
X149387205Y-91029896D01*
X149506779Y-90858309D01*
X149614247Y-90702789D01*
X149707645Y-90566215D01*
X149785006Y-90451469D01*
X149844366Y-90361430D01*
X149883759Y-90298978D01*
X149901220Y-90266995D01*
X149901713Y-90263445D01*
X149875046Y-90247586D01*
X149813583Y-90216354D01*
X149721215Y-90171562D01*
X149601834Y-90115021D01*
X149459332Y-90048546D01*
X149297600Y-89973948D01*
X149120530Y-89893041D01*
X148932013Y-89807636D01*
X148735942Y-89719546D01*
X148687366Y-89697837D01*
X147545608Y-89205674D01*
X146412437Y-88752691D01*
X145284094Y-88337579D01*
X144156817Y-87959027D01*
X143026846Y-87615722D01*
X141890419Y-87306355D01*
X141660033Y-87247938D01*
X140587119Y-86997186D01*
X139526455Y-86785383D01*
X138478516Y-86612580D01*
X137443773Y-86478827D01*
X136422701Y-86384174D01*
X135415774Y-86328671D01*
X134423464Y-86312368D01*
X133446246Y-86335316D01*
X133172200Y-86348959D01*
X133056351Y-86356007D01*
X132922246Y-86365153D01*
X132775796Y-86375894D01*
X132622913Y-86387728D01*
X132469508Y-86400154D01*
X132321492Y-86412668D01*
X132184778Y-86424768D01*
X132065276Y-86435952D01*
X131968897Y-86445719D01*
X131901554Y-86453564D01*
X131869158Y-86458987D01*
X131867268Y-86459842D01*
X127053805Y-86459842D01*
X127410445Y-86329890D01*
X128158105Y-86090069D01*
X128916334Y-85879460D01*
X129689246Y-85697015D01*
X130480953Y-85541686D01*
X131295567Y-85412427D01*
X132137203Y-85308190D01*
X133009972Y-85227928D01*
X133098116Y-85221255D01*
X133217212Y-85214409D01*
X133372943Y-85208566D01*
X133559623Y-85203725D01*
X133771565Y-85199886D01*
X134003085Y-85197048D01*
X134248494Y-85195211D01*
X134502108Y-85194375D01*
X134758239Y-85194539D01*
X135011203Y-85195703D01*
X135255311Y-85197866D01*
X135484879Y-85201028D01*
X135694219Y-85205190D01*
X135877647Y-85210350D01*
X136029475Y-85216507D01*
X136114366Y-85221443D01*
X137035114Y-85296083D01*
X137929694Y-85391471D01*
X138806160Y-85509022D01*
X139672569Y-85650154D01*
X140536973Y-85816284D01*
X141407428Y-86008830D01*
X142291988Y-86229208D01*
X143099366Y-86450395D01*
X144331471Y-86821244D01*
X145569979Y-87233334D01*
X146815004Y-87686715D01*
X148066657Y-88181436D01*
X149325052Y-88717547D01*
X150590300Y-89295097D01*
X151862514Y-89914136D01*
X153141806Y-90574712D01*
X154428289Y-91276876D01*
X155583251Y-91939078D01*
X156034664Y-92206800D01*
X156508891Y-92493828D01*
X156999453Y-92796004D01*
X157499873Y-93109175D01*
X158003671Y-93429186D01*
X158504368Y-93751881D01*
X158995487Y-94073106D01*
X159470549Y-94388705D01*
X159923074Y-94694523D01*
X160346585Y-94986406D01*
X160477200Y-95077786D01*
X160829744Y-95325969D01*
X161152615Y-95554525D01*
X161451255Y-95767471D01*
X161731107Y-95968822D01*
X161997614Y-96162596D01*
X162256218Y-96352806D01*
X162512363Y-96543470D01*
X162771490Y-96738603D01*
X163039044Y-96942222D01*
X163320466Y-97158342D01*
X163621200Y-97390979D01*
X163789783Y-97521960D01*
X164015791Y-97698593D01*
X164246013Y-97880043D01*
X164477508Y-98063899D01*
X164707340Y-98247753D01*
X164932569Y-98429193D01*
X165150257Y-98605811D01*
X165357466Y-98775197D01*
X165551257Y-98934940D01*
X165728692Y-99082632D01*
X165886833Y-99215863D01*
X166022741Y-99332222D01*
X166133477Y-99429300D01*
X166216104Y-99504688D01*
X166259885Y-99547649D01*
X166361742Y-99683868D01*
X166427379Y-99840256D01*
X166455075Y-100012450D01*
X166455898Y-100044766D01*
X166454831Y-100124519D01*
X166447972Y-100185793D01*
X166431379Y-100243132D01*
X166401108Y-100311081D01*
X166364092Y-100383432D01*
X166320938Y-100462499D01*
X166270360Y-100548118D01*
X166210135Y-100643478D01*
X166138038Y-100751764D01*
X166051848Y-100876166D01*
X165949341Y-101019869D01*
X165828294Y-101186063D01*
X165686484Y-101377933D01*
X165521689Y-101598667D01*
X165448641Y-101696016D01*
X164791510Y-102539188D01*
X164094939Y-103372276D01*
X163361065Y-104193171D01*
X162592021Y-104999766D01*
X161789945Y-105789953D01*
X160956972Y-106561624D01*
X160095237Y-107312671D01*
X159206875Y-108040986D01*
X158349950Y-108702615D01*
X157346015Y-109429444D01*
X156323799Y-110118419D01*
X155283692Y-110769329D01*
X154226086Y-111381960D01*
X153151373Y-111956101D01*
X152059944Y-112491540D01*
X150952190Y-112988065D01*
X149828503Y-113445463D01*
X149085758Y-113723130D01*
X147969196Y-114103624D01*
X146839328Y-114444024D01*
X145696589Y-114744281D01*
X144541411Y-115004342D01*
X143374227Y-115224157D01*
X142195472Y-115403674D01*
X141005577Y-115542843D01*
X139804976Y-115641612D01*
X138594102Y-115699931D01*
X137373389Y-115717748D01*
X136143269Y-115695012D01*
X134904176Y-115631672D01*
X133722533Y-115534177D01*
X132533027Y-115399776D01*
X131329169Y-115227679D01*
X130114558Y-115018528D01*
X128892790Y-114772968D01*
X127667462Y-114491642D01*
X127097366Y-114348794D01*
X126779904Y-114266248D01*
X126478323Y-114185871D01*
X126186311Y-114105800D01*
X125897555Y-114024174D01*
X125605743Y-113939129D01*
X125304561Y-113848803D01*
X124987699Y-113751335D01*
X124648842Y-113644862D01*
X124281678Y-113527522D01*
X123951199Y-113420635D01*
X123736262Y-113350314D01*
X123559806Y-113292387D01*
X123419652Y-113247467D01*
X123313619Y-113216170D01*
X123239528Y-113199110D01*
X123195197Y-113196901D01*
X123178447Y-113210158D01*
X123187097Y-113239496D01*
X123218968Y-113285529D01*
X123271879Y-113348873D01*
X123343650Y-113430140D01*
X123432101Y-113529947D01*
X123458111Y-113559638D01*
X123724638Y-113858187D01*
X124018563Y-114175091D01*
X124333199Y-114503598D01*
X124661857Y-114836962D01*
X124997848Y-115168432D01*
X125334483Y-115491260D01*
X125665074Y-115798696D01*
X125785354Y-115907946D01*
X126628300Y-116639887D01*
X127499528Y-117340676D01*
X128397797Y-118009502D01*
X129321870Y-118645555D01*
X130270506Y-119248026D01*
X131242466Y-119816104D01*
X132236513Y-120348979D01*
X133251406Y-120845842D01*
X133548198Y-120982513D01*
X134582416Y-121429016D01*
X135631374Y-121835998D01*
X136695185Y-122203487D01*
X137773960Y-122531507D01*
X138867810Y-122820085D01*
X139976847Y-123069248D01*
X141101183Y-123279020D01*
X142240930Y-123449429D01*
X143396198Y-123580500D01*
X144567101Y-123672259D01*
X145226616Y-123706353D01*
X145361974Y-123710690D01*
X145532480Y-123713940D01*
X145732040Y-123716147D01*
X145954562Y-123717355D01*
X146193956Y-123717606D01*
X146444127Y-123716946D01*
X146698984Y-123715418D01*
X146952434Y-123713065D01*
X147198386Y-123709931D01*
X147430746Y-123706060D01*
X147643423Y-123701495D01*
X147830325Y-123696281D01*
X147985358Y-123690460D01*
X148073533Y-123685936D01*
X148953911Y-123623544D01*
X149803112Y-123543492D01*
X150628955Y-123444597D01*
X151439257Y-123325679D01*
X152241835Y-123185557D01*
X153044507Y-123023048D01*
X153855091Y-122836972D01*
X154113704Y-122773190D01*
X155158461Y-122491141D01*
X156196141Y-122170786D01*
X157223972Y-121813388D01*
X158239186Y-121420212D01*
X159239012Y-120992522D01*
X160220680Y-120531582D01*
X161181421Y-120038656D01*
X161576511Y-119817867D01*
X167084611Y-119817867D01*
X167089762Y-119829696D01*
X167111074Y-119852419D01*
X167123327Y-119847758D01*
X167123533Y-119844799D01*
X167108499Y-119826896D01*
X167099096Y-119820362D01*
X167084611Y-119817867D01*
X161576511Y-119817867D01*
X161644183Y-119780050D01*
X167017700Y-119780050D01*
X167028283Y-119790633D01*
X167038866Y-119780050D01*
X167028283Y-119769466D01*
X167017700Y-119780050D01*
X161644183Y-119780050D01*
X161765897Y-119712033D01*
X166936445Y-119712033D01*
X166941595Y-119723862D01*
X166962908Y-119746586D01*
X166975160Y-119741924D01*
X166975366Y-119738965D01*
X166960332Y-119721062D01*
X166950929Y-119714528D01*
X166936445Y-119712033D01*
X161765897Y-119712033D01*
X162118465Y-119515008D01*
X163029042Y-118961902D01*
X163910382Y-118380603D01*
X164234283Y-118154540D01*
X165132008Y-117494866D01*
X165993651Y-116813878D01*
X166820373Y-116110386D01*
X167613335Y-115383198D01*
X168373700Y-114631125D01*
X169102630Y-113852975D01*
X169801286Y-113047559D01*
X170292955Y-112435216D01*
X183131587Y-112435216D01*
X183132932Y-112485413D01*
X183136705Y-112503762D01*
X183140433Y-112493716D01*
X183144244Y-112435646D01*
X183140722Y-112387882D01*
X183135872Y-112373194D01*
X183132539Y-112396071D01*
X183131587Y-112435216D01*
X170292955Y-112435216D01*
X170470829Y-112213686D01*
X170487090Y-112191800D01*
X183153474Y-112191800D01*
X183154558Y-112249951D01*
X183157417Y-112275843D01*
X183161462Y-112264732D01*
X183162011Y-112260591D01*
X183165514Y-112186370D01*
X183162011Y-112123008D01*
X183157861Y-112107032D01*
X183154825Y-112128642D01*
X183153492Y-112183093D01*
X183153474Y-112191800D01*
X170487090Y-112191800D01*
X171112423Y-111350165D01*
X171684911Y-110519633D01*
X172221974Y-109684097D01*
X172719983Y-108850991D01*
X173181508Y-108015041D01*
X173475637Y-107434458D01*
X182393652Y-107434458D01*
X182397925Y-107455972D01*
X182415319Y-107508843D01*
X182443074Y-107585185D01*
X182478433Y-107677113D01*
X182479495Y-107679807D01*
X182656778Y-108171982D01*
X182811747Y-108690032D01*
X182941422Y-109222176D01*
X183042825Y-109756630D01*
X183093061Y-110106883D01*
X183116449Y-110307049D01*
X183134865Y-110494038D01*
X183148887Y-110677783D01*
X183159093Y-110868219D01*
X183166060Y-111075283D01*
X183170368Y-111308908D01*
X183171883Y-111461550D01*
X183173225Y-111628207D01*
X183174501Y-111754212D01*
X183175819Y-111841243D01*
X183177285Y-111890980D01*
X183179005Y-111905102D01*
X183181086Y-111885290D01*
X183183635Y-111833223D01*
X183186756Y-111750580D01*
X183187977Y-111715550D01*
X183191018Y-111578427D01*
X183192034Y-111414293D01*
X183191083Y-111238418D01*
X183188224Y-111066072D01*
X183185045Y-110953550D01*
X183141980Y-110312452D01*
X183057361Y-109677225D01*
X182931614Y-109049931D01*
X182765169Y-108432637D01*
X182558453Y-107827407D01*
X182512485Y-107708423D01*
X182472540Y-107608836D01*
X182437866Y-107525808D01*
X182411389Y-107466082D01*
X182396032Y-107436401D01*
X182393652Y-107434458D01*
X173475637Y-107434458D01*
X173609122Y-107170974D01*
X173682303Y-107012622D01*
X182201655Y-107012622D01*
X182206775Y-107033671D01*
X182226452Y-107084563D01*
X182257267Y-107156816D01*
X182282786Y-107213713D01*
X182320455Y-107293971D01*
X182351720Y-107356450D01*
X182372574Y-107393386D01*
X182378812Y-107399910D01*
X182373747Y-107378793D01*
X182354074Y-107327864D01*
X182323218Y-107255612D01*
X182297681Y-107198818D01*
X182259945Y-107118599D01*
X182228661Y-107056127D01*
X182207837Y-107019173D01*
X182201655Y-107012622D01*
X173682303Y-107012622D01*
X173700052Y-106974216D01*
X182173033Y-106974216D01*
X182183616Y-106984800D01*
X182194200Y-106974216D01*
X182183616Y-106963633D01*
X182173033Y-106974216D01*
X173700052Y-106974216D01*
X173719616Y-106931883D01*
X182151866Y-106931883D01*
X182162450Y-106942466D01*
X182173033Y-106931883D01*
X182162450Y-106921300D01*
X182151866Y-106931883D01*
X173719616Y-106931883D01*
X173739180Y-106889550D01*
X182130700Y-106889550D01*
X182141283Y-106900133D01*
X182151866Y-106889550D01*
X182141283Y-106878966D01*
X182130700Y-106889550D01*
X173739180Y-106889550D01*
X173758745Y-106847216D01*
X182109533Y-106847216D01*
X182120116Y-106857800D01*
X182130700Y-106847216D01*
X182120116Y-106836633D01*
X182109533Y-106847216D01*
X173758745Y-106847216D01*
X173778309Y-106804883D01*
X182088366Y-106804883D01*
X182098950Y-106815466D01*
X182109533Y-106804883D01*
X182098950Y-106794300D01*
X182088366Y-106804883D01*
X173778309Y-106804883D01*
X173797873Y-106762550D01*
X182067200Y-106762550D01*
X182077783Y-106773133D01*
X182088366Y-106762550D01*
X182077783Y-106751966D01*
X182067200Y-106762550D01*
X173797873Y-106762550D01*
X173817438Y-106720216D01*
X182046033Y-106720216D01*
X182056616Y-106730800D01*
X182067200Y-106720216D01*
X182056616Y-106709633D01*
X182046033Y-106720216D01*
X173817438Y-106720216D01*
X173837003Y-106677883D01*
X182024866Y-106677883D01*
X182035450Y-106688466D01*
X182046033Y-106677883D01*
X182035450Y-106667300D01*
X182024866Y-106677883D01*
X173837003Y-106677883D01*
X173929934Y-106476800D01*
X181928756Y-106476800D01*
X181930980Y-106493489D01*
X181948748Y-106535749D01*
X181961366Y-106561466D01*
X181989413Y-106612265D01*
X182010210Y-106642479D01*
X182015143Y-106646133D01*
X182012919Y-106629444D01*
X181995151Y-106587183D01*
X181982533Y-106561466D01*
X181954486Y-106510667D01*
X181933689Y-106480453D01*
X181928756Y-106476800D01*
X173929934Y-106476800D01*
X173944608Y-106445050D01*
X181897866Y-106445050D01*
X181908450Y-106455633D01*
X181919033Y-106445050D01*
X181908450Y-106434466D01*
X181897866Y-106445050D01*
X173944608Y-106445050D01*
X173998411Y-106328633D01*
X181843460Y-106328633D01*
X181843604Y-106344189D01*
X181855533Y-106370966D01*
X181877392Y-106404231D01*
X181888772Y-106413300D01*
X181888628Y-106397743D01*
X181876700Y-106370966D01*
X181854840Y-106337702D01*
X181843460Y-106328633D01*
X173998411Y-106328633D01*
X174005397Y-106313517D01*
X174012374Y-106296883D01*
X181813200Y-106296883D01*
X181823783Y-106307466D01*
X181834366Y-106296883D01*
X181823783Y-106286300D01*
X181813200Y-106296883D01*
X174012374Y-106296883D01*
X174061206Y-106180466D01*
X181758793Y-106180466D01*
X181758937Y-106196022D01*
X181770866Y-106222800D01*
X181792725Y-106256064D01*
X181804106Y-106265133D01*
X181803962Y-106249577D01*
X181792033Y-106222800D01*
X181770174Y-106189535D01*
X181758793Y-106180466D01*
X174061206Y-106180466D01*
X174085297Y-106123033D01*
X181710778Y-106123033D01*
X181715928Y-106134862D01*
X181737241Y-106157586D01*
X181749493Y-106152924D01*
X181749700Y-106149965D01*
X181734665Y-106132062D01*
X181725262Y-106125528D01*
X181710778Y-106123033D01*
X174085297Y-106123033D01*
X174101160Y-106085216D01*
X181686200Y-106085216D01*
X181696783Y-106095800D01*
X181707366Y-106085216D01*
X181696783Y-106074633D01*
X181686200Y-106085216D01*
X174101160Y-106085216D01*
X174129690Y-106017200D01*
X181647278Y-106017200D01*
X181652428Y-106029029D01*
X181673741Y-106051752D01*
X181685993Y-106047091D01*
X181686200Y-106044132D01*
X181671165Y-106026229D01*
X181661762Y-106019695D01*
X181647278Y-106017200D01*
X174129690Y-106017200D01*
X174145553Y-105979383D01*
X181622700Y-105979383D01*
X181633283Y-105989966D01*
X181643866Y-105979383D01*
X181633283Y-105968800D01*
X181622700Y-105979383D01*
X174145553Y-105979383D01*
X174172189Y-105915883D01*
X181580366Y-105915883D01*
X181590950Y-105926466D01*
X181601533Y-105915883D01*
X181590950Y-105905300D01*
X181580366Y-105915883D01*
X174172189Y-105915883D01*
X174200720Y-105847867D01*
X181541445Y-105847867D01*
X181546595Y-105859696D01*
X181567908Y-105882419D01*
X181580160Y-105877758D01*
X181580366Y-105874799D01*
X181565332Y-105856896D01*
X181555929Y-105850362D01*
X181541445Y-105847867D01*
X174200720Y-105847867D01*
X174227357Y-105784367D01*
X181499111Y-105784367D01*
X181504262Y-105796196D01*
X181525574Y-105818919D01*
X181537827Y-105814258D01*
X181538033Y-105811299D01*
X181522999Y-105793396D01*
X181513596Y-105786862D01*
X181499111Y-105784367D01*
X174227357Y-105784367D01*
X174253994Y-105720867D01*
X181456778Y-105720867D01*
X181461928Y-105732696D01*
X181483241Y-105755419D01*
X181495493Y-105750758D01*
X181495700Y-105747799D01*
X181480665Y-105729896D01*
X181471262Y-105723362D01*
X181456778Y-105720867D01*
X174253994Y-105720867D01*
X174280631Y-105657367D01*
X181414445Y-105657367D01*
X181419595Y-105669196D01*
X181440908Y-105691919D01*
X181453160Y-105687258D01*
X181453366Y-105684299D01*
X181438332Y-105666396D01*
X181428929Y-105659862D01*
X181414445Y-105657367D01*
X174280631Y-105657367D01*
X174305373Y-105598383D01*
X181368700Y-105598383D01*
X181379283Y-105608966D01*
X181389866Y-105598383D01*
X181379283Y-105587800D01*
X181368700Y-105598383D01*
X174305373Y-105598383D01*
X174332010Y-105534883D01*
X181326366Y-105534883D01*
X181336950Y-105545466D01*
X181347533Y-105534883D01*
X181336950Y-105524300D01*
X181326366Y-105534883D01*
X174332010Y-105534883D01*
X174358647Y-105471383D01*
X181284033Y-105471383D01*
X181294616Y-105481966D01*
X181305200Y-105471383D01*
X181294616Y-105460800D01*
X181284033Y-105471383D01*
X174358647Y-105471383D01*
X174372903Y-105437398D01*
X174714214Y-104537342D01*
X174983231Y-103756883D01*
X175292282Y-102752401D01*
X175560350Y-101737862D01*
X175787358Y-100714101D01*
X175973229Y-99681955D01*
X176117888Y-98642260D01*
X176221258Y-97595850D01*
X176283264Y-96543563D01*
X176303828Y-95486234D01*
X176282876Y-94424699D01*
X176220330Y-93359794D01*
X176116115Y-92292354D01*
X176065064Y-91882383D01*
X175908965Y-90860608D01*
X175711317Y-89843542D01*
X175472782Y-88832679D01*
X175194022Y-87829510D01*
X174875700Y-86835529D01*
X174518478Y-85852228D01*
X174123018Y-84881101D01*
X173689981Y-83923640D01*
X173220031Y-82981338D01*
X172713828Y-82055688D01*
X172172036Y-81148184D01*
X171595317Y-80260317D01*
X170984331Y-79393581D01*
X170339743Y-78549468D01*
X169926250Y-78041417D01*
X169197396Y-77200222D01*
X168436738Y-76386489D01*
X167645655Y-75601404D01*
X166825528Y-74846147D01*
X165977737Y-74121904D01*
X165103664Y-73429857D01*
X164204688Y-72771190D01*
X163282189Y-72147085D01*
X162424533Y-71610843D01*
X161436107Y-71039967D01*
X160434966Y-70508915D01*
X159420336Y-70017412D01*
X158391445Y-69565184D01*
X157347517Y-69151955D01*
X156287781Y-68777453D01*
X155211462Y-68441401D01*
X154117787Y-68143526D01*
X153005983Y-67883552D01*
X151875275Y-67661205D01*
X150814616Y-67489197D01*
X149884130Y-67369166D01*
X148929696Y-67276788D01*
X147959675Y-67212366D01*
X146982429Y-67176198D01*
X146006319Y-67168585D01*
X145039707Y-67189827D01*
X144090952Y-67240225D01*
X144020116Y-67245234D01*
X142915897Y-67344406D01*
X141812527Y-67482559D01*
X140713639Y-67658931D01*
X139622867Y-67872756D01*
X138543844Y-68123274D01*
X137480204Y-68409721D01*
X136435579Y-68731333D01*
X135638116Y-69005462D01*
X134792809Y-69325676D01*
X133940170Y-69679617D01*
X133089265Y-70062986D01*
X132249159Y-70471487D01*
X131428918Y-70900822D01*
X130637607Y-71346694D01*
X130390219Y-71493218D01*
X130122349Y-71656541D01*
X129841834Y-71832524D01*
X129554277Y-72017373D01*
X129265281Y-72207293D01*
X128980448Y-72398490D01*
X128705382Y-72587170D01*
X128445685Y-72769537D01*
X128206961Y-72941797D01*
X127994812Y-73100155D01*
X127842566Y-73218603D01*
X127794016Y-73257294D01*
X127842566Y-73323391D01*
X127880034Y-73372694D01*
X127933362Y-73440800D01*
X127991606Y-73513745D01*
X127996950Y-73520361D01*
X128292204Y-73916033D01*
X128564426Y-74342705D01*
X128810431Y-74793988D01*
X129027038Y-75263490D01*
X129211063Y-75744823D01*
X129359324Y-76231595D01*
X129372633Y-76282550D01*
X129461984Y-76667278D01*
X129528109Y-77040369D01*
X129572641Y-77415008D01*
X129597218Y-77804386D01*
X129603629Y-78145216D01*
X129602247Y-78376749D01*
X129596711Y-78577853D01*
X129586020Y-78760313D01*
X129569176Y-78935915D01*
X129545177Y-79116445D01*
X129513025Y-79313690D01*
X129496798Y-79404633D01*
X129376861Y-79947961D01*
X129218363Y-80475500D01*
X129022611Y-80985699D01*
X128790913Y-81477006D01*
X128524576Y-81947867D01*
X128224906Y-82396732D01*
X127893211Y-82822047D01*
X127530798Y-83222261D01*
X127138974Y-83595821D01*
X126719046Y-83941175D01*
X126272321Y-84256772D01*
X125800106Y-84541058D01*
X125303708Y-84792481D01*
X124784436Y-85009491D01*
X124773498Y-85013592D01*
X124303399Y-85169987D01*
X123815840Y-85295101D01*
X123318393Y-85387781D01*
X122818633Y-85446879D01*
X122324133Y-85471244D01*
X121842468Y-85459726D01*
X121837450Y-85459407D01*
X121298034Y-85408453D01*
X120782534Y-85325478D01*
X120285684Y-85209136D01*
X119802221Y-85058077D01*
X119326881Y-84870954D01*
X119056037Y-84746909D01*
X118948956Y-84695822D01*
X118856043Y-84652340D01*
X118783586Y-84619339D01*
X118737871Y-84599690D01*
X118724776Y-84595517D01*
X118714199Y-84617329D01*
X118690165Y-84672312D01*
X118655181Y-84754432D01*
X118611758Y-84857656D01*
X118562406Y-84975948D01*
X118509634Y-85103275D01*
X118455951Y-85233602D01*
X118403869Y-85360894D01*
X118355895Y-85479117D01*
X118317534Y-85574716D01*
X118035365Y-86320456D01*
X117775045Y-87084476D01*
X117537968Y-87860989D01*
X117325531Y-88644207D01*
X117139129Y-89428344D01*
X116980156Y-90207613D01*
X116850008Y-90976226D01*
X116750080Y-91728396D01*
X116692931Y-92313204D01*
X116678571Y-92490025D01*
X114954136Y-92490025D01*
X114974982Y-92271028D01*
X115114543Y-91199615D01*
X115290134Y-90147625D01*
X115502262Y-89112869D01*
X115751437Y-88093160D01*
X116038167Y-87086311D01*
X116362961Y-86090136D01*
X116726328Y-85102446D01*
X116885007Y-84703301D01*
X117290669Y-83756287D01*
X117519648Y-83271711D01*
X119371533Y-83271711D01*
X119390032Y-83289260D01*
X119441222Y-83319776D01*
X119518643Y-83360124D01*
X119615832Y-83407171D01*
X119726329Y-83457782D01*
X119843674Y-83508823D01*
X119953616Y-83554062D01*
X120377291Y-83710058D01*
X120785741Y-83833229D01*
X121187543Y-83925760D01*
X121591269Y-83989837D01*
X121721033Y-84004561D01*
X121815098Y-84010947D01*
X121942006Y-84014849D01*
X122092347Y-84016403D01*
X122256712Y-84015745D01*
X122425692Y-84013011D01*
X122589876Y-84008339D01*
X122739856Y-84001863D01*
X122866223Y-83993721D01*
X122936893Y-83986952D01*
X123441930Y-83907249D01*
X123931868Y-83788623D01*
X124405103Y-83632103D01*
X124860028Y-83438719D01*
X125295037Y-83209500D01*
X125708525Y-82945478D01*
X126098885Y-82647681D01*
X126464511Y-82317139D01*
X126803798Y-81954882D01*
X127115139Y-81561940D01*
X127396929Y-81139343D01*
X127409199Y-81119133D01*
X127625525Y-80730086D01*
X127808378Y-80332328D01*
X127959751Y-79920095D01*
X128081642Y-79487626D01*
X128176044Y-79029158D01*
X128211723Y-78801383D01*
X128226483Y-78665280D01*
X128237530Y-78497568D01*
X128244784Y-78308815D01*
X128248166Y-78109591D01*
X128247594Y-77910463D01*
X128242990Y-77722001D01*
X128234272Y-77554772D01*
X128222152Y-77425550D01*
X128141001Y-76935060D01*
X128022306Y-76454185D01*
X127867591Y-75986734D01*
X127678377Y-75536515D01*
X127456184Y-75107339D01*
X127202536Y-74703014D01*
X127051206Y-74493966D01*
X126955555Y-74368546D01*
X126881964Y-74273250D01*
X126826918Y-74204467D01*
X126786902Y-74158587D01*
X126758400Y-74131998D01*
X126737896Y-74121091D01*
X126721877Y-74122253D01*
X126706826Y-74131875D01*
X126702308Y-74135592D01*
X125856549Y-74866122D01*
X125050189Y-75611195D01*
X124282639Y-76371457D01*
X123553309Y-77147554D01*
X122861612Y-77940134D01*
X122206958Y-78749844D01*
X121588758Y-79577329D01*
X121087586Y-80301022D01*
X120814145Y-80717903D01*
X120549118Y-81136948D01*
X120296471Y-81551517D01*
X120060167Y-81954972D01*
X119844171Y-82340675D01*
X119652447Y-82701986D01*
X119643576Y-82719279D01*
X119573135Y-82857558D01*
X119509470Y-82983927D01*
X119455040Y-83093393D01*
X119412304Y-83180966D01*
X119383719Y-83241651D01*
X119371745Y-83270459D01*
X119371533Y-83271711D01*
X117519648Y-83271711D01*
X117736170Y-82813499D01*
X118219012Y-81879024D01*
X118736701Y-80956948D01*
X119286740Y-80051358D01*
X119866635Y-79166341D01*
X120473889Y-78305982D01*
X121106008Y-77474368D01*
X121760496Y-76675586D01*
X121854557Y-76565691D01*
X122109893Y-76274446D01*
X122389559Y-75965281D01*
X122687645Y-75644249D01*
X122998237Y-75317406D01*
X123315424Y-74990808D01*
X123633294Y-74670509D01*
X123945936Y-74362564D01*
X124247438Y-74073028D01*
X124531889Y-73807957D01*
X124664002Y-73688165D01*
X125548722Y-72921992D01*
X126454239Y-72192684D01*
X127380488Y-71500279D01*
X128327400Y-70844813D01*
X129294911Y-70226325D01*
X130282953Y-69644850D01*
X131291460Y-69100427D01*
X132320366Y-68593093D01*
X133369604Y-68122885D01*
X134439107Y-67689840D01*
X135528809Y-67293996D01*
X136638644Y-66935391D01*
X136772761Y-66894986D01*
X137907875Y-66577552D01*
X139055645Y-66299913D01*
X140214077Y-66062276D01*
X141381179Y-65864850D01*
X142554959Y-65707840D01*
X143733422Y-65591454D01*
X144914577Y-65515900D01*
X146096432Y-65481386D01*
X147276992Y-65488118D01*
G36*
X160256066Y-73418299D02*
X160387456Y-73422510D01*
X160510160Y-73429601D01*
X160632578Y-73439786D01*
X160688866Y-73445339D01*
X161280185Y-73525786D01*
X161854966Y-73644366D01*
X162414927Y-73801699D01*
X162961786Y-73998406D01*
X163497260Y-74235107D01*
X164023068Y-74512424D01*
X164540927Y-74830977D01*
X164562366Y-74845160D01*
X164925722Y-75099998D01*
X165270730Y-75371385D01*
X165608900Y-75668683D01*
X165808679Y-75858865D01*
X166168755Y-76226969D01*
X166492128Y-76592379D01*
X166783473Y-76961348D01*
X167047466Y-77340126D01*
X167288781Y-77734965D01*
X167487949Y-78104321D01*
X167740843Y-78646110D01*
X167952103Y-79195547D01*
X168121720Y-79752570D01*
X168249686Y-80317117D01*
X168335992Y-80889127D01*
X168380629Y-81468538D01*
X168383589Y-82055289D01*
X168344863Y-82649317D01*
X168264443Y-83250562D01*
X168233314Y-83426300D01*
X168109076Y-83982770D01*
X167945392Y-84537743D01*
X167744816Y-85084427D01*
X167509900Y-85616025D01*
X167243199Y-86125743D01*
X167173308Y-86246499D01*
X166869412Y-86721125D01*
X166528821Y-87179175D01*
X166155165Y-87616957D01*
X165752075Y-88030777D01*
X165323181Y-88416944D01*
X164872114Y-88771763D01*
X164402504Y-89091542D01*
X164335295Y-89133421D01*
X163836015Y-89418790D01*
X163324992Y-89666421D01*
X162799421Y-89877273D01*
X162256499Y-90052303D01*
X161693422Y-90192471D01*
X161107385Y-90298732D01*
X160805283Y-90339400D01*
X160686566Y-90350561D01*
X160534324Y-90360204D01*
X160357342Y-90368166D01*
X160164405Y-90374285D01*
X159964300Y-90378400D01*
X159765812Y-90380346D01*
X159577728Y-90379964D01*
X159408832Y-90377089D01*
X159267911Y-90371561D01*
X159222262Y-90368637D01*
X158628086Y-90303753D01*
X158041756Y-90197361D01*
X157464448Y-90049757D01*
X156897341Y-89861239D01*
X156394663Y-89655957D01*
X156239126Y-89584073D01*
X156070071Y-89501542D01*
X155898358Y-89413995D01*
X155734844Y-89327063D01*
X155590386Y-89246378D01*
X155492450Y-89188010D01*
X154980346Y-88845907D01*
X154498735Y-88476281D01*
X154048401Y-88080588D01*
X153630127Y-87660285D01*
X153244696Y-87216829D01*
X152892893Y-86751676D01*
X152575501Y-86266282D01*
X152293304Y-85762104D01*
X152047085Y-85240600D01*
X151837628Y-84703224D01*
X151665717Y-84151435D01*
X151532135Y-83586688D01*
X151437666Y-83010440D01*
X151383093Y-82424148D01*
X151369620Y-81847217D01*
X152983504Y-81847217D01*
X152995145Y-82357904D01*
X153043403Y-82864388D01*
X153128002Y-83358989D01*
X153167175Y-83532133D01*
X153311982Y-84042744D01*
X153495076Y-84537487D01*
X153714800Y-85014513D01*
X153969497Y-85471975D01*
X154257510Y-85908026D01*
X154577181Y-86320818D01*
X154926855Y-86708504D01*
X155304875Y-87069235D01*
X155709582Y-87401166D01*
X156139321Y-87702448D01*
X156592433Y-87971234D01*
X157067264Y-88205677D01*
X157524450Y-88390382D01*
X157886626Y-88507655D01*
X158277075Y-88608120D01*
X158684173Y-88689130D01*
X159092944Y-88747653D01*
X159232436Y-88759953D01*
X159403466Y-88769198D01*
X159595342Y-88775297D01*
X159797372Y-88778160D01*
X159998865Y-88777697D01*
X160189128Y-88773816D01*
X160357470Y-88766428D01*
X160456033Y-88759168D01*
X160992742Y-88689452D01*
X161517271Y-88579430D01*
X162028314Y-88429707D01*
X162524569Y-88240888D01*
X163004731Y-88013580D01*
X163467497Y-87748388D01*
X163911563Y-87445917D01*
X164335625Y-87106774D01*
X164665073Y-86804120D01*
X165037440Y-86411940D01*
X165373586Y-85997961D01*
X165673238Y-85562738D01*
X165936125Y-85106827D01*
X166161975Y-84630785D01*
X166350515Y-84135166D01*
X166501474Y-83620528D01*
X166614579Y-83087425D01*
X166670802Y-82705882D01*
X166687236Y-82531546D01*
X166698539Y-82328096D01*
X166704715Y-82106593D01*
X166705765Y-81878100D01*
X166701693Y-81653677D01*
X166692501Y-81444387D01*
X166678191Y-81261290D01*
X166670446Y-81193216D01*
X166580060Y-80647892D01*
X166450791Y-80118076D01*
X166283591Y-79605216D01*
X166079417Y-79110758D01*
X165839224Y-78636151D01*
X165563966Y-78182841D01*
X165254599Y-77752277D01*
X164912077Y-77345904D01*
X164537355Y-76965171D01*
X164131390Y-76611524D01*
X163695135Y-76286412D01*
X163243064Y-75999177D01*
X162808315Y-75767269D01*
X162352549Y-75567206D01*
X161880910Y-75400291D01*
X161398540Y-75267826D01*
X160910582Y-75171111D01*
X160422177Y-75111450D01*
X159938469Y-75090144D01*
X159672866Y-75095394D01*
X159120046Y-75139418D01*
X158579767Y-75222389D01*
X158053648Y-75343594D01*
X157543310Y-75502323D01*
X157050371Y-75697862D01*
X156576450Y-75929500D01*
X156123169Y-76196525D01*
X155692145Y-76498225D01*
X155284999Y-76833887D01*
X154920950Y-77184461D01*
X154558945Y-77590053D01*
X154231825Y-78018434D01*
X153940484Y-78467842D01*
X153685810Y-78936511D01*
X153468697Y-79422680D01*
X153290036Y-79924583D01*
X153150718Y-80440457D01*
X153071167Y-80843966D01*
X153008753Y-81340010D01*
X152983504Y-81847217D01*
X151369620Y-81847217D01*
X151369200Y-81829268D01*
X151377302Y-81539068D01*
X151417199Y-81008626D01*
X151489860Y-80488905D01*
X151596717Y-79973108D01*
X151739207Y-79454439D01*
X151918762Y-78926103D01*
X151941676Y-78864883D01*
X152166500Y-78329039D01*
X152429647Y-77808675D01*
X152729127Y-77306354D01*
X153062947Y-76824642D01*
X153429115Y-76366102D01*
X153825641Y-75933300D01*
X154250533Y-75528800D01*
X154701799Y-75155166D01*
X154984450Y-74946826D01*
X155465167Y-74632397D01*
X155967466Y-74350496D01*
X156486530Y-74103328D01*
X157017547Y-73893099D01*
X157555701Y-73722011D01*
X157797462Y-73658735D01*
X158087299Y-73591845D01*
X158359167Y-73537997D01*
X158623484Y-73495905D01*
X158890671Y-73464282D01*
X159171146Y-73441845D01*
X159475327Y-73427306D01*
X159725783Y-73420804D01*
X159933629Y-73417660D01*
X160107590Y-73416754D01*
X160256066Y-73418299D01*
X160256066Y-73418299D01*
G37*
X160256066Y-73418299D02*
X160387456Y-73422510D01*
X160510160Y-73429601D01*
X160632578Y-73439786D01*
X160688866Y-73445339D01*
X161280185Y-73525786D01*
X161854966Y-73644366D01*
X162414927Y-73801699D01*
X162961786Y-73998406D01*
X163497260Y-74235107D01*
X164023068Y-74512424D01*
X164540927Y-74830977D01*
X164562366Y-74845160D01*
X164925722Y-75099998D01*
X165270730Y-75371385D01*
X165608900Y-75668683D01*
X165808679Y-75858865D01*
X166168755Y-76226969D01*
X166492128Y-76592379D01*
X166783473Y-76961348D01*
X167047466Y-77340126D01*
X167288781Y-77734965D01*
X167487949Y-78104321D01*
X167740843Y-78646110D01*
X167952103Y-79195547D01*
X168121720Y-79752570D01*
X168249686Y-80317117D01*
X168335992Y-80889127D01*
X168380629Y-81468538D01*
X168383589Y-82055289D01*
X168344863Y-82649317D01*
X168264443Y-83250562D01*
X168233314Y-83426300D01*
X168109076Y-83982770D01*
X167945392Y-84537743D01*
X167744816Y-85084427D01*
X167509900Y-85616025D01*
X167243199Y-86125743D01*
X167173308Y-86246499D01*
X166869412Y-86721125D01*
X166528821Y-87179175D01*
X166155165Y-87616957D01*
X165752075Y-88030777D01*
X165323181Y-88416944D01*
X164872114Y-88771763D01*
X164402504Y-89091542D01*
X164335295Y-89133421D01*
X163836015Y-89418790D01*
X163324992Y-89666421D01*
X162799421Y-89877273D01*
X162256499Y-90052303D01*
X161693422Y-90192471D01*
X161107385Y-90298732D01*
X160805283Y-90339400D01*
X160686566Y-90350561D01*
X160534324Y-90360204D01*
X160357342Y-90368166D01*
X160164405Y-90374285D01*
X159964300Y-90378400D01*
X159765812Y-90380346D01*
X159577728Y-90379964D01*
X159408832Y-90377089D01*
X159267911Y-90371561D01*
X159222262Y-90368637D01*
X158628086Y-90303753D01*
X158041756Y-90197361D01*
X157464448Y-90049757D01*
X156897341Y-89861239D01*
X156394663Y-89655957D01*
X156239126Y-89584073D01*
X156070071Y-89501542D01*
X155898358Y-89413995D01*
X155734844Y-89327063D01*
X155590386Y-89246378D01*
X155492450Y-89188010D01*
X154980346Y-88845907D01*
X154498735Y-88476281D01*
X154048401Y-88080588D01*
X153630127Y-87660285D01*
X153244696Y-87216829D01*
X152892893Y-86751676D01*
X152575501Y-86266282D01*
X152293304Y-85762104D01*
X152047085Y-85240600D01*
X151837628Y-84703224D01*
X151665717Y-84151435D01*
X151532135Y-83586688D01*
X151437666Y-83010440D01*
X151383093Y-82424148D01*
X151369620Y-81847217D01*
X152983504Y-81847217D01*
X152995145Y-82357904D01*
X153043403Y-82864388D01*
X153128002Y-83358989D01*
X153167175Y-83532133D01*
X153311982Y-84042744D01*
X153495076Y-84537487D01*
X153714800Y-85014513D01*
X153969497Y-85471975D01*
X154257510Y-85908026D01*
X154577181Y-86320818D01*
X154926855Y-86708504D01*
X155304875Y-87069235D01*
X155709582Y-87401166D01*
X156139321Y-87702448D01*
X156592433Y-87971234D01*
X157067264Y-88205677D01*
X157524450Y-88390382D01*
X157886626Y-88507655D01*
X158277075Y-88608120D01*
X158684173Y-88689130D01*
X159092944Y-88747653D01*
X159232436Y-88759953D01*
X159403466Y-88769198D01*
X159595342Y-88775297D01*
X159797372Y-88778160D01*
X159998865Y-88777697D01*
X160189128Y-88773816D01*
X160357470Y-88766428D01*
X160456033Y-88759168D01*
X160992742Y-88689452D01*
X161517271Y-88579430D01*
X162028314Y-88429707D01*
X162524569Y-88240888D01*
X163004731Y-88013580D01*
X163467497Y-87748388D01*
X163911563Y-87445917D01*
X164335625Y-87106774D01*
X164665073Y-86804120D01*
X165037440Y-86411940D01*
X165373586Y-85997961D01*
X165673238Y-85562738D01*
X165936125Y-85106827D01*
X166161975Y-84630785D01*
X166350515Y-84135166D01*
X166501474Y-83620528D01*
X166614579Y-83087425D01*
X166670802Y-82705882D01*
X166687236Y-82531546D01*
X166698539Y-82328096D01*
X166704715Y-82106593D01*
X166705765Y-81878100D01*
X166701693Y-81653677D01*
X166692501Y-81444387D01*
X166678191Y-81261290D01*
X166670446Y-81193216D01*
X166580060Y-80647892D01*
X166450791Y-80118076D01*
X166283591Y-79605216D01*
X166079417Y-79110758D01*
X165839224Y-78636151D01*
X165563966Y-78182841D01*
X165254599Y-77752277D01*
X164912077Y-77345904D01*
X164537355Y-76965171D01*
X164131390Y-76611524D01*
X163695135Y-76286412D01*
X163243064Y-75999177D01*
X162808315Y-75767269D01*
X162352549Y-75567206D01*
X161880910Y-75400291D01*
X161398540Y-75267826D01*
X160910582Y-75171111D01*
X160422177Y-75111450D01*
X159938469Y-75090144D01*
X159672866Y-75095394D01*
X159120046Y-75139418D01*
X158579767Y-75222389D01*
X158053648Y-75343594D01*
X157543310Y-75502323D01*
X157050371Y-75697862D01*
X156576450Y-75929500D01*
X156123169Y-76196525D01*
X155692145Y-76498225D01*
X155284999Y-76833887D01*
X154920950Y-77184461D01*
X154558945Y-77590053D01*
X154231825Y-78018434D01*
X153940484Y-78467842D01*
X153685810Y-78936511D01*
X153468697Y-79422680D01*
X153290036Y-79924583D01*
X153150718Y-80440457D01*
X153071167Y-80843966D01*
X153008753Y-81340010D01*
X152983504Y-81847217D01*
X151369620Y-81847217D01*
X151369200Y-81829268D01*
X151377302Y-81539068D01*
X151417199Y-81008626D01*
X151489860Y-80488905D01*
X151596717Y-79973108D01*
X151739207Y-79454439D01*
X151918762Y-78926103D01*
X151941676Y-78864883D01*
X152166500Y-78329039D01*
X152429647Y-77808675D01*
X152729127Y-77306354D01*
X153062947Y-76824642D01*
X153429115Y-76366102D01*
X153825641Y-75933300D01*
X154250533Y-75528800D01*
X154701799Y-75155166D01*
X154984450Y-74946826D01*
X155465167Y-74632397D01*
X155967466Y-74350496D01*
X156486530Y-74103328D01*
X157017547Y-73893099D01*
X157555701Y-73722011D01*
X157797462Y-73658735D01*
X158087299Y-73591845D01*
X158359167Y-73537997D01*
X158623484Y-73495905D01*
X158890671Y-73464282D01*
X159171146Y-73441845D01*
X159475327Y-73427306D01*
X159725783Y-73420804D01*
X159933629Y-73417660D01*
X160107590Y-73416754D01*
X160256066Y-73418299D01*
D12*
X176632995Y-114113371D03*
D13*
X148084401Y-119228001D03*
D14*
X148084401Y-121768001D03*
X145544401Y-119228001D03*
X145544401Y-121768001D03*
M02*
