G04 #@! TF.FileFunction,Soldermask,Top*
%FSLAX46Y46*%
G04 Gerber Fmt 4.6, Leading zero omitted, Abs format (unit mm)*
G04 Created by KiCad (PCBNEW 4.0.7) date 07/17/18 15:25:19*
%MOMM*%
%LPD*%
G01*
G04 APERTURE LIST*
%ADD10C,0.100000*%
%ADD11C,0.010000*%
%ADD12C,6.400000*%
%ADD13C,2.100000*%
%ADD14O,2.100000X2.100000*%
G04 APERTURE END LIST*
D10*
D11*
G36*
X177232361Y-102125226D02*
X177298128Y-102151293D01*
X177393923Y-102195233D01*
X177507079Y-102250370D01*
X177965478Y-102492068D01*
X178406483Y-102755095D01*
X178838277Y-103044813D01*
X179269041Y-103366587D01*
X179527200Y-103574614D01*
X179652751Y-103682865D01*
X179798133Y-103815635D01*
X179957302Y-103966799D01*
X180124210Y-104130235D01*
X180292813Y-104299816D01*
X180457065Y-104469418D01*
X180610920Y-104632918D01*
X180748333Y-104784189D01*
X180863258Y-104917108D01*
X180914898Y-104980433D01*
X181318534Y-105521312D01*
X181681759Y-106074475D01*
X182004924Y-106640805D01*
X182288378Y-107221184D01*
X182532472Y-107816497D01*
X182737554Y-108427626D01*
X182903975Y-109055454D01*
X183032084Y-109700866D01*
X183122231Y-110364744D01*
X183146005Y-110614883D01*
X183153847Y-110738515D01*
X183159834Y-110895479D01*
X183163963Y-111076813D01*
X183166235Y-111273558D01*
X183166649Y-111476751D01*
X183165204Y-111677432D01*
X183161900Y-111866640D01*
X183156736Y-112035414D01*
X183149712Y-112174793D01*
X183146111Y-112223550D01*
X183070519Y-112872564D01*
X182953667Y-113514126D01*
X182796230Y-114146587D01*
X182598882Y-114768299D01*
X182362298Y-115377614D01*
X182087151Y-115972884D01*
X181774116Y-116552460D01*
X181423867Y-117114696D01*
X181037079Y-117657942D01*
X180799496Y-117959716D01*
X180699674Y-118077050D01*
X180575645Y-118214961D01*
X180433723Y-118367053D01*
X180280224Y-118526927D01*
X180121463Y-118688186D01*
X179963757Y-118844432D01*
X179813420Y-118989268D01*
X179676767Y-119116296D01*
X179560115Y-119219118D01*
X179537783Y-119237839D01*
X179008716Y-119651564D01*
X178468754Y-120024703D01*
X177916521Y-120357916D01*
X177350645Y-120651866D01*
X176769751Y-120907215D01*
X176172464Y-121124625D01*
X175557410Y-121304757D01*
X174965783Y-121439899D01*
X174499597Y-121520796D01*
X174016543Y-121582436D01*
X173528009Y-121623991D01*
X173045383Y-121644636D01*
X172580054Y-121643545D01*
X172314446Y-121632147D01*
X171653528Y-121572130D01*
X171005632Y-121471861D01*
X170371183Y-121331505D01*
X169750603Y-121151226D01*
X169144317Y-120931186D01*
X168552747Y-120671550D01*
X167976319Y-120372483D01*
X167415455Y-120034146D01*
X166870580Y-119656705D01*
X166533172Y-119396882D01*
X166426499Y-119309976D01*
X166316876Y-119218197D01*
X166215190Y-119130817D01*
X166132329Y-119057107D01*
X166110636Y-119037048D01*
X165954990Y-118891050D01*
X166290553Y-118633444D01*
X166978658Y-118086743D01*
X167667239Y-117503482D01*
X168350736Y-116889004D01*
X169023590Y-116248649D01*
X169680242Y-115587760D01*
X170315131Y-114911677D01*
X170922700Y-114225743D01*
X171122284Y-113990966D01*
X171836472Y-113111600D01*
X172510246Y-112219909D01*
X173143798Y-111315526D01*
X173737324Y-110398082D01*
X174291020Y-109467207D01*
X174805078Y-108522533D01*
X175279695Y-107563692D01*
X175715065Y-106590315D01*
X176111382Y-105602032D01*
X176468842Y-104598476D01*
X176787638Y-103579277D01*
X176973691Y-102910216D01*
X177011099Y-102767639D01*
X177047114Y-102628087D01*
X177079454Y-102500578D01*
X177105836Y-102394131D01*
X177123977Y-102317761D01*
X177126399Y-102306966D01*
X177145121Y-102227077D01*
X177162392Y-102161812D01*
X177174879Y-102123625D01*
X177176164Y-102120945D01*
X177192935Y-102115591D01*
X177232361Y-102125226D01*
X177232361Y-102125226D01*
G37*
X177232361Y-102125226D02*
X177298128Y-102151293D01*
X177393923Y-102195233D01*
X177507079Y-102250370D01*
X177965478Y-102492068D01*
X178406483Y-102755095D01*
X178838277Y-103044813D01*
X179269041Y-103366587D01*
X179527200Y-103574614D01*
X179652751Y-103682865D01*
X179798133Y-103815635D01*
X179957302Y-103966799D01*
X180124210Y-104130235D01*
X180292813Y-104299816D01*
X180457065Y-104469418D01*
X180610920Y-104632918D01*
X180748333Y-104784189D01*
X180863258Y-104917108D01*
X180914898Y-104980433D01*
X181318534Y-105521312D01*
X181681759Y-106074475D01*
X182004924Y-106640805D01*
X182288378Y-107221184D01*
X182532472Y-107816497D01*
X182737554Y-108427626D01*
X182903975Y-109055454D01*
X183032084Y-109700866D01*
X183122231Y-110364744D01*
X183146005Y-110614883D01*
X183153847Y-110738515D01*
X183159834Y-110895479D01*
X183163963Y-111076813D01*
X183166235Y-111273558D01*
X183166649Y-111476751D01*
X183165204Y-111677432D01*
X183161900Y-111866640D01*
X183156736Y-112035414D01*
X183149712Y-112174793D01*
X183146111Y-112223550D01*
X183070519Y-112872564D01*
X182953667Y-113514126D01*
X182796230Y-114146587D01*
X182598882Y-114768299D01*
X182362298Y-115377614D01*
X182087151Y-115972884D01*
X181774116Y-116552460D01*
X181423867Y-117114696D01*
X181037079Y-117657942D01*
X180799496Y-117959716D01*
X180699674Y-118077050D01*
X180575645Y-118214961D01*
X180433723Y-118367053D01*
X180280224Y-118526927D01*
X180121463Y-118688186D01*
X179963757Y-118844432D01*
X179813420Y-118989268D01*
X179676767Y-119116296D01*
X179560115Y-119219118D01*
X179537783Y-119237839D01*
X179008716Y-119651564D01*
X178468754Y-120024703D01*
X177916521Y-120357916D01*
X177350645Y-120651866D01*
X176769751Y-120907215D01*
X176172464Y-121124625D01*
X175557410Y-121304757D01*
X174965783Y-121439899D01*
X174499597Y-121520796D01*
X174016543Y-121582436D01*
X173528009Y-121623991D01*
X173045383Y-121644636D01*
X172580054Y-121643545D01*
X172314446Y-121632147D01*
X171653528Y-121572130D01*
X171005632Y-121471861D01*
X170371183Y-121331505D01*
X169750603Y-121151226D01*
X169144317Y-120931186D01*
X168552747Y-120671550D01*
X167976319Y-120372483D01*
X167415455Y-120034146D01*
X166870580Y-119656705D01*
X166533172Y-119396882D01*
X166426499Y-119309976D01*
X166316876Y-119218197D01*
X166215190Y-119130817D01*
X166132329Y-119057107D01*
X166110636Y-119037048D01*
X165954990Y-118891050D01*
X166290553Y-118633444D01*
X166978658Y-118086743D01*
X167667239Y-117503482D01*
X168350736Y-116889004D01*
X169023590Y-116248649D01*
X169680242Y-115587760D01*
X170315131Y-114911677D01*
X170922700Y-114225743D01*
X171122284Y-113990966D01*
X171836472Y-113111600D01*
X172510246Y-112219909D01*
X173143798Y-111315526D01*
X173737324Y-110398082D01*
X174291020Y-109467207D01*
X174805078Y-108522533D01*
X175279695Y-107563692D01*
X175715065Y-106590315D01*
X176111382Y-105602032D01*
X176468842Y-104598476D01*
X176787638Y-103579277D01*
X176973691Y-102910216D01*
X177011099Y-102767639D01*
X177047114Y-102628087D01*
X177079454Y-102500578D01*
X177105836Y-102394131D01*
X177123977Y-102317761D01*
X177126399Y-102306966D01*
X177145121Y-102227077D01*
X177162392Y-102161812D01*
X177174879Y-102123625D01*
X177176164Y-102120945D01*
X177192935Y-102115591D01*
X177232361Y-102125226D01*
G36*
X131345011Y-88206391D02*
X131370016Y-88263790D01*
X131407260Y-88351920D01*
X131454967Y-88466508D01*
X131511362Y-88603281D01*
X131574667Y-88757964D01*
X131643108Y-88926286D01*
X131665891Y-88982550D01*
X131738834Y-89162543D01*
X131809897Y-89337312D01*
X131876813Y-89501320D01*
X131937314Y-89649030D01*
X131989131Y-89774908D01*
X132029996Y-89873417D01*
X132057641Y-89939022D01*
X132060486Y-89945633D01*
X132079646Y-89991788D01*
X132112988Y-90074236D01*
X132159274Y-90189847D01*
X132217263Y-90335487D01*
X132285718Y-90508027D01*
X132363399Y-90704335D01*
X132449067Y-90921279D01*
X132541483Y-91155728D01*
X132639408Y-91404552D01*
X132741602Y-91664618D01*
X132846827Y-91932795D01*
X132847809Y-91935300D01*
X132926834Y-92136767D01*
X133020221Y-92374697D01*
X133126819Y-92646163D01*
X133245479Y-92948239D01*
X133375050Y-93278000D01*
X133514381Y-93632518D01*
X133662321Y-94008868D01*
X133817721Y-94404124D01*
X133979428Y-94815359D01*
X134146294Y-95239648D01*
X134317167Y-95674064D01*
X134490897Y-96115681D01*
X134666333Y-96561573D01*
X134842325Y-97008814D01*
X135017721Y-97454477D01*
X135191372Y-97895638D01*
X135257277Y-98063050D01*
X135533628Y-98765087D01*
X135799284Y-99440102D01*
X136054000Y-100087466D01*
X136297530Y-100706553D01*
X136529627Y-101296735D01*
X136750046Y-101857386D01*
X136958540Y-102387878D01*
X137154864Y-102887584D01*
X137338771Y-103355878D01*
X137510016Y-103792131D01*
X137668352Y-104195717D01*
X137813533Y-104566009D01*
X137945313Y-104902380D01*
X138063447Y-105204203D01*
X138167687Y-105470849D01*
X138257789Y-105701693D01*
X138333506Y-105896108D01*
X138394592Y-106053465D01*
X138440800Y-106173139D01*
X138471886Y-106254502D01*
X138484519Y-106288334D01*
X138568111Y-106473588D01*
X138670132Y-106620935D01*
X138791215Y-106730880D01*
X138931994Y-106803927D01*
X139093100Y-106840580D01*
X139183533Y-106845423D01*
X139353607Y-106826652D01*
X139506574Y-106769280D01*
X139643951Y-106672724D01*
X139652727Y-106664756D01*
X139674943Y-106638347D01*
X139719925Y-106579598D01*
X139786045Y-106490766D01*
X139871675Y-106374109D01*
X139975187Y-106231885D01*
X140094953Y-106066351D01*
X140229345Y-105879765D01*
X140376735Y-105674385D01*
X140535494Y-105452469D01*
X140703995Y-105216274D01*
X140880609Y-104968058D01*
X141063709Y-104710079D01*
X141146681Y-104592966D01*
X141309962Y-104362370D01*
X141495485Y-104100363D01*
X141701029Y-103810082D01*
X141924370Y-103494665D01*
X142163289Y-103157248D01*
X142415564Y-102800971D01*
X142678971Y-102428970D01*
X142951291Y-102044383D01*
X143230301Y-101650348D01*
X143513779Y-101250002D01*
X143799505Y-100846482D01*
X144085255Y-100442927D01*
X144368810Y-100042474D01*
X144647945Y-99648261D01*
X144920442Y-99263425D01*
X145036007Y-99100216D01*
X145435944Y-98535417D01*
X145826128Y-97984429D01*
X146205912Y-97448162D01*
X146574650Y-96927528D01*
X146931697Y-96423436D01*
X147276408Y-95936799D01*
X147608137Y-95468526D01*
X147926238Y-95019529D01*
X148230065Y-94590719D01*
X148518973Y-94183007D01*
X148792316Y-93797303D01*
X149049449Y-93434518D01*
X149289726Y-93095563D01*
X149512501Y-92781350D01*
X149717128Y-92492788D01*
X149902963Y-92230789D01*
X150069359Y-91996264D01*
X150215671Y-91790123D01*
X150341253Y-91613278D01*
X150445459Y-91466639D01*
X150527644Y-91351117D01*
X150587162Y-91267623D01*
X150623368Y-91217068D01*
X150634970Y-91201139D01*
X150670369Y-91154895D01*
X150923117Y-91320551D01*
X151024757Y-91389162D01*
X151122859Y-91458911D01*
X151207235Y-91522330D01*
X151267695Y-91571946D01*
X151274852Y-91578461D01*
X151283030Y-91585235D01*
X151289640Y-91589285D01*
X151295231Y-91591776D01*
X151300354Y-91593874D01*
X151305559Y-91596744D01*
X151311397Y-91601550D01*
X151318418Y-91609459D01*
X151327173Y-91621635D01*
X151338211Y-91639244D01*
X151352084Y-91663451D01*
X151369342Y-91695420D01*
X151390534Y-91736318D01*
X151416213Y-91787309D01*
X151446927Y-91849559D01*
X151483227Y-91924232D01*
X151525665Y-92012495D01*
X151574789Y-92115511D01*
X151631151Y-92234447D01*
X151695301Y-92370468D01*
X151767789Y-92524738D01*
X151849166Y-92698424D01*
X151939982Y-92892689D01*
X152040787Y-93108701D01*
X152152132Y-93347622D01*
X152274568Y-93610620D01*
X152408644Y-93898858D01*
X152554912Y-94213503D01*
X152713921Y-94555719D01*
X152886222Y-94926672D01*
X153072365Y-95327526D01*
X153272901Y-95759448D01*
X153488380Y-96223602D01*
X153719353Y-96721153D01*
X153966369Y-97253267D01*
X154229980Y-97821108D01*
X154510735Y-98425843D01*
X154592894Y-98602800D01*
X154922574Y-99312820D01*
X155234630Y-99984784D01*
X155529227Y-100619049D01*
X155806534Y-101215970D01*
X156066714Y-101775906D01*
X156309936Y-102299213D01*
X156536364Y-102786248D01*
X156746166Y-103237368D01*
X156939507Y-103652930D01*
X157116553Y-104033291D01*
X157277472Y-104378809D01*
X157422428Y-104689839D01*
X157551589Y-104966739D01*
X157665120Y-105209867D01*
X157763188Y-105419578D01*
X157845959Y-105596230D01*
X157913599Y-105740180D01*
X157966274Y-105851785D01*
X158004151Y-105931402D01*
X158027396Y-105979388D01*
X158030926Y-105986455D01*
X158129061Y-106143187D01*
X158246394Y-106262563D01*
X158358419Y-106333575D01*
X158409256Y-106355696D01*
X158461074Y-106369800D01*
X158525249Y-106377520D01*
X158613157Y-106380494D01*
X158685925Y-106380667D01*
X158916067Y-106379784D01*
X158834092Y-106450695D01*
X158747512Y-106524202D01*
X158644603Y-106609319D01*
X158529797Y-106702594D01*
X158407528Y-106800577D01*
X158282230Y-106899815D01*
X158158335Y-106996859D01*
X158040278Y-107088257D01*
X157932492Y-107170559D01*
X157839411Y-107240312D01*
X157765467Y-107294067D01*
X157715095Y-107328371D01*
X157692727Y-107339775D01*
X157692215Y-107339537D01*
X157682085Y-107319743D01*
X157654571Y-107263970D01*
X157610712Y-107174358D01*
X157551546Y-107053044D01*
X157478110Y-106902165D01*
X157391441Y-106723859D01*
X157292578Y-106520265D01*
X157182558Y-106293520D01*
X157062419Y-106045761D01*
X156933198Y-105779126D01*
X156795934Y-105495754D01*
X156651663Y-105197782D01*
X156501424Y-104887348D01*
X156358108Y-104591098D01*
X156044481Y-103942707D01*
X155747970Y-103329786D01*
X155467291Y-102749681D01*
X155201157Y-102199739D01*
X154948281Y-101677305D01*
X154707379Y-101179725D01*
X154477163Y-100704347D01*
X154256349Y-100248515D01*
X154043650Y-99809576D01*
X153837779Y-99384875D01*
X153637452Y-98971760D01*
X153441381Y-98567576D01*
X153248282Y-98169669D01*
X153056867Y-97775386D01*
X152865852Y-97382072D01*
X152673949Y-96987074D01*
X152492218Y-96613133D01*
X152359442Y-96339932D01*
X152230305Y-96074152D01*
X152106213Y-95818688D01*
X151988571Y-95576439D01*
X151878785Y-95350300D01*
X151778261Y-95143169D01*
X151688404Y-94957942D01*
X151610620Y-94797516D01*
X151546316Y-94664789D01*
X151496896Y-94562657D01*
X151463766Y-94494016D01*
X151452560Y-94470672D01*
X151379562Y-94331792D01*
X151306740Y-94225837D01*
X151226552Y-94144103D01*
X151131458Y-94077892D01*
X151094367Y-94057358D01*
X151036145Y-94029261D01*
X150982918Y-94011931D01*
X150921185Y-94002844D01*
X150837442Y-93999478D01*
X150782866Y-93999151D01*
X150682125Y-94000583D01*
X150609484Y-94006740D01*
X150550762Y-94020236D01*
X150491778Y-94043684D01*
X150460689Y-94058514D01*
X150368271Y-94115207D01*
X150280499Y-94187645D01*
X150251898Y-94217264D01*
X150225576Y-94254598D01*
X150180399Y-94328373D01*
X150116300Y-94438711D01*
X150033214Y-94585734D01*
X149931073Y-94769561D01*
X149809811Y-94990315D01*
X149669361Y-95248117D01*
X149509656Y-95543087D01*
X149330629Y-95875347D01*
X149132213Y-96245019D01*
X149042768Y-96412050D01*
X148941113Y-96601972D01*
X148820582Y-96827108D01*
X148682300Y-97085360D01*
X148527390Y-97374628D01*
X148356977Y-97692814D01*
X148172184Y-98037822D01*
X147974136Y-98407552D01*
X147763957Y-98799907D01*
X147542771Y-99212788D01*
X147311702Y-99644098D01*
X147071874Y-100091738D01*
X146824410Y-100553610D01*
X146570436Y-101027616D01*
X146311075Y-101511658D01*
X146047452Y-102003638D01*
X145780689Y-102501458D01*
X145511912Y-103003020D01*
X145242244Y-103506225D01*
X144972810Y-104008975D01*
X144704733Y-104509174D01*
X144665496Y-104582383D01*
X144400231Y-105077330D01*
X144134668Y-105572843D01*
X143869862Y-106066958D01*
X143606864Y-106557712D01*
X143346726Y-107043142D01*
X143090500Y-107521283D01*
X142839238Y-107990172D01*
X142593993Y-108447846D01*
X142355816Y-108892341D01*
X142125760Y-109321693D01*
X141904877Y-109733939D01*
X141694218Y-110127115D01*
X141494837Y-110499258D01*
X141307784Y-110848404D01*
X141134113Y-111172589D01*
X140974875Y-111469850D01*
X140831122Y-111738224D01*
X140703906Y-111975746D01*
X140594281Y-112180453D01*
X140503297Y-112350382D01*
X140480545Y-112392883D01*
X139551433Y-114128550D01*
X139359053Y-114134607D01*
X139166674Y-114140664D01*
X138421519Y-112271940D01*
X138350811Y-112094564D01*
X138265340Y-111880066D01*
X138165989Y-111630661D01*
X138053638Y-111348563D01*
X137929169Y-111035988D01*
X137793465Y-110695150D01*
X137647405Y-110328265D01*
X137491872Y-109937546D01*
X137327747Y-109525210D01*
X137155912Y-109093470D01*
X136977249Y-108644542D01*
X136792638Y-108180640D01*
X136602961Y-107703979D01*
X136409100Y-107216774D01*
X136211936Y-106721240D01*
X136012350Y-106219592D01*
X135811225Y-105714045D01*
X135609442Y-105206812D01*
X135407882Y-104700110D01*
X135306327Y-104444800D01*
X134978719Y-103621217D01*
X134666382Y-102836119D01*
X134368969Y-102088642D01*
X134086136Y-101377923D01*
X133817535Y-100703100D01*
X133562821Y-100063309D01*
X133321648Y-99457688D01*
X133093670Y-98885372D01*
X132878541Y-98345500D01*
X132675915Y-97837208D01*
X132485446Y-97359632D01*
X132306789Y-96911911D01*
X132139596Y-96493180D01*
X131983523Y-96102578D01*
X131838223Y-95739240D01*
X131703350Y-95402304D01*
X131578558Y-95090907D01*
X131463502Y-94804185D01*
X131357835Y-94541276D01*
X131261211Y-94301316D01*
X131173285Y-94083443D01*
X131093710Y-93886793D01*
X131022141Y-93710504D01*
X130958231Y-93553712D01*
X130901634Y-93415554D01*
X130852006Y-93295167D01*
X130808999Y-93191689D01*
X130772267Y-93104256D01*
X130741465Y-93032004D01*
X130716247Y-92974072D01*
X130696267Y-92929596D01*
X130681178Y-92897712D01*
X130670635Y-92877559D01*
X130667178Y-92871932D01*
X130560438Y-92748527D01*
X130432011Y-92657283D01*
X130288222Y-92598621D01*
X130135398Y-92572962D01*
X129979861Y-92580726D01*
X129827938Y-92622334D01*
X129685953Y-92698206D01*
X129569266Y-92798926D01*
X129544621Y-92826502D01*
X129521219Y-92856321D01*
X129497963Y-92891237D01*
X129473753Y-92934099D01*
X129447490Y-92987762D01*
X129418076Y-93055076D01*
X129384411Y-93138894D01*
X129345396Y-93242068D01*
X129299932Y-93367450D01*
X129246921Y-93517891D01*
X129185263Y-93696245D01*
X129113860Y-93905363D01*
X129031612Y-94148097D01*
X128937420Y-94427298D01*
X128906994Y-94517633D01*
X128855815Y-94669383D01*
X128792028Y-94858120D01*
X128716679Y-95080761D01*
X128630816Y-95334224D01*
X128535485Y-95615423D01*
X128431733Y-95921277D01*
X128320607Y-96248702D01*
X128203154Y-96594614D01*
X128080420Y-96955931D01*
X127953453Y-97329569D01*
X127823299Y-97712445D01*
X127691005Y-98101475D01*
X127557618Y-98493577D01*
X127424185Y-98885667D01*
X127336736Y-99142550D01*
X127119349Y-99781071D01*
X126915091Y-100381094D01*
X126723429Y-100944187D01*
X126543832Y-101471920D01*
X126375767Y-101965863D01*
X126218701Y-102427585D01*
X126072103Y-102858656D01*
X125935439Y-103260645D01*
X125808177Y-103635121D01*
X125689786Y-103983655D01*
X125579732Y-104307815D01*
X125477483Y-104609171D01*
X125382507Y-104889293D01*
X125294272Y-105149749D01*
X125212244Y-105392111D01*
X125135892Y-105617946D01*
X125064683Y-105828825D01*
X124998085Y-106026317D01*
X124935565Y-106211991D01*
X124876592Y-106387418D01*
X124820631Y-106554166D01*
X124767152Y-106713805D01*
X124715622Y-106867904D01*
X124681233Y-106970898D01*
X124589271Y-107245526D01*
X124509318Y-107482079D01*
X124440540Y-107682823D01*
X124382100Y-107850019D01*
X124333160Y-107985932D01*
X124292886Y-108092824D01*
X124260441Y-108172960D01*
X124234989Y-108228602D01*
X124215692Y-108262014D01*
X124201716Y-108275459D01*
X124199041Y-108275966D01*
X124188346Y-108256510D01*
X124161910Y-108198654D01*
X124120053Y-108103164D01*
X124063096Y-107970807D01*
X123991361Y-107802352D01*
X123905168Y-107598565D01*
X123804837Y-107360213D01*
X123690691Y-107088063D01*
X123563050Y-106782883D01*
X123422234Y-106445440D01*
X123268564Y-106076501D01*
X123102363Y-105676833D01*
X122923949Y-105247203D01*
X122733645Y-104788379D01*
X122531770Y-104301127D01*
X122318647Y-103786215D01*
X122105194Y-103270050D01*
X121994577Y-103002519D01*
X121887806Y-102744428D01*
X121786090Y-102498688D01*
X121690635Y-102268208D01*
X121602648Y-102055900D01*
X121523337Y-101864673D01*
X121453909Y-101697438D01*
X121395571Y-101557105D01*
X121349530Y-101446585D01*
X121316994Y-101368788D01*
X121299169Y-101326624D01*
X121297472Y-101322716D01*
X121274132Y-101268177D01*
X121238537Y-101183229D01*
X121194347Y-101076689D01*
X121145224Y-100957375D01*
X121104928Y-100858885D01*
X121048592Y-100718484D01*
X121007177Y-100610289D01*
X120981020Y-100535477D01*
X120970460Y-100495224D01*
X120975833Y-100490704D01*
X120997478Y-100523095D01*
X121020257Y-100564170D01*
X121059140Y-100638234D01*
X121114789Y-100746206D01*
X121185186Y-100884057D01*
X121268312Y-101047757D01*
X121362148Y-101233276D01*
X121464677Y-101436584D01*
X121573879Y-101653653D01*
X121687735Y-101880454D01*
X121804228Y-102112955D01*
X121921339Y-102347129D01*
X122037049Y-102578944D01*
X122149339Y-102804373D01*
X122256191Y-103019385D01*
X122355587Y-103219952D01*
X122445508Y-103402042D01*
X122523935Y-103561628D01*
X122588849Y-103694679D01*
X122600008Y-103717699D01*
X122683561Y-103888716D01*
X122752953Y-104026497D01*
X122811390Y-104136411D01*
X122862077Y-104223827D01*
X122908219Y-104294116D01*
X122953023Y-104352648D01*
X122999694Y-104404793D01*
X123026133Y-104431529D01*
X123115537Y-104510471D01*
X123200541Y-104561759D01*
X123294526Y-104590602D01*
X123410874Y-104602204D01*
X123467283Y-104603186D01*
X123566407Y-104601616D01*
X123638384Y-104594559D01*
X123698316Y-104579168D01*
X123761309Y-104552595D01*
X123777664Y-104544679D01*
X123892354Y-104474267D01*
X123997809Y-104383901D01*
X124081368Y-104285327D01*
X124112220Y-104234219D01*
X124128481Y-104199932D01*
X124161592Y-104127937D01*
X124211130Y-104019179D01*
X124276671Y-103874599D01*
X124357792Y-103695139D01*
X124454071Y-103481743D01*
X124565083Y-103235352D01*
X124690407Y-102956909D01*
X124829618Y-102647357D01*
X124982294Y-102307638D01*
X125148012Y-101938695D01*
X125326347Y-101541469D01*
X125516878Y-101116904D01*
X125719181Y-100665941D01*
X125932833Y-100189524D01*
X126157411Y-99688595D01*
X126392491Y-99164096D01*
X126637651Y-98616970D01*
X126892467Y-98048159D01*
X127156516Y-97458605D01*
X127429375Y-96849252D01*
X127710621Y-96221041D01*
X127933045Y-95724133D01*
X128222417Y-95077631D01*
X128495005Y-94468672D01*
X128751307Y-93896154D01*
X128991819Y-93358974D01*
X129217039Y-92856029D01*
X129427465Y-92386217D01*
X129623593Y-91948437D01*
X129805921Y-91541584D01*
X129974946Y-91164557D01*
X130131165Y-90816253D01*
X130275076Y-90495571D01*
X130407175Y-90201406D01*
X130527961Y-89932657D01*
X130637930Y-89688222D01*
X130737580Y-89466997D01*
X130827408Y-89267881D01*
X130907911Y-89089771D01*
X130979586Y-88931564D01*
X131042932Y-88792159D01*
X131098444Y-88670451D01*
X131146621Y-88565340D01*
X131187959Y-88475723D01*
X131222956Y-88400496D01*
X131252109Y-88338558D01*
X131275916Y-88288807D01*
X131294873Y-88250139D01*
X131309478Y-88221452D01*
X131320228Y-88201644D01*
X131327621Y-88189612D01*
X131332154Y-88184254D01*
X131334021Y-88183996D01*
X131345011Y-88206391D01*
X131345011Y-88206391D01*
G37*
X131345011Y-88206391D02*
X131370016Y-88263790D01*
X131407260Y-88351920D01*
X131454967Y-88466508D01*
X131511362Y-88603281D01*
X131574667Y-88757964D01*
X131643108Y-88926286D01*
X131665891Y-88982550D01*
X131738834Y-89162543D01*
X131809897Y-89337312D01*
X131876813Y-89501320D01*
X131937314Y-89649030D01*
X131989131Y-89774908D01*
X132029996Y-89873417D01*
X132057641Y-89939022D01*
X132060486Y-89945633D01*
X132079646Y-89991788D01*
X132112988Y-90074236D01*
X132159274Y-90189847D01*
X132217263Y-90335487D01*
X132285718Y-90508027D01*
X132363399Y-90704335D01*
X132449067Y-90921279D01*
X132541483Y-91155728D01*
X132639408Y-91404552D01*
X132741602Y-91664618D01*
X132846827Y-91932795D01*
X132847809Y-91935300D01*
X132926834Y-92136767D01*
X133020221Y-92374697D01*
X133126819Y-92646163D01*
X133245479Y-92948239D01*
X133375050Y-93278000D01*
X133514381Y-93632518D01*
X133662321Y-94008868D01*
X133817721Y-94404124D01*
X133979428Y-94815359D01*
X134146294Y-95239648D01*
X134317167Y-95674064D01*
X134490897Y-96115681D01*
X134666333Y-96561573D01*
X134842325Y-97008814D01*
X135017721Y-97454477D01*
X135191372Y-97895638D01*
X135257277Y-98063050D01*
X135533628Y-98765087D01*
X135799284Y-99440102D01*
X136054000Y-100087466D01*
X136297530Y-100706553D01*
X136529627Y-101296735D01*
X136750046Y-101857386D01*
X136958540Y-102387878D01*
X137154864Y-102887584D01*
X137338771Y-103355878D01*
X137510016Y-103792131D01*
X137668352Y-104195717D01*
X137813533Y-104566009D01*
X137945313Y-104902380D01*
X138063447Y-105204203D01*
X138167687Y-105470849D01*
X138257789Y-105701693D01*
X138333506Y-105896108D01*
X138394592Y-106053465D01*
X138440800Y-106173139D01*
X138471886Y-106254502D01*
X138484519Y-106288334D01*
X138568111Y-106473588D01*
X138670132Y-106620935D01*
X138791215Y-106730880D01*
X138931994Y-106803927D01*
X139093100Y-106840580D01*
X139183533Y-106845423D01*
X139353607Y-106826652D01*
X139506574Y-106769280D01*
X139643951Y-106672724D01*
X139652727Y-106664756D01*
X139674943Y-106638347D01*
X139719925Y-106579598D01*
X139786045Y-106490766D01*
X139871675Y-106374109D01*
X139975187Y-106231885D01*
X140094953Y-106066351D01*
X140229345Y-105879765D01*
X140376735Y-105674385D01*
X140535494Y-105452469D01*
X140703995Y-105216274D01*
X140880609Y-104968058D01*
X141063709Y-104710079D01*
X141146681Y-104592966D01*
X141309962Y-104362370D01*
X141495485Y-104100363D01*
X141701029Y-103810082D01*
X141924370Y-103494665D01*
X142163289Y-103157248D01*
X142415564Y-102800971D01*
X142678971Y-102428970D01*
X142951291Y-102044383D01*
X143230301Y-101650348D01*
X143513779Y-101250002D01*
X143799505Y-100846482D01*
X144085255Y-100442927D01*
X144368810Y-100042474D01*
X144647945Y-99648261D01*
X144920442Y-99263425D01*
X145036007Y-99100216D01*
X145435944Y-98535417D01*
X145826128Y-97984429D01*
X146205912Y-97448162D01*
X146574650Y-96927528D01*
X146931697Y-96423436D01*
X147276408Y-95936799D01*
X147608137Y-95468526D01*
X147926238Y-95019529D01*
X148230065Y-94590719D01*
X148518973Y-94183007D01*
X148792316Y-93797303D01*
X149049449Y-93434518D01*
X149289726Y-93095563D01*
X149512501Y-92781350D01*
X149717128Y-92492788D01*
X149902963Y-92230789D01*
X150069359Y-91996264D01*
X150215671Y-91790123D01*
X150341253Y-91613278D01*
X150445459Y-91466639D01*
X150527644Y-91351117D01*
X150587162Y-91267623D01*
X150623368Y-91217068D01*
X150634970Y-91201139D01*
X150670369Y-91154895D01*
X150923117Y-91320551D01*
X151024757Y-91389162D01*
X151122859Y-91458911D01*
X151207235Y-91522330D01*
X151267695Y-91571946D01*
X151274852Y-91578461D01*
X151283030Y-91585235D01*
X151289640Y-91589285D01*
X151295231Y-91591776D01*
X151300354Y-91593874D01*
X151305559Y-91596744D01*
X151311397Y-91601550D01*
X151318418Y-91609459D01*
X151327173Y-91621635D01*
X151338211Y-91639244D01*
X151352084Y-91663451D01*
X151369342Y-91695420D01*
X151390534Y-91736318D01*
X151416213Y-91787309D01*
X151446927Y-91849559D01*
X151483227Y-91924232D01*
X151525665Y-92012495D01*
X151574789Y-92115511D01*
X151631151Y-92234447D01*
X151695301Y-92370468D01*
X151767789Y-92524738D01*
X151849166Y-92698424D01*
X151939982Y-92892689D01*
X152040787Y-93108701D01*
X152152132Y-93347622D01*
X152274568Y-93610620D01*
X152408644Y-93898858D01*
X152554912Y-94213503D01*
X152713921Y-94555719D01*
X152886222Y-94926672D01*
X153072365Y-95327526D01*
X153272901Y-95759448D01*
X153488380Y-96223602D01*
X153719353Y-96721153D01*
X153966369Y-97253267D01*
X154229980Y-97821108D01*
X154510735Y-98425843D01*
X154592894Y-98602800D01*
X154922574Y-99312820D01*
X155234630Y-99984784D01*
X155529227Y-100619049D01*
X155806534Y-101215970D01*
X156066714Y-101775906D01*
X156309936Y-102299213D01*
X156536364Y-102786248D01*
X156746166Y-103237368D01*
X156939507Y-103652930D01*
X157116553Y-104033291D01*
X157277472Y-104378809D01*
X157422428Y-104689839D01*
X157551589Y-104966739D01*
X157665120Y-105209867D01*
X157763188Y-105419578D01*
X157845959Y-105596230D01*
X157913599Y-105740180D01*
X157966274Y-105851785D01*
X158004151Y-105931402D01*
X158027396Y-105979388D01*
X158030926Y-105986455D01*
X158129061Y-106143187D01*
X158246394Y-106262563D01*
X158358419Y-106333575D01*
X158409256Y-106355696D01*
X158461074Y-106369800D01*
X158525249Y-106377520D01*
X158613157Y-106380494D01*
X158685925Y-106380667D01*
X158916067Y-106379784D01*
X158834092Y-106450695D01*
X158747512Y-106524202D01*
X158644603Y-106609319D01*
X158529797Y-106702594D01*
X158407528Y-106800577D01*
X158282230Y-106899815D01*
X158158335Y-106996859D01*
X158040278Y-107088257D01*
X157932492Y-107170559D01*
X157839411Y-107240312D01*
X157765467Y-107294067D01*
X157715095Y-107328371D01*
X157692727Y-107339775D01*
X157692215Y-107339537D01*
X157682085Y-107319743D01*
X157654571Y-107263970D01*
X157610712Y-107174358D01*
X157551546Y-107053044D01*
X157478110Y-106902165D01*
X157391441Y-106723859D01*
X157292578Y-106520265D01*
X157182558Y-106293520D01*
X157062419Y-106045761D01*
X156933198Y-105779126D01*
X156795934Y-105495754D01*
X156651663Y-105197782D01*
X156501424Y-104887348D01*
X156358108Y-104591098D01*
X156044481Y-103942707D01*
X155747970Y-103329786D01*
X155467291Y-102749681D01*
X155201157Y-102199739D01*
X154948281Y-101677305D01*
X154707379Y-101179725D01*
X154477163Y-100704347D01*
X154256349Y-100248515D01*
X154043650Y-99809576D01*
X153837779Y-99384875D01*
X153637452Y-98971760D01*
X153441381Y-98567576D01*
X153248282Y-98169669D01*
X153056867Y-97775386D01*
X152865852Y-97382072D01*
X152673949Y-96987074D01*
X152492218Y-96613133D01*
X152359442Y-96339932D01*
X152230305Y-96074152D01*
X152106213Y-95818688D01*
X151988571Y-95576439D01*
X151878785Y-95350300D01*
X151778261Y-95143169D01*
X151688404Y-94957942D01*
X151610620Y-94797516D01*
X151546316Y-94664789D01*
X151496896Y-94562657D01*
X151463766Y-94494016D01*
X151452560Y-94470672D01*
X151379562Y-94331792D01*
X151306740Y-94225837D01*
X151226552Y-94144103D01*
X151131458Y-94077892D01*
X151094367Y-94057358D01*
X151036145Y-94029261D01*
X150982918Y-94011931D01*
X150921185Y-94002844D01*
X150837442Y-93999478D01*
X150782866Y-93999151D01*
X150682125Y-94000583D01*
X150609484Y-94006740D01*
X150550762Y-94020236D01*
X150491778Y-94043684D01*
X150460689Y-94058514D01*
X150368271Y-94115207D01*
X150280499Y-94187645D01*
X150251898Y-94217264D01*
X150225576Y-94254598D01*
X150180399Y-94328373D01*
X150116300Y-94438711D01*
X150033214Y-94585734D01*
X149931073Y-94769561D01*
X149809811Y-94990315D01*
X149669361Y-95248117D01*
X149509656Y-95543087D01*
X149330629Y-95875347D01*
X149132213Y-96245019D01*
X149042768Y-96412050D01*
X148941113Y-96601972D01*
X148820582Y-96827108D01*
X148682300Y-97085360D01*
X148527390Y-97374628D01*
X148356977Y-97692814D01*
X148172184Y-98037822D01*
X147974136Y-98407552D01*
X147763957Y-98799907D01*
X147542771Y-99212788D01*
X147311702Y-99644098D01*
X147071874Y-100091738D01*
X146824410Y-100553610D01*
X146570436Y-101027616D01*
X146311075Y-101511658D01*
X146047452Y-102003638D01*
X145780689Y-102501458D01*
X145511912Y-103003020D01*
X145242244Y-103506225D01*
X144972810Y-104008975D01*
X144704733Y-104509174D01*
X144665496Y-104582383D01*
X144400231Y-105077330D01*
X144134668Y-105572843D01*
X143869862Y-106066958D01*
X143606864Y-106557712D01*
X143346726Y-107043142D01*
X143090500Y-107521283D01*
X142839238Y-107990172D01*
X142593993Y-108447846D01*
X142355816Y-108892341D01*
X142125760Y-109321693D01*
X141904877Y-109733939D01*
X141694218Y-110127115D01*
X141494837Y-110499258D01*
X141307784Y-110848404D01*
X141134113Y-111172589D01*
X140974875Y-111469850D01*
X140831122Y-111738224D01*
X140703906Y-111975746D01*
X140594281Y-112180453D01*
X140503297Y-112350382D01*
X140480545Y-112392883D01*
X139551433Y-114128550D01*
X139359053Y-114134607D01*
X139166674Y-114140664D01*
X138421519Y-112271940D01*
X138350811Y-112094564D01*
X138265340Y-111880066D01*
X138165989Y-111630661D01*
X138053638Y-111348563D01*
X137929169Y-111035988D01*
X137793465Y-110695150D01*
X137647405Y-110328265D01*
X137491872Y-109937546D01*
X137327747Y-109525210D01*
X137155912Y-109093470D01*
X136977249Y-108644542D01*
X136792638Y-108180640D01*
X136602961Y-107703979D01*
X136409100Y-107216774D01*
X136211936Y-106721240D01*
X136012350Y-106219592D01*
X135811225Y-105714045D01*
X135609442Y-105206812D01*
X135407882Y-104700110D01*
X135306327Y-104444800D01*
X134978719Y-103621217D01*
X134666382Y-102836119D01*
X134368969Y-102088642D01*
X134086136Y-101377923D01*
X133817535Y-100703100D01*
X133562821Y-100063309D01*
X133321648Y-99457688D01*
X133093670Y-98885372D01*
X132878541Y-98345500D01*
X132675915Y-97837208D01*
X132485446Y-97359632D01*
X132306789Y-96911911D01*
X132139596Y-96493180D01*
X131983523Y-96102578D01*
X131838223Y-95739240D01*
X131703350Y-95402304D01*
X131578558Y-95090907D01*
X131463502Y-94804185D01*
X131357835Y-94541276D01*
X131261211Y-94301316D01*
X131173285Y-94083443D01*
X131093710Y-93886793D01*
X131022141Y-93710504D01*
X130958231Y-93553712D01*
X130901634Y-93415554D01*
X130852006Y-93295167D01*
X130808999Y-93191689D01*
X130772267Y-93104256D01*
X130741465Y-93032004D01*
X130716247Y-92974072D01*
X130696267Y-92929596D01*
X130681178Y-92897712D01*
X130670635Y-92877559D01*
X130667178Y-92871932D01*
X130560438Y-92748527D01*
X130432011Y-92657283D01*
X130288222Y-92598621D01*
X130135398Y-92572962D01*
X129979861Y-92580726D01*
X129827938Y-92622334D01*
X129685953Y-92698206D01*
X129569266Y-92798926D01*
X129544621Y-92826502D01*
X129521219Y-92856321D01*
X129497963Y-92891237D01*
X129473753Y-92934099D01*
X129447490Y-92987762D01*
X129418076Y-93055076D01*
X129384411Y-93138894D01*
X129345396Y-93242068D01*
X129299932Y-93367450D01*
X129246921Y-93517891D01*
X129185263Y-93696245D01*
X129113860Y-93905363D01*
X129031612Y-94148097D01*
X128937420Y-94427298D01*
X128906994Y-94517633D01*
X128855815Y-94669383D01*
X128792028Y-94858120D01*
X128716679Y-95080761D01*
X128630816Y-95334224D01*
X128535485Y-95615423D01*
X128431733Y-95921277D01*
X128320607Y-96248702D01*
X128203154Y-96594614D01*
X128080420Y-96955931D01*
X127953453Y-97329569D01*
X127823299Y-97712445D01*
X127691005Y-98101475D01*
X127557618Y-98493577D01*
X127424185Y-98885667D01*
X127336736Y-99142550D01*
X127119349Y-99781071D01*
X126915091Y-100381094D01*
X126723429Y-100944187D01*
X126543832Y-101471920D01*
X126375767Y-101965863D01*
X126218701Y-102427585D01*
X126072103Y-102858656D01*
X125935439Y-103260645D01*
X125808177Y-103635121D01*
X125689786Y-103983655D01*
X125579732Y-104307815D01*
X125477483Y-104609171D01*
X125382507Y-104889293D01*
X125294272Y-105149749D01*
X125212244Y-105392111D01*
X125135892Y-105617946D01*
X125064683Y-105828825D01*
X124998085Y-106026317D01*
X124935565Y-106211991D01*
X124876592Y-106387418D01*
X124820631Y-106554166D01*
X124767152Y-106713805D01*
X124715622Y-106867904D01*
X124681233Y-106970898D01*
X124589271Y-107245526D01*
X124509318Y-107482079D01*
X124440540Y-107682823D01*
X124382100Y-107850019D01*
X124333160Y-107985932D01*
X124292886Y-108092824D01*
X124260441Y-108172960D01*
X124234989Y-108228602D01*
X124215692Y-108262014D01*
X124201716Y-108275459D01*
X124199041Y-108275966D01*
X124188346Y-108256510D01*
X124161910Y-108198654D01*
X124120053Y-108103164D01*
X124063096Y-107970807D01*
X123991361Y-107802352D01*
X123905168Y-107598565D01*
X123804837Y-107360213D01*
X123690691Y-107088063D01*
X123563050Y-106782883D01*
X123422234Y-106445440D01*
X123268564Y-106076501D01*
X123102363Y-105676833D01*
X122923949Y-105247203D01*
X122733645Y-104788379D01*
X122531770Y-104301127D01*
X122318647Y-103786215D01*
X122105194Y-103270050D01*
X121994577Y-103002519D01*
X121887806Y-102744428D01*
X121786090Y-102498688D01*
X121690635Y-102268208D01*
X121602648Y-102055900D01*
X121523337Y-101864673D01*
X121453909Y-101697438D01*
X121395571Y-101557105D01*
X121349530Y-101446585D01*
X121316994Y-101368788D01*
X121299169Y-101326624D01*
X121297472Y-101322716D01*
X121274132Y-101268177D01*
X121238537Y-101183229D01*
X121194347Y-101076689D01*
X121145224Y-100957375D01*
X121104928Y-100858885D01*
X121048592Y-100718484D01*
X121007177Y-100610289D01*
X120981020Y-100535477D01*
X120970460Y-100495224D01*
X120975833Y-100490704D01*
X120997478Y-100523095D01*
X121020257Y-100564170D01*
X121059140Y-100638234D01*
X121114789Y-100746206D01*
X121185186Y-100884057D01*
X121268312Y-101047757D01*
X121362148Y-101233276D01*
X121464677Y-101436584D01*
X121573879Y-101653653D01*
X121687735Y-101880454D01*
X121804228Y-102112955D01*
X121921339Y-102347129D01*
X122037049Y-102578944D01*
X122149339Y-102804373D01*
X122256191Y-103019385D01*
X122355587Y-103219952D01*
X122445508Y-103402042D01*
X122523935Y-103561628D01*
X122588849Y-103694679D01*
X122600008Y-103717699D01*
X122683561Y-103888716D01*
X122752953Y-104026497D01*
X122811390Y-104136411D01*
X122862077Y-104223827D01*
X122908219Y-104294116D01*
X122953023Y-104352648D01*
X122999694Y-104404793D01*
X123026133Y-104431529D01*
X123115537Y-104510471D01*
X123200541Y-104561759D01*
X123294526Y-104590602D01*
X123410874Y-104602204D01*
X123467283Y-104603186D01*
X123566407Y-104601616D01*
X123638384Y-104594559D01*
X123698316Y-104579168D01*
X123761309Y-104552595D01*
X123777664Y-104544679D01*
X123892354Y-104474267D01*
X123997809Y-104383901D01*
X124081368Y-104285327D01*
X124112220Y-104234219D01*
X124128481Y-104199932D01*
X124161592Y-104127937D01*
X124211130Y-104019179D01*
X124276671Y-103874599D01*
X124357792Y-103695139D01*
X124454071Y-103481743D01*
X124565083Y-103235352D01*
X124690407Y-102956909D01*
X124829618Y-102647357D01*
X124982294Y-102307638D01*
X125148012Y-101938695D01*
X125326347Y-101541469D01*
X125516878Y-101116904D01*
X125719181Y-100665941D01*
X125932833Y-100189524D01*
X126157411Y-99688595D01*
X126392491Y-99164096D01*
X126637651Y-98616970D01*
X126892467Y-98048159D01*
X127156516Y-97458605D01*
X127429375Y-96849252D01*
X127710621Y-96221041D01*
X127933045Y-95724133D01*
X128222417Y-95077631D01*
X128495005Y-94468672D01*
X128751307Y-93896154D01*
X128991819Y-93358974D01*
X129217039Y-92856029D01*
X129427465Y-92386217D01*
X129623593Y-91948437D01*
X129805921Y-91541584D01*
X129974946Y-91164557D01*
X130131165Y-90816253D01*
X130275076Y-90495571D01*
X130407175Y-90201406D01*
X130527961Y-89932657D01*
X130637930Y-89688222D01*
X130737580Y-89466997D01*
X130827408Y-89267881D01*
X130907911Y-89089771D01*
X130979586Y-88931564D01*
X131042932Y-88792159D01*
X131098444Y-88670451D01*
X131146621Y-88565340D01*
X131187959Y-88475723D01*
X131222956Y-88400496D01*
X131252109Y-88338558D01*
X131275916Y-88288807D01*
X131294873Y-88250139D01*
X131309478Y-88221452D01*
X131320228Y-88201644D01*
X131327621Y-88189612D01*
X131332154Y-88184254D01*
X131334021Y-88183996D01*
X131345011Y-88206391D01*
G36*
X164254019Y-99759078D02*
X164307527Y-99799200D01*
X164390477Y-99866597D01*
X164503396Y-99961700D01*
X164646814Y-100084941D01*
X164684692Y-100117765D01*
X164759654Y-100182814D01*
X164502026Y-100534375D01*
X164146371Y-101009393D01*
X163783312Y-101474464D01*
X163420738Y-101919681D01*
X163081903Y-102317550D01*
X162829732Y-102602103D01*
X162555018Y-102903907D01*
X162262843Y-103217786D01*
X161958285Y-103538565D01*
X161646426Y-103861070D01*
X161332345Y-104180125D01*
X161021122Y-104490554D01*
X160717839Y-104787183D01*
X160427575Y-105064836D01*
X160155410Y-105318339D01*
X159981692Y-105475694D01*
X159835342Y-105605813D01*
X159701954Y-105723077D01*
X159584258Y-105825178D01*
X159484983Y-105909808D01*
X159406861Y-105974660D01*
X159352620Y-106017425D01*
X159324990Y-106035795D01*
X159323325Y-106032257D01*
X159346684Y-105997939D01*
X159391856Y-105936000D01*
X159459076Y-105846138D01*
X159548580Y-105728048D01*
X159660604Y-105581427D01*
X159795385Y-105405972D01*
X159953157Y-105201379D01*
X160134156Y-104967345D01*
X160338618Y-104703567D01*
X160566779Y-104409739D01*
X160818875Y-104085560D01*
X161095142Y-103730726D01*
X161395815Y-103344933D01*
X161721129Y-102927878D01*
X162071322Y-102479257D01*
X162446628Y-101998767D01*
X162847283Y-101486104D01*
X163273523Y-100940965D01*
X163725585Y-100363046D01*
X163997387Y-100015675D01*
X164069804Y-99924700D01*
X164134144Y-99846813D01*
X164185578Y-99787628D01*
X164219277Y-99752762D01*
X164229427Y-99745800D01*
X164254019Y-99759078D01*
X164254019Y-99759078D01*
G37*
X164254019Y-99759078D02*
X164307527Y-99799200D01*
X164390477Y-99866597D01*
X164503396Y-99961700D01*
X164646814Y-100084941D01*
X164684692Y-100117765D01*
X164759654Y-100182814D01*
X164502026Y-100534375D01*
X164146371Y-101009393D01*
X163783312Y-101474464D01*
X163420738Y-101919681D01*
X163081903Y-102317550D01*
X162829732Y-102602103D01*
X162555018Y-102903907D01*
X162262843Y-103217786D01*
X161958285Y-103538565D01*
X161646426Y-103861070D01*
X161332345Y-104180125D01*
X161021122Y-104490554D01*
X160717839Y-104787183D01*
X160427575Y-105064836D01*
X160155410Y-105318339D01*
X159981692Y-105475694D01*
X159835342Y-105605813D01*
X159701954Y-105723077D01*
X159584258Y-105825178D01*
X159484983Y-105909808D01*
X159406861Y-105974660D01*
X159352620Y-106017425D01*
X159324990Y-106035795D01*
X159323325Y-106032257D01*
X159346684Y-105997939D01*
X159391856Y-105936000D01*
X159459076Y-105846138D01*
X159548580Y-105728048D01*
X159660604Y-105581427D01*
X159795385Y-105405972D01*
X159953157Y-105201379D01*
X160134156Y-104967345D01*
X160338618Y-104703567D01*
X160566779Y-104409739D01*
X160818875Y-104085560D01*
X161095142Y-103730726D01*
X161395815Y-103344933D01*
X161721129Y-102927878D01*
X162071322Y-102479257D01*
X162446628Y-101998767D01*
X162847283Y-101486104D01*
X163273523Y-100940965D01*
X163725585Y-100363046D01*
X163997387Y-100015675D01*
X164069804Y-99924700D01*
X164134144Y-99846813D01*
X164185578Y-99787628D01*
X164219277Y-99752762D01*
X164229427Y-99745800D01*
X164254019Y-99759078D01*
G36*
X117899658Y-94346060D02*
X117928518Y-94398761D01*
X117972724Y-94482200D01*
X118030441Y-94592838D01*
X118099834Y-94727131D01*
X118179067Y-94881538D01*
X118266306Y-95052519D01*
X118359715Y-95236531D01*
X118389814Y-95296014D01*
X118471103Y-95456766D01*
X118569290Y-95650897D01*
X118682152Y-95874014D01*
X118807467Y-96121726D01*
X118943014Y-96389640D01*
X119086569Y-96673365D01*
X119235912Y-96968509D01*
X119388819Y-97270680D01*
X119543069Y-97575487D01*
X119696440Y-97878538D01*
X119846709Y-98175441D01*
X119876056Y-98233423D01*
X120013797Y-98505708D01*
X120146953Y-98769220D01*
X120274172Y-99021269D01*
X120394106Y-99259169D01*
X120505404Y-99480232D01*
X120606715Y-99681771D01*
X120696691Y-99861097D01*
X120773980Y-100015524D01*
X120837233Y-100142363D01*
X120885100Y-100238928D01*
X120916230Y-100302531D01*
X120928055Y-100327598D01*
X120983175Y-100452234D01*
X120835535Y-100312958D01*
X120714800Y-100210296D01*
X120601886Y-100141408D01*
X120486025Y-100102033D01*
X120356451Y-100087910D01*
X120271116Y-100089591D01*
X120110529Y-100111288D01*
X119974843Y-100160264D01*
X119853138Y-100241241D01*
X119793195Y-100296120D01*
X119759742Y-100332049D01*
X119728744Y-100372236D01*
X119698925Y-100420236D01*
X119669009Y-100479602D01*
X119637721Y-100553890D01*
X119603784Y-100646654D01*
X119565925Y-100761447D01*
X119522866Y-100901825D01*
X119473333Y-101071341D01*
X119416050Y-101273550D01*
X119349741Y-101512006D01*
X119326073Y-101597760D01*
X119270266Y-101799715D01*
X119213054Y-102005805D01*
X119156508Y-102208634D01*
X119102700Y-102400801D01*
X119053703Y-102574908D01*
X119011588Y-102723556D01*
X118978428Y-102839346D01*
X118976297Y-102846716D01*
X118936069Y-102986372D01*
X118895950Y-103126801D01*
X118858957Y-103257355D01*
X118828110Y-103367387D01*
X118808282Y-103439383D01*
X118772093Y-103568130D01*
X118735562Y-103689650D01*
X118700948Y-103797180D01*
X118670516Y-103883958D01*
X118646525Y-103943222D01*
X118631448Y-103968087D01*
X118620283Y-103952555D01*
X118600706Y-103902777D01*
X118575011Y-103825464D01*
X118545493Y-103727325D01*
X118528399Y-103666682D01*
X118406348Y-103189266D01*
X118293701Y-102679903D01*
X118191935Y-102148233D01*
X118102524Y-101603891D01*
X118026945Y-101056518D01*
X117966672Y-100515750D01*
X117923183Y-99991226D01*
X117900535Y-99565883D01*
X117895062Y-99402818D01*
X117889967Y-99212854D01*
X117885257Y-98999004D01*
X117880940Y-98764282D01*
X117877022Y-98511701D01*
X117873511Y-98244275D01*
X117870415Y-97965018D01*
X117867739Y-97676943D01*
X117865493Y-97383063D01*
X117863682Y-97086394D01*
X117862314Y-96789947D01*
X117861396Y-96496737D01*
X117860936Y-96209778D01*
X117860940Y-95932083D01*
X117861416Y-95666666D01*
X117862372Y-95416540D01*
X117863813Y-95184719D01*
X117865749Y-94974217D01*
X117868185Y-94788047D01*
X117871129Y-94629224D01*
X117874588Y-94500759D01*
X117878570Y-94405669D01*
X117883081Y-94346965D01*
X117887981Y-94327639D01*
X117899658Y-94346060D01*
X117899658Y-94346060D01*
G37*
X117899658Y-94346060D02*
X117928518Y-94398761D01*
X117972724Y-94482200D01*
X118030441Y-94592838D01*
X118099834Y-94727131D01*
X118179067Y-94881538D01*
X118266306Y-95052519D01*
X118359715Y-95236531D01*
X118389814Y-95296014D01*
X118471103Y-95456766D01*
X118569290Y-95650897D01*
X118682152Y-95874014D01*
X118807467Y-96121726D01*
X118943014Y-96389640D01*
X119086569Y-96673365D01*
X119235912Y-96968509D01*
X119388819Y-97270680D01*
X119543069Y-97575487D01*
X119696440Y-97878538D01*
X119846709Y-98175441D01*
X119876056Y-98233423D01*
X120013797Y-98505708D01*
X120146953Y-98769220D01*
X120274172Y-99021269D01*
X120394106Y-99259169D01*
X120505404Y-99480232D01*
X120606715Y-99681771D01*
X120696691Y-99861097D01*
X120773980Y-100015524D01*
X120837233Y-100142363D01*
X120885100Y-100238928D01*
X120916230Y-100302531D01*
X120928055Y-100327598D01*
X120983175Y-100452234D01*
X120835535Y-100312958D01*
X120714800Y-100210296D01*
X120601886Y-100141408D01*
X120486025Y-100102033D01*
X120356451Y-100087910D01*
X120271116Y-100089591D01*
X120110529Y-100111288D01*
X119974843Y-100160264D01*
X119853138Y-100241241D01*
X119793195Y-100296120D01*
X119759742Y-100332049D01*
X119728744Y-100372236D01*
X119698925Y-100420236D01*
X119669009Y-100479602D01*
X119637721Y-100553890D01*
X119603784Y-100646654D01*
X119565925Y-100761447D01*
X119522866Y-100901825D01*
X119473333Y-101071341D01*
X119416050Y-101273550D01*
X119349741Y-101512006D01*
X119326073Y-101597760D01*
X119270266Y-101799715D01*
X119213054Y-102005805D01*
X119156508Y-102208634D01*
X119102700Y-102400801D01*
X119053703Y-102574908D01*
X119011588Y-102723556D01*
X118978428Y-102839346D01*
X118976297Y-102846716D01*
X118936069Y-102986372D01*
X118895950Y-103126801D01*
X118858957Y-103257355D01*
X118828110Y-103367387D01*
X118808282Y-103439383D01*
X118772093Y-103568130D01*
X118735562Y-103689650D01*
X118700948Y-103797180D01*
X118670516Y-103883958D01*
X118646525Y-103943222D01*
X118631448Y-103968087D01*
X118620283Y-103952555D01*
X118600706Y-103902777D01*
X118575011Y-103825464D01*
X118545493Y-103727325D01*
X118528399Y-103666682D01*
X118406348Y-103189266D01*
X118293701Y-102679903D01*
X118191935Y-102148233D01*
X118102524Y-101603891D01*
X118026945Y-101056518D01*
X117966672Y-100515750D01*
X117923183Y-99991226D01*
X117900535Y-99565883D01*
X117895062Y-99402818D01*
X117889967Y-99212854D01*
X117885257Y-98999004D01*
X117880940Y-98764282D01*
X117877022Y-98511701D01*
X117873511Y-98244275D01*
X117870415Y-97965018D01*
X117867739Y-97676943D01*
X117865493Y-97383063D01*
X117863682Y-97086394D01*
X117862314Y-96789947D01*
X117861396Y-96496737D01*
X117860936Y-96209778D01*
X117860940Y-95932083D01*
X117861416Y-95666666D01*
X117862372Y-95416540D01*
X117863813Y-95184719D01*
X117865749Y-94974217D01*
X117868185Y-94788047D01*
X117871129Y-94629224D01*
X117874588Y-94500759D01*
X117878570Y-94405669D01*
X117883081Y-94346965D01*
X117887981Y-94327639D01*
X117899658Y-94346060D01*
G36*
X160111480Y-76751193D02*
X160287521Y-76755735D01*
X160441959Y-76764395D01*
X160561866Y-76776890D01*
X161043116Y-76864616D01*
X161499871Y-76986727D01*
X161932757Y-77143532D01*
X162342402Y-77335340D01*
X162729431Y-77562461D01*
X163094470Y-77825205D01*
X163438145Y-78123882D01*
X163590517Y-78274746D01*
X163875417Y-78591798D01*
X164124667Y-78920630D01*
X164344884Y-79270663D01*
X164510605Y-79584550D01*
X164689273Y-79989556D01*
X164827673Y-80391777D01*
X164927078Y-80796584D01*
X164988763Y-81209349D01*
X165013999Y-81635443D01*
X165014763Y-81711800D01*
X165010208Y-81994124D01*
X164993647Y-82252925D01*
X164963409Y-82505729D01*
X164917821Y-82770066D01*
X164910069Y-82809235D01*
X164804405Y-83232054D01*
X164659736Y-83647378D01*
X164478611Y-84050831D01*
X164263580Y-84438035D01*
X164017193Y-84804613D01*
X163741998Y-85146188D01*
X163440546Y-85458382D01*
X163286190Y-85597443D01*
X162918907Y-85886131D01*
X162532850Y-86136964D01*
X162127751Y-86350064D01*
X161703342Y-86525552D01*
X161259356Y-86663551D01*
X160795523Y-86764184D01*
X160688866Y-86781617D01*
X160603886Y-86791660D01*
X160488103Y-86801053D01*
X160350098Y-86809507D01*
X160198453Y-86816732D01*
X160041749Y-86822439D01*
X159888565Y-86826341D01*
X159747485Y-86828146D01*
X159627088Y-86827568D01*
X159535956Y-86824316D01*
X159503533Y-86821538D01*
X159151700Y-86773336D01*
X158832200Y-86713842D01*
X158535928Y-86640424D01*
X158253780Y-86550447D01*
X157976650Y-86441277D01*
X157695432Y-86310281D01*
X157640866Y-86282747D01*
X157258512Y-86064693D01*
X156897083Y-85812752D01*
X156558650Y-85529877D01*
X156245279Y-85219018D01*
X155959040Y-84883129D01*
X155702002Y-84525160D01*
X155476232Y-84148064D01*
X155283800Y-83754792D01*
X155126774Y-83348296D01*
X155007222Y-82931527D01*
X154927212Y-82507439D01*
X154912329Y-82389133D01*
X154879970Y-81921172D01*
X154888912Y-81461910D01*
X154939271Y-81010253D01*
X155031163Y-80565111D01*
X155146711Y-80177216D01*
X155272263Y-79854912D01*
X155430421Y-79524257D01*
X155615721Y-79195409D01*
X155822696Y-78878522D01*
X155912316Y-78754729D01*
X156005486Y-78637730D01*
X156121930Y-78503539D01*
X156253615Y-78360446D01*
X156392504Y-78216742D01*
X156530564Y-78080717D01*
X156659759Y-77960661D01*
X156772055Y-77864866D01*
X156783616Y-77855706D01*
X157168328Y-77579641D01*
X157569570Y-77342382D01*
X157988054Y-77143622D01*
X158424490Y-76983056D01*
X158879590Y-76860380D01*
X159270700Y-76787312D01*
X159398984Y-76772524D01*
X159557588Y-76761433D01*
X159736129Y-76754126D01*
X159924221Y-76750684D01*
X160111480Y-76751193D01*
X160111480Y-76751193D01*
G37*
X160111480Y-76751193D02*
X160287521Y-76755735D01*
X160441959Y-76764395D01*
X160561866Y-76776890D01*
X161043116Y-76864616D01*
X161499871Y-76986727D01*
X161932757Y-77143532D01*
X162342402Y-77335340D01*
X162729431Y-77562461D01*
X163094470Y-77825205D01*
X163438145Y-78123882D01*
X163590517Y-78274746D01*
X163875417Y-78591798D01*
X164124667Y-78920630D01*
X164344884Y-79270663D01*
X164510605Y-79584550D01*
X164689273Y-79989556D01*
X164827673Y-80391777D01*
X164927078Y-80796584D01*
X164988763Y-81209349D01*
X165013999Y-81635443D01*
X165014763Y-81711800D01*
X165010208Y-81994124D01*
X164993647Y-82252925D01*
X164963409Y-82505729D01*
X164917821Y-82770066D01*
X164910069Y-82809235D01*
X164804405Y-83232054D01*
X164659736Y-83647378D01*
X164478611Y-84050831D01*
X164263580Y-84438035D01*
X164017193Y-84804613D01*
X163741998Y-85146188D01*
X163440546Y-85458382D01*
X163286190Y-85597443D01*
X162918907Y-85886131D01*
X162532850Y-86136964D01*
X162127751Y-86350064D01*
X161703342Y-86525552D01*
X161259356Y-86663551D01*
X160795523Y-86764184D01*
X160688866Y-86781617D01*
X160603886Y-86791660D01*
X160488103Y-86801053D01*
X160350098Y-86809507D01*
X160198453Y-86816732D01*
X160041749Y-86822439D01*
X159888565Y-86826341D01*
X159747485Y-86828146D01*
X159627088Y-86827568D01*
X159535956Y-86824316D01*
X159503533Y-86821538D01*
X159151700Y-86773336D01*
X158832200Y-86713842D01*
X158535928Y-86640424D01*
X158253780Y-86550447D01*
X157976650Y-86441277D01*
X157695432Y-86310281D01*
X157640866Y-86282747D01*
X157258512Y-86064693D01*
X156897083Y-85812752D01*
X156558650Y-85529877D01*
X156245279Y-85219018D01*
X155959040Y-84883129D01*
X155702002Y-84525160D01*
X155476232Y-84148064D01*
X155283800Y-83754792D01*
X155126774Y-83348296D01*
X155007222Y-82931527D01*
X154927212Y-82507439D01*
X154912329Y-82389133D01*
X154879970Y-81921172D01*
X154888912Y-81461910D01*
X154939271Y-81010253D01*
X155031163Y-80565111D01*
X155146711Y-80177216D01*
X155272263Y-79854912D01*
X155430421Y-79524257D01*
X155615721Y-79195409D01*
X155822696Y-78878522D01*
X155912316Y-78754729D01*
X156005486Y-78637730D01*
X156121930Y-78503539D01*
X156253615Y-78360446D01*
X156392504Y-78216742D01*
X156530564Y-78080717D01*
X156659759Y-77960661D01*
X156772055Y-77864866D01*
X156783616Y-77855706D01*
X157168328Y-77579641D01*
X157569570Y-77342382D01*
X157988054Y-77143622D01*
X158424490Y-76983056D01*
X158879590Y-76860380D01*
X159270700Y-76787312D01*
X159398984Y-76772524D01*
X159557588Y-76761433D01*
X159736129Y-76754126D01*
X159924221Y-76750684D01*
X160111480Y-76751193D01*
G36*
X125686659Y-75106358D02*
X125730961Y-75147872D01*
X125785628Y-75217503D01*
X125857898Y-75315526D01*
X125868724Y-75330050D01*
X126092724Y-75663544D01*
X126287665Y-76024271D01*
X126451323Y-76406727D01*
X126581476Y-76805406D01*
X126675903Y-77214802D01*
X126706930Y-77406628D01*
X126725444Y-77589245D01*
X126734954Y-77798420D01*
X126735805Y-78022390D01*
X126728342Y-78249391D01*
X126712912Y-78467661D01*
X126689860Y-78665436D01*
X126665935Y-78802074D01*
X126575965Y-79148913D01*
X126453626Y-79499031D01*
X126303240Y-79843314D01*
X126129126Y-80172647D01*
X125935603Y-80477916D01*
X125763416Y-80706383D01*
X125658052Y-80826585D01*
X125528276Y-80961780D01*
X125384155Y-81102396D01*
X125235755Y-81238864D01*
X125093145Y-81361613D01*
X124980700Y-81450484D01*
X124621641Y-81693181D01*
X124245261Y-81898299D01*
X123853918Y-82064894D01*
X123449973Y-82192018D01*
X123035786Y-82278725D01*
X122853450Y-82303538D01*
X122729116Y-82313664D01*
X122575001Y-82319986D01*
X122402470Y-82322603D01*
X122222887Y-82321617D01*
X122047617Y-82317126D01*
X121888023Y-82309231D01*
X121755470Y-82298031D01*
X121719073Y-82293556D01*
X121321844Y-82218745D01*
X120928653Y-82104200D01*
X120547416Y-81952342D01*
X120443580Y-81903314D01*
X120354776Y-81859429D01*
X120278644Y-81820992D01*
X120224124Y-81792565D01*
X120201502Y-81779716D01*
X120195664Y-81762808D01*
X120205758Y-81726984D01*
X120233790Y-81667851D01*
X120281769Y-81581016D01*
X120330088Y-81498375D01*
X120874457Y-80621295D01*
X121457715Y-79760131D01*
X122079207Y-78915686D01*
X122738278Y-78088766D01*
X123434274Y-77280176D01*
X124166538Y-76490721D01*
X124934415Y-75721205D01*
X125367351Y-75310796D01*
X125468375Y-75215900D01*
X125543581Y-75147730D01*
X125600206Y-75106565D01*
X125645486Y-75092681D01*
X125686659Y-75106358D01*
X125686659Y-75106358D01*
G37*
X125686659Y-75106358D02*
X125730961Y-75147872D01*
X125785628Y-75217503D01*
X125857898Y-75315526D01*
X125868724Y-75330050D01*
X126092724Y-75663544D01*
X126287665Y-76024271D01*
X126451323Y-76406727D01*
X126581476Y-76805406D01*
X126675903Y-77214802D01*
X126706930Y-77406628D01*
X126725444Y-77589245D01*
X126734954Y-77798420D01*
X126735805Y-78022390D01*
X126728342Y-78249391D01*
X126712912Y-78467661D01*
X126689860Y-78665436D01*
X126665935Y-78802074D01*
X126575965Y-79148913D01*
X126453626Y-79499031D01*
X126303240Y-79843314D01*
X126129126Y-80172647D01*
X125935603Y-80477916D01*
X125763416Y-80706383D01*
X125658052Y-80826585D01*
X125528276Y-80961780D01*
X125384155Y-81102396D01*
X125235755Y-81238864D01*
X125093145Y-81361613D01*
X124980700Y-81450484D01*
X124621641Y-81693181D01*
X124245261Y-81898299D01*
X123853918Y-82064894D01*
X123449973Y-82192018D01*
X123035786Y-82278725D01*
X122853450Y-82303538D01*
X122729116Y-82313664D01*
X122575001Y-82319986D01*
X122402470Y-82322603D01*
X122222887Y-82321617D01*
X122047617Y-82317126D01*
X121888023Y-82309231D01*
X121755470Y-82298031D01*
X121719073Y-82293556D01*
X121321844Y-82218745D01*
X120928653Y-82104200D01*
X120547416Y-81952342D01*
X120443580Y-81903314D01*
X120354776Y-81859429D01*
X120278644Y-81820992D01*
X120224124Y-81792565D01*
X120201502Y-81779716D01*
X120195664Y-81762808D01*
X120205758Y-81726984D01*
X120233790Y-81667851D01*
X120281769Y-81581016D01*
X120330088Y-81498375D01*
X120874457Y-80621295D01*
X121457715Y-79760131D01*
X122079207Y-78915686D01*
X122738278Y-78088766D01*
X123434274Y-77280176D01*
X124166538Y-76490721D01*
X124934415Y-75721205D01*
X125367351Y-75310796D01*
X125468375Y-75215900D01*
X125543581Y-75147730D01*
X125600206Y-75106565D01*
X125645486Y-75092681D01*
X125686659Y-75106358D01*
D12*
X176632995Y-114113371D03*
D13*
X148084401Y-119228001D03*
D14*
X148084401Y-121768001D03*
X145544401Y-119228001D03*
X145544401Y-121768001D03*
M02*
