G04 #@! TF.FileFunction,Profile,NP*
%FSLAX46Y46*%
G04 Gerber Fmt 4.6, Leading zero omitted, Abs format (unit mm)*
G04 Created by KiCad (PCBNEW 4.0.7) date 07/17/18 15:25:19*
%MOMM*%
%LPD*%
G01*
G04 APERTURE LIST*
%ADD10C,0.100000*%
G04 APERTURE END LIST*
D10*
X184402817Y-108365598D02*
X184214268Y-107748731D01*
X184214268Y-107748731D02*
X183993043Y-107143446D01*
X183993043Y-107143446D02*
X183739554Y-106551397D01*
X183739554Y-106551397D02*
X183454215Y-105974239D01*
X183454215Y-105974239D02*
X183137439Y-105413627D01*
X183137439Y-105413627D02*
X182789642Y-104871214D01*
X182789642Y-104871214D02*
X182411235Y-104348657D01*
X182411235Y-104348657D02*
X182002633Y-103847608D01*
X182002633Y-103847608D02*
X181536467Y-103331665D01*
X181536467Y-103331665D02*
X181039692Y-102843850D01*
X181039692Y-102843850D02*
X180514789Y-102385818D01*
X180514789Y-102385818D02*
X179964242Y-101959222D01*
X179964242Y-101959222D02*
X179390531Y-101565717D01*
X179390531Y-101565717D02*
X178796138Y-101206959D01*
X178796138Y-101206959D02*
X178183544Y-100884601D01*
X178183544Y-100884601D02*
X177555233Y-100600298D01*
X177555233Y-100600298D02*
X177700023Y-99724358D01*
X177700023Y-99724358D02*
X177816788Y-98844281D01*
X177816788Y-98844281D02*
X177905638Y-97960895D01*
X177905638Y-97960895D02*
X177966668Y-97075027D01*
X177966668Y-97075027D02*
X177999978Y-96187504D01*
X177999978Y-96187504D02*
X178005678Y-95299154D01*
X178005678Y-95299154D02*
X177983878Y-94410804D01*
X177983878Y-94410804D02*
X177934668Y-93523282D01*
X177934668Y-93523282D02*
X177858168Y-92637414D01*
X177858168Y-92637414D02*
X177754467Y-91754027D01*
X177754467Y-91754027D02*
X177623672Y-90873950D01*
X177623672Y-90873950D02*
X177465888Y-89998010D01*
X177465888Y-89998010D02*
X177281217Y-89127033D01*
X177281217Y-89127033D02*
X177069764Y-88261847D01*
X177069764Y-88261847D02*
X176831631Y-87403280D01*
X176831631Y-87403280D02*
X176566922Y-86552158D01*
X176566922Y-86552158D02*
X176275008Y-85703475D01*
X176275008Y-85703475D02*
X175955639Y-84865287D01*
X175955639Y-84865287D02*
X175609487Y-84038164D01*
X175609487Y-84038164D02*
X175237225Y-83222675D01*
X175237225Y-83222675D02*
X174839524Y-82419388D01*
X174839524Y-82419388D02*
X174417056Y-81628871D01*
X174417056Y-81628871D02*
X173970494Y-80851695D01*
X173970494Y-80851695D02*
X173500510Y-80088427D01*
X173500510Y-80088427D02*
X173007777Y-79339636D01*
X173007777Y-79339636D02*
X172492965Y-78605891D01*
X172492965Y-78605891D02*
X171956748Y-77887761D01*
X171956748Y-77887761D02*
X171399798Y-77185814D01*
X171399798Y-77185814D02*
X170822787Y-76500620D01*
X170822787Y-76500620D02*
X170226386Y-75832747D01*
X170226386Y-75832747D02*
X169611268Y-75182763D01*
X169611268Y-75182763D02*
X168978106Y-74551238D01*
X168978106Y-74551238D02*
X168129603Y-73760437D01*
X168129603Y-73760437D02*
X167252973Y-73003140D01*
X167252973Y-73003140D02*
X166349870Y-72279763D01*
X166349870Y-72279763D02*
X165421950Y-71590717D01*
X165421950Y-71590717D02*
X164470866Y-70936416D01*
X164470866Y-70936416D02*
X163498273Y-70317274D01*
X163498273Y-70317274D02*
X162505825Y-69733703D01*
X162505825Y-69733703D02*
X161495178Y-69186118D01*
X161495178Y-69186118D02*
X160782563Y-68831220D01*
X160782563Y-68831220D02*
X160061313Y-68494522D01*
X160061313Y-68494522D02*
X159331895Y-68176024D01*
X159331895Y-68176024D02*
X158594772Y-67875726D01*
X158594772Y-67875726D02*
X157850410Y-67593627D01*
X157850410Y-67593627D02*
X157099276Y-67329728D01*
X157099276Y-67329728D02*
X156341833Y-67084029D01*
X156341833Y-67084029D02*
X155578548Y-66856531D01*
X155578548Y-66856531D02*
X154809885Y-66647231D01*
X154809885Y-66647231D02*
X154036311Y-66456132D01*
X154036311Y-66456132D02*
X153258290Y-66283233D01*
X153258290Y-66283233D02*
X152476287Y-66128534D01*
X152476287Y-66128534D02*
X151690769Y-65992035D01*
X151690769Y-65992035D02*
X150902201Y-65873736D01*
X150902201Y-65873736D02*
X150111047Y-65773637D01*
X150111047Y-65773637D02*
X149317773Y-65691738D01*
X149317773Y-65691738D02*
X148450062Y-65629709D01*
X148450062Y-65629709D02*
X147581265Y-65589293D01*
X147581265Y-65589293D02*
X146711952Y-65570592D01*
X146711952Y-65570592D02*
X145842690Y-65573712D01*
X145842690Y-65573712D02*
X144974048Y-65598754D01*
X144974048Y-65598754D02*
X144106596Y-65645822D01*
X144106596Y-65645822D02*
X143240902Y-65715019D01*
X143240902Y-65715019D02*
X142377534Y-65806449D01*
X142377534Y-65806449D02*
X141517062Y-65920216D01*
X141517062Y-65920216D02*
X140660054Y-66056422D01*
X140660054Y-66056422D02*
X139807079Y-66215172D01*
X139807079Y-66215172D02*
X138958706Y-66396568D01*
X138958706Y-66396568D02*
X138115503Y-66600715D01*
X138115503Y-66600715D02*
X137278039Y-66827715D01*
X137278039Y-66827715D02*
X136446883Y-67077672D01*
X136446883Y-67077672D02*
X135622604Y-67350689D01*
X135622604Y-67350689D02*
X134956713Y-67583522D01*
X134956713Y-67583522D02*
X134296147Y-67831814D01*
X134296147Y-67831814D02*
X133641268Y-68095308D01*
X133641268Y-68095308D02*
X132992439Y-68373744D01*
X132992439Y-68373744D02*
X132350021Y-68666864D01*
X132350021Y-68666864D02*
X131714377Y-68974410D01*
X131714377Y-68974410D02*
X131085868Y-69296123D01*
X131085868Y-69296123D02*
X130464856Y-69631744D01*
X130464856Y-69631744D02*
X129851702Y-69981015D01*
X129851702Y-69981015D02*
X129246770Y-70343678D01*
X129246770Y-70343678D02*
X128650421Y-70719474D01*
X128650421Y-70719474D02*
X128063017Y-71108144D01*
X128063017Y-71108144D02*
X127484919Y-71509430D01*
X127484919Y-71509430D02*
X126916491Y-71923074D01*
X126916491Y-71923074D02*
X126358093Y-72348816D01*
X126358093Y-72348816D02*
X125810087Y-72786399D01*
X125810087Y-72786399D02*
X124794683Y-73654826D01*
X124794683Y-73654826D02*
X123815265Y-74565029D01*
X123815265Y-74565029D02*
X122874728Y-75515768D01*
X122874728Y-75515768D02*
X121975969Y-76505803D01*
X121975969Y-76505803D02*
X121121882Y-77533892D01*
X121121882Y-77533892D02*
X120712496Y-78061819D01*
X120712496Y-78061819D02*
X120315364Y-78598794D01*
X120315364Y-78598794D02*
X119930847Y-79144663D01*
X119930847Y-79144663D02*
X119559308Y-79699270D01*
X119559308Y-79699270D02*
X119201110Y-80262461D01*
X119201110Y-80262461D02*
X118856612Y-80834079D01*
X118856612Y-80834079D02*
X118512908Y-81414339D01*
X118512908Y-81414339D02*
X118183422Y-82003285D01*
X118183422Y-82003285D02*
X117868310Y-82600504D01*
X117868310Y-82600504D02*
X117567727Y-83205582D01*
X117567727Y-83205582D02*
X117281827Y-83818106D01*
X117281827Y-83818106D02*
X117010767Y-84437662D01*
X117010767Y-84437662D02*
X116754702Y-85063836D01*
X116754702Y-85063836D02*
X116513785Y-85696214D01*
X116513785Y-85696214D02*
X116288174Y-86334383D01*
X116288174Y-86334383D02*
X116078021Y-86977930D01*
X116078021Y-86977930D02*
X115883484Y-87626440D01*
X115883484Y-87626440D02*
X115704716Y-88279501D01*
X115704716Y-88279501D02*
X115541873Y-88936697D01*
X115541873Y-88936697D02*
X115395110Y-89597617D01*
X115395110Y-89597617D02*
X115264583Y-90261845D01*
X115264583Y-90261845D02*
X115150445Y-90928969D01*
X115150445Y-90928969D02*
X115052405Y-91585742D01*
X115052405Y-91585742D02*
X114970032Y-92245360D01*
X114970032Y-92245360D02*
X114903273Y-92907356D01*
X114903273Y-92907356D02*
X114852077Y-93571265D01*
X114852077Y-93571265D02*
X114816392Y-94236622D01*
X114816392Y-94236622D02*
X114796167Y-94902962D01*
X114796167Y-94902962D02*
X114791350Y-95569818D01*
X114791350Y-95569818D02*
X114801889Y-96236727D01*
X114801889Y-96236727D02*
X114827733Y-96903221D01*
X114827733Y-96903221D02*
X114868829Y-97568837D01*
X114868829Y-97568837D02*
X114925127Y-98233108D01*
X114925127Y-98233108D02*
X114996573Y-98895569D01*
X114996573Y-98895569D02*
X115083118Y-99555755D01*
X115083118Y-99555755D02*
X115184708Y-100213201D01*
X115184708Y-100213201D02*
X115301293Y-100867441D01*
X115301293Y-100867441D02*
X115432820Y-101518009D01*
X115432820Y-101518009D02*
X115609795Y-102302598D01*
X115609795Y-102302598D02*
X115809572Y-103080930D01*
X115809572Y-103080930D02*
X116031789Y-103852540D01*
X116031789Y-103852540D02*
X116276083Y-104616964D01*
X116276083Y-104616964D02*
X116542094Y-105373735D01*
X116542094Y-105373735D02*
X116829458Y-106122388D01*
X116829458Y-106122388D02*
X117137814Y-106862458D01*
X117137814Y-106862458D02*
X117466800Y-107593480D01*
X117466800Y-107593480D02*
X117816054Y-108314989D01*
X117816054Y-108314989D02*
X118185214Y-109026518D01*
X118185214Y-109026518D02*
X118573919Y-109727603D01*
X118573919Y-109727603D02*
X118981806Y-110417779D01*
X118981806Y-110417779D02*
X119408513Y-111096579D01*
X119408513Y-111096579D02*
X119853679Y-111763540D01*
X119853679Y-111763540D02*
X120316941Y-112418195D01*
X120316941Y-112418195D02*
X120797938Y-113060079D01*
X120797938Y-113060079D02*
X121214416Y-113591168D01*
X121214416Y-113591168D02*
X121642993Y-114112227D01*
X121642993Y-114112227D02*
X122083359Y-114623151D01*
X122083359Y-114623151D02*
X122535203Y-115123839D01*
X122535203Y-115123839D02*
X122998216Y-115614185D01*
X122998216Y-115614185D02*
X123472086Y-116094087D01*
X123472086Y-116094087D02*
X124451159Y-117022145D01*
X124451159Y-117022145D02*
X125469941Y-117907186D01*
X125469941Y-117907186D02*
X126525950Y-118748381D01*
X126525950Y-118748381D02*
X127616705Y-119544905D01*
X127616705Y-119544905D02*
X128739723Y-120295929D01*
X128739723Y-120295929D02*
X129366319Y-120685564D01*
X129366319Y-120685564D02*
X130001654Y-121060257D01*
X130001654Y-121060257D02*
X130645364Y-121419955D01*
X130645364Y-121419955D02*
X131297089Y-121764607D01*
X131297089Y-121764607D02*
X131956465Y-122094162D01*
X131956465Y-122094162D02*
X132623133Y-122408566D01*
X132623133Y-122408566D02*
X133296728Y-122707770D01*
X133296728Y-122707770D02*
X133976890Y-122991722D01*
X133976890Y-122991722D02*
X134663256Y-123260368D01*
X134663256Y-123260368D02*
X135355466Y-123513659D01*
X135355466Y-123513659D02*
X136053155Y-123751541D01*
X136053155Y-123751541D02*
X136755964Y-123973965D01*
X136755964Y-123973965D02*
X137463529Y-124180877D01*
X137463529Y-124180877D02*
X138175489Y-124372226D01*
X138175489Y-124372226D02*
X138891482Y-124547961D01*
X138891482Y-124547961D02*
X139611146Y-124708029D01*
X139611146Y-124708029D02*
X140325975Y-124845426D01*
X140325975Y-124845426D02*
X141041218Y-124966691D01*
X141041218Y-124966691D02*
X141757289Y-125072238D01*
X141757289Y-125072238D02*
X142474600Y-125162478D01*
X142474600Y-125162478D02*
X143914600Y-125298701D01*
X143914600Y-125298701D02*
X145364527Y-125378671D01*
X145364527Y-125378671D02*
X147376448Y-125378671D01*
X147376448Y-125378671D02*
X148198547Y-125342271D01*
X148198547Y-125342271D02*
X149022714Y-125286011D01*
X149022714Y-125286011D02*
X149847708Y-125209901D01*
X149847708Y-125209901D02*
X150672289Y-125113941D01*
X150672289Y-125113941D02*
X151495215Y-124998123D01*
X151495215Y-124998123D02*
X152315246Y-124862451D01*
X152315246Y-124862451D02*
X153131140Y-124706923D01*
X153131140Y-124706923D02*
X153941658Y-124531541D01*
X153941658Y-124531541D02*
X154654290Y-124358237D01*
X154654290Y-124358237D02*
X155362423Y-124169266D01*
X155362423Y-124169266D02*
X156065697Y-123964681D01*
X156065697Y-123964681D02*
X156763748Y-123744533D01*
X156763748Y-123744533D02*
X157456216Y-123508873D01*
X157456216Y-123508873D02*
X158142737Y-123257754D01*
X158142737Y-123257754D02*
X158822951Y-122991227D01*
X158822951Y-122991227D02*
X159496495Y-122709343D01*
X159496495Y-122709343D02*
X160163007Y-122412156D01*
X160163007Y-122412156D02*
X160822125Y-122099715D01*
X160822125Y-122099715D02*
X161473488Y-121772074D01*
X161473488Y-121772074D02*
X162116733Y-121429283D01*
X162116733Y-121429283D02*
X162751498Y-121071395D01*
X162751498Y-121071395D02*
X163377423Y-120698460D01*
X163377423Y-120698460D02*
X163994143Y-120310532D01*
X163994143Y-120310532D02*
X164601299Y-119907661D01*
X164601299Y-119907661D02*
X164966004Y-120256709D01*
X164966004Y-120256709D02*
X165344876Y-120588849D01*
X165344876Y-120588849D02*
X165737191Y-120903720D01*
X165737191Y-120903720D02*
X166142225Y-121200959D01*
X166142225Y-121200959D02*
X166559255Y-121480206D01*
X166559255Y-121480206D02*
X166987557Y-121741097D01*
X166987557Y-121741097D02*
X167426406Y-121983272D01*
X167426406Y-121983272D02*
X167875079Y-122206367D01*
X167875079Y-122206367D02*
X168332852Y-122410022D01*
X168332852Y-122410022D02*
X168799001Y-122593874D01*
X168799001Y-122593874D02*
X169272802Y-122757561D01*
X169272802Y-122757561D02*
X169753532Y-122900722D01*
X169753532Y-122900722D02*
X170240466Y-123022994D01*
X170240466Y-123022994D02*
X170732881Y-123124016D01*
X170732881Y-123124016D02*
X171230053Y-123203426D01*
X171230053Y-123203426D02*
X171731257Y-123260866D01*
X171731257Y-123260866D02*
X172486967Y-123315536D01*
X172486967Y-123315536D02*
X173243505Y-123320936D01*
X173243505Y-123320936D02*
X173998388Y-123277576D01*
X173998388Y-123277576D02*
X174749135Y-123185816D01*
X174749135Y-123185816D02*
X175493264Y-123046076D01*
X175493264Y-123046076D02*
X176228293Y-122858768D01*
X176228293Y-122858768D02*
X176951741Y-122624306D01*
X176951741Y-122624306D02*
X177661125Y-122343102D01*
X177661125Y-122343102D02*
X178274683Y-122058868D01*
X178274683Y-122058868D02*
X178870041Y-121736993D01*
X178870041Y-121736993D02*
X179445545Y-121379544D01*
X179445545Y-121379544D02*
X179999539Y-120988591D01*
X179999539Y-120988591D02*
X180530370Y-120566201D01*
X180530370Y-120566201D02*
X181036383Y-120114442D01*
X181036383Y-120114442D02*
X181515924Y-119635383D01*
X181515924Y-119635383D02*
X181967338Y-119131092D01*
X181967338Y-119131092D02*
X182364289Y-118631629D01*
X182364289Y-118631629D02*
X182733940Y-118113551D01*
X182733940Y-118113551D02*
X183075464Y-117578101D01*
X183075464Y-117578101D02*
X183388033Y-117026518D01*
X183388033Y-117026518D02*
X183670821Y-116460045D01*
X183670821Y-116460045D02*
X183923000Y-115879922D01*
X183923000Y-115879922D02*
X184143743Y-115287391D01*
X184143743Y-115287391D02*
X184332223Y-114683692D01*
X184332223Y-114683692D02*
X184430113Y-114313007D01*
X184430113Y-114313007D02*
X184513113Y-113941908D01*
X184513113Y-113941908D02*
X184641064Y-113196814D01*
X184641064Y-113196814D02*
X184729304Y-112445102D01*
X184729304Y-112445102D02*
X184791074Y-111683462D01*
X184791074Y-111683462D02*
X184791074Y-111224602D01*
X184791074Y-111224602D02*
X184765154Y-110524735D01*
X184765154Y-110524735D02*
X184689594Y-109808319D01*
X184689594Y-109808319D02*
X184567709Y-109085285D01*
X184567709Y-109085285D02*
X184402807Y-108365562D01*
X184402807Y-108365562D02*
X184402807Y-108365562D01*
X184402807Y-108365562D02*
X184402817Y-108365598D01*
M02*
